<svg version="1.0" xmlns="http://www.w3.org/2000/svg" width="488pt" height="440pt" viewBox="0 0 488 440"><path d="M337 43.561c-9.254 2.591-31.395 8.24-37 9.44-1.925.412-7.775 1.909-13 3.326s-19.4 5.102-31.5 8.189c-73.803 18.827-68.731 17.397-74.5 21.012-1.925 1.207-6.2 4.765-9.5 7.909a187022.101 187022.101 0 0 0-30.502 29.057 32312.972 32312.972 0 0 1-27.64 26.28c-13.91 13.209-17.227 16.88-17.61 19.489-1.094 7.451 2.943 12.648 9.867 12.704 4.16.033 6.744-1.401 12.511-6.943 5.173-4.971 16.7-15.924 36.874-35.036 11.275-10.682 21.491-20.449 22.702-21.705 2.451-2.541 7.405-3.064 9.147-.965.748.901 1.181 16.188 1.372 48.415l.279 47.097 3.042 4.326c1.672 2.38 4.822 5.336 7 6.569 3.887 2.202 4.577 2.242 38.398 2.259l34.44.016 14.56 14.798c8.008 8.138 22.536 22.988 32.284 32.998 9.748 10.011 19.198 19.1 21 20.199 9.419 5.743 21.776-1.923 21.776-13.51 0-2.63-.729-5.669-1.726-7.19-1.733-2.645-24.232-26.005-57.779-59.991l-18.005-18.241-12.995-.281-12.995-.282-.259-52.941c-.142-29.118.107-53.307.554-53.754.743-.743 7.357-2.739 16.205-4.891 1.925-.468 6.2-1.523 9.5-2.345 3.3-.822 8.7-2.154 12-2.959 3.3-.805 9.6-2.444 14-3.643 4.4-1.199 9.575-2.568 11.5-3.042 1.925-.474 6.2-1.534 9.5-2.356 3.3-.822 8.7-2.109 12-2.859 6.78-1.541 9.314-2.711 11.627-5.367 2.313-2.657 2.963-6.435 1.819-10.577-.786-2.848-1.906-4.052-5.288-5.689-2.359-1.142-4.485-2.036-4.724-1.987-.239.05-4.259 1.162-8.934 2.471" fill="#000000FF" stroke="#000000FF"/><path d="M225 257.429v18.429l-6.112 9.321A3787.046 3787.046 0 0 0 207.93 302c-2.665 4.125-5.315 8.044-5.888 8.708-.573.664-1.042 1.429-1.042 1.7 0 .27-1.283 2.427-2.85 4.792-20.063 30.271-21.36 32.891-19.262 38.91.612 1.754 1.112 3.571 1.112 4.039 0 1.142-5.732 1.093-6.442-.055-.308-.499-2.809-1.216-5.558-1.594-2.749-.378-5.25-1.095-5.558-1.594-.308-.498-1.382-.906-2.386-.906-1.75 0-8.017-1.708-16.556-4.51-2.2-.722-7.375-2.285-11.5-3.472-4.125-1.188-8.4-2.551-9.5-3.03-1.1-.479-3.56-1.18-5.467-1.557-1.907-.377-4.157-1.027-5-1.444-.843-.417-6.933-2.428-13.533-4.468-6.6-2.041-12.9-4.05-14-4.465-1.1-.415-9.2-3.093-18-5.952-8.8-2.858-16.9-5.568-18-6.023-1.1-.455-5.375-1.852-9.5-3.104-4.125-1.253-7.95-2.572-8.5-2.933-.55-.36-4.375-1.71-8.5-3-4.125-1.289-8.062-2.781-8.75-3.316-1.747-1.357-4.425 1.057-4.048 3.649.22 1.516 1.992 2.673 6.798 4.439 3.575 1.314 7.19 2.736 8.033 3.16.843.425 3.093 1.106 5 1.514 1.907.409 3.917 1.089 4.467 1.512.55.423 2.575 1.098 4.5 1.5 1.925.402 3.95 1.077 4.5 1.5.55.423 2.575 1.098 4.5 1.5 1.925.402 3.95 1.032 4.5 1.401.55.368 4.375 1.724 8.5 3.013s8.19 2.678 9.033 3.087c.843.41 3.078 1.084 4.967 1.499 1.889.415 4.124 1.109 4.967 1.543.843.434 4.683 1.754 8.533 2.934 3.85 1.18 7.9 2.542 9 3.026 1.1.484 3.575 1.184 5.5 1.554 1.925.371 3.95 1.013 4.5 1.428.55.415 2.743 1.069 4.873 1.453 2.13.384 4.605 1.094 5.5 1.578.895.483 5.002 1.826 9.127 2.984 4.125 1.158 8.281 2.532 9.236 3.053.955.521 2.402.947 3.215.947.814 0 3.407.626 5.764 1.391s6.76 2.092 9.785 2.949l13 3.679c4.125 1.167 8.4 2.514 9.5 2.993 1.1.479 4.25 1.372 7 1.984 7.505 1.67 14.718 3.48 28 7.025 6.6 1.761 14.475 3.745 17.5 4.408 3.025.663 6.175 1.481 7 1.818.825.337 3.975 1.068 7 1.623 3.025.555 8.425 1.682 12 2.505 17.074 3.93 20.992 4.814 27.5 6.207 3.85.824 10.15 2.122 14 2.885 7.781 1.542 19.379 3.923 30 6.16 10.004 2.107 24.78 4.821 48 8.818a2065.1 2065.1 0 0 1 17.5 3.104c12.915 2.363 40.1 6.544 55 8.459 4.125.53 8.4 1.206 9.5 1.503 1.1.297 7.368 1.192 13.929 1.988 8.691 1.056 12.287 1.152 13.25.353 3.239-2.689-.32-5.852-6.584-5.852-2.619 0-5.097-.337-5.506-.75-.41-.412-5.322-1.282-10.917-1.933-10.966-1.276-25.53-3.352-40.672-5.797a3517.77 3517.77 0 0 0-17.5-2.777c-4.4-.684-8.45-1.526-9-1.871-.55-.346-4.567-.954-8.927-1.352-4.359-.398-8.634-1.083-9.5-1.522-.865-.439-4.948-1.282-9.073-1.874-4.125-.592-10.875-1.72-15-2.506a871.886 871.886 0 0 0-14.5-2.619c-3.85-.654-7.675-1.451-8.5-1.773-.825-.322-4.65-1.146-8.5-1.833-11.324-2.018-28.789-5.624-43-8.877-3.85-.881-9.475-2.064-12.5-2.629-3.025-.565-6.175-1.3-7-1.633-.825-.334-4.2-1.157-7.5-1.829-5.721-1.167-11.683-2.592-25-5.978-3.3-.839-8.475-2.008-11.5-2.597-3.025-.59-5.927-1.472-6.45-1.961-.522-.489-1.985-.889-3.25-.889-2.781 0-3.042-2.359-.463-4.193 1.582-1.126 13.109-18.13 27.663-40.807 9.918-15.455 19.963-30.83 22.867-35l3.133-4.5.319-22.25.318-22.25H225v18.429M215.5 10.391C202.851 13.479 195 23.31 195 36.061c0 7.865 2.392 14.13 7.185 18.816 10.669 10.43 29.013 10.245 38.692-.391 5.024-5.522 6.627-10.142 6.586-18.986-.035-7.332-.312-8.417-3.325-13-4.217-6.414-9.2-9.943-16.832-11.921-3.352-.868-6.255-1.541-6.45-1.494-.196.047-2.606.634-5.356 1.306" fill="#000000FF" stroke="#000000FF"/></svg>