<svg version="1.0" xmlns="http://www.w3.org/2000/svg" width="800pt" height="712pt" viewBox="0 0 800 712"><path d="M439 15.121c-1.925 1.032-4.737 1.877-6.25 1.877-1.512.001-2.75.417-2.75.924 0 .508-1.535 1.43-3.412 2.049-1.876.619-3.662 1.779-3.968 2.577-.307.799-1.06 1.452-1.674 1.452-.614 0-2.541 1.661-4.281 3.692-1.741 2.031-4.177 4.751-5.415 6.046-1.237 1.294-2.25 3.248-2.25 4.343 0 1.094-.645 2.986-1.434 4.204-.841 1.3-1.719 6.348-2.125 12.215-.381 5.5-1.311 11.517-2.067 13.372-.756 1.855-1.374 6.257-1.374 9.782 0 3.597-.692 8.042-1.576 10.128-.867 2.045-1.82 7.093-2.116 11.218-.297 4.125-1.092 8.4-1.767 9.5-.675 1.1-1.508 5.052-1.85 8.781-.342 3.73-1.312 7.768-2.156 8.973-.844 1.205-1.535 3.566-1.535 5.246 0 1.68-.611 3.943-1.358 5.027-.747 1.085-1.659 3.615-2.027 5.623-.367 2.007-1.331 4.199-2.141 4.872-.811.673-1.474 2.091-1.474 3.152 0 1.65-1.506 5.105-5.156 11.826a190.85 190.85 0 0 0-2.309 4.5c-1.412 2.835-2.11 4.093-4.571 8.25-.57.963-1.569 2.988-2.22 4.5-.65 1.513-1.759 2.75-2.463 2.75-.705 0-1.281.808-1.281 1.797 0 1.765-1.79 4.602-5.25 8.322-.962 1.034-1.75 2.486-1.75 3.226 0 .74-.9 2.16-2 3.155-1.1.995-2 2.415-2 3.155 0 .74-.374 1.345-.832 1.345-.457 0-2.229 2.138-3.938 4.75-1.708 2.613-4.484 6.24-6.168 8.062-1.684 1.821-3.062 3.711-3.062 4.2 0 .489-.573 1.248-1.274 1.688-.701.44-2.017 1.97-2.925 3.4-.908 1.43-3.71 4.749-6.226 7.375-2.516 2.627-4.575 5.016-4.575 5.309 0 .294-2.25 2.725-5 5.404s-5 5.089-5 5.357c0 .889-22.973 23.455-23.878 23.455-.489 0-1.124.9-1.412 2-.287 1.1-1.24 2-2.116 2-.877 0-1.594.675-1.594 1.5s-.509 1.5-1.132 1.5c-.622 0-2.617 1.575-4.433 3.5-1.815 1.925-3.781 3.5-4.368 3.5-.587 0-1.067.384-1.067.852 0 1.111-11.502 10.148-12.916 10.148-.596 0-1.084.645-1.084 1.433s-.858 1.705-1.908 2.038c-1.049.333-2.16 1.263-2.468 2.067-.309.804-1.181 1.462-1.938 1.462-.757 0-2.191.9-3.186 2-.995 1.1-2.429 2-3.186 2-.757 0-1.636.675-1.952 1.5-.317.825-1.103 1.5-1.747 1.5-.644 0-1.941.9-2.883 2s-2.617 2-3.722 2c-1.106 0-2.01.46-2.01 1.021 0 .562-1.075 1.512-2.39 2.111-1.314.599-2.889 2.185-3.5 3.525-.799 1.755-1.11 48.884-1.11 168.345v165.907l2.545 2.546c1.4 1.4 3.242 2.545 4.093 2.545.85 0 2.691.9 4.089 2 1.399 1.1 3.327 2 4.285 2 .959 0 2.257.619 2.884 1.375.628.757 2.95 1.665 5.161 2.018 2.211.354 4.275 1.31 4.588 2.125.337.878 1.861 1.482 3.739 1.482 1.744 0 4.099.65 5.233 1.444 1.134.795 4.422 1.758 7.308 2.14 2.953.392 5.473 1.291 5.767 2.056.351.915 2.295 1.36 5.94 1.36 2.98 0 7.979.9 11.108 2 3.838 1.349 8.307 2.008 13.725 2.024 4.419.013 9.835.501 12.035 1.085 6.456 1.712 335.827 1.906 340.876.2 2.131-.72 5.846-1.309 8.253-1.309 2.468 0 6.007-.873 8.11-2 2.052-1.1 4.545-2 5.538-2 .994 0 2.351-.462 3.015-1.026.664-.565 3.233-2.339 5.708-3.942 7.801-5.054 18-15.802 18-18.969 0-.467.675-1.108 1.5-1.425.825-.316 1.5-1.429 1.5-2.472s.9-3.04 2-4.439c1.1-1.398 2-3.623 2-4.944 0-1.32.661-3.274 1.468-4.342 2.122-2.805 2.147-21.685.032-23.441-.825-.685-1.5-2.44-1.5-3.9 0-1.461-.9-3.426-2-4.368-1.1-.942-2-2.301-2-3.02 0-.72-1.561-2.862-3.468-4.76-1.908-1.899-3.483-4.014-3.5-4.702-.018-.687-.721-1.25-1.563-1.25-.843 0-1.784-.658-2.093-1.462-.308-.804-1.346-1.711-2.306-2.016-3-.952-8.354-6.34-7.782-7.831.566-1.473 4.991-2.691 9.778-2.691 1.549 0 3.078-.424 3.398-.942.321-.518 2.71-1.241 5.309-1.605 4.171-.585 9.067-2.579 17.129-6.978 3.165-1.727 11.098-9.222 11.098-10.484 0-.545.675-.991 1.5-.991s1.503-.787 1.507-1.75c.003-.962.9-3.1 1.993-4.75s1.99-3.957 1.993-5.128c.004-1.17.682-2.687 1.507-3.372 2.11-1.751 2.202-27.172.105-28.913-.768-.637-1.68-2.674-2.028-4.526-.347-1.852-1.294-3.622-2.104-3.933-.81-.311-1.473-1.159-1.473-1.885 0-1.565-8.269-10.395-12.402-13.243-1.597-1.1-3.669-2.722-4.606-3.605-.936-.883-2.922-1.912-4.412-2.286-3.567-.895-3.31-4.935.347-5.452 1.334-.188 3.437-1.005 4.672-1.814 1.235-.809 4.868-1.734 8.074-2.054 3.205-.32 6.715-1.191 7.8-1.936 1.084-.744 2.928-1.353 4.096-1.353 1.169 0 3.163-.9 4.431-2 1.268-1.1 2.891-2 3.606-2 1.109 0 5.809-4.467 11.838-11.25.856-.962 1.559-2.537 1.563-3.5.003-.962.9-3.1 1.993-4.75s1.99-4.382 1.993-6.072c.004-1.689.745-5.238 1.647-7.885 1.52-4.461 1.52-5.194 0-10.016-.902-2.862-1.64-6.152-1.64-7.312 0-4.406-9.699-19.212-15.535-23.715-1.426-1.1-3.463-2.787-4.529-3.75-1.065-.962-2.141-1.75-2.392-1.75-.488 0-7.36-4.408-9.078-5.823-.568-.468-2.247-1.156-3.731-1.529-1.59-.399-3.348-1.933-4.28-3.734-2.125-4.11-.586-5.914 5.045-5.914 2.528 0 4.751-.598 5.478-1.474.673-.81 2.737-1.757 4.587-2.104 1.85-.347 3.885-1.259 4.522-2.027.637-.767 1.948-1.395 2.913-1.395.965 0 2.301-.658 2.968-1.461.667-.804 2.156-1.761 3.309-2.127 1.153-.366 3.528-2.183 5.278-4.039 1.749-1.855 3.691-3.373 4.313-3.373.623 0 1.132-.689 1.132-1.531 0-.843.675-1.791 1.5-2.107.825-.317 1.5-1.133 1.5-1.814s.9-2.053 2-3.048c1.1-.995 2-2.654 2-3.686s.628-2.118 1.397-2.413c.768-.294 1.69-2.494 2.049-4.887.358-2.393 1.305-4.892 2.103-5.555 2.063-1.712 2.056-31.576-.008-34.301-.768-1.013-1.688-3.566-2.043-5.672-.356-2.106-1.289-4.075-2.073-4.376-.784-.301-1.425-1.392-1.425-2.424s-.9-2.691-2-3.686c-1.1-.995-2-2.415-2-3.155 0-.74-.675-1.345-1.5-1.345s-1.5-.511-1.5-1.135c0-1.253-4.637-5.865-5.897-5.865-.436 0-1.608-.9-2.603-2-.995-1.1-2.429-2-3.186-2-.757 0-1.619-.631-1.915-1.402-.295-.771-2.038-1.683-3.872-2.027-1.834-.344-3.588-1.288-3.899-2.098-.312-.814-1.823-1.473-3.374-1.473-1.545 0-3.922-.787-5.281-1.75-2.313-1.637-10.41-1.782-125.473-2.25-68.597-.279-123.607-.891-124.372-1.384-1.735-1.119-.763-10.998 1.408-14.311.805-1.229 1.464-3.495 1.464-5.035s.9-4.479 2-6.531c1.303-2.432 2-5.642 2-9.215 0-3.016.624-7.18 1.387-9.254.762-2.073 1.879-10.52 2.482-18.77.604-8.25 1.585-19.585 2.181-25.189.867-8.156.779-12.846-.44-23.5-.838-7.321-1.805-19.161-2.149-26.311-.346-7.194-1.258-14.684-2.043-16.77-.78-2.074-1.418-7.087-1.418-11.141 0-5.207-.581-8.65-1.978-11.73-1.088-2.397-1.988-5.96-2-7.918-.012-1.957-.683-4.432-1.49-5.5-.808-1.067-1.486-2.841-1.507-3.941-.021-1.1-.932-3.35-2.025-5s-1.99-4.012-1.993-5.25c-.004-1.237-.467-2.25-1.028-2.25-.562 0-1.565-1.237-2.229-2.75-.665-1.512-1.78-3.11-2.479-3.55-.699-.44-1.271-1.191-1.271-1.67 0-1.062-7.78-9.03-8.816-9.03-.407 0-1.51-.9-2.452-2s-2.337-2-3.1-2c-.763 0-1.947-.675-2.632-1.5s-2.22-1.5-3.411-1.5c-1.191 0-3.931-.9-6.089-2-4.865-2.48-11.741-2.43-16.5.121M41.046 268.73c-.8.315-1.925.962-2.5 1.437-4.207 3.476-6.546 5.883-6.546 6.736 0 .548-.787 1.438-1.75 1.977-1.658.928-1.75 11.585-1.75 201.871 0 189.992.095 200.987 1.75 202.642.963.962 1.75 2.339 1.75 3.06 0 2.235 6.749 6.591 12.556 8.104 8.631 2.248 131.032 2.121 139.8-.145 3.379-.873 6.504-2.223 6.944-3 .44-.777 1.452-1.412 2.25-1.412.797 0 1.45-.513 1.45-1.14 0-.627.601-1.639 1.336-2.25.734-.61 2.104-3.81 3.043-7.11 1.589-5.583 1.685-19.476 1.38-200-.282-167.125-.53-194.618-1.793-198.461-1.382-4.206-4.816-9.039-6.423-9.039-.4 0-1.872-.9-3.27-2-2.492-1.96-3.995-1.998-74.658-1.921-39.663.043-72.769.337-73.569.651" fill="#000000FF" stroke="#000000FF"/></svg>