<svg version="1.0" xmlns="http://www.w3.org/2000/svg" width="296pt" height="508pt" viewBox="0 0 296 508"><path d="M155.481 102.403c-15.278 3.496-27.009 12.13-34.994 25.754-7.52 12.831-8.877 24.849-4.923 43.593l.686 3.25H78.316c-28.822 0-38.345.301-39.648 1.253-.942.69-1.98 2.898-2.307 4.907-.569 3.507.186 4.69 18.773 29.434C65.785 224.773 75.175 237.37 76 238.586c.825 1.217 6.036 8.22 11.581 15.563 18.164 24.057 30.884 40.979 32.919 43.794 1.1 1.522 4.138 5.622 6.75 9.112L132 313.4v48.753c0 33.6.345 49.51 1.11 51.19 1.054 2.312 4.643 4.657 7.129 4.657 2.581 0 39.974-19.52 41.08-21.444.841-1.464 1.268-13.795 1.483-42.817l.302-40.761 8.765-11.739a6488.134 6488.134 0 0 1 13.198-17.619c2.438-3.233 5.333-7.131 6.433-8.661 1.932-2.688 10.592-14.216 32.544-43.323 5.751-7.625 11.124-14.825 11.941-16 .817-1.175 6.329-8.561 12.25-16.414 6.542-8.678 10.765-15.195 10.765-16.615 0-1.286-.933-3.523-2.073-4.972L274.855 175h-56.088l.599-2.75c2.184-10.021 2.749-18.508 1.693-25.427-2.932-19.208-18.156-37.342-36.025-42.913-8.426-2.627-21.701-3.304-29.553-1.507m-29.165 88.739c1.201.628 4.125 2.914 6.498 5.08 6.128 5.593 17.082 10.501 26.554 11.897 16.116 2.375 32.381-2.523 44.393-13.369l5.26-4.75h22.931c15.147 0 23.153.362 23.588 1.065.528.854-6.114 10.255-16.202 22.935-.657.825-3.579 4.65-6.494 8.5-6.127 8.091-10.773 14.178-27.344 35.826-6.6 8.622-13.125 17.19-14.5 19.04-1.375 1.851-6.55 8.62-11.5 15.044-4.95 6.424-9.785 12.897-10.745 14.385-1.583 2.454-1.745 6.317-1.754 41.705l-.01 39-8.322 4.25c-4.577 2.338-8.85 4.25-9.495 4.25-.881 0-1.174-10.851-1.174-43.406v-43.406l-7.951-10.561c-4.373-5.809-9.66-12.745-11.75-15.414a584.93 584.93 0 0 1-6.299-8.199c-1.375-1.84-6.328-8.334-11.007-14.43-4.678-6.096-9.295-12.209-10.259-13.584-.964-1.375-3.211-4.332-4.993-6.571-1.783-2.238-7.291-9.387-12.241-15.885-4.95-6.499-10.445-13.667-12.212-15.93C64.333 199.704 59 192.09 59 191.071c0-1.55 64.346-1.482 67.316.071m55.602-80.524c12.215 3.462 23.714 14.161 29.118 27.092 2.752 6.587 3.271 9.103 3.359 16.29.101 8.182-1.764 16.069-4.676 19.772-.759.964-5.38 1.206-19.11 1L172.5 174.5l-.256-15c-.231-13.577-.445-15.157-2.246-16.657-2.493-2.076-5.861-1.287-6.516 1.526-.272 1.172-.605 8.431-.739 16.131l-.243 14-18.075.272c-20.034.301-19.934.331-22.235-6.532-3.365-10.037-2.167-23.378 3.025-33.671 10.72-21.252 33.009-30.667 56.703-23.951m14.441 80.888c-.902 2.352-15.035 8.582-22.137 9.759-8.749 1.449-17.777-.077-27.363-4.626-13.527-6.42-12.847-6.639 20.641-6.639 25.811 0 29.366.186 28.859 1.506M233 10.047c-1.375.459-5.574 1.596-9.331 2.527-12.133 3.005-24.297 13.083-30.062 24.905-4.905 10.059-5.955 15.1-5.384 25.829.424 7.953.986 10.234 4.171 16.924 8.571 18.008 23.147 28.188 42.214 29.482 15.983 1.085 28.723-3.761 39.974-15.203 6.765-6.88 9.532-11.854 12.448-22.375 2.636-9.512 2.482-15.848-.631-26.084-4.818-15.843-17.254-28.887-31.399-32.936-14.737-4.218-17.431-4.594-22-3.069m16.698 9.456c11.48 3.409 21.454 11.939 26.825 22.941 2.404 4.924 2.971 7.53 3.306 15.187.755 17.268-5.578 29.715-19.378 38.085-8.518 5.166-14.825 6.693-25.169 6.094-10.375-.6-19.201-4.599-26.696-12.094-6.351-6.35-9.038-11.259-11.194-20.445-5.01-21.35 8.357-43.846 29.608-49.826 6.249-1.758 16.671-1.732 22.698.058M59.851 32.875c-4.207 1.519-8.893 3.578-10.413 4.574-5.362 3.513-11.499 9.89-14.858 15.439-5.31 8.771-6.909 15.707-6.352 27.541.526 11.177 1.673 14.693 7.925 24.299l4.053 6.227-3.103 4.22c-3.37 4.581-3.988 8.845-1.575 10.849 1.89 1.568 15.033.737 20.949-1.324 2.881-1.004 5.086-1.13 8-.458 2.213.509 8.298.749 13.523.531 8.379-.348 10.418-.824 17.278-4.032 10.48-4.9 18.504-12.903 23.524-23.463 3.643-7.663 3.697-7.956 3.638-19.778-.056-11.422-.217-12.333-3.332-18.91-6.253-13.201-15.706-21.545-29.486-26.028-10.739-3.493-19.489-3.401-29.771.313m27.217 6.711c10.528 3.075 21.34 12.717 24.967 22.266.972 2.556 2.307 7.394 2.967 10.751 1.069 5.436.969 6.946-.923 13.843-2.805 10.222-4.098 12.529-10.749 19.18-6.269 6.269-11.206 8.82-21.103 10.905-5.951 1.254-7.708 1.23-15.227-.2-8.32-1.582-8.599-1.571-13.195.526-7.771 3.547-9.688 2.782-6.753-2.693 2.262-4.22 1.832-6.341-2.225-10.992-1.597-1.831-4.329-6.331-6.071-10-2.81-5.919-3.172-7.688-3.212-15.672-.04-8.154.267-9.658 3.26-16 5.203-11.023 15.513-19.972 25.787-22.382 6.246-1.465 16.596-1.249 22.477.468" fill="#000000FF" stroke="#000000FF"/><path d="M154.304 219.508c-19.322 4.193-31.831 22.707-28.215 41.759 2.219 11.687 10.383 21.91 21.491 26.909 7.504 3.378 20.87 3.189 28.656-.405 6.495-2.998 14.326-10.33 17.379-16.271 4.941-9.613 5.05-23.355.262-32.741-7.367-14.441-24.139-22.6-39.573-19.251m17.916 6.153c6.08 1.906 14.128 9.136 17.51 15.731 2.18 4.25 2.624 6.467 2.645 13.198.022 6.968-.377 8.884-2.868 13.808-3.204 6.332-8.196 11.346-14.712 14.776-6.205 3.266-20.385 3.266-26.59 0-6.565-3.455-11.861-8.772-14.875-14.932-2.298-4.698-2.726-6.858-2.705-13.661.021-6.752.462-8.934 2.685-13.268 4.693-9.151 12.94-15.361 22.822-17.182 5.111-.942 9.551-.52 16.088 1.53M153.873 430.896c-5.766 1.191-14.588 5.943-18.441 9.933-10.011 10.369-12.716 26.884-6.617 40.401 2.436 5.399 10.202 13.116 16.048 15.946 5.548 2.685 17.774 3.59 25.021 1.852 5.016-1.204 12.454-6.065 16.849-11.014 8.266-9.308 10.119-26.544 4.116-38.309-6.625-12.988-23.528-21.585-36.976-18.809M166.5 477v15.5h-13l-.279-14.454c-.153-7.95-.046-15.059.237-15.798.374-.974 2.24-1.262 6.779-1.046l6.263.298V477m.1-35.6c4.154 4.154 4.367 7.466.781 12.167-2.341 3.069-3.127 3.433-7.411 3.433-4.124 0-5.153-.429-7.381-3.077-3.669-4.361-3.414-8.298.811-12.523 2.45-2.45 4.294-3.4 6.6-3.4s4.15.95 6.6 3.4M234.724 53.587c-4.728 3.684-6.429 6.396-2.79 4.448 1.064-.569 2.189-1.035 2.5-1.035 1.187 0 .474 6.14-1.971 16.969C229.765 85.923 230.034 88 234.285 88c2.45 0 11.314-5.512 12.082-7.513.425-1.11-.128-1.285-2.538-.803-3.026.605-3.074.554-2.587-2.784.272-1.87 1.479-7.165 2.681-11.768 1.202-4.602 2.049-9.777 1.882-11.5-.26-2.673-.749-3.176-3.331-3.429-2.243-.22-4.248.656-7.75 3.384M69.572 55.884c-.301.487-.13 3.299.379 6.25.508 2.951 1.21 8.291 1.559 11.866.886 9.082 1.257 10 4.038 10 2.869 0 3.053-.615 4.442-14.856C81.487 53.793 81.865 55 75.559 55c-2.993 0-5.687.398-5.987.884" fill="#000000FF" stroke="#000000FF"/><path d="M159.089 247.393c-.765.921-1.06 5.207-.873 12.643.232 9.208.587 11.441 1.95 12.299 1.208.76 2.102.687 3.25-.265 1.272-1.056 1.584-3.514 1.584-12.492 0-10.996-.68-13.578-3.578-13.578-.647 0-1.697.627-2.333 1.393M236.986 33.81c-3.021 2.447-2.954 6.941.139 9.319 3.09 2.376 5.001 2.334 7.686-.168 2.906-2.707 2.889-7.357-.034-9.404-2.906-2.036-5.05-1.966-7.791.253M73.389 93.011c-3.901 1.518-3.877 5.679.051 8.94 1.277 1.059 2.001.99 4.115-.395 4.752-3.114 1.104-10.595-4.166-8.545M164.2 129.2c-.66.66-1.2 2.145-1.2 3.3 0 1.155.54 2.64 1.2 3.3.66.66 2.145 1.2 3.3 1.2 1.155 0 2.64-.54 3.3-1.2.66-.66 1.2-2.145 1.2-3.3 0-1.155-.54-2.64-1.2-3.3-.66-.66-2.145-1.2-3.3-1.2-1.155 0-2.64.54-3.3 1.2" fill="#000000FF" stroke="#000000FF"/></svg>