<svg version="1.0" xmlns="http://www.w3.org/2000/svg" width="608pt" height="512pt" viewBox="0 0 608 512"><path d="M270.029 300.55c-1.359.745-3.668 2.726-5.131 4.402L262.237 308h-96.548l-3.129 2.386c-1.721 1.313-4.175 4.575-5.454 7.25s-2.726 5.645-3.215 6.6c-.49.955-.891 2.402-.891 3.215 0 3.287-3.686 3.549-50 3.549-46.01 0-48.326.153-51.535 3.408-1.679 1.703-4.718 7.821-7.497 15.092-1.672 4.375-4.115 10.092-5.016 11.736-.524.955-.952 2.418-.952 3.25 0 .833-.45 1.514-1 1.514s-1 .681-1 1.514c0 .832-.405 2.295-.9 3.25-1.782 3.437-6.106 14.763-6.103 15.986.002.688-.447 1.25-.997 1.25s-1 .906-1 2.014c0 1.107-.413 2.795-.918 3.75-.881 1.665-3.609 7.811-6.763 15.236-.818 1.925-1.899 4.281-2.403 5.236-1.209 2.293-1.166 5.491.084 6.264.55.34 1.017 1.379 1.038 2.309.041 1.847 7.083 7.191 9.475 7.191.818 0 1.487.45 1.487 1s.563.993 1.25.985c1.56-.019 16.129 7.242 16.583 8.265.184.413 1.084.764 2 .782 3.763.072 5.167 2.455 5.167 8.769 0 3.345.45 6.359 1 6.699.55.34 1.012 1.379 1.026 2.309.063 4.17 13.449 14.293 25.224 19.074 5.002 2.031 7.194 2.826 12.75 4.62 3.025.977 5.928 2.164 6.45 2.637.523.473 2.345.86 4.05.86 1.705 0 3.528.404 4.05.898.523.493 2.75 1.151 4.95 1.46 2.2.31 6.475.995 9.5 1.521 3.025.527 8.856 1.444 12.958 2.038 4.102.594 8.266 1.337 9.252 1.65 2.344.744 15.607 2.384 28.79 3.561 65.241 5.822 169.533 5.802 232-.046 15.875-1.486 26.011-2.783 31-3.966 2.475-.587 5.963-1.078 7.75-1.092 2.126-.016 3.25-.514 3.25-1.441 0-.779-.337-1.566-.75-1.75-1.079-.479-6.25-8.598-6.25-9.812 0-.561-.45-1.021-1-1.021s-1-.52-1-1.156c0-.635-1.125-2.63-2.5-4.433s-2.5-3.758-2.5-4.344c0-.587-.45-1.067-1-1.067s-1-.675-1-1.5-.45-1.5-1-1.5-1-.441-1-.981c0-.539-1.575-3.442-3.5-6.452-1.925-3.009-3.5-5.943-3.5-6.519 0-.576-.337-1.049-.75-1.05-.412-.001-1.987-1.96-3.5-4.355-2.571-4.069-2.75-5.071-2.75-15.391 0-13.102 1.051-14.471 5.866-7.64 1.724 2.446 3.134 4.883 3.134 5.417 0 .534.45.971 1 .971s1 .491 1 1.091 1.734 3.638 3.853 6.75c6.535 9.6 16.147 25.126 16.147 26.083 0 .5.375 1.059.833 1.243 1.045.418 8.167 11.553 8.167 12.769 0 .494.338 1.047.75 1.231.897.398 5.202 7.13 7.248 11.333 1.879 3.86 6.859 8.5 9.123 8.5.969 0 2.039.45 2.379 1 .34.55 2.14 1 4 1 1.86 0 3.66-.45 4-1 .34-.55 1.498-1 2.573-1 3.54 0 7.137-2.57 10.71-7.654 2.607-3.709 3.005-11.394.826-15.942a274.662 274.662 0 0 1-3.142-6.904c-.963-2.2-3.262-7.227-5.109-11.172-1.847-3.944-3.358-7.882-3.358-8.75 0-.868-.45-1.578-1-1.578s-1-.591-1-1.313c0-1.209-3.739-9.849-6.025-13.923-.536-.955-.975-2.418-.975-3.25 0-.833-.45-1.514-1-1.514s-1-1.125-1-2.5-.45-2.5-1-2.5-1-.438-1-.973c0-.909-4.042-10.383-6.086-14.263-.503-.955-.914-2.418-.914-3.25 0-.833-.45-1.514-1-1.514s-1-.438-1-.973c0-.909-4.042-10.383-6.086-14.263-.503-.955-.914-2.418-.914-3.25 0-.833-.45-1.514-1-1.514s-1-.438-1-.973c0-.535-1.172-3.572-2.603-6.75-1.432-3.177-2.979-6.677-3.437-7.777-.458-1.1-2.473-5.6-4.476-10-2.004-4.4-4.006-8.9-4.448-10-.442-1.1-2.491-5.6-4.553-10-2.061-4.4-4.093-8.9-4.514-10-5.681-14.846-11.06-23.5-14.605-23.5-.75 0-1.364-.45-1.364-1 0-.658-24.351-.966-71.25-.902-57.899.08-71.713.352-73.721 1.452M332.954 8.348c-.301.318-4.351 1.032-9 1.587-12.467 1.489-16.229 2.099-18.454 2.99-1.1.441-4.475 1.604-7.5 2.584-3.025.981-7.272 2.617-9.438 3.637-2.166 1.02-4.307 1.854-4.759 1.854-2.661 0-20.745 13.067-27.747 20.049-8.792 8.769-16.264 22.388-18.352 33.451-1.209 6.405-1.412 17.507-.36 19.676 1.252 2.581-2.711 4.521-11.844 5.796-14.376 2.008-15.506 2.229-16.065 3.134-.304.492-1.658.894-3.008.894s-3.236.419-4.191.931c-.955.512-4.846 2.385-8.646 4.162-3.801 1.776-9.787 5.407-13.303 8.068-3.516 2.662-7.09 4.839-7.943 4.839-.853 0-3.802-2.025-6.555-4.5-2.753-2.475-5.632-4.5-6.397-4.5-.766 0-1.392-.398-1.392-.883 0-.486-.787-1.132-1.75-1.436-.962-.304-3.55-1.541-5.75-2.749-6.481-3.56-7.374-3.932-9.427-3.932-1.075 0-2.204-.402-2.508-.894-.992-1.606-8.786-2.352-24.565-2.352-15.779 0-23.573.746-24.565 2.352-.304.492-1.433.894-2.508.894-2.053 0-2.946.372-9.427 3.932-2.2 1.208-4.787 2.445-5.75 2.749-.962.304-1.75.95-1.75 1.436 0 .485-.482.883-1.071.883-.59 0-1.648.563-2.352 1.25-.705.688-3.397 3.004-5.983 5.149C54.237 124.67 45 138.552 45 142.835c0 .971-.53 2.295-1.179 2.944-1.625 1.625-1.625 25.817 0 27.442.649.649 1.179 1.973 1.179 2.944 0 1.821 3.719 9.066 7.358 14.335 2.707 3.919 8.144 9.304 13.142 13.017 2.2 1.635 4.225 3.199 4.5 3.477.275.278 1.85 1.232 3.5 2.119 1.847.993 6.074 6.181 11 13.5 6.316 9.385 8.535 11.949 10.543 12.183 5.299.618 8.694-5.682 5.888-10.926-2.106-3.934.17-4.731 14.898-5.222 14.811-.494 21.868-1.349 22.736-2.754.304-.492 1.207-.894 2.006-.894 1.849 0 16.495-6.986 18.25-8.706.727-.712 1.705-1.294 2.173-1.294.915 0 15.006-13.367 15.006-14.236 0-.287 1.575-3.137 3.5-6.334 1.925-3.197 3.5-6.596 3.5-7.554 0-2.898 3.47-3.13 8.15-.544 4.262 2.355 12.393 5.34 20.35 7.472 13.7 3.67 18.468 4.201 37.691 4.199 10.83-.002 19.917.362 20.193.809.275.446-.011 3.799-.636 7.451-1.446 8.438-.108 11.737 4.76 11.737 2.41 0 4.049-.95 6.831-3.956 2.014-2.176 3.661-4.26 3.661-4.631 0-.982 7.157-10.853 8.155-11.246.465-.184.845-.765.845-1.293 0-.527.443-1.502.985-2.166.542-.664 2.07-2.567 3.396-4.229 1.326-1.661 4.519-4.074 7.096-5.36 2.577-1.287 7.308-4.523 10.513-7.19l5.828-4.851 20.841-.393c19.655-.371 27.183-1.141 35.301-3.612 1.902-.58 3.789-.721 4.192-.313 1.495 1.511 2.833 14.134 2.84 26.79.006 8.807.398 13.44 1.208 14.25 2.802 2.802 10.8.652 10.8-2.903 0-1.586 4.733-15.829 6.026-18.133.536-.955.974-2.649.974-3.764 0-1.115.402-2.809.893-3.764.491-.955 2.141-5.786 3.666-10.736 1.526-4.95 3.149-9.427 3.607-9.95.459-.523.848-2.098.866-3.5.039-3.106 1.275-4.748 6.465-8.591 6.493-4.806 18.503-18.73 18.503-21.45 0-.555.34-1.009.756-1.009.675 0 1.352-1.366 4.214-8.5 2.623-6.54 3.53-12.063 3.53-21.5 0-16.412-4.007-27.106-15.498-41.364-4.977-6.176-18.605-17.17-25.193-20.324-2.082-.996-3.791-2.149-3.798-2.562-.006-.412-.692-.75-1.525-.75-.832 0-2.295-.397-3.25-.883-.955-.486-2.861-1.324-4.236-1.862a240.284 240.284 0 0 1-6.284-2.616c-2.081-.902-4.579-1.639-5.55-1.639-.971 0-2.193-.404-2.716-.898-.932-.88-2.845-1.228-16.95-3.082-10.105-1.328-26.907-2.348-27.546-1.672M360.5 21.926c9.496 1.287 13.628 2.063 16 3.004 1.1.436 3.8 1.37 6 2.075 23.787 7.625 42.798 25.071 49.988 45.871 1.988 5.752 1.989 20.49.002 26.248-1.88 5.45-5.57 12.946-7.234 14.697-.691.727-1.256 1.66-1.256 2.074 0 1.332-10.914 11.978-16.541 16.136-4.48 3.309-5.459 4.564-5.459 7.001 0 1.632-.45 2.968-1 2.968s-1 1.295-1 2.878c0 3.261-2.232 5.631-4.487 4.765-.832-.319-1.513-1.422-1.513-2.451 0-3.925-6.333-4.57-14-1.426-2.644 1.085-7.193 2.308-15.652 4.21-3.25.731-13.242 1.074-27.072.929l-21.92-.23-5.428 5.412c-5.995 5.978-7.061 6.743-14.678 10.534-2.887 1.437-5.25 2.908-5.25 3.268 0 .361-1.405 2.36-3.122 4.443l-3.122 3.787-2.325-2.183c-2.098-1.972-2.937-2.109-8.628-1.417-10.105 1.231-44.659 1.06-51.115-.253-6.335-1.288-12.2-3.013-14.924-4.389-.955-.482-2.643-.877-3.75-.877-1.108 0-2.014-.45-2.014-1s-.639-1-1.419-1c-1.784 0-7.566-3.244-7.575-4.25-.003-.412-.643-.75-1.423-.75-.779 0-1.566-.354-1.75-.786-.183-.432-1.752-1.782-3.487-3-3.481-2.443-7.787-2.902-9.029-.964-1.523 2.377-3.287 8.261-3.302 11.014-.008 1.52-.415 3.545-.904 4.5-.489.955-1.727 3.514-2.75 5.687-2.176 4.621-13.521 16.41-17.861 18.56-1.65.817-3.225 1.712-3.5 1.987-.96.963-7.527 3.866-11 4.862-1.925.553-5.3 1.515-7.5 2.14-2.533.719-8.769.95-17 .63-20.087-.782-24.62-1.477-27.337-4.195-1.293-1.293-3.659-2.93-5.257-3.637-1.598-.707-2.906-1.626-2.906-2.042 0-.416-.7-.756-1.555-.756-1.899 0-12.729-10.873-15.81-15.872-1.23-1.996-2.888-5.653-3.685-8.128-1.708-5.301-1.873-21.785-.253-25.19.604-1.27 1.793-3.885 2.641-5.81 2.053-4.661 9.883-13.363 15.572-17.305C79.469 119.843 86.846 116 88.683 116c.739 0 2.126-.409 3.081-.909 6.506-3.407 24.357-5.005 33.236-2.975 2.475.566 5.967 1.271 7.759 1.567 1.793.296 3.507.938 3.809 1.427.303.49 1.417.89 2.477.89 2.042 0 14.174 6.103 16.374 8.237.716.695 2.602 2.427 4.192 3.85 1.589 1.423 4.239 4.315 5.889 6.427 3.828 4.9 5.424 6.486 6.524 6.486 2.167 0 5.993-2.477 6.553-4.243 1.169-3.682 11.81-13.273 17.923-16.154 3.3-1.555 6.781-3.227 7.736-3.715.955-.489 2.841-.888 4.191-.888 1.35 0 2.733-.45 3.073-1 .34-.55 1.519-1 2.621-1s4.113-.641 6.691-1.425c2.578-.783 10.165-1.989 16.859-2.679 11.29-1.163 12.25-1.427 13.263-3.65.6-1.318.775-2.908.388-3.534-2.443-3.952-3.364-19.55-1.637-27.712 1.075-5.086 5.411-15 6.559-15 .416 0 .756-.673.756-1.495 0-1.946 13.203-15.299 19-19.216 15.013-10.143 29.095-15.277 47.324-17.255 4.303-.467 8.128-1.158 8.5-1.537.8-.814 18.705.078 28.676 1.429M577.5 242c-.34.55-1.299 1-2.13 1-.832 0-2.138.625-2.902 1.389-1.524 1.525-6.643 12.397-9.468 20.111-.403 1.1-1.212 3.125-1.799 4.5-1.33 3.119-4.139 9.846-5.219 12.5l-2.12 5.2c-.718 1.76-2.443 3.774-3.834 4.477-1.39.703-4.328 2.377-6.528 3.721-2.2 1.344-6.475 3.78-9.5 5.413-3.025 1.633-6.175 3.492-7 4.131-.825.639-3.75 2.258-6.5 3.597s-5.225 2.727-5.5 3.085c-.275.358-2.242 1.377-4.372 2.264-3.287 1.368-8.695 1.612-35.759 1.612-30.041 0-31.834.101-30.994 1.75.49.963 1.355 2.875 1.922 4.25s2.705 6.1 4.753 10.5c2.047 4.4 4.082 8.9 4.523 10 1.218 3.043 7.923 17.767 8.988 19.736.516.955.939 2.605.939 3.667 0 1.062.338 2.08.75 2.264.747.332 3.481 5.732 6.748 13.333.946 2.2 3.261 7.317 5.144 11.372 1.883 4.054 3.969 9.117 4.635 11.25.665 2.133 1.55 3.878 1.966 3.878.417 0 .757.419.757.93 0 .512 1.301 3.774 2.891 7.25 6.196 13.547 10.593 23.478 12.095 27.32.43 1.1 2.469 5.6 4.531 10 2.061 4.4 4.078 8.9 4.482 10 1.437 3.917 3.349 7.5 4.004 7.5 1.076 0 8.387-7.303 9.747-9.736.952-1.703 1.251-13.758 1.256-50.5l.006-48.264 27.127-27C583.012 302.778 585 300.569 585 296.879c0-1.519.45-3.039 1-3.379.55-.34 1-1.723 1-3.073 0-1.35.405-3.236.9-4.191.496-.955 1.713-4.436 2.706-7.736.993-3.3 2.162-6.427 2.599-6.95.437-.522.795-2.12.795-3.55 0-1.43.515-3.115 1.144-3.744 1.586-1.586 1.644-15.493.066-16.019-.666-.222-1.21-.931-1.21-1.576s-1.462-1.762-3.25-2.482c-1.787-.721-4.031-1.731-4.986-2.244-2.298-1.237-7.485-1.196-8.264.065M510.329 127.848c-4.494.909-8.506 1.99-8.916 2.402-.411.413-1.77.75-3.021.75s-2.552.45-2.892 1c-.34.55-1.3 1-2.134 1-1.954 0-14.896 8.363-18.312 11.834-5.195 5.277-10.054 13.117-10.054 16.221 0 1.005-.45 2.105-1 2.445-.55.34-1 3.966-1 8.059 0 4.294.423 7.441 1 7.441.55 0 1 .849 1 1.886 0 4.482 6.752 13.745 14.663 20.114 7.628 6.142 20.222 11.687 30.52 13.439 4.192.713 4.804 2.09 3.583 8.061-.45 2.2-1.273 6.7-1.83 10-.557 3.3-1.272 7.49-1.591 9.311-.451 2.585-.075 3.847 1.713 5.75 1.26 1.342 2.903 2.439 3.651 2.439 2.107 0 6.291-3.069 6.291-4.615 0-.762.45-1.385 1-1.385s1-.421 1-.936c0-.514 3.15-5.493 7-11.064s7-10.55 7-11.064c0-.515.45-.936 1-.936s1-.624 1-1.386c0-1.522 5.754-4.614 8.585-4.614 1.881 0 12.186-3.325 16.415-5.297 7.378-3.44 15.271-9.481 20.025-15.327 2.688-3.305 6.975-11.568 6.975-13.443 0-.998.45-2.093 1-2.433.55-.34 1-3.04 1-6s-.45-5.66-1-6c-.55-.34-1-1.476-1-2.525 0-2.028-2.829-8.705-4.5-10.622-.55-.631-2.575-3.166-4.5-5.634-3.407-4.367-16.691-13.719-19.487-13.719-.767 0-1.641-.398-1.942-.885-.3-.486-1.79-1.134-3.309-1.438-1.519-.305-6.812-1.474-11.762-2.598-10.95-2.488-24.582-2.575-36.171-.231m35.465 11.79c3.689.9 7.134 2.025 7.656 2.5.523.474 1.985.862 3.25.862s2.3.45 2.3 1 .727 1 1.616 1c1.899 0 10.923 6.349 14.078 9.905 1.207 1.361 2.961 4.076 3.898 6.034a726.054 726.054 0 0 0 2.555 5.297c1.197 2.438 1.036 6.651-.413 10.809-3.348 9.607-10.978 16.546-24.234 22.037-7.579 3.139-10.074 3.918-12.557 3.918-3.924 0-7.988 1.693-11.03 4.595-2.783 2.654-5.449 2.443-6.385-.506-.388-1.225-2.505-2.085-7.288-2.963-9.473-1.738-19.24-4.46-19.24-5.364 0-.419-.632-.762-1.405-.762-5.388 0-21.595-13.849-21.595-18.452 0-.787-.45-1.708-1-2.048-1.236-.764-1.323-9.893-.117-12.264.486-.955 1.481-3.009 2.211-4.565 3.547-7.555 14.872-15.65 26.906-19.232 3.025-.9 6.625-2.006 8-2.459 4.597-1.512 25.638-1.09 32.794.658" fill="#000000FF" stroke="#000000FF"/><path d="M214.5 212.949c-1.1.501-3.436.942-5.191.981-1.755.038-3.469.52-3.809 1.07-.34.55-1.679 1-2.976 1-1.296 0-2.507.346-2.691.768-.183.423-2.682 2.261-5.554 4.085-8.252 5.244-19.279 19.337-19.279 24.64 0 .829-.405 1.507-.899 1.507-.998 0-1.838 5.224-2.897 18l-.704 8.5-6.422.5c-3.532.275-6.58.982-6.774 1.572-.194.589 1.19 2.66 3.075 4.601 3.989 4.106 7.392 4.827 22.799 4.827h9.899l4.163 4c2.29 2.2 4.747 4 5.461 4 .715 0 1.299.361 1.299.802 0 1.229 8.929 4.165 14.771 4.857 5.275.625 16.822-1.191 17.817-2.802.292-.471 1.403-.857 2.471-.857s1.941-.45 1.941-1 .563-1.022 1.25-1.049c.688-.027 3.05-1.824 5.25-3.993l4-3.944 10.11-.007c13.516-.009 18.695-.825 21.526-3.388 2.147-1.944 4.864-5.889 4.864-7.062 0-.258-3.262-.602-7.25-.763l-7.25-.294-.623-10.5c-.57-9.601-2.292-17.749-4.144-19.6-.403-.403-.733-1.365-.733-2.136 0-3.173-14.364-20.264-17.03-20.264-.455 0-1.422-.562-2.149-1.25-1.243-1.177-4.78-3.004-9.321-4.816-5.207-2.077-21.887-3.402-25-1.985M337.5 197.759c-8.646.372-19.175 5.73-27 13.737-7.639 7.817-10.431 13.347-12.495 24.754-1.669 9.221-.215 17.768 4.885 28.701 2.021 4.332 14.323 17.049 16.493 17.049.889 0 1.617.45 1.617 1s.81 1 1.8 1 2.228.372 2.75.826c3.97 3.452 23.538 4.913 30.496 2.277 15.857-6.009 24.555-13.98 29.844-27.353 4.864-12.298 4.177-24.66-2.14-38.486-2.381-5.212-13.089-16.264-15.758-16.264-.545 0-.997-.337-1.003-.75-.01-.654-3.593-2.475-10.489-5.332-2.413-1-10.815-1.512-19-1.159M462 232.954c-.825.558-2.936 1.022-4.691 1.031-1.755.008-3.469.465-3.809 1.015-.34.55-1.491 1-2.559 1s-1.941.42-1.941.933c0 .513-.814 1.19-1.808 1.506-3.069.974-10.794 9.182-12.941 13.75-3.456 7.353-5.649 17.642-4.362 20.467.611 1.341 1.111 3.305 1.111 4.364 0 5.803 12.501 22.98 16.725 22.98.701 0 1.275.45 1.275 1s.81 1 1.8 1 2.322.522 2.96 1.16c2.7 2.7 27.42.965 30.24-2.124.275-.301 2.3-1.879 4.5-3.505 5.77-4.268 6.182-4.758 10.123-12.055 3.423-6.338 3.573-7.037 3.551-16.566-.025-10.368.068-10.057-6.236-20.878-1.809-3.105-7.873-8.809-10.188-9.582-.962-.322-1.75-1.004-1.75-1.517 0-.513-.873-.933-1.941-.933s-2.182-.39-2.477-.867c-.295-.477-2.459-1.157-4.809-1.511-2.35-.353-5.848-.877-7.773-1.163-1.925-.286-4.175-.064-5 .495M100 259.954c-.825.558-2.519 1.022-3.764 1.031-5.431.036-15.24 8.514-19.505 16.857-2.292 4.484-2.731 6.61-2.731 13.228 0 6.866.395 8.631 3.055 13.657C80.675 311.569 89.175 320 92.452 320c.787 0 1.708.45 2.048 1 .348.563 5.157 1 11 1s10.652-.437 11-1c.34-.55 1.491-1 2.559-1s1.941-.45 1.941-1 .6-1 1.334-1c.734 0 3.332-2.137 5.773-4.75 3.921-4.196 5.495-7.002 9.002-16.047 1.204-3.105 1.131-10.936-.109-11.703-.55-.34-1.004-1.604-1.009-2.809-.021-4.72-6.08-13.009-13.491-18.456-4.958-3.644-19.386-6.389-22.5-4.281" fill="#000000FF" stroke="#000000FF"/></svg>