<svg version="1.0" xmlns="http://www.w3.org/2000/svg" width="782pt" height="820pt" viewBox="0 0 782 820"><path d="M388.639 9.525c-4.324.75-8.032 1.535-8.241 1.744-.209.209.054 4.846.585 10.305.531 5.459.977 18.59.991 29.18.014 10.589.529 27.165 1.144 36.834l1.117 17.58-5.367 5.484c-7.588 7.753-7.868 8.083-7.868 9.277 0 .589-.401 1.071-.892 1.071-.49 0-1.174 1.125-1.519 2.5s-1.069 2.5-1.608 2.5a.98.98 0 0 0-.981.973c0 .535-1.056 3.347-2.347 6.25-1.29 2.902-3.143 7.977-4.118 11.277-.974 3.3-2.162 7.125-2.639 8.5-.867 2.495-2.486 19.683-3.816 40.5-.643 10.064-2.325 16.471-4.33 16.492-.412.004-.75.922-.75 2.039 0 1.118-.675 2.291-1.5 2.607-.825.317-1.5 1.212-1.5 1.989 0 1.256-1.948 4.95-5.752 10.911a47.027 47.027 0 0 0-2.222 3.962c-.533 1.1-2.326 4.25-3.985 7-1.658 2.75-3.333 5.675-3.722 6.5-1.317 2.794-2.804 3.557-10.319 5.293-9.175 2.12-10.973 2.128-21.868.102-10.408-1.935-15.795-3.334-19.132-4.967-6.309-3.087-11.92-3.928-26.201-3.928-10.427 0-15.063.363-15.95 1.25-.687.688-3.224 1.25-5.638 1.25-4.057 0-4.781-.428-9.55-5.636a659.347 659.347 0 0 0-10.161-10.806c-5.246-5.423-13.017-13.61-35.682-37.585-7.524-7.96-16.453-17.398-19.841-20.973-3.388-3.575-10.056-10.717-14.818-15.871-13.131-14.21-14.298-15.29-15.874-14.685-.797.306-1.637.556-1.867.556-.23 0-.418.458-.418 1.018 0 .559-1.47 2.472-3.267 4.25-1.796 1.777-4.834 5.257-6.75 7.732-1.916 2.475-4.383 5.403-5.483 6.507-1.1 1.104-2.45 2.726-3 3.603-.55.878-4.174 5.825-8.054 10.993s-7.381 9.939-7.781 10.601c-.918 1.522.23 6.296 1.515 6.296.529 0 1.532.563 2.227 1.25.696.688 5.668 5.3 11.05 10.25 5.381 4.95 13.052 12.15 17.046 16 3.993 3.85 10.802 10.208 15.13 14.128 4.328 3.92 10.199 9.32 13.047 12 2.848 2.68 10.035 9.372 15.97 14.872 5.935 5.5 13.542 12.703 16.905 16.006l6.113 6.007.613 9.993c.595 9.695 1.147 11.658 5.909 20.994 4.638 9.095 5.93 11.185 9.27 15 1.926 2.2 3.51 4.751 3.521 5.669.024 2.125-2.822 7.47-5.731 10.764-1.237 1.4-2.25 2.877-2.25 3.281 0 1.112-10.893 11.873-16 15.805-2.475 1.907-4.65 3.807-4.833 4.224-.184.416-.939.757-1.679.757-.74 0-1.94.569-2.667 1.264-1.888 1.807-11.733 6.736-13.454 6.736-1.373 0-2.433.612-10.077 5.815-1.765 1.202-3.566 2.185-4.002 2.185-.915 0-15.288 13.639-15.288 14.508 0 .317-.466 1.12-1.035 1.784-.569.664-3.381 4.808-6.25 9.208l-5.215 8-18-.041c-9.9-.023-32.145-.593-49.434-1.267-19.894-.775-31.783-.875-32.385-.273-1.496 1.496 1.129 37.06 4.423 59.919l1.201 8.338 24.597-.583c13.529-.321 33.724-.851 44.877-1.179l20.279-.596 4.855 5.091c2.671 2.8 5.163 5.091 5.538 5.091s2.115 1.073 3.866 2.384 4.196 2.691 5.433 3.067c1.238.376 2.25 1.103 2.25 1.616 0 .513 1.039.933 2.309.933 1.27 0 3.182.661 4.25 1.468 1.067.808 2.927 1.483 4.132 1.5 1.205.018 2.469.482 2.809 1.032.34.55 2.054 1.003 3.809 1.006 1.755.004 4.48.679 6.055 1.5 2.126 1.109 6.381 1.499 16.5 1.514 21.561.032 26.426 1.142 39.636 9.045 2.75 1.646 5.9 3.444 7 3.998 1.1.553 4.25 2.325 7 3.937 2.75 1.612 5.9 3.384 7 3.937 1.1.554 4.25 2.373 7 4.044 2.75 1.671 5.788 3.311 6.75 3.645.963.334 1.75 1.005 1.75 1.491 0 .485.814.883 1.809.883s2.682.661 3.75 1.468c1.209.915 4.284 1.48 8.156 1.5 5.14.027 6.394-.302 7.25-1.902 1.542-2.881 1.194-7.303-.752-9.566-1.905-2.215-8.732-7.5-9.689-7.5-.335 0-3.046-1.8-6.024-4s-5.646-4-5.928-4c-.82 0-10.038-6.423-10.405-7.25-.184-.412-.802-.75-1.374-.75-.573 0-3.736-1.8-7.031-4-3.294-2.2-6.389-4-6.876-4-.487 0-.886-.45-.886-1s-.567-1-1.26-1c-.693 0-2.492-1.142-3.998-2.538-2.618-2.428-2.667-2.646-1.125-5 1.621-2.475 5.149-3.263 6.933-1.55.523.502 3.65 1.382 6.95 1.956 12.813 2.227 16.438 3.029 18.368 4.061 1.1.589 3.354 1.071 5.007 1.071 1.654 0 3.248.391 3.544.868.295.478 3.233 1.174 6.528 1.547 3.296.372 6.257 1.107 6.582 1.631.324.525 2.025.952 3.78.949 1.755-.003 5.441.712 8.191 1.589 9.901 3.155 11.227 3.415 17.071 3.343 8.318-.103 11.834-2.301 12.231-7.646.261-3.51-.092-4.351-2.561-6.109-1.574-1.122-4.077-2.344-5.561-2.716-1.485-.373-2.946-1.078-3.248-1.567-.303-.489-1.847-.889-3.432-.889s-3.16-.45-3.5-1c-.34-.55-1.829-1.003-3.309-1.006-1.48-.004-3.98-.679-5.555-1.5-1.576-.822-3.826-1.492-5-1.489-2.182.005-10.743-2.541-13.872-4.126-.955-.483-3.007-.879-4.559-.879-1.553 0-3.696-.661-4.764-1.468-1.067-.808-3.291-1.497-4.941-1.533-2.989-.064-12.956-3.122-14.186-4.352-.356-.356-1.853-.647-3.326-.647-3.544 0-6.224-3.071-5.813-6.662l.325-2.838 22-.692c62.504-1.965 68.148-2.272 70.093-3.808 3.935-3.108 4.407-3.962 4.407-7.983 0-3.174-.67-4.842-2.907-7.236l-2.907-3.11-43.206.232-43.207.232-2.386-2.242c-1.313-1.233-2.387-3.218-2.387-4.412 0-2.809 2.988-5.481 6.129-5.481 1.359 0 2.899-.387 3.421-.86.523-.473 3.425-1.655 6.45-2.626 3.025-.971 6.694-2.384 8.154-3.14 1.46-.755 3.571-1.374 4.691-1.374 1.12 0 2.315-.45 2.655-1 .34-.55 1.379-1.003 2.309-1.006.93-.004 2.98-.679 4.555-1.5 1.576-.822 3.687-1.494 4.691-1.494 1.005 0 2.071-.395 2.369-.877.298-.482 2.504-1.371 4.903-1.975 4.674-1.177 10.414-.185 11.788 2.038 1.147 1.856 5.591-.88 6.352-3.912.341-1.359 2.626-4.295 5.077-6.526 4.817-4.384 5.665-7.786 3.228-12.951-1.581-3.351-6.741-5.052-10.913-3.598-4.547 1.585-6.908-.122-10.859-7.852-1.925-3.766-3.837-6.997-4.25-7.18-.412-.184-.75-.81-.75-1.392 0-.583-1.8-3.909-4-7.392-2.2-3.484-4-7.02-4-7.858 0-.839-.441-1.525-.981-1.525-.539 0-1.263-1.125-1.608-2.5-.345-1.375-1.055-2.5-1.577-2.5s-.811-1.912-.641-4.25c.267-3.691.636-4.288 2.807-4.538 2.53-.292 4.184 1.205 41.046 37.147 15.234 14.854 20.603 17.445 24.881 12.006 1.208-1.536 2.073-4.108 2.073-6.166 0-3.793 1.391-2.311-38.905-41.445-10.02-9.732-12.095-12.248-12.095-14.669 0-7.182 2.515-7.715 12.647-2.679C312.208 326.642 323.789 332 324.871 332c.621 0 1.129.45 1.129 1s.651 1 1.446 1c.796 0 4.882 1.778 9.081 3.951 9.824 5.084 15.471 6.051 18.374 3.148 1.155-1.155 2.099-3.387 2.099-4.964 0-3.121-3.359-8.135-5.45-8.135-.718 0-1.865-.675-2.55-1.5-.685-.825-2.052-1.5-3.039-1.5-.987 0-1.944-.337-2.128-.75-.306-.689-1.743-1.544-10.333-6.143-1.65-.884-3.15-1.944-3.333-2.357-.184-.412-1.17-.75-2.191-.75-1.022 0-2.137-.451-2.478-1.003-.34-.551-2.504-1.914-4.809-3.027-2.304-1.114-6.439-3.365-9.189-5.001-2.75-1.637-6.237-3.469-7.75-4.071-1.512-.601-2.75-1.5-2.75-1.996s-.787-.91-1.75-.919c-1.598-.015-11.25-8.166-11.25-9.499 0-.314-1.125-1.785-2.5-3.267-1.375-1.483-2.5-3.264-2.5-3.957 0-.693-.433-1.26-.961-1.26-.529 0-1.459-1.845-2.066-4.099-.931-3.459-.844-4.386.56-5.938 1.355-1.496 2.158-1.648 4.316-.812 1.527.591 8.587.882 16.651.687l14-.338.3 3.5c.496 5.782 3.026 8.167 8.664 8.167 4.068 0 5.209-.447 7.242-2.834 1.327-1.558 3.286-3.849 4.353-5.091 1.068-1.241 1.941-2.549 1.941-2.905 0-.357 1.125-2.123 2.5-3.926s2.5-3.772 2.5-4.376c0-.604.675-1.357 1.5-1.673.825-.317 1.5-1.128 1.5-1.803s1.688-3.665 3.75-6.643c2.063-2.979 4.64-7.103 5.727-9.166 1.088-2.062 2.325-3.75 2.75-3.75.425 0 .773-.675.773-1.5s.42-1.5.933-1.5c.513 0 1.248-1.012 1.634-2.25.387-1.237.981-2.475 1.321-2.75.34-.275 2.323-3.109 4.407-6.297 4.134-6.327 5.943-7.58 8.218-5.692 1.908 1.583 1.886 9.137-.042 14.489-.792 2.2-1.448 5.042-1.456 6.316-.008 1.273-.512 3.243-1.119 4.378-.607 1.134-1.47 4.367-1.919 7.184-.448 2.817-1.553 8.047-2.455 11.622-.901 3.575-1.891 8.075-2.199 10-.308 1.925-.906 3.95-1.33 4.5-.423.55-1.087 3.362-1.475 6.249-.388 2.887-1.113 5.501-1.612 5.809-.498.308-.906 2.037-.906 3.842 0 1.805-.67 5.491-1.489 8.191-.819 2.7-1.494 6.54-1.5 8.533-.014 4.643 2.498 11.782 4.746 13.489 2.219 1.685 5.879 1.748 7.879.137 3.74-3.012 6.364-6.162 6.37-7.646.004-.882.679-2.893 1.5-4.468.822-1.576 1.492-3.826 1.489-5-.005-2.182 2.541-10.743 4.126-13.872.483-.955.879-3.007.879-4.559 0-1.553.661-3.696 1.468-4.764.808-1.067 1.483-3.602 1.5-5.632.018-2.03.443-3.945.945-4.255.502-.311 1.216-2.36 1.587-4.554.371-2.194 1.085-4.243 1.587-4.554.502-.31.913-2.026.913-3.814 0-1.787.661-4.123 1.468-5.191.808-1.067 1.483-3.602 1.5-5.632.018-2.03.482-3.969 1.032-4.309.55-.34 1.005-1.604 1.01-2.809.006-1.205 1.024-4.216 2.263-6.691 1.908-3.811 2.705-4.5 5.21-4.5 5.257 0 5.485 1.569 5.512 38 .014 18.15.478 39.525 1.033 47.5 1.173 16.877 2.463 20.494 7.658 21.469 4.89.917 9.918-.345 12.783-3.211 2.21-2.21 2.531-3.39 2.531-9.313 0-3.73.265-7.473.589-8.317.325-.845 2.687-2.538 5.25-3.762 2.564-1.224 6.34-3.27 8.391-4.546 2.052-1.276 4.366-2.32 5.143-2.32.777 0 1.672-.675 1.989-1.5.316-.825 1.489-1.5 2.607-1.5 1.117 0 2.031-.34 2.031-.756s1.418-1.383 3.15-2.15c3.745-1.658 6.175-.577 6.699 2.98.191 1.303.979 3.27 1.75 4.37.77 1.101 1.401 2.608 1.401 3.35s.675 2.024 1.5 2.849c2.737 2.737 1.573 5.38-5.75 13.055l-10.086 10.572c-3.726 3.908-6.672 9.243-6.632 12.01.042 2.963 1.751 4.998 5.935 7.068 2.924 1.447 3.941 1.521 6.5.476 2.828-1.155 16.863-14.903 44.633-43.721 12.399-12.869 15.101-14.681 18.999-12.746 3.489 1.733 3.454 4.825-.139 12.415A7416.59 7416.59 0 0 0 521.783 330a65559.38 65559.38 0 0 0-5.638 12c-.905 1.925-1.982 3.65-2.395 3.833-.412.184-.75.935-.75 1.669 0 .735-.647 2.61-1.439 4.167a193.38 193.38 0 0 0-3.027 6.331c-.874 1.925-1.963 4.175-2.42 5-3.258 5.887-4.114 8.227-4.114 11.249 0 4.145 2.43 6.644 7.126 7.328 5.896.86 8.656-1.587 13.837-12.266 1.117-2.305 2.483-4.469 3.034-4.809.552-.341 1.003-1.493 1.003-2.561 0-1.068.45-1.941 1-1.941s1-.643 1-1.429c0-.785.563-2.023 1.25-2.75.688-.726 2.744-4.246 4.569-7.821 1.826-3.575 4.651-8.75 6.279-11.5 1.627-2.75 3.424-6.116 3.993-7.48.569-1.363 1.343-2.713 1.722-3 .378-.286 1.931-2.995 3.451-6.02 2.659-5.292 7.783-12 9.165-12 .367 0 1.658-1.038 2.869-2.307 2.833-2.968 11.429-8.693 13.052-8.693.688 0 1.745-.495 2.349-1.099 1.402-1.402 4.929-.313 5.728 1.769.336.876.082 5.376-.565 9.999-.932 6.666-.901 10.478.149 18.413.728 5.504 1.699 10.239 2.157 10.522.457.283.832 1.557.832 2.833 0 1.275.675 2.878 1.5 3.563s1.5 1.71 1.5 2.278c0 .568 1.125 2.508 2.5 4.311s2.5 3.661 2.5 4.129c0 1.306 5.54 4.282 7.97 4.282 4.482 0 6.03-1.755 6.03-6.835 0-2.621-.55-5.315-1.222-5.987-1.704-1.704-2.307-26.289-.789-32.178.639-2.475 1.529-6.3 1.979-8.5.73-3.571 1.609-6.375 4.076-13 3.867-10.387 4.086-11.738 4.117-25.483.018-7.765-.408-14.626-.949-15.298-1.188-1.476-2.309-6.439-2.432-10.766-.079-2.753 1.179-4.401 9.399-12.316 5.22-5.025 13.221-12.512 17.781-16.637 4.56-4.125 12.67-11.775 18.023-17 5.352-5.225 14.148-13.55 19.546-18.5 5.398-4.95 12.183-11.362 15.077-14.25 2.895-2.887 5.743-5.25 6.329-5.25.586 0 1.065-.675 1.065-1.5s.345-1.5.767-1.5c.422 0 4.265-3.419 8.54-7.599 6.744-6.592 7.603-7.815 6.483-9.23-2.19-2.77-26.044-26.17-26.685-26.179-.333-.005-3.003-2.255-5.933-5-2.931-2.746-5.706-4.992-6.167-4.992-.461 0-.988-.341-1.172-.757-.183-.417-2.198-2.217-4.477-4-4.005-3.134-6.346-4.051-6.365-2.493-.005.413-3.043 3.96-6.75 7.882A1347.33 1347.33 0 0 0 644 116.007c-4.125 4.533-10.65 11.507-14.5 15.498-3.85 3.991-9.983 10.572-13.629 14.626-3.645 4.053-10.058 10.931-14.25 15.284-4.191 4.354-7.621 8.069-7.621 8.256 0 .187-1.912 2.277-4.25 4.644-2.337 2.367-7.077 7.314-10.533 10.994L572.935 192h-7.909c-4.349 0-8.149.389-8.443.865-.294.476-2.233 1.099-4.309 1.384-2.076.286-6.333 1.696-9.46 3.135-3.127 1.439-6.634 2.616-7.793 2.616-1.993 0-10.83-7.244-13.955-11.439-.795-1.067-2.269-2.764-3.276-3.771-2.247-2.247-10.678-14.481-11.897-17.263-.489-1.115-1.301-2.702-1.806-3.527-.504-.825-2.125-4.2-3.6-7.5-7.067-15.804-18.897-29.144-33.987-38.326-5.5-3.346-10.585-7.034-11.299-8.195-1.021-1.657-1.084-4.189-.294-11.795.553-5.326 1.241-26.109 1.527-46.184.287-20.075.8-37.479 1.141-38.676 1.095-3.845-4.257-4.615-34.075-4.902-19.342-.186-29.23.127-34.861 1.103M225.42 359.732c1.007 4.272 2.449 9.186 3.205 10.919.756 1.733 1.375 4.471 1.375 6.083 0 1.613.337 3.27.749 3.682.796.796 3.049 8.974 3.924 14.24.469 2.827.174 3.31-2.825 4.624-4.792 2.1-15.286 4.72-18.903 4.72-4.605 0-19.98-3.021-23.681-4.654-4.857-2.141-5.981-4.954-3.175-7.94 1.243-1.323 2.628-2.406 3.078-2.406 2.192 0 16.875-14.805 19.48-19.643.994-1.846 2.155-3.357 2.58-3.357.425 0 .773-.845.773-1.878 0-1.032.675-2.437 1.5-3.122s1.5-2.035 1.5-3c0-1.927 2.374-8.053 3.588-9.259 1.783-1.772 5.072 3.518 6.832 10.991m257.979-172.274c.606 1.077 1.664 2.571 2.351 3.321.688.75 1.25 1.671 1.25 2.045 0 .81 13.691 15.176 14.463 15.176.293 0 2.776 1.612 5.518 3.582 4.874 3.501 4.954 3.642 3.565 6.25-3.071 5.77-16.344 16.168-20.637 16.168-1.535 0-3.032.391-3.328.868-.295.478-2.848 1.175-5.675 1.55-6.016.798-8.906-.971-8.906-5.451 0-1.497-.675-4.338-1.5-6.313-1.914-4.581-1.919-12.955-.011-19.245.819-2.7 1.494-6.302 1.5-8.005.01-2.933 2.104-8.357 4.325-11.205 1.435-1.839 5.777-1.068 7.085 1.259M248 348.617c0 .76.348 1.383.773 1.383.425 0 1.661 1.688 2.747 3.75 1.086 2.063 2.539 4.345 3.228 5.071.688.727 1.252 1.965 1.252 2.75 0 .786.348 1.429.773 1.429.425 0 1.661 1.688 2.747 3.75 1.086 2.063 2.539 4.345 3.228 5.071.688.727 1.252 1.927 1.252 2.667 0 .74.382 1.495.848 1.679.798.313 6.152 9.35 6.152 10.383 0 1.287-6.879 4.443-9.691 4.446-1.755.002-3.469.454-3.809 1.004-.34.55-2.118 1-3.952 1-3.583 0-4.548-1.249-4.548-5.882 0-1.495-.462-3.18-1.027-3.745-.564-.564-1.275-3.467-1.579-6.45-.303-2.982-.903-6.323-1.333-7.423-1.486-3.808-4.078-16.014-4.069-19.167.004-1.741.554-3.348 1.22-3.57 2.17-.724 5.788.435 5.788 1.854m207.686-84.443c1.272 1.196 2.314 3.131 2.314 4.3s.446 2.572.99 3.116c.545.545 1.28 3.102 1.634 5.682.568 4.142.364 4.924-1.741 6.676-1.31 1.092-2.945 2-3.633 2.019-.687.018-1.25.381-1.25.806 0 .425-1.687 1.65-3.75 2.723-2.062 1.073-5.188 3.01-6.945 4.304-1.781 1.312-4.215 2.209-5.5 2.027-2.273-.322-2.309-.531-2.582-15.077l-.276-14.75h2.326c1.28 0 2.82-.493 3.424-1.097.603-.603 3.505-1.447 6.45-1.875 2.944-.428 5.549-.835 5.789-.903.239-.069 1.477.853 2.75 2.049m54.279 16.76c.569 1.064 1.035 2.679 1.035 3.589 0 2.041-14.174 16.477-16.178 16.477-1.808 0-4.822-6.133-4.822-9.812 0-3.177 1.812-4.955 8.404-8.247 2.608-1.303 4.961-2.722 5.228-3.155.958-1.55 5.311-.761 6.333 1.148m-11.019-25.684c.72 1.838.333 2.745-2.112 4.952-1.647 1.486-4.308 3.283-5.914 3.994-1.606.711-2.92 1.632-2.92 2.048 0 .416-1.042.756-2.315.756-1.675 0-2.791-1-4.041-3.621-2.259-4.737-.708-7.286 5.434-8.932 7.462-2.001 10.86-1.771 11.868.803m-53.558-20.374c2.562 2.831 3.174 8.42 1.143 10.45-.921.921-2.515 1.674-3.543 1.674-1.029 0-2.148.45-2.488 1-.965 1.561-4.219 1.174-4.893-.582-1.284-3.345-.62-10.096 1.143-11.633 3.592-3.129 6.365-3.421 8.638-.909M625.486 385.167c-1.643.993-3.548 2.572-4.236 3.51-1.491 2.034-1.562 10.063-.144 16.323a270.995 270.995 0 0 1 1.847 9c.455 2.475 1.327 6.072 1.937 7.993.611 1.922 1.11 4.933 1.11 6.691 0 1.759.45 3.476 1 3.816.55.34 1.02 2.279 1.044 4.309.024 2.03.692 5.491 1.485 7.691.792 2.2 1.448 5.436 1.456 7.191.008 1.755.404 3.432.88 3.726 1.076.665 2.166 8.339 1.449 10.206-.29.757-1.807 1.377-3.37 1.377-3.179 0-4.534-1.548-12.54-14.331a2179.152 2179.152 0 0 0-6.609-10.5c-.938-1.468-2.442-4.111-3.343-5.873-.9-1.762-2.27-3.73-3.044-4.372-.774-.643-1.408-1.976-1.408-2.963 0-.987-.346-1.944-.768-2.128-1.102-.478-7.232-10.3-7.232-11.587 0-.594-.374-1.229-.831-1.413-.457-.183-3.161-4.163-6.009-8.845-10.53-17.309-19.393-23.481-25.91-18.044-3.802 3.171-3.143 10.3 1.75 18.936 2.2 3.882 4 7.522 4 8.089 0 .567.356 1.031.792 1.031.435 0 1.493 1.463 2.35 3.25 1.81 3.773 6.691 12.702 9.704 17.75 1.149 1.925 3.012 5.3 4.139 7.5 1.128 2.2 2.605 4.883 3.283 5.962 4.027 6.412 5.732 9.665 5.732 10.935 0 .79.383 1.586.85 1.77 1.569.615 7.15 11.697 7.15 14.197 0 7.38-3.847 7.511-11.344.386-3.039-2.887-11.708-11.1-19.265-18.25-7.558-7.15-19.158-18.287-25.778-24.75-6.62-6.462-12.291-11.75-12.604-11.75-.312 0-1.229-.928-2.038-2.063-2.534-3.552-7.421-5.939-12.089-5.904-6.279.048-10.882 4.632-10.882 10.839 0 5.619.495 6.162 41.579 45.628 29.392 28.235 26.569 24.968 26.222 30.339-.296 4.586-.36 4.666-3.985 4.967-2.823.235-6.366-.992-15.156-5.25-6.309-3.056-11.963-5.556-12.565-5.556-.602 0-1.095-.45-1.095-1s-.571-1-1.269-1-4.852-1.8-9.231-4-8.533-4-9.231-4c-.698 0-1.269-.414-1.269-.921 0-.506-1.35-1.217-3-1.579-1.65-.362-3-1.073-3-1.579 0-.507-1.098-.921-2.441-.921-1.343 0-2.712-.438-3.042-.973-.647-1.047-5.604-3.462-9.267-4.515-1.237-.356-2.25-1.009-2.25-1.452 0-1.216-7.734-2.201-11.596-1.476-1.872.351-3.404 1.071-3.404 1.599s-.675 1.635-1.5 2.46-1.5 3.233-1.5 5.352c0 4.596 2.989 8.568 8.651 11.495 2.117 1.095 4.074 2.221 4.349 2.501.275.281 2.75 1.599 5.5 2.929 2.75 1.331 5.225 2.704 5.5 3.052.275.348 2.075 1.409 4 2.358 1.925.949 4.175 2.113 5 2.588.825.474 3.188 1.689 5.25 2.699 2.063 1.011 3.75 2.185 3.75 2.61 0 .425.81.773 1.8.773s2.293.493 2.896 1.096c1.065 1.065 4.024 2.737 13.985 7.903 2.651 1.375 5.044 2.776 5.319 3.115.275.339 1.513.932 2.75 1.319 1.238.386 2.25 1.121 2.25 1.634 0 .513.714.933 1.587.933 4.213 0 15.693 10.314 22.135 19.886 2.078 3.088 4.116 5.764 4.528 5.947.413.184.75.987.75 1.786 0 .798.712 2.539 1.583 3.867 1.825 2.785 1.138 6.15-1.42 6.962-.954.303-5.094.03-9.199-.607-16.338-2.533-31.479-.501-43.863 5.889-2.419 1.249-5.007 2.27-5.75 2.27-.743 0-1.351.413-1.351.918 0 .506-1.687 1.945-3.75 3.199-5.74 3.49-7.25 5.668-7.25 10.454 0 7.006.426 7.429 7.485 7.429 3.456 0 7.97-.71 10.056-1.582 3.065-1.28 6.963-1.518 20.471-1.25 10.55.21 17.201.752 18.087 1.475.77.628 3.426 1.351 5.901 1.607 4.818.497 8.561 1.704 16.5 5.322 5.098 2.323 6.074 2.521 22.284 4.503 7.007.857 10.932.849 16-.033 3.694-.642 8.741-1.395 11.216-1.673 2.475-.278 5.918-1.15 7.651-1.937 5.91-2.685 5.358-3.07 22.849 15.956 4.95 5.385 12.375 13.248 16.5 17.475 4.125 4.226 13.35 13.955 20.5 21.62 15.816 16.953 18.365 19.528 19.284 19.477.394-.022 2.516-2.347 4.716-5.167s4.9-6.141 6-7.38c3.463-3.901 5.222-6.095 6.125-7.643.481-.825 2.087-3.023 3.567-4.885 3.62-4.551 8.449-11.554 15.436-22.385 3.193-4.95 6.158-9.15 6.589-9.333.431-.184.783-1.106.783-2.05 0-.945.477-2.194 1.059-2.776.746-.746-.068-2.108-2.75-4.602a8287.09 8287.09 0 0 0-11.755-10.891c-4.37-4.041-10.392-9.71-13.382-12.598-2.991-2.887-5.546-5.25-5.679-5.25-.298 0-16.858-15.465-24.725-23.09L705 553.32v-10.601c0-5.989-.435-10.87-1-11.219-.55-.34-1.003-1.604-1.006-2.809-.004-1.205-.679-3.48-1.5-5.055-.822-1.576-1.494-3.938-1.494-5.25 0-1.312-.42-2.386-.933-2.386-.513 0-1.248-1.012-1.634-2.25-.387-1.237-.979-2.475-1.318-2.751-1.13-.92-4.115-7.143-4.115-8.58 0-.78-.375-1.419-.834-1.419-.458 0-2.471-2.362-4.473-5.25-2.002-2.887-6.24-8.001-9.417-11.364-14.218-15.049-18.824-20.792-19.561-24.386-.59-2.879-2.584-8.7-3.849-11.236-.476-.955-.882-2.98-.901-4.5-.02-1.52-.679-3.889-1.465-5.264-.786-1.375-1.445-4.097-1.465-6.05-.019-1.952-.459-3.977-.978-4.5-.946-.954-2.785-7.351-3.723-12.95-.276-1.65-1.139-4.418-1.918-6.151-.779-1.733-1.416-4.012-1.416-5.063 0-1.051-1.125-4.244-2.5-7.094-1.375-2.85-2.5-5.634-2.5-6.187 0-.553-.42-1.005-.933-1.005-.513 0-1.186-.787-1.497-1.75-.311-.962-1.81-2.456-3.332-3.318-2.547-1.444-3.004-1.425-5.752.235" fill="#000000FF" stroke="#000000FF"/><path d="M398.329 474.85c-1.194.357-3.179 1.937-4.41 3.511l-2.239 2.861.681 42.728c.674 42.359.662 42.751-1.413 45.389-1.208 1.535-3.089 2.661-4.448 2.661-3.004 0-6.5-4.376-6.5-8.135 0-1.576-.414-2.865-.921-2.865-.506 0-1.207-1.462-1.558-3.25-.64-3.264-.967-4.172-3.919-10.901-.881-2.008-1.602-4.596-1.602-5.75 0-1.155-.41-2.099-.912-2.099s-1.216-1.798-1.587-3.995-1.086-4.248-1.588-4.559c-.502-.31-.927-1.55-.945-2.755-.017-1.205-.692-3.065-1.5-4.132-.807-1.068-1.468-2.954-1.468-4.191 0-1.238-.45-2.528-1-2.868-.55-.34-1-1.63-1-2.868 0-1.237-.661-3.123-1.468-4.191-.808-1.067-1.483-2.927-1.5-4.132-.018-1.205-.432-2.438-.921-2.741-.489-.302-1.176-1.69-1.526-3.084-1.675-6.675-10.548-8.974-15.212-3.942-3.013 3.252-3.929 6.943-2.5 10.079.62 1.36 1.127 3.727 1.127 5.259 0 1.533.291 3.078.647 3.434 1.303 1.303 4.289 11.279 4.32 14.436.018 1.788.463 3.25.988 3.25.525 0 1.232 1.688 1.572 3.75.339 2.063.964 4.65 1.389 5.75 2 5.181 4.084 12.464 4.084 14.27 0 1.101.672 3.29 1.494 4.866.821 1.575 1.496 3.883 1.5 5.128.003 1.245.402 3.045.885 4 .484.955 1.672 4.148 2.641 7.097 2.766 8.422 1.312 23.486-3.464 35.889-.991 2.574-1.823 3.25-3.999 3.25-2.485 0-6.057-2.578-6.057-4.371 0-1.673-12.339-14.486-17-17.654-1.925-1.308-3.725-2.625-4-2.927-.528-.579-5.484-2.939-10.5-5a107.798 107.798 0 0 1-5.831-2.641c-1.637-.814-5.84-1.407-9.968-1.407-6.485 0-7.346.243-9.419 2.656-1.255 1.46-2.282 3.303-2.282 4.095 0 2.194 3.268 7.249 4.686 7.249 1.603 0 9.718 5.532 14.292 9.741 1.937 1.783 3.86 3.246 4.272 3.25.413.005.75.389.75.853 0 .464 2.25 3.191 5 6.059 2.75 2.868 5 5.606 5 6.084 0 .479.563 1.484 1.25 2.234 1.851 2.02 3.313 4.559 6.779 11.779 1.716 3.575 3.797 7.755 4.625 9.288a519.58 519.58 0 0 1 2.675 5.033c4.726 9.06 17.346 22.453 22.921 24.325.963.323 1.75.932 1.75 1.354 0 .422.788 1.051 1.75 1.399 1.824.66 3.863 1.854 8.5 4.978l2.75 1.853-.063 23.635c-.035 12.999-.477 27.46-.984 32.135-.507 4.675-1.222 22.547-1.59 39.717l-.669 31.216 2.652 1.008c3.885 1.478 50.69 3.494 60.904 2.625l8.75-.746-.044-30.16c-.024-16.588-.477-32.185-1.006-34.66-.53-2.475-1.253-16.947-1.607-32.16l-.644-27.66 5.651-5.834c3.107-3.208 5.65-6.399 5.65-7.09 0-.691.401-1.256.892-1.256.49 0 1.174-1.125 1.519-2.5s1.069-2.5 1.608-2.5a.98.98 0 0 0 .981-.973c0-.535 1.056-3.347 2.347-6.25 5.31-11.943 6.453-17.869 7.767-40.277 1.248-21.271 2.642-26.991 8.579-35.183 1.269-1.751 2.307-3.889 2.307-4.75 0-.862.42-1.567.933-1.567.513 0 1.24-1.012 1.616-2.25.376-1.237 1.655-3.6 2.843-5.25 1.189-1.65 3.049-4.8 4.134-7 1.086-2.2 2.199-4.225 2.474-4.5 3.051-3.051 11.322-21.292 11.77-25.958.667-6.939-.808-9.042-6.339-9.042-5.043 0-8.309 2.549-11.908 9.294-1.088 2.038-2.273 3.706-2.634 3.706-.361 0-.92.788-1.243 1.75-.606 1.805-2.719 5.368-3.706 6.25-.307.275-2.716 3.988-5.353 8.25-2.637 4.263-5.197 7.75-5.691 7.75-.493 0-.896.662-.896 1.471 0 1.51-5.905 10.765-7.25 11.362-.412.184-.75.764-.75 1.291 0 1.96-4.441 6.876-6.213 6.876-1.01 0-2.23-1.035-2.711-2.301-1.003-2.637-.242-11.479 1.057-12.281.477-.295.867-1.889.867-3.543 0-1.653.482-3.907 1.071-5.007.589-1.101 1.471-4.109 1.959-6.685.489-2.575 1.407-7.383 2.041-10.683.633-3.3 1.551-6.427 2.04-6.95.489-.522.915-2.097.947-3.5.064-2.866 3.1-14.951 4.185-16.662 1.148-1.812 1.953-22.63 1-25.888-.794-2.715-1.323-3.029-5.576-3.305-3.401-.222-5.17.165-6.405 1.4-2.336 2.336-4.262 6.23-4.262 8.618 0 1.092-.634 3.403-1.409 5.136s-1.644 4.276-1.931 5.651c-1.389 6.651-2.864 11.59-3.717 12.45-.519.523-.943 2.574-.943 4.559 0 1.985-.661 4.482-1.468 5.55-.808 1.067-1.483 3.377-1.5 5.132-.018 1.755-.482 3.469-1.032 3.809-.55.34-1.003 1.604-1.006 2.809-.004 1.205-.679 3.48-1.5 5.055-.822 1.576-1.51 4.276-1.529 6-.02 1.725-.679 4.261-1.465 5.636s-1.445 3.703-1.465 5.173c-.032 2.474-5.04 8.827-6.957 8.827-.422 0-1.625-.947-2.673-2.104-1.799-1.987-1.92-4.401-2.173-43.25-.289-44.22-.88-49.885-5.551-53.157-2.18-1.526-6.499-1.793-10.352-.639" fill="#000000FF" stroke="#000000FF"/></svg>