<svg version="1.0" xmlns="http://www.w3.org/2000/svg" width="1096" height="800pt" viewBox="0 0 822 800"><path d="M392 21.417c0 2.18-8.213 3.504-26.292 4.237-11.14.452-16.876 1.091-18.345 2.043-1.175.761-6.125 1.661-11 1.999-4.874.339-9.831 1.243-11.014 2.01-1.182.766-5.345 1.662-9.25 1.989-3.904.327-7.099.959-7.099 1.403 0 1.083-6.704 2.889-10.75 2.896-1.787.003-3.25.412-3.25.908 0 1.154-5.534 3.098-8.82 3.098-1.388 0-3.29.694-4.227 1.543-.938.848-3.448 1.809-5.579 2.135-2.131.326-4.627 1.245-5.546 2.042-.92.797-3.547 1.701-5.837 2.008-2.29.307-4.399 1.172-4.687 1.921-.287.749-2.245 1.638-4.351 1.975-2.106.336-4.052 1.191-4.324 1.9-.271.708-1.987 1.605-3.811 1.993-1.825.388-3.993 1.277-4.818 1.976-.825.699-2.625 1.602-4 2.007s-3.175 1.305-4 2c-.825.695-2.625 1.604-4 2.019-1.375.416-3.573 1.594-4.885 2.619-1.312 1.024-2.999 1.862-3.75 1.862-.751 0-2.265.9-3.365 2s-2.9 2-4 2-2 .444-2 .987c0 .542-1.462 1.675-3.25 2.517-4.766 2.246-8.835 4.76-10.916 6.746C197.825 85.213 196.1 86 195 86c-1.111 0-2 .667-2 1.5 0 .825-.605 1.5-1.344 1.5-.74 0-2.652 1.124-4.25 2.499-1.599 1.374-3.453 2.499-4.121 2.5-.668 0-1.696.901-2.285 2.001-.589 1.1-1.485 2-1.992 2-.507 0-3.377 2.475-6.378 5.5-3.001 3.025-5.915 5.5-6.476 5.5-.56 0-1.305.9-1.654 2s-1.249 2-2 2c-.751 0-1.651.9-2 2s-1.249 2-2 2c-.751 0-1.651.9-2 2s-1.249 2-2 2c-.751 0-1.651.9-2 2s-1.249 2-2 2c-.751 0-1.651.9-2 2s-1.249 2-2 2c-.751 0-1.651.9-2 2s-1.249 2-2 2c-.751 0-1.651.9-2 2s-1.279 2-2.067 2c-.788 0-1.433.48-1.433 1.068 0 .587-2.7 3.742-6 7.012-3.3 3.269-6 6.181-6 6.471 0 .289-1.8 2.4-4 4.689-2.2 2.29-4 4.457-4 4.815 0 .359-1.125 1.867-2.5 3.35-1.375 1.484-2.5 3.125-2.5 3.647 0 .521-.675.948-1.5.948s-1.5.605-1.5 1.345-.9 2.16-2 3.155c-1.1.995-2 2.345-2 3 0 .655-.9 2.005-2 3-1.1.995-2 2.399-2 3.12 0 .72-.9 1.791-2 2.38s-2 1.66-2 2.38c0 .721-.9 2.125-2 3.12-1.1.995-2 2.267-2 2.826 0 .559-.748 1.843-1.661 2.852-1.886 2.084-3.614 4.912-5.775 9.451-.819 1.721-2.181 3.394-3.027 3.718-.845.325-1.537 1.66-1.537 2.967 0 1.307-.9 3.191-2 4.186-1.1.995-2 2.57-2 3.5 0 .93-.9 2.505-2 3.5-1.1.995-2 2.58-2 3.52 0 .941-.9 2.854-2 4.253-1.1 1.398-2 3.198-2 4 0 .801-.9 2.601-2 4-1.1 1.398-2 3.415-2 4.482 0 1.066-.9 2.977-2 4.245-1.1 1.268-2 3.307-2 4.531 0 1.223-.663 2.774-1.474 3.447-.81.673-1.775 2.865-2.144 4.872-.37 2.008-1.507 4.723-2.527 6.035-1.02 1.312-1.855 3.877-1.855 5.7 0 1.897-.637 3.672-1.49 4.149-.837.469-1.771 3.008-2.134 5.8-.355 2.731-1.233 5.647-1.951 6.478-.717.832-1.764 4.365-2.325 7.85-.562 3.486-1.518 6.937-2.126 7.669-.607.732-1.353 3.949-1.656 7.15-.304 3.2-1.18 6.823-1.947 8.051-.766 1.228-1.673 5.728-2.015 10-.341 4.272-1.233 9.277-1.981 11.121-.767 1.892-1.785 10.61-2.336 20-.538 9.156-1.441 18.219-2.008 20.14-1.35 4.576-1.334 36.514.021 41.014.578 1.921 1.467 10.805 1.974 19.742.574 10.124 1.444 17.286 2.309 19 .762 1.513 1.66 6.457 1.993 10.987.334 4.529 1.243 9.254 2.021 10.5.777 1.245 1.688 5.105 2.023 8.577.344 3.554 1.27 6.971 2.119 7.821.83.83 1.509 3.135 1.509 5.122s.851 5.442 1.892 7.678c1.041 2.236 2.146 5.809 2.457 7.94.311 2.131 1.26 4.641 2.108 5.579.849.937 1.543 3.063 1.543 4.723 0 1.66.843 3.99 1.873 5.178 1.031 1.188 2.152 3.898 2.491 6.023.34 2.125 1.297 4.427 2.127 5.116.83.688 1.509 2.261 1.509 3.495 0 1.233.9 3.386 2 4.785 1.1 1.398 2 3.301 2 4.227 0 .926.9 2.829 2 4.227 1.1 1.399 2 3.313 2 4.255 0 .942.9 2.75 2 4.018 1.1 1.268 2 2.954 2 3.745 0 .792.9 2.584 2 3.982 1.1 1.399 2 3.282 2 4.186 0 .903.9 2.413 2 3.355 1.1.942 2 2.547 2 3.567s.9 2.67 2 3.665c1.1.995 2 2.345 2 3 0 .655.9 2.005 2 3 1.1.995 2 2.654 2 3.686s.692 2.142 1.537 2.467c.846.324 2.208 1.997 3.027 3.718 2.599 5.46 4.244 7.942 5.863 8.848.865.484 1.573 1.463 1.573 2.176 0 .712.9 2.11 2 3.105 1.1.995 2 2.399 2 3.12 0 .72.9 1.791 2 2.38s2 1.714 2 2.5.9 1.911 2 2.5 2 1.73 2 2.535c0 .806.438 1.465.974 1.465s1.616 1.238 2.401 2.75c.784 1.513 3.045 4.415 5.025 6.45 1.98 2.036 3.6 4.143 3.6 4.683s.9 1.268 2 1.617 2 1.051 2 1.559c0 1.244 28.361 29.482 30.395 30.262.883.339 1.605 1.305 1.605 2.148 0 .842.514 1.531 1.142 1.531.628 0 3.513 2.025 6.41 4.5 2.897 2.475 5.548 4.5 5.891 4.5.343 0 2.199 1.575 4.124 3.5 1.925 1.925 3.822 3.501 4.216 3.501.394.001 2.024 1.126 3.623 2.5 1.598 1.375 3.285 2.499 3.75 2.499.464 0 1.712.788 2.772 1.75 3.944 3.579 5.546 4.782 8.027 6.028 3.963 1.99 6.873 3.767 8.788 5.367.966.808 2.995 1.996 4.507 2.64 1.513.645 2.75 1.632 2.75 2.194 0 .561.9 1.021 2 1.021s2.9.9 4 2 2.614 2 3.365 2c.751 0 2.438.838 3.75 1.862 1.312 1.025 3.357 2.167 4.545 2.539 1.188.372 2.705 1.334 3.372 2.138.667.803 2.198 1.461 3.402 1.461 1.204 0 3.155.9 4.336 2 1.18 1.1 3.005 2 4.053 2 1.049 0 2.98.835 4.292 1.855 1.312 1.02 4.029 2.158 6.038 2.527 2.01.37 3.908 1.335 4.219 2.145.318.828 1.833 1.473 3.462 1.473 1.593 0 4.04.9 5.439 2 1.398 1.1 3.934 2 5.635 2 1.7 0 3.926.834 4.945 1.853 1.06 1.06 3.926 2.087 6.69 2.399 2.659.3 5.315 1.201 5.901 2.002.63.862 3.406 1.652 6.795 1.933 3.367.279 6.491 1.163 7.574 2.144 1.15 1.041 3.547 1.669 6.367 1.669 4.749 0 10.82 1.66 10.82 2.959 0 .42 4.042.994 8.982 1.276 5.406.308 9.886 1.098 11.25 1.984 1.579 1.025 6.519 1.659 16.268 2.088 7.7.338 16.678 1.326 19.951 2.194 7.886 2.091 39.768 1.605 53.549-.817 5.225-.918 13.453-1.673 18.285-1.677 6.342-.005 9.461-.45 11.215-1.599 1.481-.97 5.669-1.81 10.715-2.148 5.207-.349 9.58-1.244 11.77-2.408 2.036-1.082 5.538-1.852 8.421-1.852 3.179 0 5.584-.586 6.755-1.646 1-.905 4.186-1.873 7.079-2.151 2.893-.278 5.726-1.142 6.295-1.92.569-.779 3.044-1.678 5.5-1.999 2.456-.32 5.538-1.415 6.85-2.433 1.312-1.018 3.716-1.851 5.342-1.851 1.627 0 4.102-.9 5.5-2 1.399-1.1 3.832-2 5.408-2 1.576 0 2.865-.378 2.865-.839 0-1.02 4.498-3.161 6.639-3.161.85 0 2.69-.9 4.088-2 1.399-1.1 3.507-2 4.686-2 1.178 0 2.913-.9 3.855-2 .942-1.1 2.742-2 4-2s3.058-.9 4-2c.942-1.1 2.617-2 3.722-2 1.106 0 2.91-.9 4.01-2 1.1-1.1 2.878-2 3.95-2 1.073 0 2.31-.607 2.75-1.349.788-1.329 3.67-3.087 10.05-6.128 1.788-.853 3.25-1.985 3.25-2.517 0-.533 1.092-1.242 2.426-1.577 1.335-.335 3.205-1.468 4.155-2.519.951-1.05 2.559-1.91 3.574-1.91 1.015 0 1.845-.675 1.845-1.5s.64-1.5 1.423-1.5 2.761-1.125 4.395-2.5c1.634-1.375 3.368-2.5 3.854-2.5.486 0 1.607-.787 2.492-1.75.885-.962 2.672-2.541 3.972-3.509 1.3-.967 3.779-2.88 5.508-4.25 1.73-1.37 3.381-2.491 3.669-2.491.288 0 2.328-1.687 4.533-3.75 2.204-2.062 6.178-5.55 8.83-7.75 6.261-5.195 27.184-26.092 34.843-34.802 3.289-3.74 7.556-8.526 9.481-10.634 3.583-3.925 4.509-5.158 8.122-10.814 1.141-1.787 2.481-3.25 2.977-3.25.495 0 .901-.649.901-1.443s.794-2.032 1.765-2.75c.971-.719 2.312-2.544 2.979-4.057.667-1.512 1.624-2.75 2.126-2.75.502 0 1.196-1.125 1.541-2.5s1.047-2.5 1.561-2.5 1.682-1.575 2.595-3.5c.913-1.925 2.06-3.5 2.547-3.5.487 0 .886-.884.886-1.965 0-1.08.9-2.446 2-3.035s2-1.959 2-3.045c0-1.086.9-2.745 2-3.687 1.1-.942 2-2.443 2-3.335 0-.893.9-2.438 2-3.433 1.1-.995 2-2.57 2-3.5 0-.93.9-2.505 2-3.5 1.1-.995 2-2.861 2-4.147 0-1.285.9-2.898 2-3.585 1.168-.73 2-2.332 2-3.854 0-1.432.9-3.419 2-4.414 1.1-.995 2-2.805 2-4.02 0-1.216.9-3.354 2-4.753 1.1-1.398 2-3.423 2-4.5 0-1.076.9-3.101 2-4.5 1.1-1.398 2-3.713 2-5.145 0-1.431.9-3.372 2-4.314 1.345-1.152 2-2.95 2-5.49 0-2.445.706-4.484 2-5.778 1.31-1.31 2-3.333 2-5.865 0-2.351.784-4.861 2-6.408 1.215-1.544 2-4.057 2-6.4 0-2.121.9-5.536 2-7.588 1.105-2.062 2-5.642 2-8 0-2.358.895-5.939 2-8 1.367-2.551 2.014-5.71 2.044-9.985.024-3.44.759-8.054 1.634-10.254 1.037-2.607 1.851-9.225 2.338-19 .411-8.25 1.342-17.025 2.069-19.5 1.77-6.024 1.853-35.019.116-40.5-.698-2.2-1.518-10.525-1.825-18.5-.398-10.365-1.101-16.141-2.466-20.254-1.051-3.165-1.91-8.454-1.91-11.754 0-4.089-.637-7.188-2-9.731-1.234-2.302-2.003-5.653-2.007-8.746-.004-3.322-.677-6.028-1.993-8.015-1.142-1.724-1.992-4.702-2-7-.008-2.298-.858-5.276-2-7-1.093-1.65-1.99-4.504-1.993-6.342-.004-1.839-.907-4.487-2.007-5.885-1.1-1.399-2-3.874-2-5.5 0-1.627-.9-4.102-2-5.5-1.1-1.399-2-3.649-2-5 0-1.352-.9-3.602-2-5-1.1-1.399-2-3.607-2-4.908 0-1.301-.9-3.265-2-4.365s-2-3.139-2-4.531c0-1.393-.648-2.78-1.439-3.084-.791-.304-1.75-1.977-2.13-3.719-.38-1.741-1.533-4.239-2.561-5.551-1.029-1.312-1.87-2.999-1.87-3.75 0-.751-.9-2.265-2-3.365s-2-3.017-2-4.259c0-1.243-.9-2.822-2-3.509-1.1-.687-2-2.262-2-3.5s-.9-2.813-2-3.5c-1.1-.687-2-1.92-2-2.74 0-.821-.9-2.392-2-3.492s-2-2.9-2-4-.666-2-1.481-2c-.814 0-1.755-1.092-2.09-2.426-.335-1.335-1.468-3.205-2.519-4.155-1.05-.951-1.91-2.184-1.91-2.74s-.673-1.724-1.495-2.595c-3.516-3.726-6.505-7.971-6.505-9.238 0-.751-.9-1.927-2-2.614-1.1-.687-2-1.92-2-2.74a1.5 1.5 0 0 0-1.5-1.492c-.825 0-1.5-.384-1.5-.854s-1.012-2.001-2.25-3.403a98.657 98.657 0 0 1-4.25-5.234c-1.1-1.476-3.012-3.708-4.25-4.961-1.237-1.252-2.25-2.544-2.25-2.87 0-.997-30.046-30.678-31.056-30.678-.519 0-.944-.675-.944-1.5s-.689-1.5-1.531-1.5c-.843 0-1.776-.638-2.075-1.417-.299-.779-2.253-2.548-4.342-3.93-2.089-1.383-4.959-3.558-6.378-4.833a103.546 103.546 0 0 0-5.189-4.32c-1.436-1.1-3.357-2.787-4.27-3.75-.913-.962-2.196-1.75-2.852-1.75-1.116 0-4.025-2.147-8.468-6.25-1.042-.962-2.322-1.75-2.843-1.75-.522 0-2.163-1.125-3.647-2.5-1.483-1.375-3.306-2.5-4.051-2.5-.745 0-1.354-.444-1.354-.987 0-.542-1.462-1.675-3.25-2.517-5.225-2.462-9.193-4.908-10.006-6.168-.416-.644-2.066-1.459-3.666-1.811-1.601-.352-3.143-1.244-3.427-1.984-.284-.739-1.927-1.654-3.651-2.033-1.724-.379-3.361-1.277-3.637-1.996-.276-.719-2.069-1.601-3.985-1.961-1.916-.359-3.716-1.259-4-2-.284-.74-2.084-1.64-4-2-1.916-.359-3.733-1.304-4.038-2.098-.304-.795-1.631-1.445-2.947-1.445s-3.293-.9-4.393-2c-1.1-1.1-3.064-2-4.365-2-1.301 0-3.438-.831-4.75-1.847-1.312-1.016-4.184-2.131-6.382-2.477-2.198-.347-4.448-1.242-5-1.99-.552-.748-3.016-1.679-5.477-2.07-2.461-.391-5.161-1.305-6-2.031-.839-.725-3.539-1.625-6-2-2.461-.374-5.161-1.274-6-1.999-.839-.725-3.95-1.589-6.913-1.921-2.963-.332-6.113-1.234-7-2.005-.887-.771-4.442-1.643-7.899-1.939-3.457-.296-7.282-1.184-8.5-1.974-1.248-.809-6.088-1.704-11.091-2.052-5.387-.373-9.516-1.169-10.5-2.023-1.171-1.015-6.077-1.588-17.623-2.059-17.432-.712-23.335-1.667-25.083-4.058-1.615-2.209-31.417-2.339-31.417-.138m49.581 9.67c6.113.374 12.19 1.255 13.504 1.959 1.378.737 7.954 1.537 15.527 1.889 8.443.393 13.693 1.073 14.693 1.903.856.711 4.082 1.553 7.168 1.871 4.044.418 5.888 1.098 6.604 2.435.546 1.021 1.817 1.856 2.823 1.856 1.007 0 2.974.9 4.373 2 1.398 1.1 3.048 2 3.666 2 .618 0 1.388.688 1.711 1.529.52 1.356.719 1.348 1.757-.071 1.826-2.497 11.85-2.188 15.229.471 1.449 1.139 3.854 2.071 5.346 2.071s3.75.9 5.018 2c1.268 1.1 3.33 2 4.582 2 1.251 0 2.928.653 3.726 1.451.798.797 2.742 1.763 4.321 2.145 1.579.383 4.065 1.53 5.525 2.55 1.46 1.02 3.312 1.854 4.116 1.854.803 0 2.604.9 4.003 2 1.398 1.1 3.052 2 3.675 2 .623 0 2.352.806 3.842 1.79 4.62 3.052 6.601 4.2 9.79 5.672 1.693.782 3.661 2.123 4.372 2.98.711.857 1.904 1.558 2.651 1.558 1.53 0 2.935 4.321 1.932 5.943-.359.581-2.378 1.057-4.486 1.057-3.269 0-3.926.373-4.469 2.537-.744 2.966.989 10.175 2.908 12.094.731.731 1.629 3.103 1.995 5.271.367 2.168 1.251 4.166 1.966 4.44.715.274 1.622 2.672 2.014 5.328.393 2.657 1.29 5.505 1.993 6.33.715.84 1.554 5.602 1.905 10.823.388 5.766 1.202 10.143 2.133 11.472.828 1.183 1.506 2.856 1.506 3.719s1.978 3.511 4.395 5.883c4.333 4.252 4.421 4.286 6.25 2.37 1.02-1.068 2.351-2.803 2.957-3.855 2.153-3.734 5.212-2.93 10.488 2.759 8.45 9.111 9.326 9.925 12.41 11.538 1.65.864 3.331 2.07 3.735 2.681.404.61.741-1.027.75-3.64.008-2.612-.38-4.75-.864-4.75-.483 0-1.462-1.462-2.176-3.25-.713-1.787-1.893-3.925-2.622-4.75a767.036 767.036 0 0 0-5.574-6.151c-5.884-6.439-7.743-8.996-8.381-11.527-.302-1.197-1.158-2.411-1.903-2.697-.745-.286-1.649-2.087-2.008-4.003-.36-1.916-1.253-3.713-1.985-3.994-1.578-.606-2.955-8.531-2.003-11.529.521-1.642 1.485-2.099 4.431-2.099 3.181 0 4.257.612 6.933 3.941 1.742 2.168 3.167 4.588 3.167 5.378s.701 2.018 1.558 2.729c.857.711 2.151 2.714 2.877 4.452.726 1.737 3.088 5.017 5.248 7.287l3.928 4.129 7.017-.588c8.023-.673 11.372.508 11.372 4.007 0 1.246-.403 2.692-.896 3.215-1.071 1.136.384 5.45 1.838 5.45 2.352 0 3.866 5.523 3.333 12.16-.484 6.03-.339 6.735 1.596 7.771 1.615.864 2.129 2.084 2.129 5.05 0 4.154-.662 4.78-9 8.514-1.925.862-4.694 2.229-6.154 3.036-3.394 1.878-7.922 1.878-10.405.001-2.522-1.908-5.077-1.922-5.803-.032-.316.825-1.204 1.5-1.972 1.5-2.219 0-6.666 3.969-6.666 5.95 0 .993-.653 2.347-1.451 3.009-.798.663-1.761 3.305-2.141 5.873-.379 2.567-1.526 5.741-2.549 7.053-1.022 1.312-1.859 3.01-1.859 3.775 0 .764-1.237 1.851-2.75 2.416-12.153 4.537-15.796 7.655-11.955 10.232 1.213.814 3.641 2.765 5.396 4.336a213.802 213.802 0 0 0 6.25 5.345c1.683 1.369 3.059 3.041 3.059 3.715 0 .674.9 1.707 2 2.296 1.678.898 2 2.094 2 7.432 0 6.055-.174 6.513-3.611 9.531-1.986 1.744-4.759 3.607-6.162 4.141-2.583.982-9.796.344-14.046-1.242-1.276-.476-3.376-.6-4.668-.276-2.765.694-5.728 6.11-4.578 8.367.433.851 1.067 3.688 1.408 6.305.342 2.616 1.26 5.766 2.041 7 .781 1.233 1.729 3.725 2.107 5.537.845 4.047 4.221 7.844 7.769 8.734 1.462.367 3.182 1.298 3.821 2.069 1.686 2.031 6.7 1.72 9.646-.598 1.399-1.1 3.302-2 4.23-2 2.81 0 6.669-7.088 7.326-13.456.327-3.163 1.246-6.491 2.044-7.397.798-.906 1.76-3.104 2.139-4.886.378-1.781 1.11-3.499 1.626-3.818.516-.319 1.59-2.14 2.387-4.046.796-1.907 2.14-4.158 2.985-5.003.845-.845 1.555-2.067 1.578-2.715.083-2.305 7.125-5.727 13.063-6.348 3.237-.338 6.393-1.226 7.013-1.973 1.466-1.766 7.31-1.752 8.782.021.63.759 2.372 1.631 3.872 1.937 2.372.485 17.228 13.428 17.228 15.01 0 1.356 5.314 5.757 6.039 5.001 2.238-2.333 1.133-4.375-5.039-9.31-3.575-2.859-6.86-5.832-7.3-6.607-.44-.776-1.422-1.41-2.182-1.41-.761 0-1.669-.9-2.018-2-.349-1.1-1.279-2-2.067-2-.788 0-1.433-.432-1.433-.961 0-.529-.937-1.834-2.082-2.901-1.263-1.176-1.952-2.865-1.75-4.289.306-2.164.793-2.347 6.185-2.319 4.356.022 6.174.47 7.11 1.75.692.946 1.767 1.72 2.389 1.72.622 0 1.693.9 2.38 2 .687 1.1 1.598 2 2.025 2 .426 0 2.005 1.394 3.509 3.097 1.504 1.704 3.522 3.829 4.484 4.723.963.893 1.75 2.199 1.75 2.902 0 .703.689 1.278 1.531 1.278.843 0 1.82.75 2.172 1.667.351.917 2.362 3.34 4.468 5.383 2.106 2.044 3.829 4.219 3.829 4.833 0 .614.606 1.117 1.347 1.117s1.836 1.013 2.433 2.25c1.049 2.176 1.087 2.154 1.152-.671.038-1.607-.626-3.689-1.475-4.626-.848-.938-1.793-3.248-2.099-5.134-.443-2.732-.028-4.058 2.043-6.519 1.429-1.699 2.599-3.424 2.599-3.834 0-.41.755-1.298 1.678-1.972 1.549-1.133 1.511-1.438-.5-3.995-1.198-1.523-2.178-3.896-2.178-5.274 0-1.377-.777-3.072-1.726-3.766-1.303-.954-1.802-3.059-2.038-8.611-.355-8.323 1.043-12.166 4.612-12.677 3.455-.495 9.043 2.547 9.734 5.298.329 1.311 1.457 3.162 2.508 4.112 1.05.951 1.91 2.234 1.91 2.852 0 .617.9 1.893 2 2.835s2 2.734 2 3.982c0 1.248.9 2.831 2 3.518 3.709 2.317 2.077 8.106-3.03 10.747-1.633.845-2.973 2.087-2.976 2.761-.004.673-.695 2.544-1.536 4.157-1.373 2.633-1.372 3.325.007 6.77.844 2.111 1.535 5.127 1.535 6.702 0 3.607 3.414 6.054 7 5.017 4.902-1.417 7.694-.955 10.364 1.714 1.45 1.45 2.636 3.25 2.636 4s.9 2.264 2 3.364c1.741 1.741 1.999 3.325 1.989 12.25l-.01 10.25-3.441 3.342-3.44 3.343-10.55-.343c-9.384-.304-10.55-.155-10.549 1.352 0 .932-1.086 2.957-2.414 4.5-2.345 2.724-2.674 2.799-11.25 2.559-7.007-.197-9.396-.662-11.545-2.25-1.49-1.102-3.783-2.003-5.096-2.003-1.314 0-3.426-.9-4.694-2-1.268-1.1-3.587-2-5.153-2-1.566 0-3.747-.9-4.847-2-1.109-1.109-3.333-2-4.992-2-1.908 0-3.443-.724-4.24-2-.826-1.323-2.332-2-4.45-2-1.76 0-3.472-.441-3.805-.98-.672-1.086-3.679.368-6.679 3.23-1.333 1.272-3.488 1.75-7.884 1.75-3.627 0-7.307.65-9.19 1.624-2.216 1.146-6.943 1.779-16.053 2.148-11.932.484-13.094.706-15.309 2.921-1.319 1.319-2.398 2.842-2.398 3.384 0 .542-.658 1.238-1.462 1.547-.804.308-1.766 1.532-2.137 2.718-.372 1.187-1.514 3.231-2.539 4.543-1.024 1.312-1.862 3.394-1.862 4.627 0 1.234-.666 2.796-1.48 3.471-.813.675-1.77 3.423-2.126 6.105-.356 2.682-1.265 5.39-2.021 6.017-.755.627-1.373 2.244-1.373 3.595 0 1.786-2.86 5.304-10.5 12.916-5.775 5.754-10.5 10.894-10.5 11.423 0 .529-.675.961-1.5.961s-1.5.59-1.5 1.311c0 .722-.845 2.219-1.878 3.327-1.032 1.109-2.223 3.104-2.645 4.435-.422 1.331-1.44 2.911-2.262 3.511-2.246 1.643-2.102 25.312.174 28.56 2.186 3.122 2.267 16.067.111 17.856-1.758 1.459-2.178 14-.469 14 .568 0 1.317.788 1.665 1.75.594 1.642 13.009 14.25 14.031 14.25.788 0 6.273 6.154 6.273 7.038 0 .455.9 1.113 2 1.462s2 1.279 2 2.067c0 .788.433 1.433.961 1.433.529 0 2.744 1.8 4.922 4 2.178 2.2 4.423 4 4.989 4 .566 0 1.388.629 1.828 1.398.44.769 3.826 2.154 7.525 3.078 5.408 1.35 7.759 1.473 12 .63 2.901-.577 6.917-1.299 8.925-1.604 2.007-.305 4.199-1.218 4.872-2.028.673-.811 2.334-1.474 3.693-1.474 1.358 0 3.614-.9 5.012-2 1.399-1.1 3.321-2 4.273-2 .952 0 2.874-.9 4.273-2 1.398-1.1 3.976-2 5.727-2 1.751 0 4.329-.9 5.727-2 3.269-2.571 14.268-2.862 16.688-.442.857.857 3.864 1.923 6.681 2.368 2.818.445 5.412 1.278 5.766 1.85.353.572 2.229 1.338 4.169 1.702 2.993.562 3.705 1.236 4.715 4.471.847 2.715.912 5.496.227 9.68-1.553 9.482-1.154 18.355 1.027 22.871 1.666 3.448 1.936 6.276 1.959 20.5.025 14.817-.175 16.806-1.959 19.5-1.093 1.65-1.99 4.402-1.993 6.115-.004 1.713-.907 4.259-2.007 5.658-1.1 1.398-2.003 3.821-2.007 5.385-.003 1.563-.9 4.192-1.993 5.842-1.59 2.401-1.988 4.7-1.993 11.515-.006 6.595-.458 9.356-2.007 12.246-1.1 2.053-2 5.473-2 7.601 0 2.354-.783 4.863-2 6.411-1.1 1.398-2 3.873-2 5.5 0 1.626-.9 4.101-2 5.5-1.1 1.398-2 3.902-2 5.563 0 1.662-.726 3.747-1.614 4.635-.893.894-1.924 4.247-2.309 7.51l-.695 5.896-11.468 11.32c-6.307 6.225-14.268 13.519-17.691 16.209-3.422 2.689-6.223 5.273-6.223 5.742 0 .468-.659.852-1.465.852-.805 0-1.946.9-2.535 2-.589 1.1-1.73 2-2.535 2-.806 0-1.465.406-1.465.901 0 .798-3.22 3.13-9.358 6.776-1.089.647-2.377 1.884-2.861 2.75-.484.865-1.463 1.573-2.176 1.573-.712 0-2.11.9-3.105 2-.995 1.1-2.624 2-3.62 2-.995 0-2.291.9-2.88 2s-1.669 2-2.4 2c-.732 0-2.474.9-3.873 2-1.398 1.1-3.151 2-3.894 2-.744 0-1.914.9-2.601 2s-2.262 2-3.5 2-2.813.9-3.5 2c-.687 1.1-2.076 2-3.087 2-1.012 0-2.877.9-4.145 2-1.268 1.1-3.142 2-4.163 2-1.021 0-2.627.9-3.569 2-.942 1.1-2.677 2-3.855 2-1.179 0-3.287.9-4.686 2-1.398 1.1-3.609 2-4.912 2-1.304 0-3.141.9-4.083 2-.97 1.133-2.95 2-4.567 2-1.585 0-3.66.89-4.665 2-1.027 1.135-3.08 2-4.747 2-1.616 0-4.082.9-5.48 2-1.399 1.1-3.874 2-5.5 2-1.627 0-4.102.9-5.5 2-1.472 1.158-4.065 2.003-6.158 2.007-1.988.003-4.965.9-6.615 1.993-1.65 1.093-4.689 1.99-6.754 1.993-2.064.004-5.432.907-7.485 2.007-2.251 1.206-5.642 2-8.546 2-2.648 0-6.254.763-8.015 1.696-1.895 1.004-6.87 1.97-12.2 2.369-4.95.371-10.8 1.388-13 2.261-3.455 1.37-10.472 1.586-51.5 1.586-41.078 0-48.041-.215-51.5-1.59-2.2-.875-8.328-1.876-13.619-2.225-6.12-.403-10.255-1.163-11.37-2.088-.963-.799-4.852-1.738-8.641-2.085-4.235-.388-7.59-1.266-8.708-2.278-1.034-.935-3.512-1.649-5.741-1.653-2.229-.003-5.215-.863-6.921-1.993-1.65-1.093-3.943-1.99-5.095-1.993-1.152-.004-2.91-.907-3.905-2.007-.995-1.1-2.651-2-3.68-2-1.045 0-2.266-1.042-2.768-2.364-.494-1.3-1.566-2.619-2.381-2.932-.815-.313-1.786-1.949-2.156-3.636-.371-1.688-1.041-3.068-1.49-3.068-1.27 0-4.898-7.961-3.907-8.573 1.652-1.021 1-10.639-.859-12.694-1.665-1.839-1.638-2.008.61-3.828 1.294-1.048 3.583-1.905 5.087-1.905 1.504 0 3.549-.9 4.544-2 1.177-1.301 3.08-2 5.444-2 1.998 0 5.398-.9 7.556-2 2.158-1.1 4.572-2 5.366-2 1.181 0 1.143-.333-.211-1.829-3.722-4.112-.405-6.171 9.941-6.171 4.751 0 6.616-.388 7.028-1.462.308-.804 1.496-1.759 2.639-2.121 1.142-.363 6.449-5.031 11.791-10.374 8.449-8.449 9.811-10.283 10.453-14.085.679-4.018 3.871-9.968 5.799-10.81.443-.194 1.65-1.258 2.682-2.365 1.165-1.251 3.69-2.218 6.671-2.554 2.637-.297 5.373-1.119 6.08-1.825.707-.707 4.403-1.592 8.213-1.968 4.167-.411 7.125-1.194 7.421-1.965.27-.705 1.903-1.592 3.627-1.971 1.724-.379 3.378-1.321 3.675-2.094.296-.773 1.136-1.406 1.865-1.406.729 0 1.611-.9 1.96-2s1.279-2 2.067-2c.788 0 1.433-.671 1.433-1.492 0-.82.9-2.053 2-2.74 1.1-.687 2-1.755 2-2.374 0-.618.971-2.358 2.157-3.867 1.647-2.093 2.267-4.549 2.62-10.384.255-4.204 1.031-8.318 1.725-9.143.694-.825 1.557-2.471 1.918-3.658.361-1.186 1.314-2.41 2.118-2.718.804-.309 1.462-1.22 1.462-2.025 0-.805.851-1.734 1.892-2.065 1.041-.33 2.124-1.485 2.406-2.567.283-1.082 1.232-1.967 2.108-1.967.877 0 1.594-.519 1.594-1.154 0-.634 1.704-2.772 3.786-4.75 2.083-1.978 4.323-4.833 4.979-6.346.656-1.512 1.652-2.75 2.214-2.75 1.88 0 1.12-6.6-.979-8.5-1.1-.995-2-2.415-2-3.155 0-.74-.839-1.345-1.865-1.345s-2.938-.841-4.25-1.87c-1.312-1.028-3.96-2.203-5.885-2.611-1.925-.408-4.175-1.315-5-2.015-2.186-1.856-23.564-3.767-32.967-2.946-6.878.599-8.085.469-8.622-.93-.344-.896-1.171-1.628-1.838-1.628s-2.178-1.012-3.359-2.25c-6.064-6.356-5.675-6.207-15.832-6.065-7.162.101-9.96.528-11.282 1.724-2.76 2.499-10.767 2.113-13.692-.659-2.816-2.669-3.36-9.715-.908-11.75 2.188-1.816 1.834-6.618-.75-10.195-4.067-5.629-10.032-11.805-11.404-11.805-.74 0-1.346-.617-1.346-1.372 0-.825-1.577-1.624-3.953-2.004-2.174-.348-4.311-1.238-4.75-1.978-.438-.741-3.168-1.619-6.067-1.951-2.898-.333-6.498-1.274-8-2.09-1.501-.817-4.403-1.755-6.448-2.084-2.045-.33-4.32-1.202-5.057-1.938-.736-.737-2.806-1.661-4.599-2.055-1.794-.394-3.504-1.349-3.801-2.122-.296-.773-1.129-1.406-1.85-1.406-.722 0-3.185-1.8-5.475-4-2.29-2.2-4.561-4-5.046-4-.486 0-1.365-.9-1.954-2s-1.73-2-2.535-2c-.806 0-2.303-.838-3.328-1.863s-3.523-2.174-5.553-2.555c-2.029-.381-3.939-1.343-4.244-2.137-.34-.887-1.935-1.445-4.131-1.445-1.968 0-5.407-.852-7.643-1.893-2.236-1.041-6.485-2.152-9.442-2.468-2.958-.316-6.429-1.264-7.715-2.107-1.286-.843-3.458-1.532-4.827-1.532-2.909 0-7.582-1.948-7.582-3.161 0-.461-.896-.839-1.992-.839-1.095 0-2.553-.9-3.24-2-.687-1.1-2.266-2-3.509-2-1.242 0-3.159.9-4.259 2-1.1 1.1-2.9 2-4 2s-2.016.563-2.036 1.25c-.02.688-3.604 3.5-7.964 6.25-7.798 4.919-7.928 5.067-7.964 9.136-.02 2.274.636 5.424 1.458 7 1.912 3.665 1.931 10.419.038 12.923-.808 1.067-1.483 3.408-1.5 5.201-.02 1.992-.81 3.926-2.032 4.972-1.1.942-2 2.272-2 2.955 0 .683-.9 1.724-2 2.313-1.1.589-2 1.959-2 3.045 0 1.086-.9 2.745-2 3.687-2.279 1.951-2.579 5.315-.75 8.412 1 1.694 1 2.208 0 2.57-.835.302-1.25 2.734-1.25 7.317v6.865l12 11.941c6.6 6.568 12 12.65 12 13.517 0 .867.9 2.057 2 2.646s2 1.73 2 2.535c0 .806.708 2.253 1.573 3.215 3.974 4.422 6.425 7.854 6.426 9 0 .688.69 1.25 1.532 1.25.843 0 1.816.741 2.164 1.648.747 1.946 6.227 7.352 7.453 7.352.469 0 .852.675.852 1.5s.563 1.501 1.25 1.501c2.371.003 13.357 10.185 14.344 13.295.332 1.046 1.459 2.757 2.505 3.803 1.045 1.045 1.901 3.089 1.901 4.541 0 1.452.745 3.184 1.655 3.85 1.101.805 1.811 3.187 2.119 7.11.26 3.32 1.146 6.678 2.025 7.678 1.071 1.219 1.699 4.524 1.996 10.5.297 5.958.927 9.281 1.989 10.487.855.972 1.759 4.234 2.009 7.25.25 3.017.805 5.485 1.233 5.485 1.084 0 2.974 5.737 2.974 9.027 0 1.5.64 3.259 1.422 3.908.782.649 1.739 3.067 2.128 5.373.388 2.305 1.548 5.265 2.578 6.577 1.03 1.312 1.872 3.041 1.872 3.842 0 .802.9 2.602 2 4 1.1 1.399 2 3.157 2 3.908 0 .751.9 2.265 2 3.365s2 2.675 2 3.5c0 1.727.355 2.155 11.038 13.326 4.379 4.579 7.962 8.652 7.962 9.05 0 3.425-7.845 4.177-11.727 1.124-1.399-1.1-3.321-2-4.273-2-.952 0-2.874-.9-4.273-2-1.398-1.1-3.198-2-4-2-.801 0-2.601-.9-4-2-1.398-1.1-3.198-2-4-2-.801 0-2.601-.9-4-2-1.398-1.1-2.851-2-3.227-2-.376 0-1.829-.9-3.227-2-1.399-1.1-3.366-2-4.373-2-1.006 0-2.311-.9-2.9-2s-1.885-2-2.88-2c-.996 0-2.625-.9-3.62-2-.995-1.1-2.429-2-3.186-2-.757 0-1.627-.653-1.934-1.452-.306-.798-2.092-1.958-3.968-2.577-1.877-.619-3.412-1.552-3.412-2.073 0-.521-1.125-1.375-2.5-1.898-1.375-.523-2.5-1.357-2.5-1.854 0-.497-1.298-1.441-2.885-2.098-1.587-.658-4.568-2.737-6.626-4.622-2.057-1.884-4.034-3.426-4.392-3.426-.359 0-1.396-.787-2.304-1.75-2.214-2.345-4.432-4.182-9.256-7.666-2.22-1.604-5.649-4.564-7.62-6.579-1.97-2.014-4.333-3.951-5.25-4.302-.917-.352-1.667-1.329-1.667-2.172 0-.842-.717-1.531-1.594-1.531-.876 0-1.829-.9-2.116-2-.288-1.1-1.188-2-2-2-.813 0-1.713-.9-2-2-.288-1.1-1.188-2-2-2-.813 0-1.713-.9-2-2-.288-1.1-1.188-2-2-2-.813 0-1.713-.9-2-2-.288-1.1-1.188-2-2-2-.813 0-1.713-.9-2-2-.288-1.1-1.146-2-1.907-2-.76 0-1.383-.432-1.383-.961 0-.529-.811-1.766-1.803-2.75-3.543-3.515-11.197-13.021-11.197-13.906 0-.496-.9-1.464-2-2.151-1.1-.687-2-1.92-2-2.74 0-.821-.562-1.508-1.25-1.529-1.231-.035-6.75-7.887-6.75-9.602 0-.484-.9-1.442-2-2.129s-2-1.92-2-2.74c0-.821-.473-1.492-1.051-1.492s-1.709-1.575-2.513-3.5c-.805-1.925-1.876-3.5-2.382-3.5-.506 0-1.219-.944-1.585-2.099-.367-1.154-1.522-2.954-2.568-4C90.856 593.856 90 592.325 90 591.5c0-.825-.9-2.4-2-3.5s-2-2.675-2-3.5c0-.825-.395-1.5-.879-1.5-.483 0-1.469-1.462-2.191-3.25-.722-1.787-1.883-3.6-2.581-4.027-.698-.428-1.556-2.309-1.907-4.181-.351-1.872-1.245-3.636-1.985-3.92-.741-.284-1.641-2.084-2-4-.36-1.916-1.26-3.716-2-4-.741-.284-1.641-2.084-2-4-.36-1.916-1.26-3.716-2-4-.741-.284-1.666-2.217-2.055-4.294-.39-2.078-1.315-4.384-2.055-5.124-.74-.74-1.624-3.086-1.964-5.213-.341-2.127-1.209-4.094-1.931-4.371-.722-.277-1.617-2.54-1.991-5.03-.373-2.489-1.282-5.027-2.021-5.64-.738-.612-1.644-3.214-2.013-5.782-.37-2.567-1.305-5.394-2.08-6.281-.775-.887-1.68-4.037-2.012-7-.332-2.963-1.257-6.141-2.057-7.063-.8-.922-1.706-4.522-2.013-8-.308-3.478-.994-6.607-1.524-6.952-1.212-.79-2.64-8.019-2.697-13.657-.024-2.357-.706-5.296-1.516-6.531-.963-1.471-1.811-7.069-2.456-16.215-.542-7.683-1.428-16.219-1.969-18.969-1.558-7.919-1.354-35.663.299-40.715.772-2.357 1.695-9.46 2.053-15.785.358-6.325 1.254-13.75 1.99-16.5.737-2.75 1.592-8.317 1.899-12.37.354-4.663 1.133-7.97 2.119-9 .857-.897 2.402-2.74 3.433-4.098 1.532-2.016 2.144-2.244 3.35-1.243 1.122.931 1.595 4.568 1.977 15.2.324 8.997.947 14.51 1.748 15.477.685.825 1.63 4.929 2.1 9.12.47 4.191 1.381 8.253 2.023 9.027.642.774 1.564 3.525 2.047 6.113.484 2.588 1.55 5.081 2.369 5.54.82.458 1.49 1.711 1.49 2.784 0 1.072.9 2.85 2 3.95s2 2.623 2 3.383c0 .761.9 1.619 2 1.907 1.1.287 2 1.24 2 2.116 0 .877.659 1.594 1.465 1.594.805 0 1.946.9 2.535 2 .628 1.173 2.094 2 3.545 2 1.361 0 3.245.9 4.187 2 .942 1.1 2.646 2 3.787 2 1.308 0 4.644 2.81 9.028 7.606 3.824 4.183 7.931 8.668 9.125 9.967 1.195 1.3 2.45 3.235 2.788 4.302.339 1.067 1.274 2.193 2.078 2.501.804.309 1.462 1.202 1.462 1.986 0 .783.604 1.656 1.342 1.939.737.283 3.012 3.031 5.053 6.107 2.042 3.076 4.138 5.592 4.658 5.592.521 0 .947.645.947 1.433s.9 1.718 2 2.067c1.1.349 2 1.322 2 2.161s.9 1.762 2 2.049c1.1.288 2 1.16 2 1.938s.788 1.702 1.75 2.054c.963.351 2.823 1.462 4.135 2.468 1.312 1.007 3.515 1.83 4.896 1.83h2.511l-2.697-2.5c-1.484-1.375-3.538-2.5-4.565-2.5-2.932 0-5.03-1.087-5.03-2.607 0-.766-.9-1.393-2-1.393-1.292 0-2-.667-2-1.883 0-1.043-.893-2.117-2-2.407-1.257-.329-2-1.364-2-2.788 0-1.245-.768-3.113-1.706-4.15-1.134-1.253-1.842-4.13-2.111-8.579-.224-3.706-1.019-7.392-1.782-8.259-.757-.861-1.664-2.998-2.014-4.75-.35-1.751-1.16-3.184-1.798-3.184-.639 0-3.17-1.768-5.625-3.929l-4.464-3.929.069-12.071c.038-6.639-.075-12.071-.25-12.071s-1.219.9-2.319 2c-1.704 1.704-3.333 2-11.021 2-8.653 0-9.068-.102-10.161-2.5-.626-1.375-1.445-2.5-1.818-2.5-1.989 0-3-6.207-3-18.412 0-11.804.227-13.607 2-15.861 1.1-1.398 2-3.073 2-3.721C82 348.063 92.934 338 95.045 338c1.075 0 2.855-.9 3.955-2 1.564-1.564 3.361-2.007 8.25-2.032 3.537-.018 6.993-.596 7.962-1.332 1.794-1.363 7.42-1.041 8.359.479.301.487 2.305.885 4.453.885 2.882 0 4.186.524 4.976 2 .589 1.1 1.525 2 2.081 2 1.577 0 5.919 4.734 5.919 6.455 0 .85.662 1.545 1.471 1.545.81 0 1.894 1.463 2.41 3.25.657 2.276.966 2.616 1.029 1.135.049-1.163.921-3.188 1.937-4.5 1.016-1.312 2.127-4.159 2.468-6.328.342-2.168 1.311-4.328 2.153-4.799.843-.472 1.542-1.623 1.554-2.558.02-1.553 2.905-5.162 12.325-15.417 1.877-2.044 3.678-4.407 4.002-5.25.324-.843 1.277-1.533 2.12-1.533.864 0 1.531-.871 1.531-2 0-1.1.9-2.9 2-4s2-2.446 2-2.992c0-.545.9-1.553 2-2.24 1.1-.687 2-1.8 2-2.473 0-.674.9-1.706 2-2.295s2-1.73 2-2.535c0-.806.359-1.465.799-1.465.439 0 2.671-1.8 4.961-4 2.289-2.2 4.522-4 4.961-4 .439 0 1.36-.9 2.047-2s1.92-2 2.74-2c.821 0 1.492-.46 1.492-1.021 0-.562 1.238-1.568 2.75-2.235 1.513-.667 3.338-2.008 4.057-2.979.718-.971 1.731-1.765 2.25-1.765.519 0 1.731-.694 2.693-1.543 3.567-3.145 13.134-10.457 13.683-10.457.312 0 1.467-.9 2.567-2s2.738-2 3.64-2c.902 0 2.176-.734 2.833-1.632 1.7-2.326 14.884-3.54 19.277-1.776 1.788.718 3.25 1.779 3.25 2.357 0 .578 1.125 1.051 2.5 1.051 3.002 0 3.388-2.699.75-5.243-4.393-4.235-5.164-5.626-5.806-10.471-1.123-8.465-4.786-10.636-11.092-6.574-1.437.926-4.416 1.285-9 1.086-6.563-.285-6.852-.404-6.852-2.798 0-1.913.727-2.735 3.098-3.501 1.704-.551 3.81-1.593 4.681-2.316.871-.722 4.201-1.562 7.402-1.865 3.2-.304 6.731-1.119 7.845-1.811 1.114-.693 6.277-1.596 11.474-2.007 5.197-.411 10.416-1.382 11.598-2.156 1.182-.775 4.564-1.694 7.515-2.044 2.951-.349 5.952-1.222 6.669-1.939.717-.717 3.534-1.599 6.261-1.961 2.726-.362 4.957-1.032 4.957-1.489 0-.457 1.847-1.384 4.104-2.06 6.426-1.925 6.294-5.797-.198-5.836-5.567-.033-10.828-8.68-6.331-10.405 1.373-.527 1.309-.942-.5-3.242-1.141-1.451-2.075-3.197-2.075-3.88 0-.684-.636-1.771-1.413-2.416s-1.716-3.377-2.087-6.072c-.371-2.695-1.281-5.403-2.023-6.019-.741-.615-1.638-2.438-1.992-4.05-.625-2.844-.823-2.931-6.636-2.931-3.993 0-6.492.5-7.492 1.5-1.894 1.894-7.737 1.952-9.28.093-.643-.775-1.62-3.812-2.173-6.75a500.767 500.767 0 0 0-1.535-7.867c-.334-1.592-2.008-3.375-4.534-4.828-3.584-2.063-4.179-2.148-5.67-.804-.916.825-2.902 1.809-4.415 2.186-1.512.378-2.75 1.327-2.75 2.11 0 .782-.637 1.667-1.416 1.966-.779.299-3.088 3.21-5.131 6.469-2.043 3.259-4.106 5.925-4.584 5.925-.478 0-.869.9-.869 2s-.787 2.794-1.75 3.764c-.962.97-2.335 2.882-3.049 4.25-3.755 7.188-4.615 8.553-5.852 9.286-.742.44-1.349 1.315-1.349 1.946 0 1.436-5.061 8.978-6.747 10.054-.689.44-1.253 1.299-1.253 1.909 0 1.766-9.266 9.791-11.305 9.791-2.998 0-7.695-5.416-7.695-8.873 0-1.665-.648-3.39-1.44-3.834-.792-.443-1.887-2.793-2.433-5.222-.545-2.429-1.697-4.811-2.559-5.293-.863-.483-1.568-1.566-1.568-2.408 0-.841-2.7-4.23-6-7.53l-6-6v-6.765c0-5.495.375-7.105 2-8.575 1.1-.995 2-2.354 2-3.018 0-1.237 6.177-7.243 13.865-13.482 2.373-1.925 5.026-4.172 5.896-4.994 1.966-1.855 3.699-2.852 13.739-7.907 4.4-2.215 9.534-5.404 11.41-7.085 1.875-1.681 4.575-3.334 6-3.673 1.424-.339 3.191-1.092 3.925-1.672.734-.58 5.481-1.328 10.549-1.661 9.191-.605 9.226-.618 13.415-4.807L261 98h-3.893c-2.472 0-4.095.527-4.447 1.445-.305.794-2.266 1.751-4.357 2.126-2.092.375-4.537 1.322-5.434 2.103-2.487 2.166-4.869-.754-4.869-5.968 0-4.042-.041-4.093-1.557-1.929C235.587 97 234.285 98 233.55 98c-.735 0-1.583.643-1.885 1.43-1.207 3.146-16.938 3.154-20.082.011-1.829-1.83-6.204-1.872-6.896-.067-.749 1.951-7.471 3.05-9.311 1.523-2.453-2.036-1.243-5.226 2.374-6.258 1.788-.511 3.25-1.27 3.25-1.689 0-.418 1.993-1.928 4.428-3.355 3.536-2.072 5.736-2.595 10.918-2.595 7.27 0 9.654-.615 9.654-2.49 0-.702.836-1.495 1.859-1.763 1.022-.267 2.167-1.715 2.544-3.217 1.25-4.981 4.649-8.53 8.168-8.53 2.277 0 3.336-.536 3.683-1.864.31-1.187 1.772-2.106 4.016-2.527 1.941-.364 4.079-1.325 4.752-2.135.673-.811 2.637-1.474 4.365-1.474 1.729 0 4.711-.834 6.628-1.853 1.917-1.02 5.127-2.157 7.135-2.527 2.007-.37 4.199-1.336 4.872-2.146.673-.811 2.559-1.474 4.193-1.474 1.633 0 4.114-.9 5.512-2 1.399-1.1 3.945-2.003 5.658-2.007 1.713-.003 4.465-.9 6.115-1.993 1.65-1.093 4.446-1.99 6.213-1.993 1.767-.004 5.496-.907 8.287-2.007 2.791-1.1 6.449-2 8.129-2 1.681 0 4.2-.9 5.598-2 2.662-2.094 5.865-2.545 8.082-1.139.72.456 3.07.36 5.223-.215 3.47-.926 4.18-.795 6.256 1.155 3.003 2.821 8.924 2.905 13.973.199 2.053-1.1 4.533-2 5.513-2 .98 0 2.574-.926 3.544-2.058 2.438-2.848 9.043-2.411 9.478.627.202 1.417-.517 2.439-2.288 3.245-2.747 1.252-3.869 2.079-8.734 6.436-1.689 1.513-3.92 2.75-4.957 2.75-1.038 0-2.993.725-4.345 1.61-3.693 2.42-7.274 1.233-12.834-4.255-2.502-2.47-9.7-3.583-10.377-1.605-.296.866.828 1.25 3.656 1.25H340v4.429c0 4.84 1.863 7.571 5.164 7.571 1.111 0 3.165.9 4.563 2 1.399 1.1 3.168 2 3.933 2 .764 0 1.827 1.013 2.362 2.25.535 1.238 1.403 2.925 1.927 3.75.525.825 1.24 4.14 1.589 7.366.501 4.626 1.04 5.972 2.548 6.367 1.053.275 1.914.894 1.914 1.376 0 .481 1.688 1.667 3.75 2.635 5.492 2.577 5.587 5.984.314 11.31-2.235 2.257-4.064 4.503-4.064 4.99 0 .487-.9 1.367-2 1.956s-2 1.707-2 2.485c0 .779-.787 1.856-1.75 2.394-1.507.843-1.75 2.561-1.75 12.369 0 9.514.288 11.679 1.75 13.143.963.963 1.75 2.399 1.75 3.19 0 .791.9 2.209 2 3.151 1.1.942 2 2.287 2 2.99 0 .703.45 1.278 1 1.278s1.997.997 3.216 2.216c3.302 3.302 13.709 3.859 16.674.894 1.161-1.161 2.56-2.11 3.11-2.11.55 0 1-.839 1-1.865s.9-3.009 2-4.408c1.1-1.398 2.006-3.146 2.013-3.885.029-2.884 11.274-14.917 16.377-17.524 1.71-.874 3.441-2.152 3.846-2.84.405-.687 2.274-1.539 4.153-1.891 1.88-.353 3.648-1.24 3.929-1.973.281-.732 2.291-1.616 4.466-1.964 2.176-.347 4.479-1.262 5.118-2.032.64-.77 3.133-1.696 5.542-2.057 2.408-.361 4.605-1.247 4.882-1.967.276-.721 2.292-1.597 4.479-1.947 2.187-.35 4.212-1.249 4.5-1.999.288-.75 1.921-1.643 3.63-1.985 3.077-.615 3.088-.64 1.162-2.566-1.07-1.07-2.88-2.446-4.021-3.056-2.656-1.422-2.663-4.406-.015-6.169 2.012-1.34 2.017-1.419.199-3.372-1.024-1.1-2.173-2.816-2.553-3.813-.75-1.964 1.721-7.687 3.319-7.687 1.787 0 1.007-5.527-1.026-7.268-1.1-.942-2-2.601-2-3.687 0-1.086-.9-2.456-2-3.045s-2-1.792-2-2.675c0-.882-.734-2.141-1.631-2.797-.994-.727-1.823-3.197-2.124-6.325l-.493-5.133-5.28-1.535c-2.904-.844-5.908-1.535-6.676-1.535-2.078 0-3.796-2.105-3.796-4.65 0-2.387 2.777-4.606 4.462-3.565.552.342 6.006.927 12.119 1.302M407.66 29.25c.925 1.486.513 5.89-.666 7.12-1.287 1.342-9.009 2.861-13.841 2.722C387.796 38.938 385 37.535 385 35c0-2.48 2.865-3.988 7.684-4.045 2.099-.025 5.166-.663 6.816-1.419 3.843-1.76 7.17-1.876 8.16-.286m358.973 297.645c.361 1.317 1.491 3.229 2.512 4.25 2.104 2.104 2.376 6.062.739 10.757-1.442 4.137-3.986 3.724-5.301-.862-.544-1.895-1.797-4.254-2.786-5.243-1.24-1.24-1.797-3.314-1.797-6.69 0-3.427-.449-5.065-1.5-5.469-1.812-.695-1.966-3.772-.273-5.465.97-.97 1.912-.435 4.488 2.55 1.794 2.077 3.556 4.855 3.918 6.172" fill="#000000FF" stroke="#000000FF"/><path d="M267.313 80.37c-2.38 2.482-3.835 6.828-3.008 8.982.504 1.314 5.08 1.005 11.195-.755 1.342-.386 3.102.377 5.347 2.317 3.028 2.618 3.343 3.399 3.305 8.212-.028 3.622-.538 5.683-1.596 6.457-.856.626-1.556 1.61-1.556 2.188 0 1.395-5.797 6.229-7.47 6.229-.724 0-1.566.65-1.87 1.445-.305.794-2.047 1.725-3.87 2.067-1.824.342-4.432 1.464-5.796 2.493-2.339 1.764-2.371 1.913-.564 2.607 1.055.404 2.627 1.36 3.494 2.123.867.763 4.726 3.836 8.576 6.828l7 5.44 1.253-3.002c1.039-2.488 1.825-3.001 4.601-3.001 3.272 0 3.386-.144 4.938-6.25.874-3.437 1.852-7.888 2.173-9.89.642-3.998 2.176-4.86 7.307-4.107 1.954.287 3.391 1.187 3.762 2.356.373 1.172 1.526 1.891 3.033 1.891 3.025 0 3.249-2.692.515-6.168-3.674-4.671-3.621-10.785.14-16.049 1.753-2.455-.992-4.935-12.116-10.942-2.133-1.152-2.555-1.05-3.872.933-2.691 4.053-9.084 2.426-10.72-2.729-.61-1.923-.636-1.923-2.565.006-2.868 2.868-7.989 2.439-9.049-.757-.258-.778-1.175-.397-2.587 1.076M589.208 190.25c1.446 1.137 2.686 9.809 3.001 21 .071 2.495.424 2.75 3.812 2.75 2.054 0 4.249-.621 4.879-1.379.63-.759 2.485-1.648 4.122-1.975 2.069-.414 2.978-1.185 2.978-2.525 0-2-4.337-7.521-9.446-12.024-1.621-1.428-3.922-3.609-5.115-4.847-1.193-1.237-2.99-2.25-3.995-2.25-1.642 0-1.666.126-.236 1.25M305.268 223c-.942 1.1-2.302 2-3.022 2-.72 0-1.599.788-1.954 1.75-.356.963-1.063 2.03-1.572 2.373-.555.373-.485 1.447.173 2.677.816 1.525 2.513 2.232 6.574 2.739 3.01.376 5.992 1.309 6.626 2.072.633.764 1.702 1.389 2.374 1.389.673 0 2.038.9 3.033 2 2.474 2.733 5.492 2.685 4.77-.077-.299-1.142-1.382-2.6-2.407-3.24-1.025-.64-1.871-1.618-1.88-2.174-.01-.555-1.135-2.069-2.5-3.364-1.366-1.295-2.483-2.983-2.483-3.75 0-.767-.461-1.395-1.025-1.395-.563 0-1.452-1.125-1.975-2.5-1.149-3.022-2.455-3.16-4.732-.5" fill="#000000FF" stroke="#000000FF"/></svg>