<svg version="1.0" xmlns="http://www.w3.org/2000/svg" width="986pt" height="856pt" viewBox="0 0 986 856"><path d="M408 335.976c-.825.546-3.566 1-6.091 1.009-2.525.008-6.8.685-9.5 1.504s-6.259 1.51-7.909 1.536c-1.65.025-4.125.689-5.5 1.475-1.375.786-3.907 1.445-5.628 1.465-1.72.019-3.687.71-4.372 1.535s-2.26 1.5-3.5 1.5c-1.24 0-2.815.675-3.5 1.5s-2.063 1.5-3.063 1.5c-1.001 0-2.081.424-2.401.941-.32.518-2.684 1.98-5.255 3.25-2.571 1.27-5.823 3.375-7.227 4.679-1.405 1.303-4.052 3.521-5.884 4.929-3.906 3.003-11.577 12.717-12.596 15.951-.39 1.238-1.128 2.25-1.641 2.25-.513 0-.933 1.318-.933 2.929 0 1.61-.675 3.603-1.5 4.428-.825.825-1.5 3.051-1.5 4.946 0 1.895-.675 5.359-1.5 7.697-.868 2.462-1.5 7.724-1.5 12.5s.632 10.038 1.5 12.5c.825 2.338 1.5 5.715 1.5 7.503 0 1.789.675 3.812 1.5 4.497s1.5 2.26 1.5 3.5c0 1.24.675 2.815 1.5 3.5s1.5 1.805 1.5 2.489C326 449.3 337.474 461 339.25 461c.828 0 2.065.675 2.75 1.5s2.202 1.514 3.372 1.532c1.171.017 3.002.692 4.069 1.5 1.068.807 2.894 1.468 4.059 1.468s2.991.661 4.059 1.468c1.067.808 3.799 1.483 6.069 1.5 2.27.018 5.645.648 7.5 1.4 9.72 3.943 77.024 3.943 86.744 0 1.855-.752 5.481-1.368 8.059-1.368 2.578 0 5.56-.661 6.628-1.468 1.067-.808 3.291-1.499 4.941-1.536 1.65-.037 4.125-.71 5.5-1.496s3.625-1.459 5-1.496c1.375-.037 3.374-.728 4.441-1.536 1.068-.807 3.012-1.468 4.322-1.468 1.309 0 3.055-.675 3.88-1.5.825-.825 2.313-1.5 3.306-1.5.993 0 2.366-.675 3.051-1.5s1.865-1.5 2.622-1.5c.758 0 1.378-.42 1.378-.933 0-.513.992-1.247 2.203-1.632 1.212-.384 2.819-1.314 3.572-2.067.752-.752 2.043-1.368 2.868-1.368.825 0 2.175-.675 3-1.5.825-.825 2.341-1.5 3.369-1.5 1.029 0 2.116-.397 2.416-.883.3-.486 3.814-1.885 7.809-3.11 3.995-1.224 8.044-2.627 8.999-3.117.955-.489 3.655-.887 6-.884 3.712.006 4.491.405 6.014 3.081.963 1.691 1.75 4.002 1.75 5.135 0 3.169 3.904 10.263 8.16 14.828 2.112 2.265 3.84 4.305 3.84 4.535 0 1.302 9.06 8.895 12.474 10.454 2.214 1.011 8.526 2.326 14.026 2.922l19.5 2.112c5.225.566 11.394.792 13.71.503 3.897-.488 8.29-3.014 8.29-4.769 0-.412-2.063-2.899-4.584-5.528-5.145-5.364-14.279-18.952-16.32-24.279-.738-1.925-1.646-5.75-2.019-8.5-.372-2.75-1.217-5.983-1.877-7.184-1.811-3.297-1.551-24.268.332-26.757.807-1.068 1.468-2.727 1.468-3.687 0-2.402 8.216-14.195 13.855-19.885 6.533-6.594 18.215-13.872 22.395-13.953.963-.019 1.75-.377 1.75-.797 0-.419 1.013-1.207 2.25-1.75 1.737-.762 2.32-1.956 2.557-5.237l.308-4.25h-8.858c-4.871 0-9.319.462-9.884 1.027-.564.564-3.444 1.313-6.399 1.663-2.956.35-6.521 1.235-7.924 1.967-1.402.732-3.344 1.333-4.314 1.337-.97.003-2.545.42-3.5.926-.955.505-4.661 1.951-8.236 3.213-3.575 1.261-9.2 3.785-12.5 5.609-3.3 1.824-7.237 3.797-8.75 4.385-1.512.588-2.75 1.475-2.75 1.971s-.468.902-1.04.902c-1.184 0-7.287 4.111-7.793 5.25-.184.413-.778.75-1.322.75-.543 0-1.663.675-2.488 1.5s-2.386 1.5-3.469 1.5c-1.891 0-8.031-3.696-8.721-5.25-.184-.412-.971-.75-1.75-.75s-1.417-.464-1.417-1.031c0-.568-.787-1.331-1.75-1.696-.962-.366-4.244-2.489-7.293-4.719-3.049-2.23-7.324-4.954-9.5-6.054-2.176-1.1-4.182-2.228-4.457-2.507-.275-.278-5-2.676-10.5-5.327-5.5-2.652-11.274-5.461-12.831-6.244-1.557-.782-3.609-1.422-4.559-1.422-.95 0-2.601-.661-3.669-1.468-1.067-.808-2.841-1.497-3.941-1.532-1.1-.035-2.874-.724-3.941-1.532-1.068-.807-3.398-1.468-5.179-1.468-1.78 0-3.86-.623-4.622-1.384-.761-.762-3.381-1.597-5.821-1.857s-5.787-.955-7.437-1.544c-3.124-1.115-11.725-2.871-22-4.491-8.763-1.382-40.695-1.944-42.5-.748m35.81 10.87c6.22.481 11.823 1.387 12.45 2.014.627.627 2.513 1.156 4.19 1.175 1.678.02 4.175.679 5.55 1.465s3.85 1.459 5.5 1.496c1.65.037 3.874.728 4.941 1.536 1.068.807 3.318 1.482 5 1.5 1.683.017 3.933.692 5 1.5 1.068.807 2.761 1.468 3.764 1.468 1.002 0 2.604.434 3.559.965 3.129 1.739 11.103 5.035 12.181 5.035.58 0 1.055.45 1.055 1s.694 1 1.543 1c1.629 0 14.603 6.698 15.457 7.98.275.413 1.513 1.066 2.75 1.453 1.238.386 2.25 1.121 2.25 1.634 0 .513.689.933 1.531.933.843 0 1.791.675 2.107 1.5.317.825.974 1.5 1.46 1.5.898 0 9.985 6.639 10.902 7.965.275.398 3.425 2.869 7 5.493 6.476 4.752 6.523 4.768 12.737 4.195 4.942-.456 7.435-1.356 12-4.333 7.358-4.798 9.411-6.069 11.263-6.975.825-.403 2.095-1.321 2.821-2.039.727-.718 1.965-1.306 2.75-1.306.786 0 1.429-.405 1.429-.899 0-1.116 7.502-5.101 9.602-5.101.848 0 2.231-.69 3.075-1.534 1.323-1.323 4.658-1.257 6.204.122.605.54-2.901 7.605-5.506 11.095-1.306 1.751-2.389 4.001-2.407 5-.017.999-.692 2.691-1.5 3.758-.807 1.068-1.475 2.868-1.483 4-.008 1.133-.664 3.859-1.456 6.059-1.923 5.337-1.923 22.663 0 28 .792 2.2 1.462 5.575 1.488 7.5.026 1.925.707 4.374 1.515 5.441.807 1.068 1.468 2.925 1.468 4.128 0 1.202.675 2.746 1.5 3.431s1.5 2.035 1.5 3c0 .965.675 2.315 1.5 3 2.518 2.09 1.859 6.326-1.207 7.75-3.228 1.499-8.931 1.645-9.793.25-.34-.55-1.735-1-3.1-1-3.994 0-15.397-9.404-15.399-12.7-.001-.66-.568-1.56-1.261-2-.693-.44-2.155-2.593-3.25-4.785-1.094-2.191-2.552-4.586-3.24-5.321-.687-.735-1.264-2.092-1.282-3.015-.017-.924-.692-2.553-1.5-3.62-.807-1.068-1.468-2.755-1.468-3.75 0-3.897-3.55-5.81-10.75-5.794-3.712.008-8.55.664-10.75 1.456-2.2.793-5.661 1.461-7.691 1.485-2.03.024-3.953.468-4.273.986-.321.518-2.71 1.231-5.309 1.585-2.6.353-6.145 1.279-7.878 2.057-1.733.779-3.673 1.416-4.31 1.416-.637 0-3.044 1.57-5.349 3.49-4.059 3.381-11.201 7.51-12.99 7.51-.482 0-3.793 1.35-7.358 3-3.565 1.65-7.039 3-7.721 3-.681 0-2.112.661-3.18 1.468-1.067.808-3.092 1.483-4.5 1.5-1.407.018-3.432.693-4.5 1.5-1.067.808-3.988 1.483-6.491 1.5-2.503.018-5.101.583-5.775 1.257-.674.674-4.477 1.542-8.45 1.928-3.974.386-10.15 1.176-13.725 1.755-7.862 1.272-30.219 1.274-38.5.002-3.3-.507-9.48-1.201-13.733-1.543-4.656-.375-8.187-1.168-8.873-1.995-.656-.79-3.1-1.385-5.766-1.404-2.546-.017-5.502-.692-6.569-1.5-1.068-.807-2.925-1.468-4.128-1.468-1.202 0-2.746-.675-3.431-1.5s-1.865-1.5-2.622-1.5c-.758 0-1.378-.353-1.378-.784 0-.432-1.367-1.592-3.037-2.579-1.67-.986-4.246-3.671-5.724-5.965-7.439-11.547-8.745-16.82-8.712-35.172.022-11.786.409-16.071 1.806-20 2.777-7.806 4.978-12.5 5.859-12.5.445 0 .808-.613.808-1.361 0-2.78 15.028-16.547 18.128-16.607.895-.018 2.187-.707 2.872-1.532.685-.825 2.225-1.5 3.422-1.5 1.198 0 2.663-.485 3.256-1.078.592-.592 2.595-1.453 4.45-1.912 1.854-.459 4.722-1.298 6.372-1.865 8.989-3.089 14.59-4.157 22.365-4.263 4.749-.065 9.985-.485 11.635-.933 3.022-.82 6.606-.702 27.31.897M303.5 629c.995 1.1 2.303 2.018 2.905 2.039 1.374.049 6.524 7.168 9.016 12.461 1.035 2.2 2.429 5.125 3.096 6.5 1.863 3.838 2.648 10.823 1.465 13.034-.725 1.354-2.095 1.966-4.403 1.966-1.843 0-4.639.672-6.215 1.494-1.575.821-4.725 1.496-7 1.5-2.274.003-5.424.678-7 1.5-1.575.821-4.3 1.496-6.055 1.5-1.755.003-3.453.43-3.773.948-.321.518-2.603 1.245-5.072 1.616-2.469.37-4.71 1.032-4.982 1.47-.271.439-2.403 1.113-4.737 1.498-2.335.385-4.76 1.115-5.389 1.622-1.542 1.241-10.619 2.257-13.522 1.513-1.284-.329-3.459-1.626-4.834-2.881-3.887-3.549-18.006-13.186-21-14.333-.825-.316-2.85-1.183-4.5-1.927s-4.237-1.624-5.75-1.956c-1.512-.331-2.75-1.044-2.75-1.583 0-.595-5.557-.981-14.122-.981-16.627 0-16.828.486-2.992 7.246 8.82 4.309 16.114 9.908 16.114 12.37 0 .761.405 1.384.899 1.384 1.116 0 5.101 7.502 5.101 9.602 0 .848.675 2.216 1.5 3.041.876.875 1.5 3.319 1.5 5.869 0 2.404.45 4.648 1 4.988.55.34 1 3.715 1 7.5s-.45 7.16-1 7.5c-.55.34-1 2.21-1 4.155 0 1.945-.619 4.731-1.376 6.191-.757 1.46-2.363 4.792-3.57 7.404-1.207 2.613-2.613 4.75-3.124 4.75-.512 0-.93.527-.93 1.171s-.745 1.994-1.655 3c-1.564 1.728-1.509 1.829.986 1.829 5.88 0 19.682-4.595 21.205-7.059.32-.517 1.455-.941 2.523-.941s1.941-.441 1.941-.981c0-.539 1.125-1.263 2.5-1.608 1.375-.345 2.5-1.052 2.5-1.57 0-.519 1.688-2.527 3.75-4.462 3.632-3.409 3.937-3.501 9.706-2.943 3.276.317 6.404 1.024 6.95 1.57.547.547 4.616 1.009 9.044 1.027 7.375.03 10.602.373 26.324 2.8 2.9.448 5.803 1.344 6.45 1.991.647.647 2.436 1.176 3.976 1.176 2.774 0 2.8.059 2.8 6.386 0 3.719-.624 7.581-1.494 9.25-.821 1.575-1.509 3.539-1.527 4.364-.019.825-2.018 4.425-4.444 8l-4.409 6.5 6.937.294c4.047.171 6.937-.113 6.937-.683 0-.537 1.013-1.289 2.25-1.672 6.648-2.056 22.279-14.913 27.75-22.826 4.632-6.7 4.394-6.613 18.108-6.613 9.288 0 13.427-.398 15.528-1.494 1.577-.822 5.561-1.511 8.864-1.532 3.674-.023 6.752-.607 7.941-1.506 1.068-.807 2.868-1.482 4-1.5 1.133-.017 2.933-.692 4-1.5 1.068-.807 2.98-1.468 4.25-1.468s2.309-.445 2.309-.988c0-.544 1.792-1.275 3.981-1.625 2.19-.35 4.495-1.255 5.123-2.012.627-.756 1.959-1.375 2.959-1.375 1.001 0 2.081-.423 2.401-.941.319-.518 3.834-2.51 7.809-4.427 8.449-4.075 15.727-9.967 15.727-12.731 0-1.103-1.082-2.437-2.5-3.083-1.375-.626-2.5-1.517-2.5-1.979 0-.461-.45-.839-1-.839-1.297 0-5-3.703-5-5 0-.55-.471-1-1.048-1-.576 0-2.039-1.029-3.25-2.286-6.046-6.276-19.018-14.12-25.299-15.298-1.884-.354-3.672-1.042-3.973-1.529-.301-.488-1.984-.89-3.739-.893-1.755-.004-4.48-.679-6.055-1.5-1.576-.822-5.094-1.494-7.818-1.494-2.725 0-9.986-.712-16.136-1.581-11.952-1.691-14.682-3.168-14.682-7.946 0-1.269-.337-2.456-.75-2.64-.89-.395-5.25-6.492-5.25-7.34 0-1.704-15.015-13.187-21.696-16.593-1.925-.981-4.8-2.07-6.39-2.419-1.59-.349-3.148-1.05-3.462-1.558-.313-.508-3.538-.923-7.166-.923-6.533 0-6.579.019-4.786 2M658 193c1.1 1.1 2.403 2 2.896 2 .753 0 3.847 3.311 8.098 8.664.509.641 1.218 2.333 1.576 3.76.358 1.427 1.052 2.842 1.541 3.144.489.303.889 1.243.889 2.09 0 .847.705 3.025 1.566 4.841.862 1.815 1.424 5.033 1.25 7.151-.303 3.688-.479 3.863-4.206 4.169-2.14.175-4.534.963-5.322 1.75-.82.82-3.427 1.446-6.109 1.466-2.574.02-5.804.679-7.179 1.465s-3.683 1.445-5.128 1.465c-1.445.019-4.243.71-6.218 1.535-1.974.825-4.842 1.514-6.372 1.532-1.53.017-3.656.692-4.723 1.5-1.068.807-3.318 1.482-5 1.5-1.683.017-3.933.692-5 1.5-1.068.807-3.01 1.468-4.316 1.468s-3.196.44-4.201.977c-1.952 1.045-8.042-1.265-8.042-3.05 0-.51-.462-.927-1.026-.927-1.267 0-10.974-7.169-10.974-8.105 0-.373-1.125-.961-2.5-1.306-1.375-.345-2.5-1.069-2.5-1.608 0-.54-.845-.981-1.878-.981-1.032 0-2.437-.675-3.122-1.5s-1.99-1.5-2.9-1.5c-.91 0-2.543-.595-3.627-1.322-5.739-3.848-31.462-5.931-33.453-2.71-.679 1.098-.229 1.734 1.786 2.524 7.621 2.991 9.194 3.779 9.194 4.606 0 .496 1.139.902 2.531.902 1.393 0 2.791.675 3.107 1.5.317.825 1.115 1.5 1.773 1.5 1.481 0 7.589 6.19 7.589 7.691 0 .602.675 1.354 1.5 1.671.825.316 1.5 1.659 1.5 2.984s.675 2.969 1.5 3.654 1.514 2.202 1.532 3.372c.017 1.171.692 3.002 1.5 4.069.807 1.068 1.468 3.565 1.468 5.55 0 1.985.496 4.105 1.103 4.712 1.686 1.686-.737 20.331-2.927 22.521-.647.647-1.176 2.225-1.176 3.507 0 1.283-.675 2.591-1.5 2.907-.825.317-1.5 1.373-1.5 2.347 0 .973-.675 2.33-1.5 3.015s-1.5 1.81-1.5 2.5-.675 1.815-1.5 2.5-1.5 1.64-1.5 2.122c0 1.399 7.255.947 10-.622 1.375-.786 3.738-1.445 5.25-1.465 1.513-.019 2.75-.453 2.75-.965 0-.511 2.138-1.974 4.75-3.25 5.559-2.715 5.92-2.974 12.064-8.645 4.505-4.157 4.879-4.304 9.686-3.785 2.75.296 9.5.958 15 1.47s12.67 1.429 15.934 2.036c3.263.607 8.015 1.104 10.559 1.104 2.543 0 5.498.661 6.566 1.468 1.067.808 2.917 1.483 4.109 1.5 4.458.066 5.333 1.035 5.317 5.889-.013 4.308-1.714 10.79-3.911 14.906-.511.955-1.191 2.412-1.512 3.237-.321.825-1.464 2.85-2.539 4.5-4.571 7.013-4.761 6.5 2.406 6.5 5.973 0 7.131-.381 14.286-4.7 6.851-4.135 22.285-17.807 22.285-19.74 0-.393 1.307-2.021 2.905-3.619 2.855-2.855 3.143-2.915 16.731-3.492 7.604-.323 14.381-1.048 15.058-1.61.678-.563 4.849-1.271 9.269-1.574 4.421-.303 8.037-.901 8.037-1.328 0-.428 1.448-1.096 3.217-1.485 1.77-.388 3.907-1.083 4.75-1.544 3.601-1.968 11.04-4.908 12.419-4.908.823 0 1.743-.4 2.046-.889.302-.489 1.786-1.2 3.299-1.58 1.512-.379 2.978-.991 3.259-1.36.28-.369 3.66-2.246 7.51-4.171 3.85-1.925 8.908-5.425 11.241-7.779 3.733-3.766 4.093-4.514 3.009-6.25-.677-1.084-1.585-1.971-2.017-1.971-.766 0-6.048-4.433-10.18-8.543-1.129-1.123-4.303-3.823-7.053-6-2.75-2.176-5.225-4.234-5.5-4.572-.275-.339-1.512-.931-2.75-1.318-1.237-.386-2.25-1.121-2.25-1.634 0-.513-.718-.933-1.596-.933-.877 0-2.79-.61-4.25-1.355-4.036-2.06-12.616-4.645-15.416-4.645-1.372 0-4.011-.616-5.866-1.368-1.855-.753-8.757-1.66-15.339-2.017-6.582-.357-12.409-1.091-12.95-1.632-.541-.541-1.988-.983-3.216-.983-1.46 0-2.452-.778-2.868-2.25-2.204-7.797-8.278-15.977-16.32-21.981-7.247-5.411-9.034-6.544-12.429-7.881-1.512-.596-2.75-1.49-2.75-1.986s-1.264-.902-2.809-.902c-1.545 0-3.682-.661-4.75-1.468-1.212-.917-4.288-1.48-8.191-1.5L656 191l2 2M133.94 266.456c5.267 3.886 9.051 8.749 12.482 16.044 1.035 2.2 2.463 5.152 3.174 6.56 1.242 2.459 2.239 11.56 1.34 12.223-1.358.999-12.075 3.717-14.66 3.717-1.676 0-4.336.672-5.912 1.494-1.575.821-4.809 1.496-7.185 1.5-2.501.003-4.954.638-5.822 1.506-.841.841-3.336 1.514-5.678 1.532-2.299.017-5.053.692-6.12 1.5-1.068.807-2.704 1.468-3.636 1.468-.932 0-2.983.672-4.559 1.494-1.575.821-4.075 1.496-5.555 1.5-1.48.003-2.969.456-3.309 1.006-1.34 2.169-5.144.758-12.129-4.5-4.019-3.025-7.772-5.5-8.339-5.5A1.031 1.031 0 0 1 67 306.975c0-.563-1.012-1.483-2.25-2.043-3.398-1.538-6.787-3.569-8.034-4.816-.614-.614-2.061-1.116-3.216-1.116-1.155 0-2.618-.518-3.251-1.151s-3.086-1.514-5.45-1.958l-10.299-1.93c-7.048-1.32-14.633-.681-17.739 1.494L14.555 297h2.651c1.458 0 3.25.599 3.982 1.331.733.733 2.565 1.641 4.072 2.019 1.507.379 2.74 1.13 2.74 1.669 0 .54.868.981 1.929.981 1.06 0 2.603.675 3.428 1.5.825.825 1.742 1.5 2.038 1.5.949 0 7.605 7.031 7.605 8.033 0 .532.344.967.764.967.42 0 1.814 2.363 3.097 5.25 1.283 2.888 2.73 6.018 3.217 6.956.486.939 1.153 3.639 1.481 6 .328 2.362 1.059 5.252 1.623 6.424 1.445 2.995-.551 19.198-2.957 24.009a310.506 310.506 0 0 0-2.791 5.861c-1.023 2.2-3.115 5.64-4.647 7.644-1.533 2.004-2.787 3.917-2.787 4.25 0 .973 6.826.697 7.442-.3.308-.499 2.787-1.213 5.509-1.587 2.722-.375 5.476-1.317 6.121-2.094.645-.777 1.98-1.413 2.967-1.413.987 0 1.944-.337 2.128-.75.36-.811 6.457-5.25 7.211-5.25.252 0 2.374-1.84 4.715-4.089 3.827-3.677 4.616-4.025 7.831-3.453 3.541.631 23.136 2.858 38.576 4.385 7.277.719 13.532 2.197 17.5 4.133 2.199 1.073 2.624 12.258.545 14.336-.85.85-1.545 2.676-1.545 4.058 0 1.381-.478 2.807-1.062 3.168-.584.361-1.483 1.625-1.997 2.809-1.15 2.645-3.028 5.618-4.7 7.441-2.31 2.519-.28 3.413 6.073 2.676 5.334-.619 15.991-5.065 17.686-7.378.275-.375 2.075-1.762 4-3.081 5.193-3.559 16-14.975 16-16.901 0-1.729 5.182-4.275 7.512-3.69 3.265.819 39.488-3.965 41.988-5.546.55-.348 2.575-.968 4.5-1.378 1.925-.41 4.388-1.363 5.473-2.118 1.084-.754 2.575-1.372 3.311-1.372.737 0 3.674-1.081 6.528-2.401 2.853-1.321 6.201-2.701 7.438-3.068 1.238-.366 2.25-1.085 2.25-1.598 0-.513.788-.953 1.75-.976.963-.024 3.55-1.146 5.75-2.494 2.2-1.347 4.675-2.765 5.5-3.15.825-.386 2.015-1.176 2.645-1.757.63-.581 2.543-2.176 4.25-3.545 1.708-1.369 3.105-3.019 3.105-3.666 0-.647-1.912-2.677-4.25-4.511-2.337-1.834-6.725-5.668-9.75-8.521-9.413-8.879-22.786-17.313-27.45-17.313-1.192 0-3.041-.661-4.109-1.468-1.067-.808-4.069-1.483-6.671-1.5-2.601-.018-6.426-.67-8.5-1.45-2.073-.779-9.104-1.645-15.623-1.923-10.53-.448-12.122-.756-14.25-2.756-1.319-1.238-2.397-2.834-2.397-3.547 0-1.981-3.821-8.871-6.557-11.823-1.344-1.45-2.443-3.063-2.443-3.585a.946.946 0 0 0-.938-.948c-.516 0-2.417-1.35-4.223-3-1.807-1.65-3.874-3-4.593-3-.72 0-1.552-.634-1.85-1.41-.297-.775-1.633-1.684-2.968-2.019-1.336-.335-2.428-1.051-2.428-1.59 0-.54-.845-.981-1.878-.981-1.032 0-2.437-.675-3.122-1.5s-2.26-1.5-3.5-1.5c-1.24 0-2.815-.675-3.5-1.5-.892-1.075-3.251-1.5-8.317-1.5h-7.072l3.329 2.456M611.615 702.198c4.403 3.356 9.087 8.791 10.982 12.743a370.699 370.699 0 0 0 3.055 6.213c.741 1.46 1.348 3.571 1.348 4.691 0 1.12.45 2.315 1 2.655.55.34 1 2.343 1 4.452 0 4.099-1.057 5.02-5.832 5.083-1.467.02-3.793.679-5.168 1.465s-3.908 1.445-5.628 1.465c-1.72.019-4.743.71-6.718 1.535-1.974.825-5.367 1.5-7.539 1.5-2.171 0-4.113.494-4.314 1.098-.202.604-2.602 1.343-5.334 1.642-2.732.3-5.855 1.155-6.94 1.902-1.084.747-3.003 1.358-4.263 1.358-1.26 0-3.073.447-4.028.993-.955.546-3.707 1.638-6.115 2.427-5.122 1.678-5.045 1.71-16.288-6.67-4.243-3.162-8.206-5.75-8.805-5.75-.6 0-1.334-.634-1.632-1.41-.297-.775-1.633-1.684-2.968-2.019-1.336-.335-2.428-1.051-2.428-1.59 0-.54-1.07-.981-2.378-.981-1.307 0-2.937-.675-3.622-1.5s-2.554-1.5-4.155-1.5c-1.6 0-4.525-.675-6.499-1.5-5.374-2.245-21.624-2.076-23.964.25-1.68 1.669-1.618 1.764 1.354 2.058 1.713.169 3.654.957 4.312 1.75.658.793 1.987 1.442 2.952 1.442.965 0 2.315.675 3 1.5s2.01 1.5 2.946 1.5c2.606 0 11.576 8.951 14.029 14 1.202 2.475 2.6 5.281 3.105 6.236.506.955.923 2.305.926 3 .004.695.734 2.614 1.624 4.264 2.041 3.787 2.499 25.771.576 27.694-.663.663-1.206 1.862-1.206 2.665 0 2.186-7.129 15.988-9.679 18.74-1.903 2.053-1.979 2.399-.523 2.386.936-.008 3.502-.664 5.702-1.456 2.2-.793 5.688-1.461 7.75-1.485 2.063-.024 3.75-.485 3.75-1.025 0-.539 1.125-1.263 2.5-1.608 1.375-.345 2.5-.985 2.5-1.422 0-.436 1.238-1.239 2.75-1.784 1.513-.545 5-3.08 7.75-5.635 6.499-6.036 8.534-6.839 13.799-5.448 2.311.61 9.387 1.437 15.725 1.838 6.339.4 12.497 1.248 13.685 1.884 1.188.636 5.253 1.156 9.034 1.156 4.497 0 7.546.508 8.816 1.468 1.067.808 2.864 1.483 3.991 1.5 1.128.018 2.59.572 3.25 1.232 1.452 1.452 1.596 7.437.2 8.3-.55.34-1 2.134-1 3.988 0 1.853-.675 4.044-1.5 4.869-.825.825-1.5 2.377-1.5 3.449s-.631 2.473-1.402 3.113c-.771.639-1.679 2.27-2.019 3.622-.339 1.352-1.059 2.459-1.598 2.459-.54 0-.981.513-.981 1.14 0 .627-.787 1.737-1.75 2.468-1.51 1.146-.812 1.333 5.092 1.36 5.361.025 7.393-.401 9.385-1.968 1.399-1.1 3.12-2 3.825-2 .705 0 1.431-.357 1.615-.793.183-.436 2.133-1.889 4.333-3.23s5.062-3.347 6.36-4.458c3.992-3.415 10.14-9.489 10.14-10.018 0-.276.788-1.292 1.75-2.26.963-.967 2.686-3.049 3.83-4.626 2.069-2.853 2.15-2.871 14.985-3.332 7.098-.256 13.702-.891 14.676-1.412.973-.521 4.805-1.198 8.515-1.503 3.709-.306 8.162-1.189 9.895-1.962 1.733-.773 4.321-1.406 5.75-1.406 1.43 0 2.599-.42 2.599-.933 0-.513 1.013-1.214 2.25-1.558 7.004-1.946 34.75-15.232 34.75-16.639 0-.478.45-.87 1-.87 1.358 0 4.845-3.577 5.062-5.193.41-3.055-.16-4.807-1.562-4.807-.825 0-1.5-.465-1.5-1.032 0-.568-.868-1.355-1.93-1.75-1.061-.395-4.998-3.668-8.75-7.275-3.751-3.606-8.62-7.632-10.82-8.947-2.2-1.315-4.225-2.682-4.5-3.039-.275-.357-1.737-.952-3.25-1.322-1.512-.37-2.75-1.115-2.75-1.654 0-.54-1.25-.981-2.777-.981-1.528 0-3.666-.608-4.75-1.352-1.085-.743-4.878-1.646-8.429-2.006-3.551-.36-6.904-1.102-7.45-1.648-.547-.547-3.075-.994-5.618-.994-3.948 0-25.11-2.734-25.579-3.305-.436-.529-4.397-9.658-4.397-10.133 0-.651-3.174-4.43-8-9.526-4.641-4.9-11.604-9.785-17.25-12.103-1.512-.621-2.75-1.535-2.75-2.031 0-.496-1.093-.902-2.429-.902-1.335 0-3.103-.675-3.928-1.5-1.056-1.056-3.634-1.5-8.706-1.5h-7.207l2.885 2.198M229.75 454.883c3.438 3.35 6.25 6.735 6.25 7.521 0 .786.338 1.579.75 1.763 1.186.527 4.25 6.816 4.25 8.723 0 .95.661 2.601 1.468 3.669.808 1.067 1.483 3.617 1.5 5.665.027 3.128-.44 3.969-2.918 5.25-1.623.839-4.112 1.526-5.532 1.526s-4.198.675-6.172 1.5c-1.975.825-5.448 1.503-7.718 1.506-2.27.004-5.417.679-6.992 1.5-1.576.822-4.148 1.494-5.716 1.494-1.569 0-4.33.616-6.136 1.369-6.127 2.555-10.274 3.88-13.739 4.39-1.9.279-4.069 1.123-4.821 1.874-2.021 2.021-8.014 1.66-11.856-.715-1.852-1.144-3.368-2.494-3.368-3 0-.505-.637-.918-1.417-.918-.779 0-1.566-.337-1.75-.75-.949-2.136-18.607-12.822-22.658-13.712-1.746-.383-3.175-1.042-3.175-1.463 0-1.293-19.787-3.246-25.573-2.523-5.32.665-8.588 2.448-4.486 2.448 1.132 0 2.059.414 2.059.921 0 .506 1.35 1.217 3 1.579 1.65.362 3 1.037 3 1.5 0 .463 1.35 1.138 3 1.5 1.65.362 3 1.073 3 1.579 0 .507.639.921 1.421.921 1.788 0 10.579 8.702 10.579 10.472 0 .723.675 1.573 1.5 1.89.825.316 1.5 1.521 1.5 2.678s.675 2.778 1.5 3.603c.825.825 1.5 2.763 1.5 4.306 0 1.543.675 3.366 1.5 4.051 1.19.988 1.5 3.882 1.5 14s-.31 13.012-1.5 14c-.825.685-1.5 2.485-1.5 4 0 1.515-.675 3.315-1.5 4s-1.5 2.035-1.5 3c0 .965-.675 2.315-1.5 3s-1.5 1.827-1.5 2.539c0 .712-.416 1.444-.925 1.628-.509.183-1.071.965-1.25 1.736-.255 1.101.932 1.354 5.491 1.175 4.665-.184 7.481-1.1 14.223-4.627 4.624-2.418 10.332-6.322 12.684-8.674l4.277-4.277 10.062.266c5.535.146 11.61.729 13.5 1.294 1.891.565 8.388 1.271 14.438 1.567 6.05.297 12.697 1.177 14.77 1.956 2.074.78 4.656 1.417 5.739 1.417 3.202 0 5.991 3.101 5.991 6.663 0 1.771-.45 3.497-1 3.837-.55.34-1 1.782-1 3.204 0 2.73-6.378 16.891-7.865 17.462-.479.184-1.208 1.416-1.62 2.74l-.748 2.405 6.491-.606c5.796-.541 9.28-1.83 16.238-6.007 6.622-3.975 16.125-12.649 19.388-17.698 4.485-6.938 4.625-7 15.81-7 5.683 0 11.115-.418 12.07-.928.955-.51 5.111-1.464 9.236-2.12 14.749-2.344 17.346-2.898 18.366-3.918.569-.569 1.983-1.034 3.143-1.034 1.16 0 2.982-.661 4.05-1.468 1.067-.808 2.772-1.483 3.787-1.5 1.015-.018 3.04-.672 4.5-1.455 1.46-.782 4.789-2.396 7.398-3.586 2.61-1.19 4.999-2.575 5.309-3.078.311-.502 1.663-.913 3.006-.913 1.343 0 2.441-.42 2.441-.933 0-.513.978-1.243 2.173-1.622 2.353-.747 2.505-.851 8.077-5.514 4.596-3.846 4.937-7.131 1-9.633-1.512-.961-5.725-4.684-9.361-8.273-6.889-6.8-8.884-8.379-12.639-10.003-1.237-.535-2.25-1.434-2.25-1.997 0-.564-.845-1.025-1.878-1.025-1.032 0-2.437-.675-3.122-1.5s-2.315-1.5-3.622-1.5c-1.308 0-2.378-.43-2.378-.955 0-.525-1.687-1.21-3.75-1.523-2.062-.313-5.1-1.071-6.75-1.684-1.65-.612-6.375-1.477-10.5-1.92-4.125-.444-9.525-1.262-12-1.819-2.475-.556-7.547-1.031-11.271-1.055-6.441-.042-6.825-.179-7.857-2.794-.597-1.512-1.481-3.425-1.964-4.25-.483-.825-1.52-2.922-2.305-4.661-1.348-2.986-11.771-14.339-13.166-14.339-.357 0-2.289-1.237-4.293-2.75-2.004-1.512-5.444-3.587-7.644-4.611-2.2-1.023-4.9-2.339-6-2.923-2.45-1.302-8.49-2.722-14.5-3.409l-4.5-.515 6.25 6.091M524 509.558c0 .418 1.941 2.601 4.314 4.851 5.022 4.762 7.686 8.731 7.686 11.449 0 1.06.675 2.187 1.5 2.504.825.316 1.514 1.602 1.532 2.857.017 1.254.692 3.155 1.5 4.222 1.891 2.5 1.895 8.959.007 10.526-.803.667-3.391 1.435-5.75 1.707s-5.986 1.131-8.059 1.91c-2.074.779-5.696 1.416-8.05 1.416-2.354 0-4.809.529-5.456 1.176-.647.647-3.325 1.495-5.95 1.885-4.535.673-9.835 2.257-13.401 4.005-.895.438-3.37 1.112-5.5 1.496-2.13.384-4.323 1.05-4.873 1.479-1.863 1.453-8.007 2.097-10.51 1.101-1.37-.544-4.29-2.593-6.49-4.553s-4.787-3.824-5.75-4.143c-.962-.32-1.75-1-1.75-1.513 0-.513-.653-.933-1.45-.933-.798 0-1.81-.578-2.25-1.285-.44-.707-3.162-2.389-6.05-3.737-2.887-1.347-5.25-2.794-5.25-3.214 0-.42-1.295-.764-2.878-.764-1.582 0-3.381-.607-3.996-1.349-1.339-1.613-17.919-2.838-26.47-1.955-5.327.55-5.56.68-3.436 1.908 1.254.725 2.955 1.593 3.78 1.929.825.336 2.175 1.032 3 1.546.825.513 2.175 1.188 3 1.5.825.311 2.175.984 3 1.496.825.511 2.463 1.349 3.639 1.86 3.075 1.338 9.398 7.085 10.455 9.503.496 1.134 1.303 2.737 1.794 3.562.847 1.425 1.672 3.232 5.704 12.5 2.436 5.599 2.485 25.635.075 30.466-.917 1.838-1.667 3.892-1.667 4.565 0 .673-.675 1.784-1.5 2.469-.825.685-1.5 2.104-1.5 3.154 0 1.05-.675 2.168-1.5 2.484-.825.317-1.5 1.373-1.5 2.347 0 .973-.675 2.33-1.5 3.015-2.624 2.178-1.665 2.534 5.25 1.951 4.637-.391 8.284-1.412 11.649-3.26 2.694-1.48 5.521-2.691 6.281-2.691.761 0 1.642-.675 1.958-1.5.317-.825.961-1.5 1.431-1.5.47 0 2.999-2.085 5.621-4.633l4.768-4.633 8.521.557c4.686.306 9.788 1.041 11.336 1.633 1.548.592 6.948 1.096 12 1.12 5.052.024 11.21.498 13.685 1.054a301.9 301.9 0 0 0 8.5 1.764c2.2.414 5.238 1.566 6.75 2.561 4.304 2.829 3.727 8.897-1.877 19.731-.755 1.46-1.373 3.335-1.373 4.167 0 .832-.357 1.662-.793 1.846-1.103.464-5.207 7.322-5.207 8.701 0 2.531 9.488.614 17.973-3.631 4.134-2.068 3.938-1.934 11.527-7.862 7.278-5.685 7.942-6.361 13.411-13.625l4.329-5.75h12.297c8.825 0 12.412-.346 12.705-1.227.242-.726 3.234-1.475 7.334-1.836 7.798-.686 15.626-2.509 19.578-4.56 1.46-.757 3.405-1.377 4.322-1.377.917 0 2.342-.675 3.167-1.5.825-.825 2.763-1.5 4.306-1.5 1.543 0 3.366-.675 4.051-1.5s1.707-1.5 2.271-1.5c.565 0 5.315-2.137 10.555-4.75 8.878-4.426 18.174-11.52 18.174-13.868 0-.949-4.485-5.382-5.445-5.382-.237 0-3.605-3.15-7.486-7-3.88-3.85-7.439-7-7.907-7-.469 0-1.667-.9-2.662-2-.995-1.1-2.415-2-3.155-2-.74 0-1.345-.45-1.345-1s-.49-1-1.088-1c-.599 0-4.005-1.35-7.57-3-3.565-1.65-7.463-3.003-8.662-3.006-1.199-.004-3.327-.605-4.729-1.336-1.401-.732-6.243-1.615-10.758-1.964-4.516-.348-9.077-1.096-10.136-1.663-1.059-.567-5.523-1.031-9.92-1.031-8.424 0-11.137-1.206-11.137-4.949 0-.993-.675-2.366-1.5-3.051s-1.5-2.035-1.5-3c0-.965-.675-2.315-1.5-3s-1.5-1.865-1.5-2.622c0-.758-.357-1.378-.794-1.378-.437 0-2.623-1.687-4.859-3.75-5.002-4.616-12.386-9.81-15.226-10.712-1.167-.37-2.121-1.092-2.121-1.605 0-.513-.8-.933-1.777-.933-.978 0-2.666-.62-3.75-1.377-2.154-1.503-16.473-3.298-16.473-2.065M772 376.94c0 .635 2.004 3.187 4.453 5.671 2.449 2.485 4.729 5.388 5.067 6.453.338 1.065 1.034 1.936 1.547 1.936.513 0 .933 1.07.933 2.378 0 1.307.675 2.937 1.5 3.622s1.516 2.202 1.535 3.372c.02 1.171.679 3.253 1.465 4.628s1.445 3.51 1.465 4.745c.054 3.433-7.605 6.344-23.965 9.109-2.475.418-5.483 1.297-6.684 1.953-1.202.656-3.902 1.207-6 1.225-2.099.017-4.69.692-5.757 1.5-1.068.807-3.462 1.468-5.322 1.468-1.859 0-4.055.675-4.88 1.5-.825.825-2.705 1.514-4.178 1.532-1.474.017-3.553.692-4.62 1.5-1.068.807-3.04 1.468-4.382 1.468-2.665 0-9.177-3.606-9.177-5.082 0-.505-.627-.918-1.393-.918s-1.652-.675-1.969-1.5c-.316-.825-1.087-1.5-1.713-1.5-.625 0-2.777-1.285-4.781-2.855-5.018-3.933-14.645-9.145-16.89-9.145-1.02 0-2.281-.414-2.804-.919-1.285-1.243-11.59-3.315-18.95-3.81-4.007-.269-7.163.108-9.5 1.137-3.265 1.437-3.349 1.584-1.25 2.183 1.238.353 2.25 1.04 2.25 1.526 0 .485.868.883 1.929.883 1.06 0 2.527.599 3.259 1.331.733.733 2.565 1.641 4.072 2.019 1.507.379 2.74 1.13 2.74 1.669 0 .54.631.981 1.401.981 1.775 0 10.599 8.879 10.599 10.665 0 .734.42 1.335.933 1.335.513 0 1.218 1.013 1.568 2.25.666 2.356 3.039 7.843 4.865 11.25.59 1.1 1.245 7.26 1.457 13.689.305 9.297.056 12.347-1.219 14.904-.882 1.768-1.604 3.99-1.604 4.938 0 .948-.675 2.284-1.5 2.969s-1.5 2.035-1.5 3c0 .965-.675 2.315-1.5 3s-1.5 1.81-1.5 2.5-.675 1.815-1.5 2.5c-2.703 2.244-1.589 3 4.419 3 5.67 0 10.456-1.641 13.857-4.75.752-.687 1.816-1.25 2.365-1.25 1.567 0 10.071-6.119 13.089-9.417 3.104-3.393 5.336-3.616 17.77-1.769 4.125.613 13.575 1.619 21 2.237 7.425.618 13.95 1.473 14.5 1.9.55.427 3.013 1.084 5.474 1.46 5.065.775 8.026 2.953 8.026 5.906 0 2.671-3.266 13.094-4.236 13.516-.42.184-.764.809-.764 1.391 0 1.464-4.225 9.985-5.75 11.597-2.731 2.887-1.488 4.167 3.5 3.606 8.333-.938 11.096-1.472 11.427-2.209.178-.395 1.898-1.589 3.823-2.654 6.884-3.807 15.879-11.128 18.169-14.787 1.282-2.048 2.632-3.735 2.999-3.75.368-.015 1.642-1.602 2.832-3.527 2.106-3.407 2.332-3.5 8.532-3.5 3.503 0 8.529-.452 11.169-1.004 2.639-.552 8.174-1.427 12.299-1.944 11.056-1.386 19.05-3.02 23-4.699a927.284 927.284 0 0 1 6-2.526 397.69 397.69 0 0 0 5.5-2.349c1.65-.721 4.238-1.582 5.75-1.914 1.513-.331 2.75-1.044 2.75-1.583 0-.54 1.07-.981 2.378-.981 1.307 0 2.937-.675 3.622-1.5s2.09-1.5 3.122-1.5c1.033 0 1.878-.406 1.878-.902s1.238-1.341 2.75-1.878c3.944-1.399 12.25-9.048 12.25-11.282 0-1.041-1.232-2.69-2.739-3.665-1.506-.975-5.778-4.779-9.492-8.453-3.714-3.674-7.657-6.967-8.761-7.317-1.104-.351-2.008-1.057-2.008-1.57 0-.513-.689-.933-1.531-.933-.843 0-1.775-.634-2.073-1.41-.297-.775-1.633-1.684-2.968-2.019-1.336-.335-2.428-1.051-2.428-1.59 0-.54-1.295-.981-2.878-.981-1.582 0-3.437-.675-4.122-1.5s-2.554-1.5-4.155-1.5c-1.6 0-4.525-.675-6.499-1.5-1.975-.825-4.773-1.5-6.218-1.5-1.446 0-5.779-.667-9.628-1.483-3.85-.815-10.622-1.49-15.05-1.5-8-.017-10.45-.905-10.45-3.788 0-.755-.675-2.047-1.5-2.872-.825-.825-1.5-2.313-1.5-3.306 0-.993-.675-2.366-1.5-3.051s-1.5-1.618-1.5-2.075c0-.915-9.761-10.925-10.654-10.925-.307 0-2.263-1.35-4.346-3s-4.23-3-4.771-3c-.541 0-1.544-.675-2.229-1.5s-2.035-1.5-3-1.5c-.965 0-2.261-.61-2.88-1.356-.619-.745-3.942-1.618-7.385-1.94-3.443-.321-7.042-.884-7.997-1.251-1.032-.396-1.738-.198-1.738.487M524.008 20.133c.004.752 2.029 3.153 4.5 5.335S533 29.82 533 30.289c0 .47.675 1.529 1.5 2.354.825.825 1.5 2.313 1.5 3.306 0 .993.675 2.366 1.5 3.051s1.5 2.347 1.5 3.694.675 3.124 1.5 3.949c.825.825 1.5 3.237 1.5 5.361 0 3.151-.414 3.977-2.25 4.491-1.237.347-3.15 1.037-4.25 1.533-1.856.838-5.79 1.716-17.683 3.951-2.576.484-5.584 1.361-6.685 1.95-1.1.589-3.519 1.071-5.375 1.071-1.856 0-4.248.661-5.316 1.468-1.067.808-3.317 1.483-5 1.5-1.682.018-3.932.693-5 1.5-1.067.808-3.291 1.497-4.941 1.532-1.65.035-3.874.724-4.941 1.532-3.343 2.528-6.3 1.649-14.406-4.282-4.322-3.162-8.879-6.425-10.128-7.25-1.249-.825-2.836-2.04-3.527-2.701-.691-.66-2.436-1.496-3.877-1.858-1.442-.362-2.621-1.023-2.621-1.47 0-.447-1.462-1.126-3.25-1.509-1.787-.384-3.7-.973-4.25-1.311-2.611-1.602-14.652-4.042-20.203-4.093-5.662-.053-11.361 1.392-11.254 2.853.024.324 4.491 2.768 9.927 5.432C426.324 60.927 434 66.877 434 69.544c0 .666.675 1.771 1.5 2.456s1.5 2.315 1.5 3.622c0 1.308.42 2.378.933 2.378.513 0 1.223 1.013 1.579 2.25.356 1.238 1.361 3.825 2.234 5.75 1.154 2.546 1.586 6.636 1.586 15 0 11.172-.845 15.189-4.422 21-.507.825-1.102 1.95-1.32 2.5-1.704 4.282-3.447 7.418-5.501 9.893-1.2 1.446-.727 1.607 4.708 1.607 5.243 0 10.918-1.719 13.202-4 .276-.275 2.692-1.625 5.371-3 2.678-1.375 6.926-4.425 9.439-6.778 5.331-4.992 8.003-5.892 13.03-4.388 2.014.602 6.361 1.284 9.661 1.516 16.053 1.129 31.314 3.04 34.151 4.276 1.733.756 4.289 1.374 5.679 1.374 3.445 0 5.677 2.503 5.637 6.321-.052 5.117-4.459 16.268-9.925 25.111-1.213 1.962-1.831 3.622-1.374 3.687.458.066 3.532.025 6.832-.09 4.626-.161 7.091-.876 10.765-3.119 2.621-1.601 4.956-2.91 5.188-2.91.233 0 1.902-1.35 3.708-3 1.807-1.65 3.619-3 4.029-3 .937 0 7.801-6.816 7.837-7.783.015-.394 1.966-2.896 4.335-5.559 4.294-4.826 4.331-4.842 11.223-5.106 9.606-.367 27.569-2.59 29.599-3.662.927-.49 3.334-.89 5.349-.89 3.465 0 7.351-1.285 13.798-4.561 1.557-.792 3.582-1.453 4.5-1.471.918-.017 2.543-.692 3.61-1.5 1.068-.807 2.925-1.468 4.128-1.468 1.202 0 2.746-.675 3.431-1.5s2.035-1.5 3-1.5c.965 0 2.315-.675 3-1.5s2.09-1.5 3.122-1.5c1.033 0 1.878-.42 1.878-.933 0-.513 1.013-1.253 2.25-1.646 2.801-.888 10.625-6.797 12.451-9.404 1.114-1.591 1.129-2.316.083-3.992-.704-1.126-2.034-2.287-2.957-2.58-.922-.293-4.915-3.663-8.872-7.489S646.541 77 646.274 77c-.267 0-2.191-1.35-4.274-3s-4.23-3-4.771-3c-.541 0-1.544-.675-2.229-1.5s-2.202-1.514-3.372-1.532c-1.171-.017-3.002-.692-4.069-1.5-1.068-.807-3.093-1.475-4.5-1.483-1.408-.008-4.359-.664-6.559-1.456-2.2-.793-5.661-1.461-7.691-1.485-2.03-.024-3.941-.449-4.247-.943-.305-.495-6.294-1.22-13.309-1.612C578.037 58.75 575 57.718 575 53.967c0-.947-.675-2.282-1.5-2.967s-1.5-2.112-1.5-3.173c0-2.558-10.925-13.436-18.739-18.658-3.431-2.293-6.581-4.172-7-4.175-.418-.004-2.111-.716-3.761-1.583s-5.25-1.989-8-2.492c-2.75-.504-6.237-1.194-7.75-1.534-1.962-.441-2.748-.226-2.742.748M341.482 151.028c-.349.566 1.537 2.994 4.191 5.396 2.655 2.402 5.908 6.551 7.23 9.221s3.009 6.049 3.75 7.509c.741 1.46 1.361 3.71 1.379 5 .017 1.29.692 3.22 1.5 4.287.807 1.068 1.468 2.494 1.468 3.169 0 1.996-6.455 5.39-10.254 5.39-1.934 0-4.806.672-6.382 1.494-1.575.821-5.189 1.496-8.031 1.5-2.858.003-5.33.497-5.532 1.104-.202.604-2.602 1.343-5.334 1.642-2.732.3-5.855 1.155-6.94 1.902-1.084.747-2.945 1.358-4.135 1.358s-3.452.672-5.028 1.494c-1.575.821-3.786 1.496-4.914 1.5-1.127.003-2.496.452-3.04.996-.545.545-2.998 1.266-5.45 1.601-3.997.548-4.823.29-7.96-2.48-1.925-1.701-4.287-3.351-5.25-3.669-.962-.317-1.75-.996-1.75-1.509 0-.513-.653-.933-1.45-.933-.798 0-1.81-.562-2.25-1.25-.898-1.403-3.686-3.273-7.05-4.728-1.237-.535-2.25-1.434-2.25-1.997 0-.564-.845-1.025-1.878-1.025-1.032 0-2.437-.675-3.122-1.5s-2.215-1.5-3.4-1.5-3.043-.61-4.127-1.355c-2.473-1.699-18.657-2.95-26.574-2.054l-5.956.674 5.279 2.509c2.903 1.379 5.428 2.895 5.611 3.367.184.473 1.014.859 1.846.859 3.856 0 17.321 11.14 17.321 14.33 0 .784.675 1.985 1.5 2.67.825.685 1.5 2.26 1.5 3.5 0 1.24.675 2.815 1.5 3.5s1.5 2.225 1.5 3.422c0 1.198.547 2.725 1.215 3.393 2.025 2.025 2.312 19.988.392 24.582-.884 2.116-1.607 4.637-1.607 5.603 0 .965-.675 2.315-1.5 3s-1.5 2.058-1.5 3.051c0 .993-.588 2.401-1.306 3.128-.718.726-1.612 1.996-1.986 2.821-.374.825-1.416 2.513-2.316 3.75l-1.636 2.25h6.693c4.617 0 7.159-.465 8.194-1.5.825-.825 2.368-1.5 3.428-1.5 1.061 0 1.929-.363 1.929-.808 0-.444 1.688-1.565 3.75-2.492 2.063-.926 6.225-3.97 9.25-6.765l5.5-5.08 9.687.573c5.328.316 10.87 1.023 12.315 1.573 1.446.549 6.311 1.026 10.813 1.059 4.502.032 10.21.456 12.685.942 15.759 3.09 18 4.212 18 9.004 0 4.939-5.134 17.851-10.809 27.187-.901 1.482-1.334 2.998-.962 3.37 1.327 1.326 14.559-2.496 19.905-5.751 7.949-4.838 16.055-11.676 19.931-16.812 7.089-9.394 6.223-8.963 18.071-8.983 7.461-.012 11.49-.463 13.5-1.511 1.575-.821 4.439-1.493 6.364-1.491 4.059.002 16.065-2.712 20.651-4.67 1.733-.74 3.844-1.345 4.691-1.345s1.797-.415 2.11-.923c.314-.508 1.96-1.228 3.658-1.601s6.518-2.433 10.711-4.577c4.193-2.144 8.144-3.899 8.779-3.899.635 0 1.715-.675 2.4-1.5.685-.825 1.985-1.5 2.889-1.5 2.126 0 12.118-9.121 12.09-11.036-.012-.805-1.7-2.673-3.75-4.15-2.051-1.478-7.194-5.831-11.429-9.673-7.38-6.696-18.522-14.141-21.162-14.141-.691 0-2.129-.661-3.197-1.468-1.067-.808-3.303-1.483-4.968-1.5-1.666-.018-3.916-.643-5-1.389-1.085-.746-5.736-1.607-10.336-1.913-4.6-.306-8.852-1.045-9.45-1.643-.633-.633-5.137-1.087-10.786-1.087h-9.699l-2.101-4.031c-1.156-2.217-2.101-4.869-2.101-5.893s-.675-2.121-1.5-2.438c-.825-.316-1.515-1.152-1.533-1.857-.047-1.791-2.638-4.634-8.467-9.289-2.75-2.195-5.225-4.25-5.5-4.565-.275-.315-1.175-.883-2-1.261-.825-.378-2.85-1.578-4.5-2.666-1.65-1.088-3.675-2.231-4.5-2.54-.825-.309-2.774-1.214-4.331-2.011-1.557-.797-3.934-1.449-5.282-1.449-1.348 0-4.067-.675-6.041-1.5-4.248-1.775-5.02-1.837-5.864-.472M821.605 556.25c4.062 3.18 6.395 5.604 6.395 6.643 0 .491.675 1.152 1.5 1.469.825.316 1.502 1.152 1.504 1.857.002.704 1.35 3.981 2.996 7.281s2.994 6.986 2.996 8.191c.002 1.205.454 2.469 1.004 2.809 3.17 1.959-1.617 7.5-6.48 7.5-1.871 0-3.661.419-3.977.93-.316.512-3.155 1.209-6.309 1.549-3.154.34-6.455 1.009-7.337 1.487-.882.477-3.807 1.161-6.5 1.519-2.693.359-5.797 1.028-6.897 1.488-3.203 1.338-21.692 6.874-25.25 7.56-5.012.965-8.549-.263-13.176-4.578-2.333-2.175-4.585-3.955-5.005-3.955-.42 0-1.844-.892-3.166-1.981a278.316 278.316 0 0 0-3.403-2.769c-.55-.432-3.362-1.897-6.25-3.254-2.887-1.358-5.25-2.812-5.25-3.232 0-.42-1.489-.764-3.309-.764s-4.182-.661-5.25-1.468c-1.477-1.117-5.146-1.476-15.346-1.5-13.343-.032-13.397-.023-11.595 1.968.995 1.1 2.348 2 3.006 2 2.256 0 17.02 8.303 19.494 10.963 2.672 2.872 5.532 7.416 8.208 13.037 7.842 16.478 7.853 30.653.037 46.847-1.42 2.94-3.121 5.886-3.781 6.546-.66.66-1.526 2.226-1.923 3.479-.701 2.208-.575 2.259 4.118 1.659 9.489-1.213 11.341-1.634 11.341-2.576 0-.525.873-.955 1.941-.955s2.212-.438 2.542-.973c.331-.536 2.045-1.666 3.809-2.513 1.765-.846 5.683-3.777 8.708-6.513 4.659-4.214 6.111-4.976 9.5-4.982 2.2-.003 5.289.666 6.864 1.487 2.022 1.055 6.139 1.507 14 1.538 6.125.024 13.161.502 15.636 1.063 2.475.561 6.975 1.403 10 1.87 3.025.468 6.734 1.451 8.242 2.186 2.56 1.248 2.743 1.76 2.75 7.683.004 3.49-.611 7.54-1.368 9-.757 1.46-2.347 4.759-3.534 7.332-1.187 2.573-2.481 4.823-2.874 5-.394.177-1.506 1.825-2.471 3.661l-1.754 3.339 5.754-.426c5.923-.439 11.752-2.303 14.076-4.502.727-.687 1.852-1.257 2.5-1.266.649-.009 2.702-1.359 4.565-3 1.862-1.641 3.662-2.986 4-2.989 1.102-.008 7.534-6.392 11.079-10.995 7.242-9.405 6.352-8.961 18.035-9.007 5.775-.022 12.3-.526 14.5-1.12 2.2-.593 6.7-1.441 10-1.883 7.259-.973 14.072-2.753 17.654-4.612 1.46-.758 3.543-1.378 4.628-1.378s2.533-.675 3.218-1.5 1.998-1.5 2.918-1.5c.92 0 5.609-2.025 10.418-4.5 4.81-2.475 9.196-4.5 9.747-4.5.551 0 1.545-.455 2.209-1.011.664-.555 3.571-2.885 6.458-5.176 3.631-2.882 5.25-4.883 5.25-6.49 0-1.278-.595-2.323-1.323-2.323-1.2 0-3.839-2.25-16.159-13.775-4.344-4.063-5.033-4.528-12.183-8.225-2.659-1.375-4.985-2.837-5.168-3.25-.184-.412-.942-.75-1.685-.75-.744 0-2.619-.53-4.167-1.179-4.437-1.858-14.751-3.784-28.315-5.289-6.875-.763-14.239-1.658-16.364-1.989-4.232-.661-7.55-3.789-7.603-7.171-.018-1.17-.708-2.687-1.533-3.372s-1.5-1.766-1.5-2.404c0-1.165-9.464-11.596-10.521-11.596-.312 0-1.74-1.088-3.174-2.418s-6.789-4.48-11.9-7c-8.234-4.06-10.053-4.582-15.983-4.582h-6.692l2.875 2.25" fill="#000000FF" stroke="#000000FF"/></svg>