<svg version="1.0" xmlns="http://www.w3.org/2000/svg" width="860pt" height="832pt" viewBox="0 0 860 832"><path d="M430.223 24.557c-2.022 1.416-2.224 2.388-2.231 10.75-.004 5.056-.467 12.029-1.03 15.495-.562 3.466-1.482 18.091-2.043 32.5-.561 14.409-1.335 29.348-1.72 33.198l-.699 7-3.398.5c-4.252.626-7.262 4.459-8.032 10.23l-.57 4.27-18.283.273-18.284.272-.966 2.543c-.532 1.398-.967 6.551-.967 11.451v8.909l-15.25.276-15.25.276-.5 11-.5 11-11.5.5-11.5.5-.252 302.9c-.184 221.897-.551 303.26-1.372 304.25-1.389 1.673-5.07 1.756-6.676.15-.927-.927-1.2-61.806-1.2-267.929 0-241.147-.151-266.879-1.571-268.3-.865-.864-1.652-1.566-1.75-1.559-.099.006-2.654.676-5.679 1.488-3.025.812-7.528 1.482-10.007 1.488-2.478.007-6.078.472-8 1.033-1.921.562-7.093 1.439-11.493 1.948-9.14 1.058-18.482 2.486-30 4.583-4.4.802-9.62 1.455-11.601 1.453-1.98-.003-4.905.448-6.5 1.001-1.594.554-6.499 1.424-10.899 1.933-4.4.51-12.725 1.67-18.5 2.578-17.598 2.769-29.136 4.476-37 5.477-4.125.524-9.075 1.397-11 1.938-1.925.541-5.889 1.164-8.809 1.385-2.92.22-5.845.937-6.5 1.592-.914.914-1.251 60.412-1.447 255.657l-.256 254.467-26.744-.267L73.5 792.5l-.27-22.4c-.238-19.786-.074-22.615 1.405-24.25.921-1.017 2.363-1.85 3.204-1.85 5.439 0 16.077-8.587 20.96-16.919 5.471-9.336 6.133-12.976 6.168-33.893.036-21.303-.718-25.416-6.352-34.629-7.596-12.422-17.312-18.327-33.313-20.248-5.131-.616-15.57 1.886-22.185 5.318C37.526 646.53 29.245 654.84 26.804 660 21.945 670.271 22 669.899 22 692.5c0 22.624-.017 22.507 4.829 32.238C30.662 732.434 43.833 744 48.764 744c1.06 0 2.671.823 3.581 1.829C53.78 747.414 54 750.594 54 769.722c0 19.197-.206 22.143-1.582 22.671-.87.334-7.829.607-15.465.607-12.702 0-13.971.165-14.918 1.934-1.108 2.071-1.438 17.852-.428 20.484.552 1.439 37.636 1.582 410.3 1.582 317.317 0 409.964-.271 410.893-1.2.758-.758 1.2-4.566 1.2-10.345 0-12.519.28-12.323-18.047-12.676L811.5 792.5l-.27-21.874c-.188-15.264.075-22.288.87-23.246.627-.756 3.28-2.009 5.896-2.786 12.669-3.763 23.238-15.454 26.57-29.393 1.673-6.998 1.91-37.265.345-44.008-2.55-10.986-10.95-22.372-19.828-26.875-1.971-1-3.833-2.153-4.138-2.562-.684-.916-8.881-2.793-14.945-3.422-6.381-.662-24 4.373-24 6.858 0 .445-.562.815-1.25.824-1.302.016-9.336 8.065-11.485 11.506-5.273 8.444-7.107 17.472-7.107 34.978 0 17.503 1.868 26.687 7.107 34.947 4.417 6.963 14.922 15.437 20.97 16.915 1.683.412 2.945 1.528 3.283 2.903.301 1.229.42 11.91.265 23.735l-.283 21.5h-51l-.5-134.7c-.326-87.884-.848-135.017-1.5-135.61-.55-.501-3.475-1.707-6.5-2.68-3.025-.973-7.075-2.336-9-3.03-1.925-.693-6.2-2.04-9.5-2.992s-7.478-2.351-9.284-3.11c-1.806-.758-4.117-1.378-5.136-1.378-1.018 0-3.14-.672-4.716-1.494-1.575-.821-3.764-1.512-4.864-1.535-1.1-.023-3.125-.685-4.5-1.471s-3.461-1.445-4.636-1.465c-1.174-.019-3.424-.707-5-1.529-1.575-.821-4.101-1.496-5.614-1.5-1.512-.003-2.75-.428-2.75-.945 0-.516-2.031-1.243-4.512-1.615-2.482-.372-4.759-1.075-5.059-1.561-.811-1.313-4.19-1.072-5.12.365-.445.688-1.034 67.625-1.309 148.75l-.5 147.5-3.25.313-3.25.314V378.23l-2.465-1.615c-1.355-.888-3.2-1.615-4.099-1.615-.898 0-3.052-.634-4.785-1.409s-4.276-1.629-5.651-1.898c-2.773-.544-7.781-2.237-12.784-4.324-1.806-.753-4.281-1.383-5.5-1.401-1.219-.017-3.09-.692-4.157-1.5-1.068-.807-3.179-1.468-4.691-1.468-1.513 0-3.007-.415-3.32-.923-.314-.508-2.028-1.224-3.809-1.593-4.09-.845-12.28-3.421-16.39-5.155-1.733-.731-4.027-1.329-5.096-1.329-1.07 0-3.36-.705-5.088-1.568-1.728-.862-4.385-1.424-5.904-1.25l-2.761.318-.5 221-.5 221h-7l-.5-303c-.275-166.65-.864-303.562-1.309-304.25-.57-.88-4.195-1.25-12.25-1.25H526v-9.918c0-5.455-.273-10.63-.607-11.5-.513-1.337-2.747-1.582-14.418-1.582-7.596 0-14.523-.273-15.393-.607-1.286-.493-1.582-2.35-1.582-9.918 0-5.121-.273-10.023-.607-10.893-.523-1.363-3.15-1.582-19-1.582H456v-3.632c0-4.742-3.408-10.206-6.833-10.953-1.467-.32-3.155-.727-3.751-.904-1.476-.437-3.423-22.81-4.483-51.511-1.309-35.451-2.312-46.073-4.503-47.675-2.343-1.713-3.493-1.67-6.207.232M428 745.516v48.517l-26.75-.267-26.75-.266-.261-47c-.143-25.85-.044-47.562.219-48.25.367-.957 6.708-1.25 27.011-1.25H428v48.516m67.5-.016v48h-53l-.26-48.266-.259-48.267 26.759.267 26.76.266v48m124.566-338.465c1.853.992 1.933 2.418 1.902 34.25-.025 26.034-.319 33.593-1.36 34.965-1.165 1.535-3.244 1.75-16.933 1.75-14.404 0-15.684-.149-16.64-1.934-.653-1.222-1.035-14.104-1.035-34.951 0-30.388.139-33.097 1.75-34.035 2.308-1.344 29.816-1.383 32.316-.045M618 537.5V570h-28v-65h28v32.5m-.015 193.75c-.009 17.188-.381 31.827-.829 32.531-.608.959-4.068 1.21-13.734 1L590.5 764.5l-.264-32.25-.264-32.25H618l-.015 31.25m-.592-127.668c.334.87.607 15.495.607 32.5V667h-28v-31.833c0-17.509.3-32.134.667-32.5.366-.367 6.393-.667 13.393-.667 10.682 0 12.824.254 13.333 1.582M432.073 815C161.022 815 24 814.665 24 814.001c0-1.613 815.406-1.864 815.823-.251.259.998-81.785 1.25-407.75 1.25m18.098-360.345c1.626 1.471 1.829 3.421 1.829 17.535 0 21.899.922 20.81-17.615 20.81-19.614 0-18.613 1.16-18.2-21.103.255-13.756.599-17.153 1.815-17.92.825-.52 7.99-.953 15.921-.962 12.031-.012 14.725.259 16.25 1.64m.214 59.81c1.315 2.007 1.615 5.411 1.615 18.345 0 20.643 1.186 19.445-18.829 19.013-8.256-.177-15.384-.697-15.84-1.154-.457-.457-.973-8.415-1.146-17.685-.414-22.126-1.404-20.984 18.2-20.984 14.186 0 14.407.034 16 2.465m-.214 118.19c1.626 1.471 1.829 3.421 1.829 17.535 0 21.899.922 20.81-17.615 20.81-19.357 0-18.385 1.057-18.385-20 0-21.032-.938-20 18.171-20 11.783 0 14.48.279 16 1.655m-.21-416.466c1.876 2.013 2.039 3.469 2.039 18.171 0 13.469-.26 16.27-1.655 17.811-1.461 1.614-3.369 1.827-16.25 1.814-8.027-.009-15.27-.442-16.095-.964-1.241-.784-1.5-3.994-1.5-18.565 0-16.285.147-17.725 1.941-19.037 1.454-1.063 5.397-1.419 15.711-1.419 12.878 0 13.902.142 15.809 2.189M203.203 670.8c2.032 2.036 1.847 35.925-.203 37.221-.825.522-8.308.955-16.629.964l-15.128.015-1.194-2.881c-.804-1.942-1.088-8.002-.871-18.583.408-19.897-.735-18.764 18.525-18.345 9.968.217 14.589.697 15.5 1.609m.344-118.369c1.327 2.026 1.539 5.102 1.273 18.453-.228 11.432-.692 16.393-1.617 17.319-.909.909-5.597 1.393-15.678 1.62-19.387.434-18.525 1.331-18.525-19.276 0-9.597.44-16.418 1.161-18l1.16-2.547h15.316c15.118 0 15.338.031 16.91 2.431m246.414-158.242c1.874 2.012 2.039 3.469 2.039 18.065 0 9.032-.446 16.711-1.035 17.812-.955 1.783-2.223 1.933-16.25 1.919-8.368-.009-15.89-.441-16.715-.962-1.212-.765-1.561-4.115-1.817-17.463-.317-16.512-.316-16.518 2.205-19.038 2.446-2.447 2.923-2.522 16.028-2.522 12.606 0 13.642.146 15.545 2.189M203 731c1.833 1.833 2 3.333 2 17.929 0 13.147-.274 16.203-1.571 17.5-1.293 1.292-4.305 1.571-16.965 1.571-14.196 0-15.474-.151-16.429-1.934-.588-1.099-1.035-8.736-1.035-17.672 0-13.24.263-16.027 1.655-17.565 1.457-1.61 3.373-1.829 16-1.829 13.012 0 14.531.186 16.345 2m65.67-60.669c1.006 1.006 1.728 30.735.858 35.371l-.619 3.298h-15.754c-10.921 0-16.123-.368-16.955-1.2-1.34-1.34-1.735-34.427-.435-36.434.404-.624 1.635-1.376 2.735-1.671 3.138-.84 29.243-.291 30.17.636m248.295-156.397c.597 1.115 1.035 9.111 1.035 18.878 0 13.529-.29 17.184-1.44 18.139-2.272 1.885-31.329 1.037-32.583-.951-.521-.825-.953-8.712-.962-17.527-.02-21.729-1.125-20.473 18.007-20.473 13.715 0 14.99.155 15.943 1.934M516.8 454.2c1.535 1.535 1.68 34.034.165 36.866-.95 1.775-2.223 1.934-15.5 1.934-19.489 0-18.465 1.133-18.465-20.429 0-13.601.27-16.699 1.571-18 1.287-1.286 4.244-1.571 16.3-1.571 10.123 0 15.104.375 15.929 1.2m-.371-60.629c1.304 1.305 1.571 4.437 1.571 18.419 0 9.265-.273 17.558-.607 18.428-.518 1.351-2.927 1.582-16.465 1.582-14.655 0-15.936-.147-16.893-1.934-1.543-2.885-1.358-33.276.215-35.26 1.925-2.428 3.298-2.642 17.429-2.727 10.721-.064 13.471.214 14.75 1.492m.536-177.637c1.515 2.832 1.37 35.331-.165 36.866-.825.825-5.806 1.2-15.929 1.2-12.056 0-15.013-.285-16.3-1.571-1.301-1.301-1.571-4.399-1.571-18 0-21.562-1.024-20.429 18.465-20.429 13.277 0 14.55.159 15.5 1.934M516.8 632.2c1.535 1.535 1.68 34.034.165 36.866-.953 1.779-2.228 1.934-15.943 1.934-19.048 0-18.027 1.104-18.008-19.473.015-16.535.397-19.209 2.839-19.857 4.029-1.071 29.788-.629 30.947.53m-247.835 98.734c1.513 2.827 1.368 34.333-.165 35.866-1.678 1.678-30.922 1.678-32.6 0-.839-.839-1.2-6.298-1.2-18.14 0-14.96.204-17.095 1.75-18.268 1.266-.961 5.816-1.337 16.465-1.36 13.542-.029 14.797.122 15.75 1.902m112.428-452.352c.334.87.607 8.295.607 16.5V310h-28v-15.833c0-8.709.3-16.134.667-16.5.366-.367 6.393-.667 13.393-.667 10.682 0 12.824.254 13.333 1.582M266.775 331.25l-.275 16.25-12.922.281c-9.666.21-13.126-.041-13.734-1-.972-1.531-1.135-30.157-.177-31.114.366-.367 6.677-.667 14.024-.667h13.359l-.275 16.25M267 450.3c0 10.567-.371 15.671-1.2 16.5-.802.802-5.241 1.2-13.383 1.2-14.568 0-13.384 1.657-13.403-18.75L239 435h28v15.3m444.788 177.2c.411 20.052 1.449 18.5-12.373 18.5-6.35 0-12.417-.466-13.481-1.035-1.784-.955-1.934-2.234-1.934-16.528v-15.493l13.75.278 13.75.278.288 14M381.37 577.25c.787 2.939.781 25.583-.008 28.528-.601 2.243-.814 2.274-13.736 2L354.5 607.5l-.275-16.25-.275-16.25h13.409c13.059 0 13.423.059 14.011 2.25M267 628.465c0 14.266-.15 15.545-1.934 16.5-1.064.569-7.087 1.035-13.384 1.035-11.027 0-11.471-.083-12.052-2.25-.789-2.944-.808-27.122-.023-29.168.512-1.334 2.71-1.582 14-1.582H267v15.465m445 118.953c0 7.93-.273 15.13-.607 16-.506 1.319-2.57 1.582-12.418 1.582-6.496 0-12.523-.273-13.393-.607-1.348-.517-1.582-2.886-1.582-16V733h28v14.418M200 629.5V646h-27v-33h27v16.5m315-38V608h-27v-33h27v16.5m-67 0V608h-27v-33h27v16.5M381.5 532v15.5l-11.5.29c-17.453.441-16 1.862-16-15.642 0-8.148.312-15.127.694-15.509.382-.382 6.57-.569 13.75-.417l13.056.278V532m-115.7-36.8c.825.825 1.2 5.822 1.2 16V526h-28v-14.418c0-7.93.273-15.13.607-16 .508-1.323 2.604-1.582 12.8-1.582 8.15 0 12.591.398 13.393 1.2M381.5 473v15.5l-11.5.29c-17.453.441-16 1.862-16-15.642 0-8.148.312-15.127.694-15.509.382-.382 6.57-.569 13.75-.417l13.056.278V473M200 451.5V468h-27v-33h27v16.5m0-120V348h-27v-33h27v16.5m248-38V310h-27v-33h27v16.5m-66.481 343.75c.306 1.238.427 8.325.269 15.75l-.288 13.5h-27l-.278-14.924c-.209-11.269.035-15.122 1-15.735.703-.445 6.782-.817 13.509-.826 11.858-.015 12.248.054 12.788 2.235M265.778 375.841c.965.613 1.209 4.466 1 15.735L266.5 406.5h-27l-.288-13.5c-.417-19.552-1.542-18.003 13.057-17.985 6.727.009 12.806.381 13.509.826m115.741-36.591c.306 1.238.427 8.325.269 15.75l-.288 13.5-13.75.278-13.75.278v-15.454c0-13.879.179-15.502 1.75-15.913.963-.251 7.029-.509 13.481-.573 11.378-.113 11.748-.048 12.288 2.134m133.256-45.5.275 16.25H488v-33.058l13.25.279 13.25.279.275 16.25M626.5 373.635l8 2.318c1.65.479 4.461 1.459 6.248 2.178l3.247 1.306.253 208.031.252 208.032 4.629.3c3.247.21 5.112-.184 6.25-1.322 1.352-1.352 1.621-1.378 1.621-.156 0 1.904-2.155 2.678-7.459 2.678-2.776 0-4.782-.585-5.669-1.654-1.149-1.385-1.453-35.223-1.872-208.703l-.5-207.049-6-1.896c-3.3-1.042-6.9-2.275-8-2.738-1.1-.464-3.457-1.129-5.239-1.479-1.781-.349-3.542-1.127-3.914-1.728-.452-.732-.044-.841 1.239-.329 1.053.42 4.164 1.415 6.914 2.211m85.276 315.615-.276 15.25-13.75.278-13.75.278V674h28.052l-.276 15.25m-330-277-.276 15.25-13.75.278-13.75.278V397h28.052l-.276 15.25m330 157.5.276 15.25H684v-14.833c0-8.159.312-15.146.694-15.528.382-.382 6.57-.569 13.75-.417l13.056.278.276 15.25m-330-335.5-.276 15.25h-27l-.276-15.25-.276-15.25h28.104l-.276 15.25m-115 335.528.276 15.279-13.776-.279-13.776-.278-.28-13.952c-.153-7.673-.05-14.549.23-15.279.396-1.031 3.474-1.265 13.78-1.048l13.27.279.276 15.278M200 510v16h-27v-32h27v16m0-119v16h-27v-32h27v16m312.75-53.37c2.21.592 2.25.879 2.25 15.987V369h-27v-15.333c0-8.434.3-15.634.667-16 .829-.829 21.011-.86 24.083-.037m-67 0c2.21.592 2.25.879 2.25 15.987V369h-27v-15.333c0-8.434.3-15.634.667-16 .829-.829 21.011-.86 24.083-.037M507.5 164c8.856 0 13.489.389 14.3 1.2.758.758 1.2 4.566 1.2 10.345 0 12.067.245 12.289 14.037 12.668l10.463.287.246 303c.231 283.474.356 303.081 1.942 304.25 1.483 1.094 1.497 1.25.11 1.25-.871 0-1.857-.712-2.191-1.582-.334-.87-.607-137.67-.607-304V189l-10.75-.032c-7.234-.021-11.31-.457-12.462-1.332-1.374-1.044-1.768-3.259-2-11.218l-.288-9.918-13.434-.28c-12.839-.268-16.066-.98-16.066-3.542 0-.702.418-.66 1.2.122.811.811 5.444 1.2 14.3 1.2M135.25 284.958l-3.25 1.238v253.83c0 229.422-.151 253.982-1.571 255.403-1.355 1.354-5.484 1.571-29.944 1.571-28.185 0-28.382-.015-29.928-2.223-1.299-1.853-1.555-5.962-1.542-24.75.016-24.39.538-27.292 5.01-27.818l2.475-.292-2.5 1.32-2.5 1.321-.268 24.347c-.189 17.121.07 24.754.872 25.721.917 1.104 6.506 1.374 28.447 1.374 23.49 0 27.526-.22 28.878-1.571 1.42-1.421 1.571-25.993 1.571-255.533v-253.96l2.25-.917c1.238-.504 2.925-.777 3.75-.607.847.174.086.847-1.75 1.546m601.168 237.649c1.432.549 1.582 13.354 1.582 134.777 0 119.817.167 134.409 1.557 136.393 1.543 2.203 1.795 2.223 28.377 2.223 21.53 0 27.046-.271 27.962-1.374.802-.967 1.061-8.6.872-25.721l-.268-24.347-2.5-1.264c-1.375-.696-1.908-1.271-1.184-1.279.723-.008 2.186.451 3.25 1.02 1.834.982 1.934 2.345 1.934 26.3 0 18.317-.33 25.595-1.2 26.465-1.487 1.487-55.471 1.693-57.8.221-1.317-.832-1.561-17.484-2-136.689l-.5-135.742-2.5-.695c-1.409-.392-1.772-.739-.832-.795.918-.055 2.38.173 3.25.507m-79.175 123.31c-.133-80.621-.011-146.816.273-147.1.284-.284.394 65.679.244 146.583l-.273 147.1-.244-146.583m-225.278 49.017c.673 1.258 1.035 19.028 1.035 50.8 0 50.412-.073 51.361-3.95 51.203-.951-.039-.68-.413.7-.968l2.25-.905v-48.96c0-43.177-.186-49.147-1.571-50.533-1.353-1.352-5.395-1.571-28.965-1.571-26.06 0-27.444.094-28.429 1.934-1.572 2.937-1.414 98.287.165 99.866.803.803.838 1.2.107 1.2-.601 0-1.366-.712-1.7-1.582-1.096-2.856-.689-98.397.428-100.484.987-1.844 2.387-1.934 29.965-1.934s28.978.09 29.965 1.934m66.922-.57c.817.984 1.06 15.371.872 51.736-.255 49.506-.293 50.378-2.259 50.673-1.828.275-1.85.207-.25-.786 1.628-1.011 1.75-4.516 1.75-50.414 0-40.578-.243-49.53-1.372-50.467-.971-.805-9.517-1.06-29.25-.872l-27.878.266-.259 50.75c-.172 33.572.082 50.801.75 50.9.555.083.447.195-.241.25-.981.078-1.31-10.549-1.527-49.4-.152-27.225-.031-50.512.269-51.75l.546-2.25h28.859c23.15 0 29.082.27 29.99 1.364m90.554 3.054c-1.839 1.344-1.956 3.071-2.231 32.831-.182 19.755.091 32.412.735 34.108l1.025 2.695 15.265-.276 15.265-.276.265-34c.242-31.076.118-34.107-1.441-35.25-1.561-1.143-1.565-1.25-.05-1.25 3.38 0 3.726 3.425 3.726 36.899 0 31.633-.082 33.074-1.934 34.066-2.81 1.504-31.34 1.361-32.866-.165-.886-.886-1.2-10-1.2-34.8 0-34.44.169-36 3.891-36 1.11 0 .995.363-.45 1.418m30.988-96.847c1.364 1.365 1.571 5.859 1.571 34.066 0 31.592-.414 36.363-3.158 36.363-.759 0-.744-.413.049-1.369.81-.976 1.06-11.078.872-35.25L619.5 600.5l-15.265-.276-15.265-.276-.985 2.591c-.568 1.495-.982 15.359-.979 32.776.005 24.265.288 30.724 1.441 32.935 1.486 2.848.846 3.643-1.247 1.55-.886-.886-1.2-10.033-1.2-34.95 0-31.088.138-33.831 1.75-34.77.966-.562 8.33-1.033 16.429-1.05 12.039-.025 14.961.253 16.25 1.541M588.2 504.2c-.884.884-1.2 9.711-1.2 33.5 0 39.705-1.58 36.3 16.845 36.3 11.244 0 13.054-.231 14.525-1.856 1.506-1.665 1.672-5.315 1.604-35.267-.052-22.934.254-33.301.975-33.061.706.236 1.051 11.248 1.051 33.579 0 41.246 1.746 37.605-18.039 37.605-12.628 0-14.152-.191-15.961-2-1.92-1.92-2-3.333-2-35.333 0-18.334.3-33.634.667-34 .366-.367 1.131-.667 1.7-.667.618 0 .551.482-.167 1.2M201.316 610.15c1.201.632 2.515 1.645 2.919 2.25.404.605.741 8.323.75 17.15.015 16.293-.438 18.45-3.876 18.45-1.202 0-1.158-.243.225-1.255 1.525-1.115 1.686-3.149 1.441-18.25L202.5 611.5h-31l-.273 17.75c-.203 13.207.031 17.75.917 17.75.654 0 .9.289.547.643-.354.353-1.329.073-2.167-.623-1.252-1.039-1.524-4.185-1.524-17.603 0-21.246-.7-20.417 17.254-20.417 7.77 0 13.744.456 15.062 1.15m-15.452-201.372c9.739.189 14.81-.092 15.75-.872 1.857-1.541 2.025-32.867.186-34.706-.893-.893-.902-1.2-.035-1.2 2.499 0 3.235 4.35 3.235 19.12 0 20.606.678 19.88-18.559 19.88C168.11 411 169 412.059 169 390.235c0-9.858.402-16.237 1.064-16.899.752-.752 1.118 4.248 1.25 17.05l.186 18.114 14.364.278m15.452 23.372c1.201.632 2.515 1.645 2.919 2.25.404.605.741 8.323.75 17.15.015 16.293-.438 18.45-3.876 18.45-1.202 0-1.158-.243.225-1.255 1.525-1.115 1.686-3.149 1.441-18.25L202.5 433.5h-31l-.186 18.114c-.132 12.802-.498 17.802-1.25 17.05-.665-.665-1.064-7.166-1.064-17.325 0-21.156-.693-20.339 17.254-20.339 7.77 0 13.744.456 15.062 1.15" fill="#20489AFE" stroke="#20489AFE"/><path d="M588.225 408.175c-1.694 1.694-1.753 62.572-.064 66.278l1.16 2.547h14.82c14.541 0 14.831-.043 15.369-2.25.302-1.237.423-16.875.269-34.75l-.279-32.5-15.025-.275c-10.84-.198-15.367.067-16.25.95M618 441.5V474h-28v-65h28v32.5M485.598 633.545c-1.33 1.33-1.598 4.264-1.598 17.47 0 19.915-.834 18.985 17.031 18.985 8.516 0 13.142-.406 14.303-1.255 1.527-1.116 1.685-3.179 1.441-18.75L516.5 632.5l-14.652-.276c-12.34-.233-14.905-.024-16.25 1.321m28.18 2.296c.965.613 1.209 4.466 1 15.735L514.5 666.5l-13.25.279-13.25.279V635l12.25.015c6.738.009 12.825.381 13.528.826M238.25 671.505c-2.175 1.555-2.25 2.15-2.25 17.852 0 11.3.365 16.608 1.2 17.443.824.824 5.798 1.2 15.893 1.2 12.476 0 14.785-.239 15.3-1.582.986-2.57.662-32.783-.37-34.418-1.463-2.32-26.634-2.738-29.773-.495m28.526 17.745-.276 15.25h-27l-.28-13.952c-.153-7.673-.055-14.536.219-15.25.375-.976 3.864-1.298 14.056-1.298h13.557l-.276 15.25M486.223 514.557c-2.138 1.497-2.223 2.16-2.223 17.428 0 13.206.268 16.14 1.598 17.47 1.345 1.345 3.91 1.554 16.25 1.321l14.652-.276.273-17.766.273-17.766-2.588-.984c-1.423-.541-7.859-.984-14.301-.984-8.982 0-12.23.363-13.934 1.557m28.555 16.867c.209 11.269-.035 15.122-1 15.735-.703.445-6.79.817-13.528.826L488 548v-32.058l13.25.279 13.25.279.278 14.924M418.894 633.624c-1.023 1.23-1.479 5.737-1.713 16.923-.419 20.014-.904 19.453 16.816 19.453 8.543 0 13.175-.405 14.337-1.255 1.527-1.116 1.685-3.179 1.441-18.75L449.5 632.5l-14.606-.276c-12.661-.239-14.792-.053-16 1.4m27.524 1.983c1.348.517 1.582 2.886 1.582 16V667h-27v-32h11.918c6.555 0 12.63.273 13.5.607M419.189 515.039c-2.055 1.914-2.188 2.909-2.174 16.25.021 20.312-.983 19.211 17.515 19.211h14.97l.273-17.766.273-17.766-2.588-.984c-1.423-.541-7.874-.984-14.335-.984-10.438 0-11.989.227-13.934 2.039m28.589 16.385c.209 11.269-.035 15.122-1 15.735-.703.445-6.79.817-13.528.826L421 548v-32.058l13.25.279 13.25.279.278 14.924M485.049 455.908c-.603 1.127-1.049 8.566-1.049 17.491 0 14.47.136 15.603 1.986 16.593 1.212.649 7.542.955 16.25.786l14.264-.278v-36l-15.201-.276c-14.227-.258-15.268-.15-16.25 1.684m29.729 16.516c.209 11.269-.035 15.122-1 15.735-.703.445-6.79.817-13.528.826L488 489v-32.058l13.25.279 13.25.279.278 14.924M485.598 217.545c-1.324 1.324-1.598 4.211-1.598 16.835 0 10.658.378 15.754 1.257 16.957 1.109 1.516 3.028 1.686 16.25 1.441l14.993-.278v-36l-14.652-.276c-12.34-.233-14.905-.024-16.25 1.321m29.178 16.705-.276 15.25-13.25.279-13.25.279V219h27.052l-.276 15.25M238.226 731.04c-2.257.907-2.271 1.037-2 18.187l.274 17.273h32l.274-17.266.273-17.265-2.588-.985c-3.226-1.226-25.149-1.183-28.233.056M267 747.965c0 13.772-.154 15.047-1.934 16-1.064.569-7.091 1.035-13.393 1.035-9.527 0-11.561-.267-12.066-1.582-.827-2.156-.774-28.918.06-29.751.366-.367 6.666-.667 14-.667H267v14.965M485.571 395.571c-1.291 1.291-1.571 4.29-1.571 16.809 0 10.658.378 15.754 1.257 16.957 1.109 1.516 3.028 1.686 16.25 1.441l14.993-.278.274-17.426c.209-13.272-.029-17.619-1-18.235-.701-.444-7.429-.815-14.953-.824-11.116-.012-13.973.279-15.25 1.556M515 412.5V428h-27v-31h27v15.5M419.223 395.557c-2.122 1.486-2.223 2.21-2.223 15.935 0 7.908.443 15.544.985 16.969l.985 2.591 15.265-.276 15.265-.276.274-17.426c.209-13.272-.029-17.619-1-18.235-.701-.444-7.136-.815-14.301-.824-10.192-.012-13.512.324-15.25 1.542M448 412.5V428h-27v-31h27v15.5M418.678 217.803c-1.409 1.557-1.678 4.188-1.678 16.415 0 19.84-.874 18.938 18 18.567l14.5-.285v-36l-14.572-.276c-13.127-.248-14.738-.092-16.25 1.579M448 234.5V250h-27v-31h27v15.5M418.894 455.624c-1.022 1.229-1.479 5.719-1.711 16.81-.414 19.736-1.408 18.718 17.927 18.344l14.39-.278v-36l-14.606-.276c-12.661-.239-14.792-.053-16 1.4m28.881 17.126-.275 15.75-13.25.279-13.25.279V457H448.051l-.276 15.75M171.667 551.667c-1.257 1.257-.762 34.838.533 36.133.812.812 5.473 1.2 14.429 1.2 10.692 0 13.529-.301 14.8-1.571 1.299-1.3 1.571-4.381 1.571-17.8 0-11.289-.365-16.594-1.2-17.429-1.291-1.291-28.888-1.779-30.133-.533M200 569.5V585h-27v-31h27v15.5M172.098 671.382c-.789.951-1.061 6.788-.872 18.75l.274 17.368 14.364.278c9.739.189 14.81-.092 15.75-.872 1.077-.895 1.386-4.764 1.386-17.373 0-20.647.953-19.533-16.706-19.533-9.882 0-13.327.335-14.196 1.382M200 689.5V705h-27v-31h27v15.5M172.226 730.839c-.971.616-1.209 4.963-1 18.235l.274 17.426h31l.275-16.995c.245-15.101.084-17.135-1.441-18.25-1.949-1.426-26.954-1.783-29.108-.416M200 749v16h-27v-32h27v16" fill="#20489AFE" stroke="#20489AFE"/><path d="M24.655 814.25c.506.819 813.695 1.066 814.514.248.276-.277-182.981-.614-407.238-.75-224.257-.137-407.531.09-407.276.502" fill="#365698FE" stroke="#365698FE"/><path d="m432 813.002-407.5.502 407.25.248c223.988.136 407.363-.089 407.5-.502.138-.412-183.125-.524-407.25-.248" fill="#264C9AFE" stroke="#264C9AFE"/><path d="M523.405 186.75c1.759 2.078 2.734 2.25 12.75 2.25H547l.249 301.5.249 301.5.001-301.75.001-301.75-10.961-.286c-8.594-.224-11.401-.656-13-2-2.03-1.706-2.031-1.704-.134.536M643.005 586.845l.504 207.655.246-207.191c.135-113.955-.092-207.4-.505-207.655-.412-.254-.523 92.981-.245 207.191" fill="#365698FE" stroke="#365698FE"/><path d="m642.005 585.845.504 206.655.246-206.191c.135-113.405-.092-206.4-.505-206.655-.412-.254-.523 92.531-.245 206.191" fill="#264C9AFE" stroke="#264C9AFE"/></svg>