<svg version="1.0" xmlns="http://www.w3.org/2000/svg" width="648" height="512pt" viewBox="0 0 486 512"><path d="M238.368 18.571 235 22.142V130.545l-5.279 1.228c-2.904.675-6.564 1.227-8.134 1.227-1.57 0-4.707.486-6.971 1.079-2.264.594-5.916 1.543-8.116 2.11-8.291 2.136-20.181 6.355-25.115 8.912-10.07 5.218-18.891 10.312-19.218 11.099-.184.44-.971.8-1.75.8s-1.417.353-1.417.784c0 .432-1.259 1.529-2.798 2.438-3.732 2.204-10.474 7.987-17.202 14.756-6.423 6.461-14 14.872-14 15.541 0 .256-.886 1.484-1.968 2.729-4.589 5.278-13.244 20.796-17.429 31.252-1.542 3.85-3.208 7.781-3.703 8.736-.495.955-.9 2.643-.9 3.75 0 1.108-.401 2.014-.891 2.014-.489 0-1.138 1.463-1.441 3.25l-2.536 14.977c-1.092 6.45-2.27 12.187-2.618 12.75-.41.664-12.194 1.023-33.573 1.023H27v185h435V271h-32.941c-22.448 0-33.153-.343-33.606-1.077-.366-.592-1.044-3.855-1.506-7.25-.461-3.395-1.291-8.423-1.843-11.173-2.332-11.611-2.143-10.933-4.877-17.5-.573-1.375-1.799-4.525-2.725-7-3.888-10.389-9.41-20.574-17.839-32.907-7.127-10.426-25.81-29.113-33.865-33.871-1.539-.909-2.798-2.006-2.798-2.438 0-.431-.637-.784-1.417-.784-.779 0-1.566-.367-1.75-.816-.348-.852-13.063-8.085-20.833-11.852-4.396-2.131-15.499-5.959-23.5-8.102-10.574-2.833-12.43-3.23-15.087-3.23-1.57 0-5.239-.554-8.153-1.232l-5.299-1.232.269-20.37.27-20.369 4.382-1.481c7.876-2.661 22.914-.142 38.118 6.385a398.87 398.87 0 0 0 6 2.518c1.375.558 3.281 1.412 4.236 1.898.955.486 2.841.883 4.191.883 1.35 0 2.733.45 3.073 1 .764 1.235 11.886 1.326 14.264.117.955-.486 2.966-1.458 4.469-2.16 1.503-.702 3.641-2.122 4.75-3.156C339.92 93.996 340 92.719 340 63.429V32.936l-4.75 2.701c-4.084 2.322-5.941 2.712-13.25 2.782-8.825.084-14.233-1.089-24-5.205-3.358-1.415-15.507-5.659-20.65-7.214-2.592-.783-7.576-1.09-13.275-.818l-9.125.436-2.101-4.206c-3.613-7.235-9.287-8.348-14.481-2.841M111.72 308.51c4.129 2.06 8.283 6.334 9.92 10.208 1.991 4.711 1.991 95.853 0 100.564-3.101 7.337-10.116 11.718-18.763 11.718-8.33 0-13.76-3.17-17.824-10.406-1.991-3.544-2.053-5.1-2.053-51.471 0-39.94.241-48.298 1.462-50.745 1.645-3.3 6.25-7.99 9.724-9.906 3.286-1.812 13.872-1.789 17.534.038m283 0c1.666.831 4.205 2.688 5.644 4.126 5.755 5.755 5.636 4.567 5.636 56.487 0 46.619-.052 47.911-2.089 51.597-2.602 4.709-3.482 5.589-8.191 8.191-4.36 2.409-14.342 2.875-17.984.839-4.098-2.291-8.876-7.211-10.314-10.622-2.096-4.97-2.099-95.274-.004-100.256 1.503-3.573 5.924-8.28 9.768-10.4 3.286-1.812 13.872-1.789 17.534.038m-185.826.669c2.245 1.199 5.325 3.972 6.844 6.163l2.762 3.984.287 47.343c.191 31.414-.073 48.68-.784 51.32-2.143 7.96-9.496 13.011-18.939 13.011-7.214 0-12.443-2.555-16.314-7.972L180 419.18V318.36l3.553-4.151c4.753-5.553 7.781-6.977 15.102-7.103 4.559-.078 7.215.459 10.239 2.073m89.926-.619c1.72.858 4.714 3.414 6.653 5.68l3.527 4.12v100.82l-2.75 3.848c-7.877 11.023-25.354 10.782-32.984-.455L270.5 418.5v-99l2.459-3.5c2.423-3.449 4.585-5.388 8.533-7.652 3.028-1.737 13.683-1.606 17.328.212M21 483.5v9.5h447v-19H21v9.5" fill="#000000FF" stroke="#000000FF"/><path d="m244.25 472.749 223.75.255V493H21l-.227-9.5-.228-9.5-.022 9.75-.023 9.75h448v-21l-224-.003-224-.004 223.75.256" fill="#666666FF" stroke="#666666FF"/><path d="m25.492 363.75.008 92.75h438l-.003-92.75-.002-92.75-.248 92.5L463 456H26.01l-.263-92.5-.263-92.5.008 92.75M396.654 269.25c.255.413 15.175.649 33.155.527l32.691-.224-33.155-.526c-18.236-.29-32.947-.189-32.691.223M59.5 269.021l-33 .52 32.75.23c18.013.126 32.863-.108 33-.521.138-.412-14.6-.516-32.75-.229" fill="#8E8E8EFF" stroke="#8E8E8EFF"/></svg>