<svg version="1.0" xmlns="http://www.w3.org/2000/svg" width="1256" height="704pt" viewBox="0 0 942 704"><path d="M513 187.55c-2.475.709-8.91 1.325-14.3 1.37-6.858.056-10.72.556-12.866 1.666-1.687.872-6.502 1.838-10.701 2.145-4.198.308-8.521 1.169-9.606 1.914-1.084.745-4.234 1.358-7 1.361-2.765.004-6.377.722-8.027 1.597-1.65.875-5.692 1.844-8.981 2.154-3.29.309-6.585 1.166-7.322 1.903-.737.737-2.884 1.34-4.772 1.34-1.888 0-5.111.9-7.164 2-2.052 1.1-5.088 2.014-6.746 2.032-1.658.017-3.889.692-4.956 1.5-1.068.807-3.507 1.468-5.421 1.468-1.914 0-4.269.713-5.232 1.585-.963.871-3.579 1.83-5.814 2.129-2.234.3-4.574 1.162-5.2 1.916-.625.753-2.208 1.37-3.518 1.37-1.31 0-4.06.9-6.113 2-2.052 1.1-4.92 2-6.374 2-1.453 0-3.202.675-3.887 1.5s-2.485 1.5-4 1.5c-1.515 0-3.305.663-3.978 1.474-.673.81-2.854 1.779-4.847 2.153-1.994.374-4.231 1.286-4.971 2.026-.741.741-2.327 1.35-3.525 1.354-1.199.003-3.529.9-5.179 1.993-1.65 1.093-3.787 1.99-4.75 1.993-.962.004-1.75.413-1.75.909 0 .496-1.237 1.406-2.75 2.022-4.192 1.708-8.658 4.433-9.55 5.826-.44.688-1.466 1.25-2.281 1.25-.815 0-1.734.658-2.043 1.462-.308.804-1.331 1.706-2.271 2.005-.941.298-3.262 2.101-5.158 4.006-1.896 1.905-4.009 3.478-4.697 3.495-.687.018-1.25.426-1.25.907 0 .481-2.036 3-4.524 5.597-2.489 2.597-5.2 6.028-6.026 7.625-.826 1.597-1.94 2.903-2.476 2.903s-.974.873-.974 1.941-.449 2.219-.998 2.558c-1.434.886-6.001 10.842-6.008 13.097-.004 1.047-.713 3.254-1.577 4.904-.888 1.697-1.82 6.837-2.147 11.832-.317 4.857-1.115 9.37-1.773 10.028-.658.658-1.429 4.44-1.712 8.404-.284 3.964-.981 7.776-1.549 8.471-.569.696-1.349 5.315-1.735 10.265-.386 4.95-1.331 10.307-2.101 11.904-.77 1.597-1.411 5.647-1.424 9-.013 3.353-.512 7.896-1.109 10.096s-1.515 7.6-2.041 12-1.601 9.274-2.391 10.831c-.838 1.653-1.435 5.725-1.435 9.782 0 3.823-.614 8.421-1.365 10.218-.751 1.797-1.7 7.295-2.109 12.218-.41 4.923-1.337 10.526-2.06 12.451-.724 1.925-1.506 6.971-1.738 11.214-.233 4.242-.892 8.292-1.465 9-.573.707-1.359 5.111-1.746 9.786-.388 4.675-1.338 9.497-2.111 10.715-.857 1.35-1.406 4.9-1.406 9.091 0 3.782-.67 9.085-1.488 11.785-.818 2.7-1.775 8.509-2.126 12.909-1.071 13.431-3.351 15.5-17.077 15.5-3.542 0-7.352.488-8.467 1.085-1.115.596-8.122 1.513-15.572 2.038-7.451.525-14.473 1.45-15.605 2.056-1.133.607-7.258 1.302-13.612 1.547-6.87.264-12.83 1.017-14.704 1.859-1.863.837-6.396 1.415-11.091 1.415-4.367 0-10.149.687-12.849 1.526-2.7.839-9.634 1.776-15.409 2.082-5.775.306-11.85 1.023-13.5 1.593-1.65.571-8.928 1.35-16.173 1.732-7.677.404-13.769 1.189-14.603 1.881-.786.653-4.983 1.478-9.327 1.834-4.343.356-8.785 1.256-9.87 2-1.084.744-2.965 1.352-4.178 1.352s-2.859.653-3.657 1.451c-.798.797-2.666 1.755-4.152 2.128-1.486.373-2.938 1.295-3.228 2.05-.289.754-1.04 1.372-1.669 1.372-2.079.003-15.122 14.408-17.655 19.499-1.368 2.75-3.05 5.36-3.738 5.8-.687.44-1.25 2.366-1.25 4.282 0 1.915-.675 5.098-1.5 7.072-.967 2.314-1.5 6.881-1.5 12.846s.533 10.532 1.5 12.846c.825 1.974 1.5 4.928 1.5 6.563 0 1.635.391 3.215.87 3.511.478.295 2.166 3.12 3.75 6.278 1.584 3.157 4.343 7.255 6.13 9.107 1.787 1.852 3.25 3.778 3.25 4.281 0 .503.675.914 1.5.914s1.5.675 1.5 1.5.689 1.5 1.531 1.5c.843 0 1.791.675 2.107 1.5.317.825 1.118 1.5 1.78 1.5.663 0 2.171.9 3.352 2 1.18 1.1 2.785 2 3.566 2 .78 0 1.961.653 2.623 1.451.663.798 3.178 1.747 5.591 2.109 2.412.361 4.905 1.284 5.54 2.049 1.688 2.034 28.591 1.969 33.497-.081 1.938-.81 8.336-1.758 14.218-2.107 5.882-.35 12.623-1.263 14.98-2.028 2.357-.766 8.039-1.393 12.628-1.393 4.894 0 9.737-.58 11.715-1.404 1.855-.772 8.547-1.714 14.872-2.092 6.325-.379 13.719-1.322 16.432-2.096 2.737-.782 9.316-1.408 14.785-1.408 6.864 0 10.525-.435 12.068-1.435 1.298-.84 6.978-1.833 13.715-2.397 6.325-.529 13.3-1.448 15.5-2.041 2.2-.594 7.6-1.095 12-1.114 4.4-.019 10.24-.714 12.978-1.545 2.737-.83 10.366-1.799 16.953-2.153 6.743-.363 13.088-1.225 14.522-1.973 1.411-.737 5.687-1.332 9.586-1.336 5.054-.004 8.144-.57 10.961-2.006 2.158-1.1 4.615-2.014 5.461-2.032.847-.017 2.413-.692 3.48-1.5 1.068-.807 2.755-1.468 3.75-1.468.995 0 1.809-.37 1.809-.822 0-.939 7.708-6.178 9.09-6.178.5 0 .91-.645.91-1.433s.9-1.718 2-2.067c1.1-.349 2-1.279 2-2.067 0-.788.406-1.433.901-1.433.884 0 4.83-5.801 6.293-9.25.408-.962 1.206-1.75 1.774-1.75.567 0 1.032-.983 1.032-2.184 0-1.202.854-4.014 1.897-6.25 1.043-2.236 2.127-6.895 2.408-10.353.282-3.458.943-6.833 1.469-7.5.526-.667 1.257-4.984 1.625-9.593.376-4.701 1.313-9.298 2.135-10.472.961-1.372 1.466-4.593 1.466-9.35 0-3.992.637-8.954 1.416-11.028.779-2.073 1.693-7.532 2.032-12.13.34-4.598 1.277-9.941 2.085-11.872.807-1.932 1.467-6.202 1.467-9.489 0-3.287.633-7.395 1.406-9.128.773-1.733 1.664-6.929 1.98-11.546.336-4.921 1.203-9.355 2.094-10.715 1.019-1.555 1.534-4.887 1.564-10.105.024-4.282.692-9.585 1.485-11.785.792-2.2 1.467-5.8 1.499-8 .098-6.622 1.608-12.511 3.597-14.016 2.179-1.65 5.375-1.938 5.375-.484 0 .55.606 1 1.347 1s2.385.9 3.653 2c1.268 1.1 2.926 2 3.684 2 .759 0 1.638.675 1.954 1.5.317.825 1.162 1.5 1.879 1.5 1.669 0 9.483 5.091 9.483 6.178 0 .452.752.822 1.671.822s2.498.748 3.507 1.661c2.218 2.007 5.374 3.888 9.072 5.406 1.513.621 2.75 1.48 2.75 1.91 0 .429 1.35 1.34 3 2.023s3 1.638 3 2.121c0 .484.878.879 1.95.879 1.073 0 2.31.572 2.75 1.271.44.699 1.925 1.842 3.3 2.54 2.92 1.481 4.866 2.661 11 6.672 5.88 3.844 10.083 6.277 12.25 7.092.963.362 1.75 1.067 1.75 1.566 0 .5 1.137 1.341 2.526 1.869 1.389.528 2.787 1.643 3.108 2.479.681 1.773-3.176 10.511-4.639 10.511-.547 0-.995.635-.995 1.41 0 1.748-5.052 9.59-6.178 9.59-.452 0-.822.868-.822 1.929 0 1.06-.562 2.535-1.25 3.277-2.281 2.46-5.75 7.698-5.75 8.682 0 .533-.562 1.576-1.25 2.318-2.2 2.372-5.75 7.683-5.75 8.6 0 .489-.9 1.926-2 3.194s-2 2.89-2 3.603c0 .714-.562 1.657-1.25 2.097-1.497.958-3.257 3.64-5.284 8.05-.821 1.788-1.83 3.25-2.242 3.25-.756 0-2.092 2.2-4.404 7.25-.692 1.513-1.604 2.75-2.026 2.75-.422 0-1.439 1.463-2.26 3.25-1.769 3.849-3.724 7.021-4.831 7.838-.954.704-4.135 6.331-5.744 10.162-.635 1.513-1.561 2.75-2.057 2.75s-.905 1.238-.908 2.75c-.004 1.513-.782 4.1-1.73 5.75-2.556 4.447-2.566 29.866-.014 33.473.963 1.359 1.75 3.947 1.75 5.75 0 1.802.444 3.277.987 3.277.542 0 1.658 1.463 2.479 3.25.822 1.788 2.065 4.108 2.764 5.157 2.352 3.531 12.418 13.593 13.6 13.593.643 0 1.17.675 1.17 1.5s.873 1.5 1.941 1.5 2.184.393 2.481.873c.908 1.47 11.14 6.127 13.46 6.127 1.2 0 3.798.675 5.772 1.5 4.775 1.995 18.917 1.995 23.692 0 1.974-.825 5.179-1.5 7.122-1.5 1.943 0 3.532-.415 3.532-.922 0-.508 1.539-1.431 3.42-2.052 1.881-.62 3.961-1.78 4.622-2.577.662-.797 1.848-1.449 2.637-1.449 1.644 0 16.321-14.249 16.321-15.846 0-.58.572-1.414 1.271-1.854.699-.44 1.937-2.115 2.75-3.723 2.835-5.602 3.458-6.577 4.203-6.577.412 0 1.407-1.575 2.212-3.5.804-1.925 1.935-3.5 2.513-3.5.578 0 1.051-.635 1.051-1.41 0-1.748 5.052-9.59 6.178-9.59.452 0 .822-.68.822-1.51 0-.831 1.575-3.751 3.5-6.49 1.925-2.739 3.5-5.214 3.5-5.5 0-.286 1.575-2.761 3.5-5.5s3.5-5.214 3.5-5.5c0-.286 1.49-2.653 3.312-5.26 1.822-2.607 3.608-5.527 3.969-6.49.361-.962 1.12-1.75 1.688-1.75.567 0 1.031-.9 1.031-2s.788-2.827 1.75-3.838c2.102-2.207 3.839-4.792 5.486-8.162.672-1.375 1.794-2.86 2.493-3.3.699-.44 1.271-1.383 1.271-2.097 0-.713.9-2.335 2-3.603 1.1-1.268 2-2.912 2-3.653 0-.741.473-1.347 1.052-1.347.579 0 1.523-1.35 2.098-3s1.452-3 1.948-3 .902-.679.902-1.51c0-.83.9-2.28 2-3.222 1.1-.942 2-2.527 2-3.522 0-.995.675-2.068 1.5-2.384.825-.317 1.5-1.133 1.5-1.814s.9-2.053 2-3.048c1.1-.995 2-2.618 2-3.605 0-.988.572-2.155 1.271-2.595.699-.44 1.842-1.925 2.54-3.3 2.264-4.462 3.99-7.257 4.869-7.885.473-.338 1.432-1.74 2.13-3.115 2.342-4.614 4.002-7.266 4.936-7.885 3.199-2.123 3.041-14.947-.326-26.48-.781-2.675-1.42-7.985-1.42-11.799 0-4.313-.587-8.071-1.552-9.937-.868-1.679-1.791-6.837-2.094-11.701-.297-4.784-1.174-10.116-1.947-11.849-.774-1.733-1.407-3.646-1.407-4.25 0-1.348-3.642-5.099-4.95-5.099-.523 0-1.31-.572-1.75-1.271-.44-.699-1.925-1.842-3.3-2.54-4.462-2.264-7.257-3.99-7.885-4.869-.338-.473-1.74-1.419-3.115-2.101-1.375-.682-3.85-2.122-5.5-3.199a128.281 128.281 0 0 0-5.75-3.515c-1.512-.856-2.75-1.995-2.75-2.531s-.831-.974-1.847-.974-2.885-.9-4.153-2c-1.268-1.1-2.864-2-3.546-2-.682 0-1.499-.675-1.816-1.5-.316-.825-1.503-1.5-2.638-1.5s-2.31-.644-2.612-1.43c-.301-.787-1.75-1.926-3.218-2.531-3.559-1.468-7.297-3.657-8.055-4.719-.338-.473-1.74-1.436-3.115-2.139-5.865-3-7.653-4.209-10.29-6.961-2.526-2.637-2.636-3.037-1.168-4.255.891-.739 3.721-1.664 6.289-2.054a452.915 452.915 0 0 0 10.669-1.805c3.3-.602 12.3-1.102 20-1.112 9.141-.012 15.909-.53 19.5-1.494 3.025-.812 7.413-1.482 9.75-1.488L594 366v-14.096c0-10.145-.462-15.681-1.649-19.75-1.356-4.649-1.667-10.924-1.75-35.291-.092-26.906.06-29.816 1.649-31.579.963-1.068 1.75-3.369 1.75-5.113 0-1.744.444-3.171.987-3.171.542 0 1.625-1.529 2.406-3.398 1.366-3.268 14.585-17.579 16.281-17.624.454-.012 1.951-.902 3.326-1.978s3.457-1.966 4.628-1.978c1.17-.012 2.636-.635 3.258-1.385 2.554-3.077 33.537-3.071 36.614.006.747.747 2.229 1.357 3.294 1.357s3.08.9 4.479 2c1.398 1.1 2.944 2 3.435 2 1.517 0 11.79 10.466 15.128 15.411 1.74 2.579 3.164 5.512 3.164 6.517 0 1.005.626 2.347 1.391 2.982.765.635 1.708 3.277 2.094 5.872.386 2.595 1.129 5.237 1.65 5.871.522.634 1.186 12.784 1.476 27 .29 14.216 1.137 29.897 1.883 34.847.746 4.95 1.653 15.975 2.017 24.5.363 8.525 1.137 16.074 1.719 16.776.582.702 1.274 6.777 1.538 13.5s.953 12.815 1.531 13.537c.577.722 1.387 5.897 1.799 11.5.412 5.603 1.459 12.869 2.326 16.147.867 3.278 1.576 9.038 1.576 12.8 0 3.782.609 8.047 1.362 9.54.749 1.485 1.626 6.001 1.949 10.036.323 4.035 1.101 7.956 1.729 8.713.629.757 1.358 4.206 1.622 7.664.263 3.458 1.089 7.862 1.835 9.787.747 1.925 1.629 6.17 1.961 9.434.331 3.264 1.08 6.51 1.664 7.213.583.703 1.303 4.108 1.599 7.566.296 3.458 1.094 6.962 1.774 7.787.681.825 1.489 3.75 1.797 6.5.308 2.75 1.266 6.35 2.128 8 .862 1.65 1.585 4.575 1.606 6.5.021 1.925.698 4.374 1.506 5.441.807 1.068 1.468 3.324 1.468 5.015 0 1.69.9 4.753 2 6.805 1.1 2.053 2 5.028 2 6.613 0 1.585.675 3.441 1.5 4.126.825.685 1.5 2.434 1.5 3.887 0 1.454.9 4.322 2 6.374 1.1 2.053 2 4.891 2 6.307 0 1.416.675 3.25 1.5 4.075.825.825 1.503 2.48 1.507 3.678.003 1.199.9 3.529 1.993 5.179 1.093 1.65 1.99 3.957 1.993 5.128.004 1.17.682 2.687 1.507 3.372.825.685 1.5 1.883 1.5 2.662 0 .78.9 3.182 2 5.338s2 5.873 2 8.26c0 2.387.546 4.886 1.214 5.554 1.576 1.576 1.576 11.796 0 13.372-.668.668-1.214 3.342-1.214 5.943 0 2.798-.592 5.32-1.451 6.179-.797.798-1.742 2.611-2.098 4.03-.356 1.419-1.278 3.104-2.049 3.743-.771.64-1.402 1.752-1.402 2.47 0 .718-.729 2.035-1.619 2.925-2.204 2.204-1.35 2.73 1.652 1.017a120.272 120.272 0 0 1 4.467-2.415c2.975-1.5 6.5-4.747 6.5-5.988 0-.6.473-1.09 1.051-1.09s1.71-1.462 2.515-3.25c.805-1.787 1.879-3.925 2.386-4.75.508-.825 1.658-4.875 2.557-9 1.494-6.859 1.5-8.009.063-13.46-.865-3.278-1.572-6.573-1.572-7.322 0-.748-.675-2.036-1.5-2.861-.825-.825-1.503-2.48-1.507-3.678-.003-1.199-.9-3.529-1.993-5.179-1.093-1.65-1.99-3.957-1.993-5.128-.004-1.17-.682-2.687-1.507-3.372-.825-.685-1.5-2.485-1.5-4 0-1.515-.663-3.305-1.474-3.978-.81-.673-1.737-2.865-2.06-4.872-.322-2.008-1.234-4.844-2.026-6.304-.792-1.46-1.44-3.599-1.44-4.754 0-1.155-.9-3.778-2-5.831-1.1-2.052-2.014-4.863-2.032-6.246-.017-1.383-.692-3.389-1.5-4.456-.807-1.068-1.468-3.555-1.468-5.528 0-1.972-.695-4.579-1.545-5.792s-1.817-4.576-2.149-7.473c-.331-2.896-1.211-6.154-1.954-7.239-.744-1.084-1.366-3.784-1.384-6-.017-2.215-.666-4.865-1.442-5.889-.775-1.024-1.698-4.399-2.05-7.5-.352-3.101-1.278-7.056-2.058-8.789-.78-1.733-1.418-5.571-1.418-8.528 0-3.214-.617-6.257-1.535-7.567-.844-1.205-1.817-5.221-2.163-8.923-.346-3.703-1.227-7.879-1.959-9.282-.732-1.402-1.333-5.08-1.337-8.173-.003-3.094-.71-7.594-1.57-10-.859-2.407-1.801-8.426-2.092-13.376-.291-4.95-1.162-10.418-1.936-12.151-.83-1.856-1.408-6.429-1.408-11.128 0-4.886-.591-9.391-1.525-11.627-.89-2.13-1.757-8.322-2.083-14.872-.307-6.172-1.01-12.572-1.563-14.222-1.15-3.434-2.799-35.353-2.08-40.25.263-1.787.856-3.25 1.319-3.25 1.156 0 5.932-4.868 5.932-6.045 0-.525.406-.955.901-.955.884 0 4.83-5.801 6.293-9.25.408-.962 1.206-1.75 1.774-1.75.567 0 1.032-.839 1.032-1.865s.833-2.938 1.85-4.25c3.203-4.128 4.336-19.397 2.664-35.885-.419-4.125-1.375-8.205-2.126-9.066-.75-.861-1.673-3.109-2.05-4.995-.378-1.887-1.283-4.027-2.012-4.756-.729-.729-1.326-2.01-1.326-2.847 0-.836-.9-2.665-2-4.063-1.1-1.399-2-3.334-2-4.301 0-.967-.675-2.017-1.5-2.334-.825-.316-1.5-1.264-1.5-2.107 0-.842-.374-1.531-.832-1.531-.457 0-2.258-2.202-4.002-4.894-1.745-2.692-3.845-5.153-4.669-5.469-.823-.316-1.497-1.263-1.497-2.106 0-.842-.675-1.531-1.5-1.531s-1.5-.675-1.5-1.5-.509-1.5-1.132-1.5c-.622 0-2.617-1.575-4.433-3.5-1.815-1.925-3.711-3.5-4.213-3.5-.502 0-1.727-.9-2.722-2-.995-1.1-2.393-2-3.105-2-.713 0-1.655-.562-2.095-1.25-.892-1.393-5.358-4.118-9.55-5.826-1.512-.616-2.75-1.476-2.75-1.911 0-.435-1.53-1.077-3.4-1.428-1.869-.351-3.949-1.301-4.622-2.111-.673-.811-2.418-1.474-3.878-1.474s-3.543-.613-4.627-1.362c-1.085-.749-4.074-1.672-6.641-2.049-2.568-.378-5.21-1.34-5.873-2.138-.834-1.006-3.275-1.451-7.956-1.451-3.713 0-8.665-.675-11.003-1.5-3.594-1.268-12.472-1.48-57.376-1.369-40.028.098-54.233.448-57.624 1.419M789.115 22.362c-.622.748-3.384 1.628-6.139 1.954-2.755.327-6.002 1.289-7.215 2.139-1.213.85-3.401 1.545-4.861 1.545s-3.215.675-3.9 1.5-1.977 1.53-2.872 1.566c-.896.037-3.878 1.385-6.628 2.997-2.75 1.611-6.125 3.484-7.5 4.162-1.375.678-2.86 1.805-3.3 2.504-.44.699-1.34 1.283-2 1.298-1.545.034-22.7 21.305-22.7 22.824 0 .632-.465 1.149-1.032 1.149-.568 0-1.366.788-1.774 1.75-1.463 3.449-5.409 9.25-6.293 9.25-.495 0-.901 1.039-.901 2.309 0 1.27-.668 3.182-1.484 4.25-.816 1.067-1.958 3.629-2.538 5.691-.58 2.063-1.488 3.75-2.017 3.75-.528 0-.961 1.475-.961 3.277 0 1.803-.68 4.249-1.511 5.435-1.676 2.394-3.983 20.059-3.954 30.288.028 9.81 2.256 26.696 3.958 29.986.829 1.603 1.507 4.007 1.507 5.342s.628 2.948 1.395 3.585c.768.637 1.68 2.672 2.027 4.522.347 1.85 1.294 3.914 2.104 4.587.811.673 1.474 2.27 1.474 3.551 0 1.28.563 2.687 1.25 3.127 1.318.844 2.956 3.21 4.994 7.217 1.894 3.724 5.492 7.844 14.752 16.891C744.226 221.779 744.48 222 745.834 222c.641 0 1.166.444 1.166.987 0 .542 1.575 1.644 3.5 2.449 1.925.804 3.5 1.935 3.5 2.513 0 .578.845 1.051 1.878 1.051 1.032 0 2.392.621 3.022 1.379.63.759 2.511 1.653 4.18 1.987 1.67.334 3.717 1.288 4.549 2.121.833.832 2.777 1.513 4.32 1.513 1.543 0 3.315.613 3.936 1.362.622.748 3.264 1.62 5.873 1.936 2.608.316 6.207 1.312 7.998 2.214 4.762 2.399 40.255 1.774 44.744-.788 1.65-.941 4.632-1.714 6.628-1.718 1.997-.003 4.186-.68 4.872-1.506.685-.825 2.356-1.5 3.715-1.5 1.358 0 3.614-.9 5.012-2 1.399-1.1 3.517-2 4.708-2 1.191 0 2.667-.502 3.281-1.116 1.364-1.364 4.855-3.447 8.534-5.093 1.513-.676 2.75-1.52 2.75-1.874 0-.355 1.913-1.936 4.25-3.515 2.338-1.578 5.682-4.339 7.433-6.136 1.75-1.796 3.663-3.266 4.25-3.266.587 0 1.067-.627 1.067-1.393s.578-1.615 1.285-1.886c.707-.271 2.618-2.457 4.247-4.857 1.629-2.4 3.526-4.724 4.215-5.164.689-.44 1.253-1.452 1.253-2.25 0-.797.444-1.45.987-1.45.542 0 1.644-1.575 2.449-3.5.804-1.925 1.935-3.5 2.513-3.5.578 0 1.051-.677 1.051-1.504s.9-3.182 2-5.235c1.1-2.052 2-4.245 2-4.874 0-.628.675-1.702 1.5-2.387s1.5-2.344 1.5-3.688c0-1.344.554-3.426 1.232-4.628.677-1.201 1.743-5.334 2.367-9.184.624-3.85 1.697-9.7 2.383-13 1.475-7.092.761-21.378-1.473-29.468-.83-3.007-1.509-7.115-1.509-9.127 0-2.034-.667-4.213-1.5-4.905-.825-.685-1.5-2.779-1.5-4.654 0-2.043-.576-3.63-1.439-3.961-.791-.304-1.746-1.951-2.122-3.662-.375-1.71-1.303-3.73-2.061-4.488-.758-.758-1.378-2.062-1.378-2.899 0-.836-.9-2.665-2-4.063-1.1-1.399-2-3.109-2-3.801 0-.692-.675-1.517-1.5-1.834-.825-.316-1.5-1.264-1.5-2.107 0-.842-.364-1.531-.808-1.531-.445 0-2.132-1.82-3.75-4.044C894.436 57.823 886.271 49 885.453 49c-.249 0-1.285-.787-2.303-1.75-3.453-3.267-6.17-5.25-7.193-5.25-.561 0-1.267-.644-1.569-1.43-.301-.787-1.862-1.888-3.468-2.448-1.606-.56-2.92-1.491-2.92-2.07 0-.579-.717-1.052-1.592-1.052-.876 0-2.737-.9-4.135-2-1.399-1.1-3.327-2-4.285-2-.959 0-2.303-.675-2.988-1.5s-2.44-1.5-3.9-1.5-3.597-.66-4.748-1.466c-1.151-.806-4.721-1.878-7.933-2.381-3.212-.504-6.008-1.42-6.213-2.035-.591-1.774-41.609-1.542-43.091.244" fill="#000000FF" stroke="#000000FF"/><path d="M635.636 243.506c-1.576.822-3.877 1.494-5.115 1.494-1.238 0-3.395.9-4.794 2-1.398 1.1-2.924 2-3.391 2-1.268 0-12.336 11.818-12.336 13.172 0 .644-.787 2.043-1.75 3.108-1.612 1.785-1.726 4.836-1.449 38.579.222 27.004.659 37.956 1.663 41.641.75 2.75 1.64 11.916 1.978 20.369.338 8.453 1.121 16.314 1.739 17.468.617 1.155 1.336 7.514 1.595 14.131.26 6.618.912 12.583 1.449 13.256s1.393 6.433 1.902 12.8c.508 6.367 1.588 14.123 2.399 17.236.811 3.113 1.474 8.731 1.474 12.485 0 4.071.557 7.719 1.381 9.04.76 1.218 1.66 5.769 2 10.112.34 4.344 1.12 8.502 1.733 9.24.613.739 1.329 4.385 1.59 8.103.261 3.718 1.083 8.56 1.827 10.76.743 2.2 1.639 6.62 1.991 9.821.352 3.202 1.278 7.35 2.059 9.218.78 1.868 1.433 5.324 1.451 7.679.017 2.355.692 5.156 1.5 6.223.807 1.068 1.468 3.216 1.468 4.775 0 1.559.9 5.395 2 8.524 1.1 3.13 2 7.185 2 9.011 0 1.825.622 4.316 1.382 5.534.76 1.218 1.656 4.068 1.991 6.333.334 2.264 1.285 5.414 2.111 7 .827 1.585 1.506 4.135 1.51 5.667.003 1.532.63 3.782 1.394 5 .763 1.218 1.68 3.883 2.037 5.923.357 2.039 1.305 4.964 2.106 6.5.801 1.535 1.459 4.269 1.463 6.073.004 1.99.596 3.508 1.506 3.857.825.317 1.503 1.765 1.507 3.219.003 1.454.9 3.993 1.993 5.643s2.004 4.125 2.025 5.5c.021 1.375.699 3.374 1.507 4.441.807 1.068 1.468 2.649 1.468 3.515 0 .865.9 3.253 2 5.305 1.1 2.053 2 4.633 2 5.735 0 1.102.42 2.004.933 2.004.513 0 1.215 1.013 1.561 2.25 1.454 5.208 5.923 12.827 10.05 17.135 2.432 2.538 4.825 4.615 5.317 4.615s1.43.646 2.086 1.436c.655.789 2.479 1.718 4.053 2.064 1.574.346 3.398 1.275 4.053 2.064 1.707 2.057 21.187 2.057 22.894 0 .655-.789 2.479-1.718 4.053-2.064 1.574-.346 3.398-1.275 4.053-2.064.656-.79 2.037-1.436 3.069-1.436 1.033 0 1.878-.48 1.878-1.067s1.575-2.553 3.5-4.368c1.925-1.816 3.5-3.755 3.5-4.311 0-.555.675-1.569 1.5-2.254s1.515-1.977 1.534-2.872c.019-.896.903-3.428 1.966-5.628 2.379-4.925 2.631-14.766.484-18.882-.826-1.586-1.777-4.595-2.111-6.689-.335-2.093-1.231-4.044-1.991-4.336-.76-.292-1.382-1.908-1.382-3.593 0-1.805-.618-3.3-1.506-3.641-.828-.317-1.784-2.32-2.124-4.449-.341-2.13-1.238-4.386-1.995-5.014-.756-.627-1.375-2.513-1.375-4.19 0-1.677-.694-3.816-1.543-4.753-.848-.938-1.825-3.444-2.17-5.57-.345-2.126-1.226-4.464-1.957-5.196-.732-.731-1.33-2.553-1.33-4.047 0-1.494-.9-4.482-2-6.64-1.1-2.158-2.014-5.29-2.032-6.961-.017-1.672-.692-3.913-1.5-4.98-.807-1.068-1.468-3.6-1.468-5.628 0-2.027-.653-4.228-1.451-4.89-.798-.663-1.722-3.305-2.052-5.873-.331-2.567-1.253-6.146-2.049-7.952-.797-1.806-1.451-4.956-1.454-7-.004-2.044-.722-5.066-1.597-6.716-.875-1.65-1.837-5.7-2.138-9-.301-3.3-1.157-6.888-1.903-7.973-.746-1.084-1.356-4.144-1.356-6.799 0-2.655-.657-6.097-1.459-7.649-.802-1.551-1.74-5.916-2.083-9.7-.344-3.783-1.262-8.576-2.042-10.649-.779-2.074-1.416-6.927-1.416-10.785 0-4.634-.523-7.814-1.541-9.367-.935-1.427-1.774-5.833-2.136-11.215-.327-4.874-1.054-9.444-1.616-10.155-.561-.71-1.36-6.56-1.775-13-.415-6.439-1.267-13.283-1.893-15.208-.626-1.925-1.389-9.575-1.695-17-.305-7.425-1.183-15.428-1.95-17.785-.923-2.837-1.398-9.09-1.406-18.5-.008-9.303-.519-16.116-1.481-19.715-.976-3.656-1.682-13.379-2.105-29-.47-17.354-.998-24.079-2.019-25.715-.761-1.218-1.383-3.37-1.383-4.781 0-1.412-.675-2.826-1.5-3.142-.825-.317-1.5-1.251-1.5-2.076 0-1.407-9.68-11.286-11.059-11.286-.349 0-1.673-.9-2.941-2-1.268-1.1-3.475-2.003-4.903-2.006-1.428-.004-3.886-.679-5.461-1.5-3.672-1.915-11.317-1.909-15 .012" fill="#000000FF" stroke="#000000FF"/></svg>