<svg version="1.0" xmlns="http://www.w3.org/2000/svg" width="128pt" height="434pt" viewBox="0 0 128 434"><path d="m14.25 13.55-3.549 3.549.658 11.701c.363 6.435 1.108 14.175 1.657 17.2.549 3.025 1.467 10.9 2.04 17.5 2.256 25.972 3.016 33.071 4.118 38.429.817 3.969 1.316 49.852 1.736 159.571.535 139.623.743 154.336 2.225 157.598 2.337 5.14 7.3 7.902 14.198 7.902 4.827 0 6.081-.424 9.108-3.082 1.969-1.729 3.958-4.693 4.529-6.75.639-2.299 1.027-26.067 1.04-63.668.012-36.418.396-60.59.977-61.5.74-1.162 1.357-1.25 2.735-.391 1.669 1.041 1.793 4.913 2.022 63 .218 55.083.425 62.229 1.881 64.961 5.329 9.999 20.998 10.121 26.688.208C87.87 417.065 88 407.666 88 297.919 88 190.661 88.154 179 89.566 179c.861 0 2.436.466 3.5 1.035 1.863.997 1.934 2.511 1.934 40.967v39.931l3.385 3.386c4.461 4.461 8.733 5.288 14.032 2.717 7.467-3.623 7.052-.041 7.354-63.536.257-53.989.173-57.182-1.592-60.45-3.209-5.944-8.934-7.949-33.179-11.624-5.225-.791-15.14-2.043-22.034-2.782-13.737-1.471-16.937-2.586-17.022-5.929-.093-3.642-1.771-21.305-3.394-35.715-.837-7.425-2.002-19.125-2.589-26-.588-6.875-1.469-14.525-1.958-17-.489-2.475-1.188-8.974-1.554-14.442-.365-5.468-1.343-11.364-2.171-13.102C32.262 12.229 28.194 10 22.496 10c-4.046 0-5.187.491-8.246 3.55" fill="#000000FF" stroke="#000000FF"/><path d="M71.5 59.091C60.916 61.447 53.44 69.218 50.422 81c-1.391 5.427-1.377 6.551.154 12.658 1.873 7.466 2.072 7.802 8.453 14.259 7.597 7.688 19.087 10.126 29.352 6.228 9.33-3.544 14.795-9.683 18.181-20.424 1.54-4.887 1.622-6.41.587-10.897-3.039-13.165-10.52-21.237-21.958-23.69-6.016-1.29-8.06-1.296-13.691-.043" fill="#000000FF" stroke="#000000FF"/><path d="M88.461 180.25c-.262.688-.358 53.9-.214 118.25l.261 117 .246-117.677c.232-111.113.344-117.702 1.996-118.134 1.64-.428 1.638-.464-.031-.573-.98-.064-1.996.447-2.258 1.134M57.015 354.345l.515 62.155.235-61.691c.129-33.93-.102-61.9-.515-62.155-.412-.255-.518 27.506-.235 61.691" fill="#313131FF" stroke="#313131FF"/></svg>