<svg version="1.0" xmlns="http://www.w3.org/2000/svg" width="338pt" height="1010pt" viewBox="0 0 338 1010"><path d="M63.5 290c-.34.55-1.662 1-2.937 1-2.983 0-17.628 5.983-19.563 7.992-.275.286-2.075 1.722-4 3.192-5.535 4.227-8.383 7.018-11.545 11.316-1.619 2.2-3.171 4.225-3.449 4.5-.995.983-3.872 6.4-5.844 11C11.884 338.981 12 334.607 12 485.599c0 138.836.059 143.372 1.913 147.698 3.375 7.873 10.8 13.572 21.896 16.806 3.352.977 5.033.994 7.571.077 1.794-.649 3.975-1.18 4.846-1.18 2.369 0 9.381-3.987 12.673-7.206 1.595-1.559 3.958-4.963 5.25-7.564l2.351-4.73.26-138.947.261-138.946 2.164-2.304c2.849-3.033 8.006-3.088 10.776-.114L84 351.377l.006 310.062c.004 220.598.32 311.215 1.095 314.061 1.959 7.191 4.17 10.914 9.827 16.551 5.87 5.848 9.932 7.956 19.265 9.996 4.552.996 6.656.993 10.5-.01 7.454-1.947 13.307-4.222 13.307-5.173 0-.475.495-.864 1.1-.864 2.864 0 10.608-9.977 13.221-17.033 1.544-4.17 1.679-16.575 1.679-154.703 0-117.854.269-150.772 1.248-152.967 1.6-3.585 5.236-7.297 7.148-7.297.817 0 1.764-.45 2.104-1 .34-.55 1.915-1 3.5-1s3.16.45 3.5 1c.34.55 1.299 1 2.13 1 1.77 0 3.269 1.378 5.937 5.456 1.884 2.88 1.946 6.847 2.433 156.2.394 120.723.765 153.51 1.75 154.494.688.688 1.25 1.83 1.25 2.539 0 1.339 1.214 3.014 6.839 9.437 3.738 4.269 10.883 7.919 19.256 9.837 4.852 1.112 6.51 1.052 12.5-.447 3.798-.951 8.169-2.382 9.715-3.179 4.384-2.263 10.558-8.256 13.268-12.88 5.783-9.868 5.422 11.792 5.422-325.449V350.113l2.223-1.556c3.183-2.23 8.092-1.971 10.372.548 1.849 2.043 1.92 6.218 2.405 142.536.328 92.055.845 140.678 1.502 141.146.55.392 1.663 1.994 2.471 3.561 3.022 5.855 12.456 12.652 17.562 12.652 1.291 0 2.625.45 2.965 1 .34.55 2.14 1 4 1 1.86 0 3.66-.45 4-1 .34-.55 1.701-1 3.024-1 2.817 0 10.851-4.284 14.071-7.504 1.234-1.234 3.408-4.541 4.831-7.35l2.587-5.106-.281-144.27c-.298-152.497-.131-147.147-4.931-157.561-4.485-9.734-10.679-17.781-18.248-23.709-2.107-1.65-4.331-3.467-4.942-4.038-2.466-2.304-17.119-8.462-20.135-8.462-1.297 0-2.636-.45-2.976-1-.406-.656-36.324-1-104.5-1s-104.094.344-104.5 1M91.018 9.73c-3.851 1.537-4.251 2.614-6.597 17.77a2194.752 2194.752 0 0 1-4.463 27.75c-2.51 15.064-3.025 18.146-3.925 23.5a512.548 512.548 0 0 0-1.541 9.75L72.411 103c-.829 5.775-1.744 11.625-2.034 13-.29 1.375-.944 5.088-1.452 8.25-.509 3.163-1.392 8.563-1.962 12-.57 3.438-1.269 8.275-1.552 10.75-.284 2.475-.908 5.4-1.388 6.5-.48 1.1-1.119 4.7-1.421 8-.664 7.278-2.358 18.203-8.565 55.25-.53 3.163-1.403 9.011-1.939 12.996C50.942 238.333 50.611 239 47.5 239c-1.31 0-2.66.45-3 1-.34.55-1.578 1-2.751 1C39.12 241 32 248.413 32 251.15c0 1.09-.413 2.754-.919 3.698-1.51 2.822 1.063 9.267 5.481 13.727 3.255 3.287 5.021 4.233 8.89 4.763 6.303.864 238.793.864 245.096 0 3.87-.53 5.651-1.485 8.979-4.812 4.531-4.531 5.897-9.023 4.81-15.817-.696-4.357-7.175-11.709-10.317-11.709-1.046 0-2.18-.45-2.52-1-.34-.55-1.69-1-3-1s-2.688-.495-3.062-1.1c-.756-1.223-2.181-10.222-3.073-19.4-.32-3.3-.984-6.427-1.474-6.95-.49-.522-.891-3.245-.891-6.05 0-2.805-.409-5.527-.908-6.05-.499-.522-1.154-3.2-1.456-5.95-.611-5.575-1.611-12.204-4.073-27-2.116-12.717-3.543-22.645-4.168-29-.27-2.75-.896-5.9-1.391-7-.495-1.1-1.131-4.025-1.415-6.5-.283-2.475-.982-7.312-1.552-10.75-3.536-21.311-6.163-38.749-6.666-44.25-.276-3.025-.899-6.4-1.384-7.5-.486-1.1-1.114-4.025-1.398-6.5-.283-2.475-.982-7.312-1.552-10.75-.57-3.437-1.468-8.837-1.995-12a841.98 841.98 0 0 1-1.906-12.128c-.629-4.234-1.662-7.092-3.07-8.5L244.945 9.5l-76.222-.181c-41.923-.099-76.89.086-77.705.411m14.77 215.856c.158 4.447-.172 9.294-.734 10.772l-1.022 2.687-18.266-.272L67.5 238.5l.092-3.5c.206-7.797 1.708-15.55 3.249-16.773 1.187-.942 5.909-1.202 18.132-1l16.527.273.288 8.086m158.835-7.821c1.487.974 3.377 10.086 3.377 16.284V239h-17.8c-12.511 0-18.157-.357-19-1.2-1.277-1.277-1.745-18.922-.533-20.133.911-.911 32.553-.819 33.956.098m-52.978 0c.691.444 1.285 4.694 1.5 10.735l.355 10h-37l-.29-9.425c-.159-5.184-.061-10.021.219-10.75.394-1.028 4.269-1.322 17.29-1.31 9.229.009 17.296.346 17.926.75m-52.861 10.485.284 10.75H122.189l.551-10.25c.308-5.741 1.037-10.579 1.655-10.998.608-.411 8.53-.636 17.605-.5l16.5.248.284 10.75m100.995-47c1.063 2.142 2.012 8.123 2.498 15.75l.223 3.5h-33.944l-1.385-9.251c-.761-5.088-1.125-9.926-.809-10.75.478-1.245 3.266-1.499 16.438-1.499 15.452 0 15.891.058 16.979 2.25m-151.148 7.969c-.368 5.621-1.033 10.583-1.476 11.026-.443.443-8.197.682-17.231.531L73.5 200.5l-.323-3.377c-.177-1.858.16-3.86.75-4.45.59-.59 1.073-3.368 1.073-6.173s.54-5.64 1.2-6.3c.833-.833 6.078-1.2 17.15-1.2h15.951l-.67 10.219m100.817-4.969c.353 2.888.733 7.725.847 10.75l.205 5.5h-34l-.29-9.425c-.159-5.184-.061-10.021.219-10.75.392-1.023 4.137-1.325 16.443-1.325h15.935l.641 5.25M159 190.024v11.024l-16.75-.274-16.75-.274-.34-3.5c-.187-1.925.214-6.762.891-10.75l1.232-7.25H159v11.024m94.454-48.17c.617 1.945 2.48 13.856 2.837 18.146l.209 2.5-15.201.276c-13.716.249-15.29.102-16.115-1.5-1.075-2.091-2.315-19.812-1.446-20.68.327-.328 7.015-.596 14.861-.596 13.015 0 14.318.163 14.855 1.854m-141.465-.367c.722.869.917 2.22.471 3.25-.42.97-1.032 5.363-1.362 9.763l-.598 8h-31l.27-5c.237-4.4 1.642-12.62 2.776-16.25.618-1.974 27.79-1.756 29.443.237m93.976.447c.569 1.064 1.035 6.239 1.035 11.5V163h-14.893c-12.658 0-14.984-.237-15.5-1.582-.825-2.149-.774-19.918.06-20.751.366-.367 6.876-.667 14.464-.667 12.619 0 13.887.165 14.834 1.934M159 151.5V163h-29.962l-.642-2.56c-.79-3.145.417-16.221 1.721-18.659.844-1.577 2.55-1.781 14.918-1.781H159v11.5m43-49.522c1.81 1.143 3.28 19.751 1.72 21.772-.683.884-4.7 1.25-13.735 1.25-10.723 0-12.868-.254-13.378-1.582-1.138-2.966-.663-19.962.593-21.218 1.457-1.457 22.545-1.646 24.8-.222m44.218.272c1.755 1.371 2.827 6.984 3.103 16.25l.179 6-12.867.281c-15.88.346-15.556.613-15.601-12.864-.018-5.271.268-9.884.635-10.25 1.255-1.256 22.854-.743 24.551.583m-131.429 8.616c.223 7.225-.072 9.917-1.292 11.779-1.552 2.369-1.818 2.409-14.289 2.135L86.5 124.5l-.304-5.896c-.168-3.242.17-6.37.75-6.95.58-.58 1.054-2.742 1.054-4.804 0-2.511.579-4.093 1.75-4.787 1.004-.594 6.654-.935 13.25-.799l11.5.236.289 9.366m43.993 2.384.281 11.75h-12.831c-7.688 0-13.256-.424-13.89-1.058-1.754-1.754-.487-20.161 1.496-21.722 1.159-.912 4.934-1.199 13.144-1l11.518.28.282 11.75m-40.749-48.711c1.033 1.246 1.037 3.203.022 10.25-.691 4.791-1.422 9.274-1.624 9.961-.268.91-3.638 1.25-12.4 1.25-12.412 0-12.676-.089-12.194-4.116 1.464-12.222 2.196-16.219 3.193-17.42 1.795-2.163 21.198-2.099 23.003.075m122.55-.405c1.003 1.622 3.414 14.766 3.416 18.616L244 86h-24.799l-.542-4.25C216.134 61.981 215.541 63 229.563 63c6.612 0 10.571.407 11.02 1.134M200.358 69.5c.472 3.3.922 8.25 1 11l.142 5h-25l-.294-9c-.47-14.368-1.154-13.615 12.071-13.282l11.223.282.858 6m-41.575 5.281.283 11.281-12.283-.281L134.5 85.5l.114-5.5c.107-5.188 1.065-12.938 1.95-15.784.3-.965 3.076-1.213 11.168-1l10.768.284.283 11.281M121.345 34.25C120.561 48.151 121.68 47 108.95 47c-9.077 0-11.119-.276-11.614-1.567-.331-.862-.092-2.077.531-2.7C98.49 42.11 99 39.242 99 36.359c0-2.883.45-5.519 1-5.859.55-.34 1-1.491 1-2.559 0-1.797.772-1.941 10.405-1.941h10.406l-.466 8.25M235 28.441c0 1.343.395 2.685.879 2.984.483.299 1.092 3.138 1.353 6.309.261 3.171.653 6.441.871 7.266.333 1.256-1.434 1.546-10.872 1.783-8.493.213-11.367-.033-11.667-1-.22-.706-.632-5.445-.917-10.533L214.13 26h10.435c10.397 0 10.435.009 10.435 2.441m-38.035-.507c.569 1.064 1.035 5.789 1.035 10.5V47h-22V26h9.965c8.828 0 10.083.221 11 1.934M159 36.5V47h-21v-8.918c0-4.905.273-9.63.607-10.5.497-1.295 2.401-1.582 10.5-1.582H159v10.5" fill="#000000FF" stroke="#000000FF"/></svg>