<svg version="1.0" xmlns="http://www.w3.org/2000/svg" width="812pt" height="1040" viewBox="0 0 812 780"><path d="M401.492 15.486c-4.24 1.864-6.254 4.411-7.976 10.087-1.273 4.198-1.496 17.023-1.505 86.658L392 193.962l-2.289.574c-1.259.316-3.622.044-5.25-.604-1.629-.648-5.886-1.54-9.461-1.981-3.575-.442-7.625-1.031-9-1.309-1.375-.279-7-1.273-12.5-2.209-5.5-.936-10.428-2.091-10.95-2.567-.523-.477-3.416-.866-6.429-.866-3.013 0-6.861-.416-8.55-.924-2.937-.883-13.143-2.734-20.571-3.731-1.925-.258-4.4-.871-5.5-1.362-1.1-.492-4.475-1.103-7.5-1.359-3.025-.256-9.325-1.197-14-2.091-13.094-2.504-18.916-3.502-26.19-4.49-3.679-.499-7.587-1.389-8.684-1.976-1.097-.587-4.473-1.067-7.501-1.067-3.029 0-5.785-.45-6.125-1-.34-.55-1.995-1-3.677-1-3.902 0-19.772-2.966-22.059-4.122-.955-.483-4.62-.878-8.143-.878-7.055 0-7.621.488-7.621 6.567 0 5.402-4.864 24.409-6.25 24.424-.412.005-.75.79-.75 1.745 0 .954-1.08 3.992-2.399 6.75-3.475 7.262-7.601 16.497-7.601 17.012 0 .243-1.151 3.044-2.557 6.222-1.406 3.179-2.923 6.68-3.371 7.78-.447 1.1-2.045 4.7-3.55 8s-3.058 6.9-3.452 8c-.393 1.1-1.92 4.482-3.393 7.516-1.472 3.034-2.677 6.296-2.677 7.25 0 .954-.45 1.734-1 1.734s-1 .718-1 1.596c0 .877-.62 2.79-1.378 4.25a78.917 78.917 0 0 0-2.5 5.404c-1.877 4.601-2.904 7.014-5.427 12.75-1.331 3.025-2.737 6.513-3.125 7.75-.387 1.238-1.124 2.25-1.637 2.25-.513 0-.933.906-.933 2.014 0 1.107-.377 2.795-.838 3.75-2.158 4.472-6.482 13.989-7.377 16.236-.548 1.375-1.56 3.85-2.25 5.5s-1.72 4.125-2.288 5.5c-1.671 4.044-6.225 14.108-8.83 19.516-1.33 2.759-2.417 5.487-2.417 6.063 0 .576-1.125 3.379-2.5 6.229s-2.5 5.634-2.5 6.187c0 .553-.45 1.005-1 1.005s-1 .831-1 1.846c0 1.807-1.198 4.757-5.075 12.499-1.059 2.114-1.925 4.239-1.925 4.722 0 .892-3.254 8.361-7.601 17.447-1.319 2.758-2.399 5.487-2.399 6.063 0 .577-1.125 3.381-2.5 6.231s-2.5 5.634-2.5 6.187c0 .553-.45 1.005-1 1.005s-1 1.098-1 2.441c0 1.343-.415 2.698-.923 3.011-.508.314-1.219 1.916-1.58 3.559-.361 1.644-1.07 2.989-1.576 2.989-.507 0-.921.681-.921 1.514 0 .832-.384 2.295-.853 3.25-.961 1.957-3.359 7.481-4.877 11.236-.556 1.375-2.243 5.2-3.748 8.5-1.505 3.3-3.09 6.9-3.522 8-.432 1.1-1.925 4.475-3.318 7.5-1.392 3.025-3.307 7.652-4.255 10.283-.948 2.63-2.107 5.019-2.575 5.309-.469.289-.852 1.399-.852 2.467S52.55 498 52 498s-1 1.039-1 2.309c0 1.27-.661 3.182-1.468 4.25-.808 1.067-1.483 2.729-1.5 3.691-.018.963-.482 1.75-1.032 1.75s-1 .681-1 1.514c0 .832-.428 2.295-.952 3.25-.523.955-1.701 3.536-2.618 5.736-2.725 6.538-4.582 10.765-6.562 14.938-1.027 2.166-1.868 4.317-1.868 4.782 0 .464-1.575 4.09-3.5 8.058s-3.5 7.542-3.5 7.941c0 .4-1.179 3.326-2.62 6.504-4.593 10.128-5.38 12.055-5.38 13.178 0 .605-.45 1.099-1 1.099s-1 1.035-1 2.3-.527 2.827-1.171 3.471c-1.426 1.426-1.349 10.39.113 13.121.582 1.087 1.058 3.131 1.058 4.542S17.45 603 18 603s1 .518 1 1.15c0 1.365 4.982 11.818 6.466 13.569.569.671 2.609 3.564 4.534 6.429 5.273 7.849 17.601 19.623 27.592 26.352 4.899 3.3 9.058 6.338 9.241 6.75.184.413.928.75 1.654.75.727 0 4.107 1.575 7.513 3.5 3.406 1.925 6.83 3.5 7.61 3.5.779 0 2.199.428 3.154.952 1.642.9 7.342 3.336 11.736 5.017 2.846 1.088 10.47 3.088 14 3.671 1.65.273 3.9.885 5 1.36 2.062.89 2.83 1.039 15.5 2.99 4.125.635 8.4 1.539 9.5 2.009 7.419 3.167 97.957 3.128 105-.045 1.767-.796 6.855-1.727 19.756-3.615 2.066-.303 4.005-.953 4.309-1.445.304-.492 2.214-.91 4.244-.929 2.03-.02 4.816-.679 6.191-1.465s3.519-1.445 4.764-1.465c1.245-.019 3.045-.432 4-.918 5.695-2.898 14.305-6.117 16.358-6.117 1.033 0 1.878-.405 1.878-.901 0-.495 2.023-1.733 4.496-2.75 2.473-1.017 4.498-2.186 4.5-2.599.002-.412.709-.75 1.571-.75.861 0 3.041-1.125 4.844-2.5 1.803-1.375 3.798-2.5 4.433-2.5.636 0 1.156-.353 1.156-.784 0-.432 1.463-1.649 3.25-2.704 1.788-1.056 4.825-3.29 6.75-4.966 4.747-4.132 17-16.464 17-17.11 0-.286.443-1.064.985-1.728 4.151-5.091 6.092-8.221 9.427-15.208 2.101-4.4 4.162-8.692 4.58-9.538.418-.847 1.092-3.547 1.497-6 .406-2.454 1.133-4.954 1.617-5.556.845-1.05-1.079-6.522-6.745-19.183-1.298-2.903-2.361-5.914-2.361-6.691 0-.778-.45-1.692-1-2.032-.55-.34-1-1.716-1-3.059 0-1.343-.389-2.441-.864-2.441s-1.635-2.137-2.578-4.75c-1.661-4.604-2.378-6.424-5.023-12.75-1.664-3.98-2.986-7.163-4.981-12-.908-2.2-2.079-4.781-2.602-5.736-.524-.955-.952-2.643-.952-3.75 0-1.108-.337-2.016-.75-2.018-.412-.002-1.57-2.139-2.571-4.75-1.002-2.61-2.239-5.527-2.75-6.482-.511-.955-.929-2.351-.929-3.101 0-.751-1.125-3.481-2.5-6.067-1.375-2.586-2.5-5.578-2.5-6.649 0-1.071-.45-1.947-1-1.947s-1-.677-1-1.505c0-.828-1.125-3.837-2.5-6.687s-2.5-5.998-2.5-6.995c0-.997-.414-1.813-.921-1.813-.506 0-1.238-1.448-1.627-3.217-.388-1.77-1.049-3.907-1.467-4.75-3.567-7.189-5.985-12.769-5.985-13.811 0-.687-.404-2.031-.898-2.986-3.589-6.937-6.102-12.638-6.102-13.842 0-.782-.428-2.203-.952-3.158-.523-.955-1.694-3.536-2.602-5.736-1.995-4.837-3.317-8.02-4.981-12a485.24 485.24 0 0 1-2.256-5.5c-.551-1.375-2.174-5.1-3.606-8.277-1.431-3.178-2.603-6.414-2.603-7.191 0-.778-.45-1.692-1-2.032-.55-.34-1-1.269-1-2.064 0-.795-1.125-3.778-2.5-6.628s-2.5-5.536-2.5-5.968c0-.432-1.172-3.385-2.603-6.563-1.432-3.177-2.961-6.677-3.397-7.777-4.985-12.567-8.664-21.269-10.035-23.736-.531-.955-.965-2.334-.965-3.063 0-1.221-3.728-9.844-6.025-13.937-.536-.955-.975-2.616-.975-3.691 0-1.075-.37-2.184-.822-2.463-.452-.279-2.067-3.793-3.588-7.809s-3.353-8.651-4.072-10.301a244.398 244.398 0 0 1-2.309-5.5c-.551-1.375-2.174-5.1-3.606-8.277-1.431-3.178-2.603-6.665-2.603-7.75s-.337-1.975-.75-1.977c-.412-.002-1.57-2.139-2.571-4.75-1.002-2.61-2.239-5.527-2.75-6.482-.511-.955-.929-2.643-.929-3.75 0-1.108-.45-2.014-1-2.014s-1-.494-1-1.099c0-.604-.721-2.742-1.602-4.75a263.466 263.466 0 0 1-2.605-6.151 506.702 506.702 0 0 0-2.258-5.5c-1.664-3.98-2.986-7.163-4.981-12-.908-2.2-2.079-4.781-2.602-5.736-.524-.955-.945-2.305-.936-3 .008-.695-1.186-3.739-2.655-6.764-4.286-8.829-4.578-9.639-4.189-11.619.481-2.45 6.268-2.419 17.328.094 4.4 1 10.475 2.016 13.5 2.259 3.025.243 5.928.852 6.45 1.354.523.502 2.773.923 5 .936 2.228.013 5.85.478 8.05 1.032 5.086 1.283 21.137 4.048 34.5 5.943 4.125.586 8.281 1.5 9.236 2.033.955.532 3.537.968 5.736.968 3.841 0 7.475.646 17.778 3.159 2.613.637 7.45 1.519 10.75 1.961 12.835 1.718 19.284 2.789 26.5 4.4 4.125.921 10.425 2.056 14 2.522 12.433 1.619 20.509 2.943 22 3.605.825.366 4.088 1.045 7.25 1.509l11.5 1.688c3.163.464 6.425 1.13 7.25 1.48.825.35 4.875 1.115 9 1.7 20.431 2.896 30.757 4.776 33.087 6.022.98.525 4.142.954 7.026.954 2.885 0 6.627.416 8.316.924 1.689.508 6.221 1.442 10.071 2.075 3.85.633 9.025 1.599 11.5 2.147 2.475.547 7.425 1.388 11 1.869 14.989 2.014 21.615 3.136 23.5 3.978 1.1.491 3.8 1.108 6 1.37 12.111 1.445 18.416 2.467 19.556 3.171.703.435 4.241 1.145 7.861 1.578 14.118 1.689 24.843 3.894 26.057 5.356 1.017 1.226-1.589 9.674-3.198 10.365-.427.184-.776 1.127-.776 2.097 0 1.729-1.229 4.735-5.075 12.415-1.059 2.114-1.925 4.44-1.925 5.168 0 .729-.636 2.599-1.414 4.156-.778 1.557-2.392 5.081-3.586 7.831s-2.808 6.274-3.586 7.831c-.778 1.557-1.414 3.385-1.414 4.063 0 1.145-3.804 9.885-6.025 13.842-.536.955-.975 2.221-.975 2.812 0 .592-1.161 3.635-2.581 6.764-1.419 3.128-3.041 6.813-3.605 8.188a978.556 978.556 0 0 1-2.279 5.5c-.69 1.65-1.722 4.125-2.293 5.5-.571 1.375-1.789 4.3-2.708 6.5a1373.057 1373.057 0 0 0-4.656 11.25 78.696 78.696 0 0 1-2.5 5.404c-.758 1.46-1.378 3.373-1.378 4.25 0 .878-.45 1.596-1 1.596s-1.005 1.013-1.012 2.25c-.007 1.238-1.132 4.208-2.5 6.602s-2.488 5.206-2.488 6.25c0 1.044-.45 1.898-1 1.898s-1.003.788-1.006 1.75c-.004.963-.679 3.039-1.5 4.614-.822 1.576-1.494 3.488-1.494 4.25s-.45 1.386-1 1.386-1 .624-1 1.386c0 .762-.672 2.674-1.494 4.25-.821 1.575-1.496 3.652-1.5 4.614-.003.963-.456 1.75-1.006 1.75s-.993.788-.984 1.75c.013 1.484-1.691 5.496-6.154 14.486-.474.955-.862 2.181-.862 2.723 0 .543-1.172 3.586-2.603 6.764-1.432 3.177-3.055 6.902-3.606 8.277a485.24 485.24 0 0 1-2.256 5.5c-.69 1.65-1.722 4.125-2.293 5.5-.571 1.375-1.789 4.3-2.708 6.5-.918 2.2-2.042 4.9-2.498 6-.456 1.1-2.001 4.6-3.433 7.777-1.431 3.178-2.603 6.221-2.603 6.764 0 .542-.399 1.768-.888 2.723-3.158 6.177-6.112 12.95-6.112 14.014 0 .687-.433 2.031-.962 2.986-1.691 3.05-6.038 13.263-6.038 14.185 0 .489-.647 2.163-1.439 3.72-.791 1.557-2.186 4.631-3.099 6.831-.913 2.2-2.515 5.83-3.561 8.066-1.046 2.236-1.901 4.514-1.901 5.063 0 .548-1.125 3.329-2.5 6.179s-2.5 5.634-2.5 6.187c0 .553-.45 1.005-1 1.005s-1 .906-1 2.014c0 1.107-.384 2.795-.853 3.75-.866 1.763-3.02 6.698-4.905 11.236a5412.409 5412.409 0 0 1-5.426 13c-.577 1.375-1.447 3.281-1.933 4.236-.486.955-.883 2.363-.883 3.128 0 .765-.675 1.951-1.5 2.636s-1.5 2.096-1.5 3.136-.399 2.673-.888 3.628c-2.992 5.853-6.112 12.921-6.112 13.847 0 1.098-1.593 4.78-5.075 11.734-1.059 2.114-1.925 4.675-1.925 5.69 0 1.016-.438 2.118-.973 2.448-3.133 1.937-3.128 12.689.011 21.517 2.443 6.869 8.274 17.821 12.726 23.902 4.022 5.493 21.759 22.812 24.135 23.566 1.155.367 2.101 1.086 2.101 1.599 0 .513.675.933 1.5.933s1.5.378 1.5.839c0 .462 1.013 1.354 2.25 1.983 1.238.629 4.95 2.742 8.25 4.696 3.3 1.954 6.675 3.803 7.5 4.108 4.067 1.505 12.627 5.149 15.236 6.485.955.489 2.616.889 3.691.889 1.075 0 2.209.411 2.519.913.311.502 2.457 1.233 4.771 1.624 2.313.39 4.898 1.065 5.745 1.498.846.434 4.238 1.327 7.538 1.985 3.3.657 7.35 1.668 9 2.246 2.959 1.035 6.325 1.503 28 3.889 14.182 1.562 67.652 1.544 82-.027 6.05-.662 13.475-1.421 16.5-1.686 4.89-.428 8.547-1.275 19.571-4.534 1.689-.499 4.25-.908 5.691-.908 1.441 0 2.874-.411 3.184-.913.311-.502 2.457-1.233 4.771-1.624 2.313-.39 4.898-1.06 5.745-1.487.846-.427 4.688-2.007 8.538-3.511 8.778-3.429 21.891-9.721 22.333-10.715.184-.412.776-.75 1.317-.75.541 0 2.458-1.125 4.261-2.5s3.76-2.5 4.35-2.5c.59 0 1.222-.341 1.406-.757.183-.417 2.358-2.325 4.833-4.24 5.632-4.358 15.561-14.341 19.447-19.551 1.621-2.174 3.196-4.177 3.5-4.452.304-.275 1.043-1.4 1.643-2.5a1286.3 1286.3 0 0 1 3.75-6.785c1.463-2.632 2.66-5.39 2.66-6.128 0-.738.675-1.902 1.5-2.587.825-.685 1.5-2.45 1.5-3.922 0-1.473.45-3.128 1-3.678 1.341-1.341 1.514-11.524.238-13.96-.559-1.067-1.807-3.74-2.774-5.94-.967-2.2-2.142-4.781-2.611-5.736-.469-.955-.853-2.418-.853-3.25 0-.833-.414-1.514-.921-1.514-.506 0-1.215-1.345-1.576-2.989-.361-1.643-1.072-3.245-1.58-3.559-.508-.313-.923-1.668-.923-3.011 0-1.343-.45-2.441-1-2.441s-1-.452-1-1.005c0-.553-1.125-3.337-2.5-6.187s-2.5-5.654-2.5-6.231c0-.576-1.183-3.53-2.629-6.563-1.447-3.033-3.076-6.639-3.622-8.014-.546-1.375-1.613-3.694-2.371-5.154s-1.378-3.373-1.378-4.25c0-.878-.45-1.596-1-1.596s-1-.591-1-1.313-1.125-3.645-2.5-6.495-2.5-5.55-2.5-6c0-.819-4.193-10.162-6.025-13.428-.536-.955-.975-2.372-.975-3.148 0-.777-1.12-3.37-2.488-5.764-1.368-2.394-2.493-5.139-2.5-6.102-.007-.962-.462-1.75-1.012-1.75s-1-.663-1-1.473-1.179-4.072-2.62-7.25a337.324 337.324 0 0 1-6.316-14.777c-.827-2.066-5.681-12.672-7.202-15.736-.474-.955-.862-2.643-.862-3.75 0-1.108-.42-2.014-.933-2.014-.513 0-1.246-1.012-1.63-2.25-.384-1.237-1.572-4.275-2.639-6.75-3.394-7.866-4.491-10.437-5.551-13-.568-1.375-2.264-5.2-3.769-8.5-1.505-3.3-3.192-7.125-3.748-8.5a613.758 613.758 0 0 0-2.265-5.5c-.69-1.65-1.704-4.125-2.253-5.5-.549-1.375-2.229-5.2-3.734-8.5s-3.059-6.9-3.453-8c-.394-1.1-1.918-4.475-3.386-7.5-1.469-3.025-2.663-5.825-2.655-6.223.009-.397-1.109-3.21-2.484-6.25l-5-11.054c-1.375-3.04-2.5-6.19-2.5-7 0-.81-.45-1.473-1-1.473s-1-1.125-1-2.5-.337-2.502-.75-2.504c-.412-.002-1.586-2.139-2.607-4.75a280.317 280.317 0 0 0-3.847-9.246 1319.38 1319.38 0 0 1-6.299-14.5 219.808 219.808 0 0 1-2.262-5.5c-.537-1.375-2.208-5.2-3.713-8.5s-3.084-6.9-3.51-8c-.425-1.1-1.952-4.404-3.393-7.342-1.44-2.939-2.619-5.857-2.619-6.486 0-.629-1.183-3.625-2.629-6.658-1.447-3.033-3.085-6.639-3.641-8.014-1.427-3.531-3.167-7.577-6.236-14.5-1.462-3.3-3.026-6.9-3.475-8-1.572-3.855-4.299-10.036-6.151-13.938-2.025-4.269-2.461-12.707-.959-18.562.495-1.925 1.134-6.087 1.423-9.25.506-5.556.442-5.75-1.89-5.75-2.372 0-6.473-.845-17.508-3.607-3.061-.766-7.647-1.393-10.191-1.393-2.544 0-4.903-.45-5.243-1-.34-.55-2.279-1.006-4.309-1.013-2.03-.007-7.966-.958-13.191-2.113-5.225-1.155-12.2-2.477-15.5-2.937-15.957-2.224-20.266-2.929-23.5-3.846-1.925-.546-5.525-1.277-8-1.624a306.905 306.905 0 0 1-9.5-1.527c-2.75-.493-8.375-1.404-12.5-2.025s-8.4-1.499-9.5-1.952c-1.1-.454-4.25-1.045-7-1.315-8.267-.812-17.938-2.703-18.95-3.706-.523-.518-3.416-.942-6.429-.942-3.013 0-6.861-.416-8.55-.924-3.16-.95-13.995-2.894-21.071-3.78-2.2-.276-4.428-.905-4.95-1.398-.523-.494-3.28-.898-6.128-.898-3.092 0-5.622-.537-6.283-1.332-.782-.943-1.199-25.866-1.426-85.25-.369-96.793-.208-94.999-8.923-99.501-4.243-2.192-8.946-2.345-13.298-.431M200.171 192.655c1.006.91 1.829 2.176 1.829 2.813s1.125 3.49 2.5 6.34c1.375 2.85 2.5 5.641 2.5 6.201 0 .56.384 1.8.853 2.755.469.955 1.644 3.536 2.611 5.736.967 2.2 2.158 4.781 2.647 5.736.489.955.889 2.553.889 3.55 0 .998.405 2.242.9 2.764.496.523 2.78 5.675 5.077 11.45a2409.96 2409.96 0 0 0 4.997 12.5c3.403 8.28 4.236 10.206 5.074 11.736.524.955.952 2.424.952 3.264 0 .84.439 2.309.975 3.264 2.221 3.957 6.025 12.697 6.025 13.842 0 .678.633 2.506 1.407 4.063.775 1.557 1.839 3.956 2.367 5.331 1.716 4.476 3.442 8.447 4.848 11.154.758 1.46 1.378 3.598 1.378 4.75 0 1.153.45 2.096 1 2.096s1 .677 1 1.505c0 .828 1.125 3.837 2.5 6.687s2.5 5.908 2.5 6.795c0 .887.374 2.04.831 2.563 1.462 1.67 6.169 13.51 6.169 15.516 0 1.064.45 1.934 1 1.934s1 .494 1 1.099c0 .604.721 2.742 1.602 4.75a227.919 227.919 0 0 1 2.592 6.151c.545 1.375 1.624 3.774 2.399 5.331.774 1.557 1.407 3.605 1.407 4.55 0 .945.374 2.147.831 2.669 1.462 1.67 6.169 13.51 6.169 15.516 0 1.064.338 1.936.75 1.938.413.002 1.57 2.139 2.571 4.75 1.002 2.61 2.239 5.527 2.75 6.482.511.955.929 2.299.929 2.986 0 .687 1.183 3.731 2.629 6.764 1.447 3.033 2.968 6.414 3.381 7.514 3.857 10.275 8.005 20.396 10.137 24.736.469.955.853 2.298.853 2.985 0 .686 1.198 3.729 2.662 6.763l3.5 7.252c.461.955.838 2.616.838 3.691 0 1.075.383 2.192.852 2.481.468.29 1.628 2.679 2.577 5.309.95 2.631 2.111 5.683 2.581 6.783.825 1.931 3.081 7.32 5.232 12.5 1.885 4.538 4.039 9.473 4.905 11.236.469.955.853 2.351.853 3.101 0 .751 1.125 3.481 2.5 6.067 1.375 2.586 2.5 5.578 2.5 6.649 0 1.071.45 1.947 1 1.947s1 .863 1 1.918 1.125 4.158 2.5 6.895c1.375 2.738 2.5 5.481 2.5 6.096 0 .615.428 1.9.952 2.855.851 1.553 2.779 6.037 5.048 11.736a527.26 527.26 0 0 0 2.248 5.5 222.26 222.26 0 0 1 2.739 7c.708 1.925 2.351 5.835 3.65 8.688 1.3 2.854 2.363 5.864 2.363 6.691s.399 1.75.887 2.051c.487.301 1.2 2.219 1.583 4.261.551 2.94.327 3.984-1.078 5.012-1.412 1.032-15.46 1.297-68.861 1.297-59.1 0-67.351-.185-69.308-1.557L217 585.887v-36.509c0-23.255.376-37.212 1.035-38.444.939-1.753 2.2-1.934 13.5-1.934 6.856 0 12.465-.298 12.465-.662 0-1.222-3.207-11.819-4.109-13.574-.49-.955-.891-3.318-.891-5.25 0-1.933-.414-3.514-.921-3.514-.506 0-1.218-1.462-1.582-3.25-.89-4.377-2.548-9.865-3.62-11.986-.482-.955-.893-2.98-.912-4.5-.02-1.52-.679-3.889-1.465-5.264-.786-1.375-1.445-3.711-1.465-5.191-.019-1.48-.485-2.969-1.035-3.309-.55-.34-1-1.723-1-3.073 0-1.35-.418-3.236-.928-4.191-1.513-2.832-4.072-11.927-4.072-14.474 0-1.299-.37-2.79-.823-3.312-.453-.523-1.636-3.65-2.63-6.95-.993-3.3-2.186-7.007-2.65-8.238-.464-1.231-.581-2.923-.26-3.759.648-1.688 4.694-3.034 6.243-2.077 1.536.949 4.12 6.631 4.12 9.061 0 1.199.291 2.471.647 2.827 1.088 1.087 4.286 11.043 4.32 13.45.018 1.245.461 3.045.984 4C233.41 438.43 238 453.663 238 455.84c0 1.062.672 3.22 1.494 4.796.821 1.575 1.496 3.567 1.5 4.425.01 2.698 3.88 5.939 7.09 5.939 3.641 0 7.931-3.923 7.881-7.205-.02-1.262-.679-3.42-1.465-4.795s-1.445-3.711-1.465-5.191c-.019-1.48-.485-2.969-1.035-3.309-.55-.34-1-1.498-1-2.573s-.418-2.736-.928-3.691c-1.285-2.405-4.072-11.773-4.072-13.687 0-.867-.404-2.358-.899-3.313-1.759-3.399-6.101-18.021-6.101-20.548 0-1.414-.4-2.817-.889-3.12-.489-.302-1.199-1.791-1.578-3.309-1.063-4.261-5.207-12.029-7.746-14.52-6.471-6.348-5.859-6.239-35.074-6.239-18.386 0-27.01.345-27.5 1.1-.392.605-1.749 1.647-3.016 2.314-2.789 1.469-9.197 11.209-9.197 13.979 0 1.094-.45 2.267-1 2.607-.55.34-1 1.761-1 3.158s-.606 3.958-1.346 5.691c-.741 1.733-1.804 4.726-2.363 6.651-2.814 9.689-4.646 15.694-5.338 17.5-.422 1.1-1.32 4.25-1.995 7s-1.842 5.997-2.593 7.215c-.751 1.218-1.365 3.49-1.365 5.05 0 1.559-.483 3.318-1.074 3.909-.59.59-1.134 3.655-1.208 6.811-.107 4.582.248 6.017 1.765 7.126 2.019 1.476 5.304 1.792 7.978.766 2.074-.796 5.539-7.539 5.539-10.778 0-1.365.398-2.727.885-3.028.486-.3 1.187-2.566 1.557-5.035.371-2.469 1.098-4.751 1.616-5.072.518-.32.942-1.687.942-3.037 0-1.35.396-3.236.879-4.191 1.602-3.162 4.131-11.701 4.126-13.927-.003-1.205.445-2.469.995-2.809.55-.34 1-1.31 1-2.155 0-.846.707-3.97 1.572-6.944 1.676-5.765 4.095-7.959 7.561-6.859 1.717.545 1.977 1.259 1.565 4.306-.271 2.008-1.023 5.452-1.671 7.652-.648 2.2-1.707 6.1-2.353 8.667-.646 2.567-1.513 5.005-1.925 5.417-.412.412-.749 1.689-.749 2.837 0 1.148-1.125 5.189-2.5 8.98-1.375 3.791-2.5 7.925-2.5 9.187 0 1.262-.45 2.572-1 2.912-.55.34-1.007 1.604-1.015 2.809-.017 2.514-3.236 13.275-4.284 14.324-.386.385-.701 2.174-.701 3.975 0 1.801-.398 3.52-.885 3.821-.486.3-1.187 2.566-1.557 5.035-.371 2.469-1.098 4.751-1.616 5.072-.518.32-.942 1.879-.942 3.464s-.4 3.129-.89 3.432c-.489.302-1.095 2.016-1.347 3.809-.252 1.792-.8 4.047-1.218 5.009-.7 1.614.22 1.75 11.873 1.75h12.632l.975 2.565c.566 1.491.975 17.33.975 37.809 0 28.856-.257 35.596-1.419 37.185-1.378 1.884-3.43 1.949-69.882 2.211-43.686.173-69.41-.09-71.081-.725-2.934-1.116-3.27-2.981-1.24-6.891.758-1.46 1.938-4.004 2.622-5.654.684-1.65 1.864-4.194 2.622-5.654.758-1.46 1.378-3.373 1.378-4.25 0-.878.352-1.596.782-1.596.43 0 1.387-2.05 2.126-4.555.74-2.506 1.963-5.174 2.719-5.929.755-.755 1.373-2.086 1.373-2.958 0-.872.404-2.367.898-3.322 2.995-5.788 6.102-12.54 6.102-13.259 0-.46 1.393-3.906 3.095-7.657 4.049-8.923 6.891-15.341 7.893-17.82.444-1.1 1.529-3.643 2.41-5.651.881-2.008 1.602-4.146 1.602-4.75 0-.605.45-1.099 1-1.099s1-.815 1-1.812c0-.997.841-3.584 1.868-5.75 1.852-3.902 4.579-10.083 6.151-13.938.449-1.1 2.013-4.7 3.475-8 3.069-6.923 4.809-10.969 6.236-14.5.556-1.375 2.151-4.975 3.544-8 1.393-3.025 3.318-7.652 4.278-10.283.959-2.63 2.128-5.019 2.596-5.309.469-.289.852-1.399.852-2.467S95.45 425 96 425s1-.781 1-1.736c0-.954 1.08-3.992 2.399-6.75 4.2-8.778 7.601-16.543 7.601-17.354 0-.432 1.125-3.118 2.5-5.968s2.5-5.634 2.5-6.187c0-.553.45-1.005 1-1.005s1-.858 1-1.908c0-1.615 2.211-6.808 6.102-14.328.494-.955.898-2.181.898-2.723 0-.543 1.179-3.586 2.62-6.764 1.441-3.177 3.197-7.127 3.903-8.777 3.513-8.218 5.784-13.248 7.064-15.654.777-1.46 1.413-3.373 1.413-4.25 0-.878.45-1.596 1-1.596s1-.858 1-1.908c0-1.049 1.179-4.311 2.619-7.25 1.441-2.938 2.946-6.242 3.346-7.342.399-1.1 1.98-4.7 3.512-8 1.533-3.3 3.225-7.125 3.76-8.5 1.101-2.826 2.561-6.252 5.754-13.5 1.212-2.75 2.86-6.575 3.663-8.5.803-1.925 2.559-5.757 3.903-8.516 1.344-2.759 2.443-5.487 2.443-6.062 0-.575.841-2.818 1.868-4.984 1.705-3.594 3.995-8.757 6.179-13.938 2.18-5.169 5.336-12.414 7.186-16.5 1.122-2.475 2.393-5.4 2.825-6.5 2.886-7.339 4.431-10.5 5.134-10.5.445 0 .808-.91.808-2.022 0-2.399 5.55-14.978 6.609-14.978.403 0 1.556.745 2.562 1.655M623.06 269.36c1.067 2.209 1.94 4.612 1.94 5.341 0 .73.439 2.108.975 3.063 2.06 3.672 6.025 12.659 6.025 13.659 0 .576 1.08 3.305 2.401 6.063 1.32 2.758 3.142 6.814 4.048 9.014.906 2.2 2.076 4.781 2.599 5.736.524.955.952 2.643.952 3.75 0 1.108.45 2.014 1 2.014s1.004.563 1.009 1.25c.005.688 1.116 3.5 2.469 6.25 1.353 2.75 2.474 5.975 2.491 7.167.017 1.191.393 2.316.835 2.5.443.183 2.084 3.483 3.647 7.333 1.563 3.85 3.632 8.8 4.597 11 .965 2.2 2.507 5.8 3.427 8 .92 2.2 2.26 5.35 2.976 7 .717 1.65 2.554 6.15 4.082 10 1.529 3.85 3.159 7.428 3.623 7.95.464.523.844 1.64.844 2.484 0 .844 1.205 4.016 2.677 7.05 1.473 3.034 3.095 6.641 3.606 8.016.51 1.375 1.492 3.85 2.182 5.5s1.707 4.125 2.261 5.5a320.364 320.364 0 0 0 2.073 5 747.7 747.7 0 0 1 2.513 6c.796 1.925 2.627 6.1 4.068 9.277 1.441 3.178 2.62 6.44 2.62 7.25 0 .81.45 1.473 1 1.473s1 .781 1 1.736c0 1.469 2.584 7.599 6.112 14.5.489.955.888 2.299.888 2.986 0 .687 1.183 3.731 2.629 6.764 1.447 3.033 2.991 6.414 3.433 7.514.441 1.1 1.554 3.8 2.472 6 .919 2.2 2.137 5.125 2.708 6.5.571 1.375 1.603 3.85 2.293 5.5.69 1.65 1.716 4.125 2.279 5.5.564 1.375 2.186 5.06 3.605 8.188 1.42 3.129 2.581 6.172 2.581 6.764 0 .591.404 1.857.898 2.812 3.891 7.52 6.102 12.713 6.102 14.328 0 1.05.375 1.908.833 1.908.458 0 1.695 2.7 2.749 6 1.055 3.3 2.255 6 2.668 6 .412 0 .75.639.75 1.419s.751 2.918 1.669 4.75c3.097 6.181 3.331 6.799 3.331 8.817 0 1.108.338 2.016.75 2.018.413.002 1.578 2.139 2.589 4.75 2.473 6.381 3.074 7.809 6.08 14.434 1.42 3.129 2.581 6.13 2.581 6.669 0 .54.633 2.255 1.407 3.812.775 1.557 1.853 3.956 2.397 5.331.544 1.375 2.161 5.1 3.593 8.277 1.431 3.178 2.603 6.221 2.603 6.764 0 .542.404 1.768.898 2.723 3.422 6.615 6.102 12.605 6.102 13.64 0 .671.841 2.992 1.868 5.158a312.367 312.367 0 0 1 3.5 7.688c.898 2.063 2.337 5.345 3.2 7.294.862 1.949 1.65 4.762 1.75 6.25l.182 2.706-64.5.276c-35.475.152-65.512.031-66.75-.269l-2.25-.545v-88.781c0-67.719.285-89.066 1.2-89.981 1.683-1.683 5.364-1.494 7.229.371 1.368 1.369 1.571 6.075 1.571 36.444v34.872l2.223 1.556c2.961 2.075 6 1.965 8.624-.31 2.137-1.854 2.153-2.163 2.153-41.941 0-22.309-.394-40.318-.889-40.624-.489-.302-1.193-1.759-1.564-3.238-1.136-4.524-5.806-10.114-10.682-12.788L656.229 452h-31.154c-29.178 0-31.403.127-35.074 1.999-4.837 2.468-8.526 6.282-11.063 11.439-1.824 3.705-1.938 6.408-1.938 45.775v41.837l2.674 1.016c3.367 1.28 7.901.334 8.992-1.877.459-.929 1.059-17.664 1.334-37.189l.5-35.5h8v180h-70.486c-66.333 0-70.506-.103-70.824-1.75-.185-.962.371-3.169 1.237-4.904.865-1.734 1.573-3.562 1.573-4.062 0-.879 4.157-10.494 6.062-14.02.516-.955.938-2.382.938-3.169 0-.788.636-2.707 1.414-4.264 2.985-5.974 5.45-11.939 6.025-14.581.33-1.512 1.041-2.75 1.58-2.75.54 0 .981-.906.981-2.014 0-1.107.412-2.795.916-3.75 1.83-3.468 4.084-9.064 4.084-10.137 0-.605.45-1.099 1-1.099s1-.928 1-2.062 1.161-4.621 2.581-7.75c3.359-7.405 3.546-7.854 8.394-20.188 2.269-5.775 4.614-11.625 5.209-13a252.63 252.63 0 0 0 2.09-5c1.478-3.671 3.896-9.248 4.873-11.236.469-.955.853-2.221.853-2.813 0-.943 3.557-9.201 6.111-14.187.489-.955.889-2.351.889-3.101 0-.751 1.125-3.481 2.5-6.067 1.375-2.586 2.5-5.578 2.5-6.649 0-1.071.4-1.947.889-1.947.488 0 1.184-1.575 1.545-3.5s1.086-3.5 1.611-3.5c.525 0 .955-.906.955-2.014 0-1.107.4-2.795.889-3.75 1.858-3.627 5.318-11.969 7.669-18.486.943-2.612 2.103-4.75 2.578-4.75.475 0 .864-1.098.864-2.441 0-1.343.45-2.719 1-3.059.55-.34 1-1.269 1-2.064 0-.795 1.125-3.778 2.5-6.628s2.5-5.779 2.5-6.509c0-.729.428-2.108.952-3.063.523-.955 1.694-3.536 2.602-5.736 1.995-4.837 3.317-8.02 4.981-12 .69-1.65 1.672-4.125 2.182-5.5.511-1.375 2.133-4.982 3.606-8.016 1.472-3.034 2.677-6.27 2.677-7.191 0-.921.45-1.953 1-2.293.55-.34 1-1.269 1-2.064 0-.795 1.125-3.778 2.5-6.628s2.5-5.998 2.5-6.995c0-.997.4-1.813.889-1.813.488 0 1.184-1.575 1.545-3.5s1.086-3.5 1.611-3.5c.525 0 .955-.906.955-2.014 0-1.107.4-2.795.889-3.75 1.564-3.054 4.485-10 7.772-18.482 1.011-2.611 2.177-4.748 2.589-4.75.413-.002.75-.874.75-1.938 0-2.006 4.707-13.846 6.169-15.516.457-.522.831-1.766.831-2.764 0-.997.433-2.595.962-3.55 1.691-3.05 6.038-13.263 6.038-14.185 0-.489.633-2.163 1.407-3.72.775-1.557 1.841-3.956 2.371-5.331.53-1.375 2.146-4.981 3.593-8.014 1.446-3.033 2.629-6.269 2.629-7.191 0-.922.45-1.955 1-2.295.55-.34 1-1.235 1-1.989 0-1.481 5.397-13.575 6.59-14.768 1.107-1.107 3.318 1.163 5.47 5.617M199.762 548.118c.291 42.991.488 41.714-6.239 40.452-1.924-.361-3.954-1.507-4.511-2.547-1.1-2.055-1.439-70.827-.369-74.821.555-2.072 1.118-2.268 5.736-2l5.121.298.262 38.618m429.478 8.267c.407.613.632 24.065.5 52.115l-.24 51h-8l-.262-51.5c-.241-47.603-.132-51.595 1.448-52.755 1.813-1.33 5.32-.721 6.554 1.14M162.724 720.609c-.415.416-9.411 1.086-19.99 1.489-10.579.404-23.734 1.446-29.234 2.316-29.117 4.607-30.972 4.98-37.977 7.633-9.748 3.692-10.95 6.286-4.508 9.725 2.208 1.179 5.588 2.438 7.511 2.799 1.923.361 3.743 1.055 4.044 1.542.301.488 1.865.887 3.475.887 2.897 0 7.511.882 16.705 3.195 10.302 2.591 55.811 4.998 94.75 5.012 38.645.014 84.388-2.406 94.75-5.012 9.194-2.313 13.808-3.195 16.705-3.195 1.61 0 3.174-.399 3.475-.887.301-.487 2.121-1.181 4.044-1.542 4.726-.887 11.526-4.62 11.526-6.328 0-.762-.573-1.959-1.273-2.659-1.762-1.762-12.195-5.61-18.227-6.723-4.929-.91-7.228-1.291-27-4.475-5.5-.886-17.65-2.005-27-2.488-24.254-1.252-90.877-2.188-91.776-1.289" fill="#000000FF" stroke="#000000FF"/><path d="M185.503 332.073c-7.983 3.981-11.073 10.232-10.233 20.698.286 3.565.938 6.762 1.448 7.105.51.343 1.225 1.428 1.588 2.411.362.982 2.014 2.557 3.67 3.5 1.656.942 3.014 2.051 3.018 2.463.003.413.762.75 1.685.75s3.111.518 4.862 1.151c6.432 2.326 16.513-2.938 21.767-11.366 1.148-1.842 1.671-4.736 1.626-9-.058-5.441-.5-6.882-3.295-10.728-6.107-8.407-17.291-11.395-26.136-6.984M620 403c-.825.533-2.419.976-3.542.985-2.411.018-8.734 5.715-10.82 9.748-4.518 8.737-2.051 19.018 6.065 25.267 4.183 3.221 6.472 4 11.757 4 7.012 0 12.973-3.186 16.996-9.083 2.532-3.712 2.956-5.271 2.955-10.875-.001-8.651-2.723-13.929-8.911-17.278-6.359-3.441-11.836-4.486-14.5-2.764" fill="#000000FF" stroke="#000000FF"/></svg>