<svg version="1.0" xmlns="http://www.w3.org/2000/svg" width="1560" height="1064" viewBox="0 0 1170 798"><path d="M684 24.731c-14.041 3.255-27.181 12.427-32.674 22.808C644.051 61.287 642 65.886 642 68.454c0 1.18-.518 2.664-1.151 3.297-1.191 1.191-2.447 6.736-3.681 16.249-.393 3.025-1.153 6.175-1.691 7-1.351 2.074-2.438 17.858-3.342 48.5-.422 14.3-.85 26.106-.951 26.237-.73.939-7.935 3.263-10.115 3.263-1.478 0-3.56.661-4.628 1.468-1.067.808-2.728 1.483-3.691 1.5-.962.018-1.75.38-1.75.805 0 .425-1.611 1.64-3.579 2.7-5.801 3.124-16.788 15.708-19.013 21.777-.353.963-1.039 1.75-1.525 1.75-.485 0-.883.639-.883 1.419s-.751 2.918-1.669 4.75c-3.136 6.258-3.331 6.807-3.331 9.383 0 1.419-.546 3.562-1.213 4.764-.668 1.201-1.551 4.884-1.962 8.184-1.841 14.762-2.597 19.32-3.421 20.614-.486.762-1.204 4.311-1.596 7.886-1.384 12.627-2.695 21.007-3.478 22.246-.435.69-1.121 4.404-1.523 8.254-.402 3.85-1.442 10.825-2.311 15.5-.869 4.675-1.971 11.2-2.448 14.5-.478 3.3-1.615 10.05-2.527 15-.912 4.95-2.022 11.925-2.466 15.5-.445 3.575-1.314 7.767-1.932 9.315-.618 1.548-1.123 5.009-1.123 7.691 0 2.682-.45 5.154-1 5.494-.55.34-1 2.856-1 5.591 0 2.735-.675 6.589-1.5 8.563-.825 1.975-1.5 5.984-1.5 8.909 0 2.925-.45 5.597-1 5.937-.55.34-1.003 2.954-1.006 5.809-.004 2.855-.679 6.48-1.5 8.055-.822 1.576-1.494 5.423-1.494 8.55 0 3.127-.411 6.113-.914 6.636-.503.522-1.005 3.875-1.115 7.45-.396 12.807-.238 13.552 3.779 17.779 5.007 5.27 7.876 6.94 13.25 7.712 9.355 1.344 17.066-2.426 20.437-9.991.98-2.2 2.183-4.781 2.673-5.736.489-.955.893-2.98.896-4.5.003-1.52.484-4.488 1.069-6.596 1.008-3.629 1.843-9.061 3.868-25.168.484-3.85 1.37-8.267 1.968-9.815.599-1.548 1.089-5.234 1.089-8.191 0-2.957.45-5.654 1-5.994.55-.34 1-3.037 1-5.994s.529-6.643 1.176-8.191c.646-1.548 1.526-5.965 1.954-9.815 1.883-16.908 2.783-22.69 3.705-23.807.543-.656 1.217-4.343 1.498-8.193.671-9.177 2.395-21.421 3.297-23.416.394-.871 1.043-4.734 1.443-8.584.4-3.85 1.471-11.275 2.38-16.5.909-5.225 2.048-12.82 2.531-16.877 1.693-14.222 5.78-18.945 12.551-14.508 2.349 1.539 2.461 2.069 2.381 11.25-.047 5.299-.492 12.335-.989 15.635-.497 3.3-1.347 12.3-1.889 20-.542 7.7-1.712 21.65-2.6 31-.889 9.35-1.98 22.625-2.425 29.5-.445 6.875-1.1 13.85-1.455 15.5-.735 3.41-2.292 22.511-3.474 42.616-.44 7.489-1.172 14.217-1.625 14.951-.454.733-1.186 7.206-1.627 14.383l-1.676 27.166c-.48 7.764-1.274 14.739-1.764 15.5-.491.761-1.214 7.234-1.608 14.384-1.657 30.111-2.625 42.43-3.43 43.676-.469.728-1.157 7.174-1.527 14.324-1.144 22.121-2.746 42.856-3.436 44.464-.362.845-1.033 7.836-1.49 15.536-.458 7.7-1.563 21.65-2.455 31-.893 9.35-1.997 22.625-2.454 29.5-.456 6.875-1.313 16.325-1.903 21-.591 4.675-1.077 11.245-1.081 14.601-.005 3.355-.426 7.405-.937 9-.51 1.594-1.116 8.637-1.346 15.649l-.418 12.75 23.596.032c18.905.025 23.974.317 25.491 1.465 1.373 1.04 2.086 3.3 2.592 8.218.927 9.001 2.938 13.369 8.514 18.498 7.292 6.707 18.374 9.117 26.5 5.762 3.557-1.469 12.575-9.8 14.626-13.513.62-1.122 1.447-3.932 1.837-6.245.391-2.314 1.122-4.46 1.624-4.771.502-.31.913-2.022.913-3.805 0-4.204 1.548-5.641 6.078-5.641 4.719 0 5.664 1.249 7.459 9.857.812 3.892 2.017 8.33 2.677 9.86 1.698 3.931 10.625 12.54 14.786 14.258 5.289 2.183 13.697 1.838 19-.78 4.975-2.457 11-7.383 11-8.993 0-.57.338-1.185.75-1.369 1.822-.81 4.25-8.345 4.25-13.193 0-4.238.461-5.724 2.314-7.466 2.246-2.109 3.042-2.174 26.617-2.174h24.302l-.695-2.75c-.382-1.512-1.09-8.825-1.574-16.25-.484-7.425-1.59-20.475-2.459-29-.868-8.525-1.979-21.35-2.467-28.5-1.224-17.912-2.869-35.7-4.049-43.769-.544-3.722-.992-10.697-.995-15.5-.003-4.802-.439-10.306-.968-12.231-.896-3.253-1.483-10.216-4.033-47.828-.535-7.881-1.27-14.811-1.634-15.4-.364-.589-1.017-7.416-1.451-15.171-1.247-22.302-2.811-40.691-3.902-45.9-.553-2.64-1.006-9.358-1.006-14.929 0-5.572-.426-11.512-.947-13.201-.941-3.049-2.499-19.599-4.103-43.571-1.292-19.315-2.855-35.944-3.952-42.06-.549-3.058-.998-10.125-.998-15.703 0-5.579-.436-11.177-.968-12.44-.919-2.18-2.277-17.023-4.1-44.797-.451-6.875-1.273-15.65-1.825-19.5-.552-3.85-1.027-10.47-1.056-14.711-.044-6.683.241-7.983 2.138-9.75 3.683-3.431 8.024-2.28 10.759 2.853.701 1.316 1.655 5.816 2.121 10 1.528 13.74 2.923 22.571 3.935 24.905.548 1.263.996 4.982.996 8.264 0 3.281.436 6.748.968 7.703 1.076 1.929 2.935 13.508 3.65 22.736.256 3.3.892 6.9 1.413 8 .967 2.041 2.481 11.465 3.856 24 .422 3.85 1.089 7.713 1.483 8.584.723 1.598 2.126 10.952 3.438 22.916.392 3.575 1.055 7.035 1.473 7.688.418.654 1.213 4.929 1.765 9.5 2.057 17.014 2.871 22.401 3.899 25.805.58 1.922 1.055 5.19 1.055 7.264s.384 4.552.853 5.507a626.53 626.53 0 0 1 2.747 5.736c2.21 4.665 2.901 5.48 6.814 8.039 4.137 2.706 15.888 2.658 20.086-.081 9.427-6.154 10.791-9.123 10.154-22.112-.591-12.039-2.029-22.897-3.531-26.661-.618-1.548-1.123-5.234-1.123-8.191 0-2.957-.45-5.654-1-5.994-.55-.34-1-2.545-1-4.9 0-2.355-.67-6.491-1.489-9.191-.819-2.7-1.494-7.196-1.5-9.992-.006-2.796-.348-5.42-.761-5.831-.739-.738-2.457-9.884-4.242-22.586-.503-3.575-1.644-10.325-2.536-15-.893-4.675-2.008-11.425-2.478-15-.931-7.077-2.523-16.059-4.033-22.764-.529-2.346-.961-6.088-.961-8.316 0-2.228-.449-4.891-.999-5.917-.925-1.729-1.641-6.179-3.944-24.503-.484-3.85-1.37-8.267-1.968-9.815-.599-1.548-1.089-5.234-1.089-8.191 0-2.957-.45-5.654-1-5.994-.55-.34-1-3.531-1-7.091s-.675-8.089-1.5-10.063c-.825-1.975-1.5-4.623-1.5-5.885 0-1.262-.337-2.444-.75-2.628-.412-.183-1.741-2.364-2.951-4.845-4.043-8.287-22.463-24.988-27.56-24.988-.746 0-2.23-.661-3.298-1.468-1.067-.808-3.516-1.504-5.441-1.548-1.925-.044-5.075-.849-7-1.79l-3.5-1.71-.593-24.992c-.599-25.267-2.193-45.483-3.949-50.101-.527-1.387-.958-4.715-.958-7.397 0-2.682-.398-5.122-.885-5.423-.486-.3-1.187-2.566-1.557-5.035-.371-2.469-1.098-4.751-1.616-5.072-.518-.32-.942-2.13-.942-4.023 0-1.893-.414-3.441-.921-3.441-.506 0-1.215-1.345-1.576-2.989-.361-1.643-1.072-3.245-1.58-3.559-.508-.313-.923-1.443-.923-2.511S746.652 53 746.227 53c-.425 0-1.662-1.687-2.75-3.75-2.595-4.923-3.044-5.492-9.341-11.868-6.236-6.314-12.949-9.769-24.206-12.458-9.384-2.241-16.855-2.297-25.93-.193m30.5 36.982c4.4.455 8.983 1.381 10.184 2.058 1.202.676 3.12 1.229 4.264 1.229 1.889 0 3.757.732 8.052 3.158.825.466 2.4 1.264 3.5 1.773 2.757 1.278 6.699 5.016 8.84 8.383 1.494 2.349 1.719 4.414 1.363 12.5-.436 9.875-1.518 16.109-3.419 19.686-.584 1.1-1.889 3.688-2.901 5.75-1.011 2.063-2.076 3.75-2.366 3.75-.291 0-1.081 1.238-1.756 2.75-1.223 2.742-9.547 12.25-10.724 12.25-.342 0-1.612.923-2.823 2.052-1.211 1.128-4.23 2.982-6.708 4.119-2.478 1.137-5.287 2.464-6.242 2.948-.955.485-2.621.881-3.702.881-1.08 0-4.517.665-7.636 1.477-4.407 1.148-6.593 1.237-9.799.399-2.27-.594-5.927-1.309-8.127-1.59-2.2-.281-4.45-.848-5-1.261-.55-.412-2.237-1.045-3.75-1.406-1.512-.361-2.75-1.099-2.75-1.638 0-.54-.672-.981-1.492-.981-2.44 0-14.141-10.7-18.589-17-3.069-4.346-7.217-13.066-9.011-18.944-1.782-5.84-1.901-25.221-.158-25.804.688-.23 1.25-.86 1.25-1.4 0-1.636 7.625-7.6 12-9.386.825-.336 2.281-1.029 3.236-1.539.955-.51 2.755-.943 4-.962 1.245-.02 3.389-.679 4.764-1.465 1.375-.786 5.2-1.452 8.5-1.48 3.3-.028 6.675-.502 7.5-1.054 1.576-1.055 15.504-.703 29.5.747M1029.638 9.5c-.316.825-1.827 1.516-3.357 1.535-1.529.02-3.906.679-5.281 1.465-1.375.786-3.519 1.445-4.764 1.465-1.245.019-3.045.44-4 .935-.955.496-4.436 1.677-7.736 2.625s-6.781 2.118-7.736 2.599c-.955.482-2.592.876-3.636.876-1.045 0-3.188.672-4.764 1.494-1.575.821-3.625 1.496-4.555 1.5-.93.003-1.969.456-2.309 1.006-.34.55-1.263 1-2.051 1-2.985 0-12.43 9.349-15.154 15C960.14 49.618 960 50.726 960 74.894v23.65l3.073 3.728c2.859 3.469 3.45 3.728 8.5 3.728H977l.044 21.75c.033 16.329.403 22.747 1.485 25.75.792 2.2 1.448 4.986 1.456 6.191.008 1.205.465 2.469 1.015 2.809.55.34 1 1.716 1 3.059 0 1.343.363 2.441.808 2.441.444 0 1.645 1.913 2.669 4.25 2.129 4.859 8.781 14.276 12.207 17.282 4.911 4.309 2.39 5.977-10.209 6.753-7.69.474-9.982 1.056-15.5 3.939-10.988 5.74-18.378 11.703-26.975 21.763-6.813 7.972-15 22.591-15 26.783 0 1.162-.45 2.39-1 2.73-.562.348-1.014 5.296-1.031 11.309-.017 5.88-.484 14.066-1.037 18.191-.977 7.277-2.129 24.028-3.853 56-.459 8.525-1.143 16.654-1.519 18.065-.679 2.545-1.826 18.652-3.522 49.435-.484 8.8-1.199 19.226-1.588 23.17-.389 3.943-.406 8.369-.038 9.835 1.067 4.25 5.281 7.495 9.734 7.495 3.104 0 3.854.366 3.854 1.878 0 1.033.675 3.493 1.5 5.468.825 1.974 1.5 4.729 1.5 6.122 0 1.393.45 2.532 1 2.532s1 .845 1 1.878c0 1.032.675 2.437 1.5 3.122s1.5 1.693 1.5 2.24c0 .547 1.688 2.681 3.75 4.741 3.178 3.175 6.9 5.467 16.25 10.008 1.32.642 1.53 16.763 1.754 134.602.268 141.599.447 134.891-3.802 142.645-.524.955-.952 6.846-.952 13.09 0 11.195.035 11.369 2.547 12.513 1.768.806 12.586 1.161 35.347 1.161 30.588 0 32.945-.126 34.953-1.867 2.004-1.739 2.153-2.794 2.153-15.3 0-9.115.386-13.819 1.2-14.633.778-.778 4.828-1.2 11.525-1.2 10.163 0 10.34.04 11.3 2.565.536 1.411.975 7.465.975 13.453 0 11.689 1.075 15.714 4.421 16.549 1.144.285 17.058.387 35.366.226 27.397-.241 33.442-.543 34.162-1.708 1.729-2.801 2.163-10.302 1.035-17.872-1.274-8.544-1.939-10.327-6.704-17.982l-3.28-5.27.032-129.23c.034-139.733-.248-132.731 5.342-132.731 2.408 0 4.229-.667 8.626-3.162a47.296 47.296 0 0 1 3-1.537c2.693-1.231 8.699-7.876 11.197-12.387 2.901-5.241 5.803-13.832 5.803-17.183 0-1.611.899-2.842 2.75-3.766 6.701-3.347 7.25-4.477 7.244-14.889-.003-5.267-.471-11.252-1.04-13.3-.948-3.417-1.532-11.023-3.936-51.276-.46-7.7-1.107-15.575-1.437-17.5-.665-3.875-2.314-25.687-3.628-48-1.046-17.758-3.566-46.424-4.44-50.5-.819-3.822-8.617-19.5-9.698-19.5-.448 0-.815-.637-.815-1.417 0-.779-.337-1.566-.75-1.75-.412-.183-2.387-2.358-4.388-4.833-5.395-6.672-6.915-8.213-11.862-12.021-2.475-1.905-4.65-3.805-4.833-4.222-.184-.416-.934-.757-1.667-.757s-1.483-.352-1.667-.782c-.412-.967-10.129-5.675-14.732-7.138-1.87-.594-7.72-1.086-13-1.094-15.505-.022-17.087-1.329-10.269-8.486 3.876-4.069 11.168-14.802 11.168-16.438 0-.495.656-2.174 1.457-3.731s2.038-4.33 2.75-6.161c1.121-2.888 2.888-4.12 13.314-9.285 9.4-4.656 12.296-6.575 13.281-8.799.949-2.144 1.158-9.83.849-31.215-.426-29.52-.968-36.034-3.276-39.344-.756-1.084-1.375-3.195-1.375-4.69 0-1.496-.45-2.997-1-3.337-.55-.34-1-2.365-1-4.5s-.408-4.134-.906-4.442c-.499-.308-1.216-2.809-1.594-5.558-.378-2.749-1.095-5.25-1.594-5.558-.498-.308-.906-1.205-.906-1.993 0-3.033-12.416-15.449-15.449-15.449-.788 0-1.711-.45-2.051-1-.34-.55-1.379-1.003-2.309-1.006-.93-.004-2.98-.679-4.555-1.5-1.576-.822-3.546-1.494-4.379-1.494-1.723 0-16.858-4.737-19.493-6.101-.955-.495-2.755-.915-4-.934-1.245-.02-3.389-.679-4.764-1.465-1.375-.786-3.752-1.445-5.281-1.465-1.53-.019-3.041-.71-3.357-1.535-.412-1.072-2.086-1.5-5.862-1.5-3.776 0-5.45.428-5.862 1.5m-37.383 437.75c1.922 2.338 7.489 6.95 12.37 10.25 4.881 3.3 9.025 6.338 9.208 6.75.184.413.934.75 1.667.75s1.483.338 1.667.75c.453 1.021 11.619 8.4 15.333 10.134 6.715 3.135 27.753 1.48 32.579-2.562 2.022-1.693 4.431-1.676 7.767.056 1.46.758 4.004 1.925 5.654 2.593 1.65.668 4.274 1.847 5.831 2.622 1.557.774 3.695 1.407 4.75 1.407 1.055 0 1.919.45 1.919 1s.618 1 1.373 1c2.541 0 10.407 3.984 11.02 5.581.334.87.607 56.131.607 122.801 0 92.947-.28 121.498-1.2 122.418-.908.908-16.49 1.2-64.003 1.2h-62.804l.254-144.25.253-144.25 3.5-.321c1.925-.177 3.928-.74 4.45-1.25 1.921-1.878 4.394-.826 7.805 3.321M997 217.566c0 1.411.452 3.409 1.003 4.44.93 1.737 1.961 11.464 4.029 37.994 1.491 19.118 3.019 34.426 4 40.06.532 3.058.968 9.675.968 14.703 0 5.029.442 10.177.982 11.44.931 2.18 2.25 14.436 4.066 37.797.449 5.775 1.591 17.7 2.538 26.5.946 8.8 1.764 18.25 1.818 21l.096 5-9 .264c-8.517.25-15.5 2.261-15.5 4.463 0 .425-.9.773-2 .773-1.981 0-2-.683-2.048-70.25-.044-64.123-.197-70.554-1.754-73.738-3.604-7.37-11.303-7.436-14.528-.125-1.49 3.376-1.67 9.368-1.67 55.473v51.688l-16.75-.274-16.75-.274.155-7c.278-12.501 2.295-44.946 2.922-47 .336-1.1.988-10.325 1.449-20.5 1.547-34.128 3.036-54.497 4.009-54.833.531-.184.965-1.385.965-2.669 0-2.491 2.998-8.481 4.25-8.492.413-.003.75-.6.75-1.326 0-1.982 11.09-14.113 17.534-19.18 7.709-6.061 13.364-8.302 21.216-8.405 7.141-.094 7.25-.056 7.25 2.471m109 1.93c5.47 3.541 9.81 7.482 18.75 17.027.688.734 1.25 1.816 1.25 2.406 0 .589.373 1.071.829 1.071 1.114 0 6.75 11.497 8.089 16.5.589 2.2 1.073 8.604 1.076 14.231.003 5.628.443 13.278.977 17 1.309 9.123 3.991 49.615 5.6 84.545l.589 12.777-15.33-.277-15.33-.276-.259-53.431c-.284-58.605.058-55.46-6.32-58.102-2.59-1.072-3.345-.936-6.421 1.159l-3.486 2.374-.022 68.5c-.013 37.675-.356 69.024-.764 69.665-.55.865-1.234.804-2.661-.24-2.015-1.473-3.698-10.525-5.567-29.925-.476-4.95-1.234-10.463-1.683-12.251-.889-3.536-5.699-9.249-7.787-9.249-2.039 0-4.53-4.588-4.53-8.342 0-3.787 1.17-5.161 5.271-6.19 3.837-.963 6.729-4.995 6.729-9.38 0-5.18-4.212-11.088-7.906-11.088-1.126 0-2.761-1.088-3.632-2.417-1.281-1.956-1.383-3.162-.535-6.314.577-2.142 1.515-9.267 2.083-15.832.569-6.566 1.457-16.887 1.975-22.937.518-6.05 1.408-12.572 1.978-14.493.57-1.922 1.037-6.894 1.037-11.05 0-4.157.412-7.984.916-8.507.503-.522 1.163-5.45 1.466-10.95.896-16.282 1.527-19.528 3.974-20.456 4.715-1.788 12.856.057 19.644 4.452m-31.688-113.567c3.697 1.405 4.688 5.91 4.688 21.316 0 13.145-1.074 20.49-3.984 27.255-.473 1.1-1.657 3.913-2.631 6.25-.973 2.338-2.133 4.25-2.577 4.25-.445 0-.808.547-.808 1.216 0 1.635-9.088 10.784-10.712 10.784-.709 0-1.291.338-1.294.75-.011 1.223-5.975 4.25-8.375 4.25-1.22 0-2.708.489-3.306 1.087-1.455 1.455-17.141 1.485-18.59.036-.618-.618-2.18-1.123-3.471-1.123-4.687 0-20.252-12.073-20.252-15.708 0-.711-.429-1.292-.953-1.292s-1.649-1.575-2.5-3.5l-3.047-6.901c-.825-1.871-1.5-4.769-1.5-6.441 0-1.672-.45-3.318-1-3.658-.604-.373-1-7.447-1-17.868 0-17.533.405-19.653 4-20.938 2.655-.949 74.775-.73 77.312.235m-7.707 109.634c.8 3.189-.486 20.572-1.625 21.953-.46.559-1.049 5.509-1.308 11-.645 13.654-2.485 34.549-3.257 36.984-.349 1.1-1.019 6.95-1.489 13-2.004 25.797-1.629 24.792-10.426 27.964-7.66 2.763-9.5 4.904-9.5 11.055 0 5.738 1.378 7.671 6.821 9.568 3.673 1.281 4.703 3.969 3.878 10.118-.567 4.227-1.893 5.753-5.02 5.78-2.268.019-3.82 1.552-5.988 5.919-1.42 2.857-1.691 6.646-1.691 23.627 0 16.686-.26 20.44-1.488 21.459-1.191.989-1.569.963-1.894-.127-1.005-3.379-2.99-19.387-3.703-29.863-1.368-20.092-2.846-36.435-3.481-38.5-.339-1.1-.999-6.95-1.467-13-2.183-28.193-2.877-35.545-3.442-36.459-.334-.541-1.046-6.959-1.583-14.263-2.379-32.412-2.847-37.536-3.812-41.778-1.188-5.215-1.697-24.274-.692-25.899.465-.754 8.54-1.101 25.602-1.101h24.922l.643 2.563m27.171-147.138c.21 12.07-.032 16.121-1 16.734-.702.446-26.331.817-56.955.826-50.085.013-55.841-.148-57.304-1.611-.898-.898-1.489-2.798-1.321-4.246.37-3.191 5.499-6.009 11.068-6.08 2.07-.026 4.545-.464 5.5-.973 2.486-1.325 15.181-4.081 18.786-4.078 1.678.002 3.478-.397 4-.886.975-.912 9.833-2.87 16.95-3.746 2.2-.27 4.675-.771 5.5-1.111 2.718-1.123 13.409-3.401 18.5-3.942 2.75-.292 5.225-.848 5.5-1.235.576-.811 10.392-2.974 17-3.745 2.475-.289 4.948-.953 5.496-1.475.547-.521 2.572-.815 4.5-.653l3.504.296.276 15.925m-23.795 316.825c.936 2.244 2.788 15.87 3.705 27.25.265 3.3.895 6.428 1.398 6.95 1.239 1.285 1.169 11.275-.084 12.05-.55.34-1 2.175-1 4.079 0 1.969-1.078 5.168-2.5 7.421-1.375 2.178-2.5 4.194-2.5 4.48 0 1.626-10.26 9.52-12.374 9.52-.829 0-1.786.45-2.126 1-1.14 1.845-13.707 1.043-17-1.085-1.65-1.066-3.787-2.211-4.75-2.543-.962-.333-1.75-1.003-1.75-1.489 0-.485-.637-.883-1.417-.883-.779 0-1.566-.337-1.75-.75-.183-.412-3.615-2.975-7.627-5.694-5.588-3.787-7.226-5.424-7-7 .281-1.968 1.077-2.077 18.641-2.556l18.347-.5 2.398-3c2.371-2.966 2.398-3.255 2.403-25.583.003-12.421.305-22.884.672-23.25.366-.367 3.526-.667 7.021-.667 5.646 0 6.46.251 7.293 2.25m-26.422-354.782c1.067.808 3.291 1.516 4.941 1.573 3.315.116 8.791 2.93 8.707 4.474-.029.542-.65 1.27-1.38 1.619-3.993 1.908-6.687 2.791-9.827 3.223-1.925.264-6.425 1.199-10 2.076-6.332 1.555-11.814 2.735-21 4.521-2.475.481-5.767 1.363-7.315 1.96S1003.351 51 1001.494 51c-1.857 0-3.654.45-3.994 1-.34.55-2.054.998-3.809.995-1.755-.003-5.274.742-7.819 1.654-5.423 1.943-7.872 1.336-7.872-1.952C978 49.327 986.563 42 990.5 42c.699 0 2.56-.672 4.136-1.494 1.575-.821 3.85-1.496 5.055-1.5 1.205-.003 2.469-.456 2.809-1.006.34-.55 2.054-1.014 3.809-1.032 1.755-.017 4.065-.692 5.132-1.5 1.068-.807 3.179-1.468 4.691-1.468 1.513 0 3.028-.45 3.368-1 .34-.55 1.829-1.014 3.309-1.032 1.48-.017 3.565-.692 4.632-1.5 1.216-.919 4.228-1.468 8.059-1.468 3.831 0 6.843.549 8.059 1.468m-71.184 378.657c.961 4.806.742 12.788-.41 14.941-.963 1.798-2.245 1.933-18.25 1.919-9.468-.009-17.869-.429-18.668-.935-1.09-.689-1.391-2.701-1.207-8.067.392-11.385-.351-10.983 20.276-10.983h17.634l.625 3.125m172.59-1.191c1.442 2.695 1.318 15.383-.165 16.866-1.52 1.52-28.069 1.662-30.866.165-1.644-.88-1.934-2.142-1.934-8.418 0-11.272-1.139-10.547 16.572-10.547 14.16 0 15.438.151 16.393 1.934m-162.11 348.674c1.18 1.01 2.145 2.599 2.145 3.531 0 .932.383 1.844.851 2.028 1.479.579 6.149 8.711 6.149 10.706 0 2.74-1.794 3.127-14.51 3.127-12.429 0-14.49-.814-14.49-5.722 0-3.866 4.636-12.582 7.756-14.579 3.344-2.142 9.035-1.715 12.099.909m130.549-2.47c3.577 1.63 7.823 10.462 7.417 15.43l-.321 3.932-13.771.278c-12.082.245-13.848.075-14.409-1.386-.351-.915-.104-2.39.55-3.278.653-.888 1.452-2.401 1.776-3.364.323-.962.875-1.75 1.227-1.75.351 0 1.19-1.237 1.863-2.75.673-1.512 2.376-3.987 3.784-5.5 2.812-3.02 7.422-3.645 11.884-1.612m-25.68.986c.833.833.707 2.001-.485 4.5-.885 1.857-1.976 3.376-2.424 3.376-.448 0-.815.437-.815.971s-1.45 3.028-3.222 5.542l-3.222 4.571-6.028-.292-6.028-.292-.293-8.416c-.161-4.629-.063-9.017.218-9.75.661-1.723 20.599-1.91 22.299-.21m-68.331.458c.334.87.607 4.658.607 8.418 0 9.756-.171 10-7.039 10-5.288 0-6.015-.268-7.893-2.904-1.137-1.598-2.068-3.398-2.068-4 0-.603-.441-1.096-.981-1.096-.539 0-1.263-1.125-1.608-2.5-.345-1.375-.977-2.5-1.403-2.5-1.266 0-1.799-4.809-.659-5.949.59-.59 5.299-1.051 10.744-1.051 7.916 0 9.804.29 10.3 1.582m76.457-316.999c.429 2.349 4.053 6.417 5.717 6.417 1.808 0 2.433 2.439 2.433 9.5 0 3.485-.273 7.048-.607 7.918-.665 1.734-3.441 2.063-6.157.729-3.177-1.561-8.713-3.946-10.486-4.519-1.884-.608-2.29-3.587-.872-6.392 2.208-4.366 4.122-9.448 4.122-10.941 0-2.072 3.007-5.459 4.427-4.986.59.196 1.23 1.219 1.423 2.274m38.568 7.024c2.153.826 2.074 7.236-.127 10.42-2.566 3.713-3.497 4.502-7.608 6.453-3.645 1.73-3.813 1.727-5.193-.096-2.065-2.728-1.954-13.214.165-15.555 1.67-1.846 9.247-2.571 12.763-1.222M258.439 360.314C249.721 368.655 241.8 375 240.106 375c-.608 0-1.106.37-1.106.823 0 .452-2.015 1.829-4.477 3.059-2.463 1.229-4.739 2.659-5.059 3.177-.32.517-1.407.941-2.416.941s-2.093.675-2.41 1.5c-.316.825-1.714 1.5-3.107 1.5-1.392 0-2.531.441-2.531.981 0 .539-1.237 1.282-2.75 1.649-1.512.368-3.638 1.276-4.723 2.019-1.084.743-2.884 1.365-4 1.383-1.115.017-2.901.692-3.968 1.5-1.068.807-2.929 1.468-4.136 1.468-1.207 0-3.483.672-5.059 1.494-1.575.821-4.3 1.496-6.055 1.5-1.755.003-3.433.397-3.728.875-.295.477-2.288 1.148-4.429 1.491-4.223.675-5.528 1.789-6.609 5.64-.386 1.375-1.284 3.85-1.995 5.5a5640.53 5640.53 0 0 0-3.113 7.25c-1.001 2.338-2.183 4.25-2.627 4.25-.445 0-.808.845-.808 1.878 0 1.032-.675 2.437-1.5 3.122s-1.5 1.879-1.5 2.654c0 .775-.675 1.668-1.5 1.984-.825.317-1.5 1.442-1.5 2.5 0 1.059-.675 2.184-1.5 2.5-.825.317-1.5 1.203-1.5 1.969s-.42 1.393-.933 1.393c-.513 0-1.189.809-1.503 1.798-.314.988-2.369 3.726-4.567 6.083-2.198 2.358-3.997 4.436-3.997 4.619 0 .183-3.487 3.901-7.75 8.262-5.748 5.88-9.042 8.405-12.75 9.771-5.459 2.01-10.23 6.467-11.174 10.438-.331 1.391-1.041 3.087-1.579 3.77-.926 1.176-.758 3.13.818 9.554.706 2.88 6.115 9.705 7.69 9.705.489 0 1.563.675 2.388 1.5 1.313 1.313 13.692 1.5 99.228 1.5 69.343 0 98.046.317 98.822 1.093.79.79.708 1.828-.294 3.75-.763 1.461-1.389 3.22-1.393 3.907-.003.688-.456 1.25-1.006 1.25s-1 .64-1 1.423-1.165 2.808-2.589 4.5L311.822 527H59.905l-5.131 5.13-5.13 5.131-.065 7.772c-.05 6.052.321 8.199 1.678 9.699.959 1.059 1.743 2.39 1.743 2.958 0 .903 5.387 3.943 11.5 6.49 1.1.458 15.044.943 30.987 1.077 26.293.22 29.017.4 29.311 1.932.335 1.741-3.025 5.811-4.798 5.811-.55 0-1 .675-1 1.5s-.43 1.5-.956 1.5-3.348 2.363-6.271 5.25c-2.923 2.888-7.993 7.5-11.267 10.25C92.958 597.842 82 608.722 82 609.875c0 .484-.675 1.44-1.5 2.125s-1.5 2.26-1.5 3.5c0 1.24-.675 2.815-1.5 3.5-2.001 1.661-1.979 11.783.032 14.441.807 1.068 1.468 2.774 1.468 3.792 0 1.018.457 2.395 1.015 3.059.558.664 2.636 3.388 4.618 6.053 4.226 5.682 4.1 6.178-3.684 14.512-2.722 2.915-4.949 5.714-4.949 6.221 0 .507-.675.922-1.5.922s-1.5.638-1.5 1.417-.337 1.566-.75 1.75c-.412.183-3.225 3.242-6.25 6.798-8.947 10.517-8.163 10.031-16.25 10.067-4.784.021-7.91.531-9.191 1.5-1.068.807-3.157 1.468-4.643 1.468-1.486 0-2.961.675-3.278 1.5-.316.825-1.264 1.5-2.107 1.5-.842 0-2.349.788-3.35 1.75-1 .963-3.835 3.555-6.301 5.761-2.465 2.205-4.801 4.68-5.19 5.5-.389.819-1.658 3.064-2.819 4.989-5.522 9.151-7.581 25.51-4.342 34.5.792 2.2 1.448 4.732 1.456 5.628.008.895.69 2.187 1.515 2.872s1.5 2.104 1.5 3.154c0 1.05.675 2.168 1.5 2.484.825.317 1.5.984 1.5 1.482s2.221 3.038 4.935 5.643c6.459 6.2 7.314 6.864 9.892 7.682 1.195.379 2.173 1.109 2.173 1.622 0 .513 1.039.933 2.309.933 1.27 0 3.182.661 4.25 1.468 2.774 2.098 25.108 2.098 27.882 0 1.068-.807 2.98-1.468 4.25-1.468s2.309-.406 2.309-.902 1.32-1.362 2.932-1.925C80.751 773.842 94 760.427 94 757.892c0-1.075.675-2.214 1.5-2.53.825-.317 1.514-1.765 1.532-3.219.017-1.454.692-3.517 1.5-4.584 2.08-2.75 2.03-23.232-.064-26-.807-1.068-1.468-3.205-1.468-4.75S96.539 714 95.975 714c-.563 0-1.462-1.012-1.997-2.25-1.455-3.364-3.325-6.152-4.728-7.05-3.098-1.982-.709-5.297 15.661-21.727L121.822 666h5.12c3.629 0 5.288.437 5.696 1.5.35.91 1.862 1.5 3.847 1.5 1.798 0 3.83.675 4.515 1.5.685.825 2.427 1.514 3.872 1.532 1.446.017 3.502.692 4.569 1.5 1.068.807 2.98 1.468 4.25 1.468s2.309.41 2.309.912 1.798 1.216 3.995 1.587 4.248 1.086 4.559 1.588c.31.502 1.325.916 2.255.919.93.004 2.98.679 4.555 1.5 1.576.822 3.627 1.494 4.559 1.494.932 0 2.568.661 3.636 1.468 1.067.808 2.867 1.483 4 1.5 1.132.018 2.932.693 4 1.5 1.067.808 3.193 1.483 4.722 1.5 1.53.018 3.041.707 3.357 1.532.35.91 1.862 1.5 3.847 1.5 1.798 0 3.83.675 4.515 1.5.685.825 2.427 1.514 3.872 1.532 1.446.017 3.502.692 4.569 1.5 1.068.807 2.704 1.468 3.636 1.468.932 0 2.983.672 4.559 1.494 1.575.821 3.625 1.496 4.555 1.5.93.003 1.969.456 2.309 1.006.34.55 1.379 1.003 2.309 1.006.93.004 2.98.679 4.555 1.5 1.576.822 3.627 1.494 4.559 1.494.932 0 2.568.661 3.636 1.468 1.067.808 2.921 1.483 4.12 1.5 1.198.018 2.853.707 3.678 1.532.825.825 2.625 1.5 4 1.5s3.175.675 4 1.5c.825.825 2.827 1.5 4.449 1.5 1.622 0 3.509.675 4.194 1.5s2.427 1.514 3.872 1.532c1.446.017 3.502.692 4.569 1.5 1.068.807 2.704 1.468 3.636 1.468.932 0 2.983.672 4.559 1.494 1.575.821 3.625 1.496 4.555 1.5.93.003 1.938.405 2.239.893.301.487 2.148 1.186 4.104 1.553 4.32.811 5.466 3.237 5.466 11.566 0 3.232.45 6.154 1 6.494.55.34 1 2.111 1 3.937 0 1.825.675 3.878 1.5 4.563.825.685 1.5 2.09 1.5 3.122 0 1.033.42 1.878.933 1.878.513 0 1.195.829 1.517 1.841 1.516 4.778 17.635 18.159 21.874 18.159.712 0 2.167.661 3.235 1.468 2.774 2.098 25.108 2.098 27.882 0 1.068-.807 2.98-1.468 4.25-1.468s2.309-.42 2.309-.933c0-.513.95-1.234 2.11-1.602 3.928-1.247 16.89-13.504 16.89-15.972 0-.703.675-1.538 1.5-1.855.825-.316 1.5-1.566 1.5-2.778 0-1.211.747-3.028 1.66-4.036 1.362-1.506 1.674-4.227 1.739-15.178.08-13.42-.275-15.187-4.552-22.646a47.902 47.902 0 0 1-1.547-2.976c-.952-2.043-5.228-6.954-8.698-9.989-1.594-1.394-3.732-3.322-4.75-4.285-1.019-.962-2.472-1.75-3.23-1.75-.757 0-1.937-.675-2.622-1.5-.685-.825-2.202-1.514-3.372-1.532-1.171-.017-3.002-.692-4.069-1.5-1.395-1.055-4.651-1.468-11.566-1.468h-9.625l-2.934-3.384c-3.67-4.233-5.333-6.646-6.062-8.797-.313-.924-1.2-1.923-1.971-2.218-.77-.296-1.401-1.227-1.401-2.07 0-.842-.441-1.531-.981-1.531-.539 0-1.255-1.092-1.59-2.428-.335-1.335-1.244-2.671-2.019-2.968-.776-.298-1.41-1.663-1.41-3.035 0-2.134 1.117-3.012 7.75-6.092 4.263-1.978 8.425-4.023 9.25-4.544.825-.52 2.175-1.203 3-1.518.825-.314 2.694-1.212 4.154-1.993 1.46-.782 3.318-1.422 4.128-1.422s2.033-.675 2.718-1.5 2.035-1.5 3-1.5c.965 0 2.315-.675 3-1.5s2.315-1.5 3.622-1.5c1.308 0 2.378-.441 2.378-.981 0-.539 1.233-1.29 2.74-1.669 1.507-.378 3.339-1.286 4.072-2.019.732-.732 2.199-1.331 3.259-1.331 1.061 0 1.929-.414 1.929-.921 0-.506 1.35-1.217 3-1.579 1.65-.362 3-1.073 3-1.579 0-.507 1.07-.921 2.378-.921 1.307 0 2.937-.675 3.622-1.5s2.035-1.5 3-1.5c.965 0 2.315-.675 3-1.5s1.794-1.5 2.465-1.5c.671 0 3.204-1.119 5.628-2.487s5.082-2.807 5.907-3.198c1.889-.896 8.345-6.747 12.404-11.243 1.703-1.885 3.884-4.248 4.846-5.25.963-1.002 1.75-2.442 1.75-3.2 0-.757.675-1.937 1.5-2.622.825-.685 1.5-2.035 1.5-3 0-.965.675-2.315 1.5-3s1.5-2.485 1.5-4c0-1.516.675-4.371 1.5-6.346 1.777-4.252 2.017-31.14.395-44.154-.548-4.4-1.361-15.2-1.807-24-.445-8.8-1.322-17.572-1.949-19.493-.626-1.922-1.139-6.894-1.139-11.05 0-4.278-.49-8.047-1.128-8.685-.621-.621-1.359-4.424-1.64-8.45-.282-4.027-.933-7.595-1.448-7.928-.514-.333-1.168-2.583-1.452-5-.284-2.417-1.15-5.812-1.924-7.545-.775-1.733-1.408-4.006-1.408-5.05 0-1.045-.389-2.327-.864-2.849-.474-.522-1.351-2.412-1.947-4.2-1.267-3.796-.161-8.062 3.305-12.75 1.22-1.65 2.538-4.012 2.93-5.25.391-1.237 1.13-2.25 1.643-2.25.513 0 .933-.643.933-1.429 0-.785.566-2.023 1.257-2.75.692-.726 2.717-4.14 4.5-7.586 2.802-5.413 3.243-7.272 3.243-13.678 0-5.257-.436-7.851-1.5-8.914-.825-.825-1.5-1.817-1.5-2.203 0-.387-1.607-2.219-3.571-4.072C424.998 366.133 424.548 366 417 366s-7.998.133-11.429 3.368c-1.964 1.853-3.571 3.878-3.571 4.5 0 .623-.401 1.132-.892 1.132-.49 0-1.174 1.125-1.519 2.5s-1.069 2.5-1.608 2.5c-.54 0-.981.607-.981 1.35 0 .742-1.35 3.214-3 5.491-1.65 2.278-3 4.835-3 5.682 0 .847-.675 1.799-1.5 2.115-.825.317-1.5 1.412-1.5 2.434 0 2.037-2.783 3.928-5.781 3.928-1.688 0-2.99-.818-7.927-4.981-.664-.561-1.576-1.019-2.027-1.019-.451 0-2.297-1.35-4.104-3-1.806-1.65-3.479-3-3.716-3-.624 0-20.849-15.096-21.445-16.007-.275-.42-6.899-.936-14.72-1.148-9.452-.256-14.633-.798-15.45-1.615-.701-.701-3.834-1.233-7.28-1.236-3.41-.004-7.3-.658-8.914-1.5-1.576-.822-4.527-1.494-6.559-1.494s-4.568-.661-5.636-1.468c-1.067-.808-3.516-1.497-5.441-1.532-1.925-.035-4.374-.724-5.441-1.532-1.068-.807-3.205-1.468-4.75-1.468s-2.809-.398-2.809-.883c0-.486-.952-1.133-2.115-1.437-1.493-.39-3.095.385-5.446 2.634m163.926 16.759c2.316 1.821 2.635 2.789 2.635 7.982 0 5.784-1.606 9.51-9.031 20.945-.536.825-1.412 2.513-1.947 3.75-.535 1.238-1.434 2.25-1.997 2.25-.564 0-1.025.873-1.025 1.941s-.478 2.236-1.062 2.597c-.584.361-1.483 1.625-1.997 2.809-.515 1.184-1.374 2.828-1.91 3.653-1.828 2.815-8.659 14.496-9.357 16-.383.825-1.584 2.85-2.67 4.5-1.086 1.65-2.459 4.116-3.052 5.48-.592 1.363-1.386 2.713-1.765 3-.68.515-2.277 3.253-5.843 10.019-1.014 1.925-2.114 3.725-2.445 4-.975.812-5.804 9.269-6.996 12.251-.604 1.513-1.505 2.75-2.001 2.75s-.902.643-.902 1.429c0 .785-.564 2.023-1.252 2.75-.689.726-2.152 3.121-3.25 5.321-1.099 2.2-2.266 4.225-2.594 4.5-.618.519-1.715 2.455-5.853 10.336-1.347 2.565-2.81 4.664-3.25 4.664-.441 0-.801.643-.801 1.429 0 .785-.562 2.03-1.25 2.765-.687.735-2.146 3.13-3.24 5.321-1.095 2.192-2.557 4.345-3.25 4.785-.693.44-1.26 1.691-1.26 2.781s-.675 2.241-1.5 2.557c-.825.317-1.5 1.373-1.5 2.347 0 .973-.675 2.33-1.5 3.015s-1.5 1.865-1.5 2.622c0 .758-.45 1.378-1 1.378s-1 .643-1 1.429c0 .785-.562 2.023-1.25 2.75-.687.726-2.375 3.494-3.75 6.15-4.555 8.798-5.102 9.671-6.055 9.671-.52 0-.945.873-.945 1.941s-.478 2.236-1.062 2.597c-.584.361-1.483 1.625-1.997 2.809-1.055 2.426-3.15 5.899-4.014 6.653-1.096.956-1.738 3.687-1.084 4.614 1.405 1.994 6.129 4.334 7.605 3.768.853-.328 1.552-1.4 1.552-2.382 0-.982.675-2.045 1.5-2.362.825-.316 1.5-1.503 1.5-2.638s.675-2.322 1.5-2.638c.825-.317 1.5-1.373 1.5-2.347 0-.973.675-2.33 1.5-3.015s1.5-1.865 1.5-2.622c0-.758.45-1.378 1-1.378s1-.643 1-1.429c0-.785.563-2.03 1.25-2.765.688-.735 2.146-3.13 3.24-5.321 1.095-2.192 2.557-4.345 3.25-4.785.693-.44 1.26-1.691 1.26-2.781s.675-2.241 1.5-2.557c.825-.317 1.5-1.401 1.5-2.41 0-1.009.478-2.129 1.062-2.49.584-.361 1.483-1.625 1.997-2.809.973-2.238 3.074-5.786 3.941-6.654.477-.478 1.827-2.917 6.223-11.249 1.088-2.062 2.383-3.75 2.878-3.75.494 0 .899-.914.899-2.031 0-1.118.675-2.291 1.5-2.607.825-.317 1.5-1.373 1.5-2.347 0-.973.675-2.33 1.5-3.015s1.5-1.632 1.5-2.105c0-.724 5.737-10.821 9.031-15.895.536-.825 1.412-2.512 1.947-3.75.535-1.237 1.434-2.25 1.997-2.25.564 0 1.025-.873 1.025-1.941s.478-2.236 1.062-2.597c.584-.361 1.491-1.625 2.017-2.809.525-1.184 2.313-4.403 3.972-7.153 1.659-2.75 3.555-6.125 4.212-7.5.658-1.375 1.463-2.725 1.79-3 .326-.275.915-1.175 1.309-2 2.505-5.247 6.769-11 8.152-11 1.856 0 5.486 7.498 5.486 11.331 0 1.798.488 3.757 1.084 4.353.597.597 1.307 3.949 1.579 7.45.272 3.501.941 7.548 1.486 8.993 1.099 2.912 2.355 14.939 3.849 36.873.543 7.975 1.441 18.123 1.995 22.552 1.633 13.059 1.291 40.643-.58 46.76-2.157 7.05-6.454 15.767-8.081 16.391-.732.281-1.332.913-1.332 1.405 0 .856-5.095 6.087-10.189 10.461-2.57 2.207-14.765 8.431-16.518 8.431-.576 0-1.608.675-2.293 1.5s-2.122 1.5-3.194 1.5-2.624.675-3.449 1.5c-.825.825-2.313 1.5-3.306 1.5-.993 0-2.366.675-3.051 1.5s-2.035 1.5-3 1.5c-.965 0-2.315.675-3 1.5s-1.977 1.514-2.872 1.532c-.896.017-2.502.692-3.569 1.5-1.068.807-2.562 1.468-3.322 1.468-.759 0-2.055.675-2.88 1.5-.825.825-2.368 1.5-3.428 1.5-1.061 0-1.929.414-1.929.921 0 .506-1.345 1.215-2.989 1.576-1.643.361-3.245 1.072-3.559 1.58-.313.508-1.388.923-2.389.923-1 0-2.378.675-3.063 1.5s-2.035 1.5-3 1.5c-.965 0-2.315.675-3 1.5s-2.122 1.5-3.194 1.5-2.624.675-3.449 1.5c-.825.825-2.368 1.5-3.428 1.5-1.061 0-1.929.441-1.929.981 0 1.975-5.011 2.319-7.04.483-1.078-.976-1.96-2.126-1.96-2.557 0-.431-1.307-2.215-2.905-3.964-2.678-2.932-2.935-3.895-3.296-12.312-.375-8.742.504-15.618 1.998-15.642.387-.007 1.6-1.919 2.696-4.25 1.096-2.332 2.558-4.834 3.25-5.56.691-.727 1.257-1.927 1.257-2.667 0-.74.563-1.561 1.25-1.825 1.276-.489-1.512-3.005-5.909-5.332-1.776-.939-2.267-.85-2.742.5-.961 2.726-5.976 10.738-7.905 12.629-1.728 1.694-1.954 1.691-5.25-.084-1.894-1.02-3.444-2.202-3.444-2.627 0-.425-1.035-.773-2.3-.773-3.623 0-4.597-1.615-3.28-5.445.628-1.827 1.621-3.937 2.206-4.689.585-.751 1.364-2.041 1.732-2.866.368-.825 2.028-3.75 3.689-6.5s3.559-6.125 4.216-7.5c.658-1.375 1.463-2.725 1.79-3 .326-.275.903-1.175 1.281-2 .378-.825 1.582-2.85 2.674-4.5 1.092-1.65 2.481-4.237 3.087-5.75.605-1.512 1.394-2.754 1.753-2.759.359-.006 1.54-2.031 2.626-4.5 1.086-2.47 2.293-4.491 2.683-4.491.389 0 1.021-.986 1.404-2.192.383-1.206 2.438-5.039 4.567-8.518 2.13-3.479 3.872-6.781 3.872-7.339 0-.558.675-1.273 1.5-1.589.825-.317 1.5-1.401 1.5-2.41 0-1.009.478-2.129 1.062-2.49.584-.361 1.491-1.625 2.017-2.809.525-1.184 2.313-4.403 3.972-7.153 1.659-2.75 3.555-6.125 4.212-7.5.658-1.375 1.43-2.725 1.717-3 1.044-1.003 3.075-4.567 4.132-7.25.596-1.512 1.49-2.75 1.986-2.75s.902-.643.902-1.429c0-.785.566-2.023 1.257-2.75.692-.726 2.154-3.228 3.25-5.56 1.096-2.331 2.286-4.243 2.645-4.25.359-.006 1.149-1.248 1.755-2.761.607-1.512 2.464-5 4.126-7.75 1.663-2.75 3.45-6.012 3.971-7.25.52-1.237 1.408-2.25 1.971-2.25.564 0 1.025-.873 1.025-1.941s.478-2.236 1.062-2.597c.584-.361 1.49-1.625 2.015-2.809.524-1.184 1.822-3.503 2.883-5.153 1.062-1.65 2.968-5.025 4.236-7.5 1.267-2.475 2.834-5.062 3.481-5.748.647-.687 1.971-3.049 2.942-5.25.971-2.201 2.129-4.002 2.573-4.002.445 0 .808-.643.808-1.429 0-.785.616-2.044 1.368-2.796.753-.753 1.683-2.36 2.067-3.572.385-1.211 1.119-2.203 1.632-2.203.513 0 .933-.9.933-2s.406-2 .902-2 1.399-1.237 2.005-2.75c.607-1.512 2.466-5 4.132-7.75 1.666-2.75 3.536-6.012 4.155-7.25.62-1.237 1.505-2.25 1.967-2.25.461 0 .839-.873.839-1.941s.478-2.236 1.062-2.597c.584-.361 1.503-1.625 2.043-2.809 4.597-10.087 10.431-13.165 16.26-8.58m-113.621 38.725c42.634 42.847 45.378 46.067 40.756 47.84-.825.317-1.5 1.412-1.5 2.434 0 3.616-7.546 5.304-11.527 2.577-1.085-.743-3.21-1.651-4.723-2.019-1.512-.367-2.75-1.11-2.75-1.649 0-.54-1.07-.981-2.378-.981-1.307 0-2.937-.675-3.622-1.5s-2.26-1.5-3.5-1.5c-1.24 0-2.815-.675-3.5-1.5s-2.329-1.5-3.654-1.5c-1.325 0-2.668-.675-2.984-1.5-.328-.855-1.82-1.5-3.469-1.5-1.591 0-2.893-.45-2.893-1s-.475-1-1.055-1c-1.1 0-9.108-3.322-12.273-5.092-2.368-1.324-4.672.484-4.672 3.665 0 1.28-.787 2.786-1.75 3.347-1.584.922-1.548 1.022.378 1.05 1.17.016 2.687.705 3.372 1.53.685.825 2.26 1.5 3.5 1.5 1.24 0 2.815.675 3.5 1.5s1.723 1.5 2.307 1.5c1.787 0 9.693 4.122 9.693 5.054 0 2.714-6.318 2.946-80.312 2.946-85.721 0-81.457.378-76.117-6.748 1.547-2.063 3.851-4.743 5.121-5.954 1.269-1.211 2.308-2.674 2.308-3.25 0-.577.626-1.048 1.392-1.048.765 0 1.674-1.125 2.019-2.5.345-1.375 1.069-2.5 1.608-2.5.54 0 .981-.675.981-1.5s.405-1.5.899-1.5c.495 0 1.894-1.912 3.109-4.25 1.216-2.337 2.499-4.475 2.852-4.75.353-.275 1.68-2.627 2.95-5.227 1.269-2.6 2.731-4.989 3.249-5.309.517-.32.941-1.4.941-2.401 0-1 .621-2.333 1.379-2.963.759-.63 1.648-2.485 1.975-4.122.685-3.425 3.52-3.958 8.315-1.565 1.557.777 4.406 2.094 6.331 2.926l7.151 3.087c2.008.866 4.146 1.574 4.75 1.574.605 0 1.099.45 1.099 1s.718 1 1.596 1c.877 0 2.79.607 4.25 1.348 4.632 2.353 9.58 4.494 11.904 5.151 1.238.35 2.25 1.055 2.25 1.568 0 .513 1.07.933 2.378.933 1.307 0 2.937.675 3.622 1.5s2.26 1.5 3.5 1.5c1.24 0 2.815.675 3.5 1.5s1.942 1.5 2.793 1.5c.852 0 4.51 1.389 8.128 3.087 7.756 3.64 10.057 4.626 12.069 5.17 2.005.542 5.01-3.455 5.01-6.665 0-2.107-.474-2.592-2.531-2.592-1.393 0-2.791-.675-3.107-1.5-.317-.825-1.391-1.5-2.388-1.5-.997 0-3.086-.636-4.643-1.413a155.009 155.009 0 0 0-6.331-2.926l-7.151-3.087c-2.008-.866-4.146-1.574-4.75-1.574-.605 0-1.099-.45-1.099-1s-.718-1-1.596-1c-.877 0-2.79-.607-4.25-1.348-4.632-2.353-9.58-4.494-11.904-5.151-1.237-.35-2.25-1.055-2.25-1.568 0-.513-1.093-.933-2.429-.933-1.335 0-3.103-.675-3.928-1.5-.825-.825-2.32-1.516-3.322-1.536-1.001-.02-3.139-1.114-4.751-2.431-2.491-2.036-2.734-2.63-1.627-3.964.716-.863 2.034-1.583 2.929-1.601.896-.017 2.502-.692 3.569-1.5 1.068-.807 2.761-1.468 3.764-1.468 1.002 0 2.604-.423 3.559-.939.955-.516 5.201-2.547 9.435-4.513 4.235-1.966 7.974-4.018 8.309-4.561.336-.543 1.498-.987 2.582-.987 1.085 0 2.232-.675 2.548-1.5.317-.825 1.442-1.5 2.5-1.5 1.059 0 2.184-.675 2.5-1.5.317-.825.977-1.5 1.466-1.5.926 0 13.018-8.647 13.896-9.936 1.343-1.973 4.51-2.861 6.468-1.813 1.111.594 21.036 20.191 44.276 43.547M181.632 579.082c1.852 1.144 3.368 2.494 3.368 3 0 .505.675.918 1.5.918s1.5.45 1.5 1 .614 1 1.364 1c.751 0 2.888 1.346 4.75 2.99 1.863 1.645 4.174 3.25 5.136 3.568.963.317 1.75.996 1.75 1.509 0 .513.689.933 1.531.933.843 0 1.791.675 2.107 1.5.317.825 1.203 1.5 1.969 1.5s1.393.465 1.393 1.032c0 .568.834 1.355 1.854 1.75s3.157 1.743 4.75 2.995 6.046 4.494 9.896 7.203c3.85 2.71 7.544 5.398 8.208 5.974.664.575 1.452 1.046 1.75 1.046.298 0 1.41.788 2.47 1.75 3.643 3.305 4.99 4.25 6.061 4.25.591 0 1.333.675 1.649 1.5.317.825 1.055 1.5 1.64 1.5 2.279 0 4.722 3.413 4.722 6.596 0 1.807.415 3.543.923 3.856.508.314 1.219 1.916 1.58 3.559.361 1.644 1.07 2.989 1.576 2.989.507 0 .921.475.921 1.056 0 2.511 11.788 10.765 15.695 10.99.443.026 3.259 3.851 6.259 8.5 3 4.65 5.812 8.454 6.25 8.454.438 0 .796.675.796 1.5s.441 1.5.981 1.5c.539 0 1.263 1.125 1.608 2.5.345 1.375 1.043 2.5 1.551 2.5.507 0 1.221.788 1.585 1.75.365.963 1.275 2.369 2.022 3.125 3.864 3.907-1.427 7.875-6.27 4.702-1.323-.867-3.046-1.577-3.828-1.577-.781 0-2.709-.672-4.285-1.494-1.575-.821-3.625-1.496-4.555-1.5-.93-.003-1.969-.456-2.309-1.006-.34-.55-1.379-1.003-2.309-1.006-.93-.004-2.98-.679-4.555-1.5-1.576-.822-3.627-1.494-4.559-1.494-.932 0-2.568-.661-3.636-1.468-1.067-.808-2.867-1.483-4-1.5-1.132-.018-2.932-.693-4-1.5-1.067-.808-2.921-1.483-4.12-1.5-1.198-.018-2.853-.707-3.678-1.532-.825-.825-2.827-1.5-4.449-1.5-1.622 0-3.509-.675-4.194-1.5s-2.229-1.5-3.431-1.5c-1.203 0-3.06-.661-4.128-1.468-1.067-.808-3.178-1.483-4.691-1.5-1.512-.018-2.75-.477-2.75-1.02 0-.544-1.8-1.276-4-1.628-2.2-.352-4-.993-4-1.424 0-.431-1.798-1.088-3.995-1.459s-4.248-1.086-4.559-1.588c-.31-.502-1.325-.916-2.255-.919-.93-.004-2.98-.679-4.555-1.5-1.576-.822-3.658-1.494-4.628-1.494-.97 0-2.323-.675-3.008-1.5s-2.485-1.5-4-1.5c-1.515 0-3.315-.675-4-1.5s-2.508-1.5-4.051-1.5c-1.543 0-3.481-.675-4.306-1.5-.825-.825-2.602-1.5-3.949-1.5s-3.009-.675-3.694-1.5-2.427-1.514-3.872-1.532c-1.446-.017-3.502-.692-4.569-1.5-1.068-.807-2.704-1.468-3.636-1.468-.932 0-2.983-.672-4.559-1.494-1.575-.821-3.625-1.496-4.555-1.5-.93-.003-1.969-.456-2.309-1.006-.34-.55-1.379-1.003-2.309-1.006-.93-.004-2.98-.679-4.555-1.5-1.576-.822-3.681-1.494-4.679-1.494-.998 0-2.448-.634-3.223-1.409-.775-.775-2.495-1.563-3.822-1.75-1.858-.263-2.476-1.03-2.69-3.341-.242-2.603.526-3.646 5.793-7.881 3.339-2.684 8.094-6.847 10.566-9.25 2.473-2.403 4.704-4.369 4.958-4.369.255 0 2.15-1.705 4.212-3.789 2.062-2.083 5.981-5.571 8.708-7.75 2.728-2.178 6.566-5.536 8.53-7.461 4.299-4.213 7.351-5.816 12.011-6.309a730.63 730.63 0 0 0 4.882-.531c.76-.088 2.898.777 4.75 1.922M64.764 698.92c.955.505 3.708 1.879 6.117 3.052C78.478 705.67 88 716.941 88 722.235c0 .971.45 1.765 1 1.765 1.233 0 1.363 19.288.147 21.764-.469.955-1.706 3.516-2.75 5.692-1.043 2.175-3.134 5.228-4.647 6.784-1.512 1.556-2.75 3.263-2.75 3.794 0 .532-.627.966-1.393.966s-1.652.675-1.969 1.5c-.316.825-1.209 1.5-1.984 1.5-.775 0-1.969.675-2.654 1.5-.685.825-2.038 1.5-3.008 1.5-.97 0-3.052.672-4.628 1.494-1.745.91-5.6 1.494-9.864 1.494-4.264 0-8.119-.584-9.864-1.494-1.576-.822-3.658-1.494-4.628-1.494-.97 0-2.323-.675-3.008-1.5s-1.7-1.5-2.256-1.5c-1.516 0-10.126-9.065-11.872-12.5a1890.35 1890.35 0 0 1-3.198-6.331c-1.866-3.713-2.39-19.856-.746-22.933.511-.955 1.928-3.928 3.149-6.608 2.805-6.157 9.047-12.432 15.454-15.535 2.733-1.324 5.644-2.76 6.469-3.191 2.116-1.106 19.669-1.092 21.764.018m293 .032c.955.523 3.384 1.68 5.398 2.572 5.664 2.506 14.888 11.868 16.37 16.616.406 1.298 1.239 2.681 1.853 3.073.717.459 1.115 4.924 1.115 12.5 0 9.545-.369 12.595-1.942 16.037-1.069 2.338-2.306 4.25-2.75 4.25-.445 0-.808.608-.808 1.351 0 1.411-9.477 10.649-10.924 10.649-.457 0-1.391.675-2.076 1.5s-2.038 1.5-3.008 1.5c-.97 0-3.052.672-4.628 1.494-1.745.91-5.6 1.494-9.864 1.494-4.264 0-8.119-.584-9.864-1.494-1.576-.822-3.727-1.494-4.782-1.494-1.054 0-2.176-.675-2.492-1.5-.317-.825-1.144-1.5-1.839-1.5-2.143 0-9.497-7.102-12.331-11.908-5.283-8.958-6.787-19.711-4.139-29.592.737-2.75 1.59-5.225 1.895-5.5.305-.275 1.229-1.825 2.054-3.445 1.852-3.642 10.841-12.555 12.661-12.555.735 0 1.337-.414 1.337-.921 0-.506 1.345-1.215 2.989-1.576 1.643-.361 3.245-1.072 3.559-1.58.753-1.219 19.984-1.194 22.216.029M150.182 565.5c.626 1.375 1.517 2.5 1.979 2.5.461 0 .839.527.839 1.171s.659 1.899 1.464 2.789c1.302 1.439 1.109 2.005-1.75 5.13-1.768 1.932-5.438 5.29-8.155 7.461-2.718 2.172-6.826 5.749-9.128 7.949-2.302 2.2-6.986 6.475-10.409 9.5a1817.875 1817.875 0 0 0-15.359 13.692L105 619.883v7.059c0 6.706.115 7.058 2.309 7.058 1.27 0 3.182.661 4.25 1.468 1.067.808 2.867 1.483 4 1.5 1.132.018 2.932.693 4 1.5 1.067.808 3.123 1.483 4.569 1.5 1.445.018 3.187.707 3.872 1.532.685.825 2.485 1.5 4 1.5 1.515 0 3.315.675 4 1.5s2.485 1.5 4 1.5c1.515 0 3.315.675 4 1.5s2.427 1.514 3.872 1.532c1.446.017 3.502.692 4.569 1.5 1.068.807 2.98 1.468 4.25 1.468s2.309.41 2.309.912 1.8 1.216 4 1.588c2.2.372 4 1.086 4 1.588s1.013.915 2.25.918c1.238.004 3.539.679 5.114 1.5 1.576.822 3.627 1.494 4.559 1.494.932 0 2.568.661 3.636 1.468 1.067.808 2.921 1.483 4.12 1.5 1.198.018 2.853.707 3.678 1.532.825.825 2.625 1.5 4 1.5s3.175.675 4 1.5c.825.825 2.571 1.5 3.88 1.5 1.31 0 3.254.661 4.322 1.468 1.067.808 2.841 1.497 3.941 1.532 1.1.035 2.874.724 3.941 1.532 1.068.807 2.704 1.468 3.636 1.468.932 0 2.983.672 4.559 1.494 1.575.821 3.625 1.496 4.555 1.5.93.003 1.969.456 2.309 1.006.34.55 1.379 1.003 2.309 1.006.93.004 2.98.679 4.555 1.5 1.576.822 3.627 1.494 4.559 1.494.932 0 2.568.661 3.636 1.468 1.067.808 2.867 1.483 4 1.5 1.132.018 2.932.693 4 1.5 1.067.808 2.867 1.483 4 1.5 1.132.018 2.932.693 4 1.5 1.067.808 3.123 1.483 4.569 1.5 1.445.018 3.187.707 3.872 1.532.685.825 2.54 1.5 4.122 1.5 1.583 0 2.878.43 2.878.955 0 .525 1.646 1.263 3.657 1.64 2.011.378 4.824 1.295 6.25 2.04 1.426.744 3.354 1.355 4.284 1.359.93.003 1.969.456 2.309 1.006.34.55 1.379 1.005 2.309 1.01.93.006 3.716 1.03 6.191 2.277 4.332 2.181 4.487 2.414 4.148 6.239-.194 2.186-.558 4.312-.809 4.724-.866 1.421-10.041.814-11.339-.75-.685-.825-2.427-1.514-3.872-1.532-1.446-.017-3.502-.692-4.569-1.5-1.068-.807-2.704-1.468-3.636-1.468-.932 0-2.983-.672-4.559-1.494-1.575-.821-3.625-1.496-4.555-1.5-.93-.003-1.969-.456-2.309-1.006-.34-.55-1.379-1.003-2.309-1.006-.93-.004-2.98-.679-4.555-1.5-1.576-.822-3.627-1.494-4.559-1.494-.932 0-2.568-.661-3.636-1.468-1.067-.808-2.867-1.483-4-1.5-1.132-.018-2.932-.693-4-1.5-1.067-.808-3.123-1.483-4.569-1.5-1.445-.018-3.187-.707-3.872-1.532-.685-.825-2.485-1.5-4-1.5-1.515 0-3.315-.675-4-1.5s-2.427-1.514-3.872-1.532c-1.446-.017-3.502-.692-4.569-1.5-1.068-.807-2.704-1.468-3.636-1.468-.932 0-2.983-.672-4.559-1.494-1.575-.821-3.625-1.496-4.555-1.5-.93-.003-1.969-.456-2.309-1.006-.34-.55-1.379-1.003-2.309-1.006-.93-.004-2.98-.679-4.555-1.5-1.576-.822-3.627-1.494-4.559-1.494-.932 0-2.568-.661-3.636-1.468-1.067-.808-2.867-1.483-4-1.5-1.132-.018-2.932-.693-4-1.5-1.067-.808-3.123-1.483-4.569-1.5-1.445-.018-3.187-.707-3.872-1.532-.685-.825-2.485-1.5-4-1.5-1.515 0-3.315-.675-4-1.5s-2.427-1.514-3.872-1.532c-1.446-.017-3.502-.692-4.569-1.5-1.068-.807-2.868-1.482-4-1.5-1.133-.017-2.933-.692-4-1.5-1.068-.807-2.954-1.468-4.191-1.468-1.238 0-2.528-.45-2.868-1-.34-.55-1.379-1.003-2.309-1.006-.93-.004-2.98-.679-4.555-1.5-1.576-.822-3.627-1.494-4.559-1.494-.932 0-2.568-.661-3.636-1.468-1.067-.808-2.867-1.483-4-1.5-1.132-.018-2.932-.693-4-1.5-1.067-.808-2.867-1.483-4-1.5-1.132-.018-2.932-.693-4-1.5-1.067-.808-3.123-1.483-4.569-1.5-1.445-.018-3.187-.707-3.872-1.532-.685-.825-2.26-1.5-3.5-1.5-1.24 0-2.815-.675-3.5-1.5s-1.752-1.5-2.372-1.5c-1.699 0-6.628-6.61-6.628-8.888 0-1.096-.45-2.272-1-2.612-.55-.34-1-2.365-1-4.5s.45-4.16 1-4.5c.55-.34 1-1.528 1-2.64 0-1.186 3.005-4.982 7.276-9.191 7.599-7.486 16.59-15.669 17.218-15.669.202 0 3.721-3.262 7.82-7.25 4.1-3.987 10.265-9.725 13.7-12.75 3.435-3.025 6.94-6.172 7.788-6.994 1.654-1.601 5.206-3.747 6.469-3.908.425-.054 1.284 1.027 1.911 2.402m153.987-27.732c1.022 1.023.889 1.987-.692 5-1.077 2.053-2.211 3.957-2.521 4.232-.31.275-1.623 2.525-2.918 5-3.249 6.211-4.832 9.005-7.079 12.5-1.061 1.65-2.414 4.116-3.007 5.48-.592 1.363-1.386 2.713-1.765 3-.907.687-2.603 3.52-5.399 9.02-1.259 2.475-2.85 5.095-3.538 5.821-.687.727-1.25 1.81-1.25 2.406 0 2.035-5.097 7.773-6.905 7.773-.992 0-2.921-1.012-4.288-2.25-1.367-1.237-4.02-3.125-5.896-4.194-1.876-1.069-4.068-2.594-4.871-3.388-.803-.795-3.615-2.771-6.25-4.392-2.634-1.621-4.79-3.359-4.79-3.862 0-.503-.675-.914-1.5-.914s-1.5-.464-1.5-1.031c0-.568-.787-1.321-1.75-1.674-.962-.354-4.303-2.59-7.424-4.969-3.121-2.379-6.158-4.326-6.75-4.326-.592 0-1.076-.36-1.076-.799 0-.439-1.788-1.902-3.973-3.25-2.185-1.348-3.985-2.788-4-3.201-.015-.412-.716-.75-1.558-.75-.843 0-1.791-.675-2.107-1.5-.317-.825-1.103-1.5-1.746-1.5-.644 0-2.648-1.35-4.455-3-1.806-1.65-3.559-3-3.894-3-1.582 0-4.267-3.558-4.267-5.655 0-1.29-.45-2.345-1-2.345s-1-1.094-1-2.43c0-1.721.657-2.562 2.25-2.881 1.238-.248 25.515-.392 53.951-.32 40.273.102 51.981.411 52.968 1.399m32.386-55.403c.57 2.268-.164 4.041-5.125 12.379l-1.93 3.243-101.292.007c-95.108.006-101.404-.101-103.126-1.744-2.489-2.375-3.398-5.752-2.638-9.801 1.233-6.573-4.773-6.226 109.787-6.343L335.962 480l.593 2.365m-43.146-105.512c.29.47 3.977 1.114 8.192 1.433 4.216.319 8.145 1.06 8.732 1.647.633.633 5.784 1.067 12.679 1.067 11.518 0 11.628.022 13.602 2.75 1.095 1.513 3.026 5.225 4.292 8.25 1.266 3.025 2.705 5.928 3.198 6.45.493.523.896 1.93.896 3.128 0 1.197.675 2.737 1.5 3.422s1.514 1.977 1.532 2.872c.017.896.692 2.502 1.5 3.569.807 1.068 1.468 2.7 1.468 3.628 0 .927.675 2.246 1.5 2.931s1.5 1.942 1.5 2.793c0 1.333 4.181 11.059 7.069 16.443.512.955.931 2.392.931 3.193 0 2.05-3.984 8.571-5.237 8.571-.572 0-16.502-15.5-35.401-34.444C286.258 379.368 283.513 376 289.941 376c1.618 0 3.178.384 3.468.853M149.151 537.75c.971.972.982 1.517.049 2.45-.66.66-1.203 2.347-1.207 3.75-.003 1.403-.881 3.877-1.95 5.499-3.325 5.045-7.001 5.519-42.889 5.536-38.711.018-42.573-.586-43.627-6.828-.993-5.873 1.292-10.254 5.973-11.455 1.1-.282 20.09-.443 42.201-.357 30.657.118 40.498.452 41.45 1.405m54.946 26.231c4.051 3.341 4.289 3.513 8.153 5.882 2.063 1.265 3.75 2.713 3.75 3.219 0 .505.689.918 1.531.918.843 0 1.791.675 2.107 1.5.317.825.977 1.5 1.466 1.5.799 0 10.254 6.521 15.396 10.619 1.1.876 4.138 2.934 6.75 4.573 2.613 1.639 4.75 3.391 4.75 3.894 0 .503.477.914 1.06.914 1.46 0 9.961 6.585 11.692 9.057 1.28 1.827 1.124 2.313-1.669 5.17-1.696 1.734-3.083 3.517-3.083 3.963 0 .445-1.359.81-3.02.81-2.839 0-8.917-3.122-12.07-6.199-.776-.757-3.097-2.408-5.16-3.67-2.062-1.262-3.75-2.707-3.75-3.213 0-.505-.689-.918-1.531-.918-.843 0-1.791-.675-2.107-1.5-.317-.825-.977-1.5-1.466-1.5-.49 0-3.53-1.912-6.757-4.25-3.226-2.337-6.883-4.925-8.125-5.75-1.243-.825-2.766-1.967-3.387-2.537-.62-.571-2.814-2.07-4.877-3.332-2.062-1.262-3.75-2.707-3.75-3.213 0-.505-.48-.918-1.067-.918-.586 0-2.611-1.178-4.5-2.619-3.658-2.79-4.666-6.971-1.933-8.019.825-.317 1.5-1.171 1.5-1.898 0-2.065 2.911-4.464 5.418-4.464 1.252 0 3.357.892 4.679 1.981m97.653 89.516c1.788 2.43 3.25 4.84 3.25 5.354 0 .514.675 1.194 1.5 1.511.825.316 1.5 1.264 1.5 2.107 0 .842.441 1.531.981 1.531.539 0 1.263 1.125 1.608 2.5.345 1.375.996 2.5 1.447 2.5.451 0 2.459 2.7 4.464 6 2.005 3.3 4.062 6 4.572 6 .511 0 .928.527.928 1.171s.633 1.882 1.408 2.75c1.285 1.443 1.984 4.653 1.703 7.829-.061.688-.731 1.25-1.489 1.25-.757 0-1.937.675-2.622 1.5-1.445 1.741-9 2.071-9 .394 0-.608-1.35-2.811-3-4.894s-3-4.286-3-4.894c0-.608-.464-1.106-1.031-1.106-.568 0-1.331-.787-1.696-1.75-.625-1.646-6.559-10.202-11.539-16.637-1.229-1.588-2.405-3.388-2.614-4-.21-.612-1.033-1.863-1.831-2.781-2.148-2.47-1.212-6.111 1.961-7.627 1.513-.723 2.75-1.74 2.75-2.26 0-.52 1.463-.927 3.25-.906 2.665.032 3.835.834 6.5 4.458M180.545 538.681c6.565 3.349 9.778 15.397 5.698 21.373-4.378 6.413-6.284 7.446-13.743 7.446-5.427 0-7.611-.449-9.719-2-1.495-1.1-2.732-2.514-2.75-3.143-.017-.629-.706-1.402-1.531-1.719-1.147-.44-1.5-2.321-1.5-7.989 0-7.334.044-7.457 4.059-11.472 5.378-5.379 12.137-6.245 19.486-2.496M284.638 615.5c.317.825 1.095 1.5 1.728 1.5 1.13 0 2.804 2.146 5.355 6.864 2.435 4.502 1.632 9.158-2.74 15.886-.804 1.238-1.981 2.25-2.615 2.25-.633 0-1.411.675-1.728 1.5-.436 1.137-2.282 1.5-7.638 1.5s-7.202-.363-7.638-1.5c-.317-.825-.978-1.5-1.469-1.5-1.32 0-4.888-3.804-4.925-5.25-.017-.687-.692-2.124-1.5-3.191-.807-1.068-1.468-2.894-1.468-4.059s.661-2.991 1.468-4.059c.808-1.067 1.483-2.576 1.5-3.353.018-.776 1.72-2.913 3.782-4.749 3.468-3.086 4.26-3.337 10.531-3.338 5.106-.001 6.924.37 7.357 1.499M107.75 658.115c1.54.572 2.25 1.654 2.25 3.427C110 665.303 81.294 694 77.533 694c-1.428 0-2.855-.675-3.171-1.5-.317-.825-1.203-1.5-1.969-1.5-.782 0-1.386-.986-1.378-2.25.014-2.116 5.235-8.573 15.735-19.461 2.338-2.423 4.25-4.699 4.25-5.056 0-.357 1.669-2.358 3.709-4.447 3.322-3.402 4.078-3.731 7.25-3.152 1.948.355 4.554 1.022 5.791 1.481m255.132-257.897c3.65 2.238 5.036 3.249 7.581 5.532.767.688 1.739 1.25 2.161 1.25.422 0 1.976 1.159 3.454 2.575l2.688 2.575-2.96 5.922c-3.104 6.213-6.093 9.139-8.421 8.246-.762-.293-1.385-1.329-1.385-2.303 0-.973-.675-2.33-1.5-3.015s-1.5-2.315-1.5-3.622c0-1.308-.441-2.378-.981-2.378-.539 0-1.275-1.172-1.634-2.604-.36-1.432-1.705-4.581-2.99-6.997-3.785-7.119-1.38-9.391 5.487-5.181" fill="#000000FF" stroke="#000000FF"/><path d="M341.703 716.721c-3.671.392-10.703 5.696-10.703 8.073 0 .529-.675 1.521-1.5 2.206-2.148 1.783-1.992 11.907.25 16.152.963 1.823 2.515 3.894 3.451 4.603.935.709 2.312 1.9 3.058 2.647 1.89 1.89 8.867 2.906 14.569 2.122 3.482-.479 5.798-1.583 8.481-4.041 2.03-1.859 3.705-3.966 3.723-4.682.017-.716.692-2.175 1.5-3.242 1.934-2.557 1.913-9.944-.032-11.559-.825-.685-1.515-1.977-1.533-2.872-.036-1.745-3.289-6.128-4.549-6.128-.418 0-1.471-.62-2.339-1.378-1.804-1.574-8.786-2.497-14.376-1.901m8.81 9.847c2.064.555 5.487 5.519 5.487 7.956 0 .749-.944 2.962-2.099 4.919-1.978 3.353-2.394 3.555-7.25 3.526-4.411-.027-5.431-.416-7.101-2.704-5.583-7.649 1.33-16.286 10.963-13.697M48.826 716.763c-5.292.502-12.76 8.044-12.99 13.119-.488 10.747.161 13.145 4.868 17.989l4.5 4.629H61.763l4.479-4.5c3.542-3.559 4.62-5.46 5.155-9.09 1.149-7.782-.187-12.617-4.793-17.354-3.509-3.609-4.829-4.287-9.104-4.681-2.75-.253-6.653-.303-8.674-.112m10.86 11.411c2.937 2.76 3.129 9.269.37 12.576-2.583 3.097-9.481 3.138-12.742.076-3.25-3.054-3.182-9.049.141-12.371 3.216-3.217 8.965-3.349 12.231-.281" fill="#000000FF" stroke="#000000FF"/></svg>