<svg version="1.0" xmlns="http://www.w3.org/2000/svg" width="244pt" height="368" viewBox="0 0 244 276"><path d="M136 77.69c-4.427.741-15.147 4.497-14.546 5.097.319.32-.214.643-1.186.718-2.878.222-10.417 5.445-9.65 6.685.381.617.244.843-.305.503-.548-.338-2.506.942-4.351 2.846-1.845 1.904-3.041 3.517-2.658 3.586.383.069.239.181-.32.25-1.383.17-4.993 5.801-4.368 6.813.276.446-.001.812-.616.812s-.84.45-.5 1c.34.55.21 1-.289 1-2.013 0-6.611 13.823-5.994 18.023.245 1.671.021 2.624-.536 2.28-1.63-1.007.007 24.448 2.231 34.697 1.134 5.225 2.12 11.075 2.191 13 .08 2.172.319 2.749.631 1.52.276-1.089.501 4.752.501 12.98 0 8.228-.225 14.069-.501 12.98-.345-1.359-.538-1.01-.618 1.11-.064 1.7-1.011 6.589-2.104 10.864-1.094 4.276-1.699 8.243-1.346 8.815.373.604.159.741-.511.326-1.071-.661-1.242-.258-1.555 3.655a1.14 1.14 0 0 0 1.15 1.25c.688 0 1.363.45 1.5 1 .138.55.847 1.003 1.576 1.008.729.004.991.341.583.75-.671.671.943 1.16 2.841.86.413-.065.75.32.75.856 0 1.447 5.952 4.258 7.642 3.61.804-.309 1.207-.149.895.355-.734 1.189 3.09 2.41 4.609 1.471.662-.41.895-.286.541.287-.692 1.121 6.836 3.716 8.248 2.843.492-.304 1.055-.07 1.251.519.197.589 2.24 1.212 4.542 1.383 2.301.172 3.944.553 3.649.847-.889.89 12.509 2.181 22.623 2.181 11.102 0 23.227-1.294 22.539-2.406-.263-.426.633-.563 1.991-.303 1.359.26 2.471.082 2.472-.394.002-.477 1.444-.92 3.206-.984 1.762-.064 3.357-.579 3.546-1.144.188-.565 1.291-.779 2.45-.475 1.427.373 1.88.181 1.4-.595-.449-.727-.175-.942.747-.588 1.836.705 11.809-3.512 11.084-4.687-.297-.479.233-.575 1.177-.213 1.256.483 1.497.304.898-.666-.529-.855-.431-1.084.275-.648 1.332.823 7.501-2.748 6.492-3.757-.394-.394-.014-.446.843-.117 2.976 1.142 4.276-2.006 2.883-6.982-.689-2.461-1.582-4.271-1.983-4.023-.402.248-.519-.66-.259-2.018.26-1.359.082-2.472-.394-2.474-.477-.003-1.001-2.352-1.164-5.22-.163-2.869-.613-5.454-1-5.746-.856-.646-.952-35.032-.097-35.031.758.001 2.25-12.652 2.358-19.999.045-3.025.356-4.6.693-3.5.336 1.1.628-1.825.648-6.5.02-4.675-.247-7.825-.594-7-.346.825-.691-1.627-.765-5.448-.075-3.84-.605-7.105-1.184-7.298-.578-.193-.802-1.299-.498-2.458.351-1.344.165-1.87-.513-1.451-.682.421-.862-.117-.5-1.5.384-1.468.198-1.931-.582-1.449-.727.449-.942.175-.588-.747.715-1.863-3.347-9.912-4.608-9.132-.522.323-.718-.017-.435-.755.73-1.903-9.995-13.216-11.593-12.228-.798.493-1.003.368-.562-.344.855-1.384-8.973-6.562-10.575-5.571-.665.411-.838.238-.427-.426.868-1.404-9.578-4.58-12.945-3.936-1.307.25-2.138.069-1.847-.401.52-.842-23.707-.982-28.589-.166m24.733 47.756c1.779.139 2.904.608 2.5 1.041-.403.432.491.565 1.987.294 1.496-.271 2.524-.176 2.286.209-.439.71 8.916 5.471 10.913 5.555.594.025.988.528.875 1.118-.113.589.9 2.11 2.25 3.379 1.351 1.268 2.456 2.003 2.456 1.632 0-.371-.076-.561-.169-.424-.608.899 2.482 4.675 3.374 4.123.639-.394.823-.227.437.398-.843 1.362 1.358 6.347 2.493 5.646.463-.287.574.177.247 1.031-.328.854-.166 1.552.359 1.552.893 0 .845 5.131-.177 19-.223 3.025-.445 5.05-.493 4.5-.08-.905-6.633 16.912-7.539 20.5-.208.825-.482 1.275-.608 1-.126-.275-.333-.05-.461.5s-.284.8-.348.556c-.063-.245-1.225 1.06-2.582 2.899-1.357 1.839-2.187 3.796-1.845 4.349.341.553.173.728-.375.389-.548-.338-2.506.942-4.351 2.846-1.845 1.904-3.041 3.517-2.658 3.586.757.136-.607.55-2.471.75-.641.069-.857.435-.478.813.378.379.116.814-.583.967-.7.153-3.898 1.054-7.108 2-5.086 1.501-6.563 1.557-11.5.439-3.115-.705-6.459-1.382-7.432-1.504-.972-.122-1.459-.529-1.083-.906.376-.376.159-.74-.482-.809-1.629-.174-3.234-.6-2.827-.75.187-.069-2.288-2.753-5.5-5.965-3.212-3.212-5.896-5.687-5.965-5.5-.069.187-.181-.034-.25-.491-.408-2.71-5.099-10.994-5.934-10.478-.55.34-.741.199-.424-.314s-.274-3.395-1.313-6.405c-1.039-3.009-1.936-5.022-1.994-4.472-.122 1.166-.46-2.383-1.475-15.5-.598-7.716-.432-10.224.883-13.356.89-2.121 1.327-4.328.971-4.905-.378-.611-.167-.751.506-.334.635.392 1.211.236 1.28-.346.069-.582.181-1.546.25-2.142.069-.596.463-.746.875-.334.413.413.806.225.875-.416.194-1.814.612-3.233.75-2.551.069.339 1.926-1.011 4.128-3 2.201-1.989 3.776-3.672 3.5-3.741-.277-.069-.165-.186.247-.262 2.279-.415 7.227-2.969 6.725-3.472-.324-.324.224-.636 1.218-.694 5.436-.316 6.378-.524 5.896-1.303-.291-.47.543-.65 1.852-.4 1.31.25 3.062.073 3.895-.394 1.363-.765 3.642-.75 14.397.096m.267-16.349c3.025 1.118 6.295 2.146 7.268 2.284.972.138 1.496.522 1.164.854-.54.54 2.919 2.948 4.818 3.355.413.088.441.216.063.285-.378.069.591 1.459 2.153 3.089 1.562 1.631 3.291 2.686 3.842 2.346.55-.34.732-.184.403.348-.328.532.274 2.289 1.339 3.904 1.065 1.616 1.977 2.488 2.027 1.938.049-.55.201.005.338 1.233.191 1.72-.047 1.987-1.04 1.164-.708-.588-1.827-.736-2.486-.329-.766.474-.936.317-.47-.437.84-1.358-7.834-5.611-9.431-4.624-.543.336-.988.188-.988-.329s-2.113-1.473-4.696-2.123c-7.96-2.004-28.304-1.312-28.304.963 0 .437-.833.577-1.851.311-1.018-.266-2.539.204-3.381 1.046-.841.841-1.769 1.291-2.061.999-.291-.292-1.807.162-3.369 1.008-1.561.846-2.613 1.608-2.338 1.693.275.086.05.216-.5.29-.55.074-1.116.58-1.259 1.124-.142.545-1.041.995-1.997 1-.956.006-1.74.611-1.741 1.344-.002.734-.342.995-.757.58-.414-.414-.058-1.814.792-3.111.85-1.297 1.232-2.865.849-3.485-.414-.669-.248-.849.408-.444.608.376 1.593-.23 2.19-1.345s.845-2.028.55-2.028c-.294 0-.335.113-.091.25.576.324 7.479-6.356 7.388-7.148-.038-.331-.016-.464.05-.295.065.168 1.118-.394 2.341-1.25 1.222-.856 1.784-1.594 1.25-1.64-.535-.046-.073-.242 1.027-.436 1.1-.193 4.475-1.266 7.5-2.384 3.025-1.117 7.3-2.032 9.5-2.032s6.475.915 9.5 2.032M35 31.987c0 3.646-.313 4.117-3.673 5.521-3.572 1.492-3.749 1.462-6.424-1.1l-2.75-2.636-4.494 3.757c-2.472 2.066-5.475 5.084-6.675 6.706l-2.181 2.95 2.688 2.806c2.307 2.408 2.523 3.114 1.522 4.985-.642 1.199-.953 2.738-.691 3.421.329.858-.954 1.313-4.173 1.477-2.557.131-5.005.591-5.44 1.023-.435.432-.66 4.794-.5 9.694L2.5 79.5l4.088.3c3.522.258 4.309.761 5.679 3.634 1.684 3.531 1.655 7.213-.054 6.848-.562-.12-1.544.412-2.184 1.183-1.565 1.886.533 5.01 7.07 10.521l5.043 4.252 2.827-2.708c2.429-2.327 3.135-2.545 5.007-1.543 1.199.642 2.82.921 3.602.621 1.112-.426 1.422.539 1.422 4.423V112h19v-4.094c0-3.245.412-4.201 1.989-4.613 1.094-.286 1.745-.914 1.448-1.395-.298-.481.231-.579 1.175-.217 1.226.471 1.492.297.931-.611-1.089-1.762 3.159.453 6.225 3.246l2.267 2.066 4.462-4.379c2.453-2.408 4.249-4.59 3.991-4.849-.259-.258.088-1.083.771-1.833 1.038-1.14 1.159-1.115.741.154-.331 1.005.147.838 1.421-.496 1.898-1.99 1.89-2.045-.673-4.746-2.482-2.615-3.431-8.231-1.391-8.232.471-.001.603-.662.294-1.469-.31-.807-.064-1.777.547-2.154.693-.429.828-.229.359.53-.556.9.379 1.135 3.596.904L86.5 79.5v-19l-4.551-.096c-2.963-.062-4.418-.498-4.167-1.25.211-.634.01-1.154-.449-1.155-2.025-.001-1.051-5.633 1.425-8.242l2.603-2.744-2.43-2.488c-1.337-1.369-2.206-1.812-1.931-.986.419 1.258.298 1.281-.741.14-.683-.75-1.029-1.576-.769-1.836.26-.26-1.312-2.216-3.493-4.346l-3.967-3.874-2.265 2.064c-2.685 2.446-7.284 4.961-6.371 3.485.72-1.165-3.181-2.718-4.219-1.68-.76.76-.873.17-1.05-5.492L54 28H35v3.987m17.268 23.431c.972.117 1.496.485 1.164.817-.332.332.277 1.074 1.352 1.649 4.77 2.553 6.7 13.186 3.586 19.749C56.425 81.732 49.671 86 45.13 86c-4.055 0-9.087-2.114-11.514-4.838-1.036-1.163-2.268-1.877-2.738-1.586-.47.29-.559-.244-.197-1.188.421-1.096.27-1.476-.418-1.051-.699.432-.882-.124-.522-1.586.305-1.238.203-1.928-.227-1.534-.429.394-.781-1.504-.781-4.217 0-2.713.352-4.611.781-4.217.43.395.532-.296.227-1.534-.36-1.462-.177-2.018.522-1.586.688.425.839.045.418-1.051-.362-.944-.273-1.478.197-1.188.47.291 1.66-.361 2.643-1.448.984-1.087 1.382-2.01.884-2.053-.498-.042-.013-.242 1.077-.445 1.09-.203 2.131-.818 2.314-1.367.183-.549.979-.751 1.769-.448.789.303 1.435.111 1.435-.427 0-.636 1.658-.638 4.75-.005 2.613.536 5.545 1.07 6.518 1.187" fill="#4C8513FF" stroke="#4C8513FF"/><path d="M79.102 233.693c-1.721 2.087-2.903 4.384-2.627 5.103.276.719.08 1.047-.436.728-1.262-.78-3.338 3.254-2.627 5.106.311.811.153 1.219-.351.907-1.12-.692-2.435 3.048-1.567 4.454.343.555.099 1.009-.542 1.009s-.907.675-.59 1.5c.316.825.091 1.5-.5 1.5-.592 0-.817.675-.5 1.5.316.825.087 1.5-.51 1.5-.615 0-.88 1.071-.613 2.47.26 1.358.116 2.249-.319 1.98-1.016-.627-2.345 8.053-1.454 9.495.37.598 1.091.829 1.603.512.512-.316.931-.098.931.484 0 1.464 164.332 1.487 167.066.024 2.011-1.076 2.827-6.965.965-6.965-.532 0-.712-.669-.398-1.486.78-2.032-3.477-15.728-4.661-14.997-.522.323-.69-.088-.374-.912.701-1.828-4.894-12.595-8.119-15.625-2.19-2.057-2.479-2.093-4.63-.587-1.262.884-1.856 1.641-1.322 1.684.535.042.211.223-.72.403-1.723.332-6.64 3.425-5.78 3.635.26.064.023.176-.527.25-2.567.346-7.417 2.961-6.935 3.74.296.479-.159.604-1.013.277-.854-.328-1.552-.148-1.552.4s-.562.975-1.25.949c-3.136-.116-4.822.344-4.308 1.176.309.498-.41.653-1.597.342-1.607-.42-1.951-.229-1.347.748.544.88.422 1.071-.372.581-.651-.402-5.333.303-10.404 1.567-8.153 2.032-11.656 2.298-30.222 2.298-19.594 0-21.77-.187-32.5-2.799-6.325-1.54-12.175-2.877-13-2.972-.825-.095-2.121-.76-2.879-1.48-.758-.719-2.019-1.061-2.802-.761-.902.346-1.161.122-.707-.612.483-.781.157-.944-1-.5-1.019.391-1.468.257-1.105-.33.566-.916.119-1.108-3.248-1.402-.683-.059-1.251-.553-1.262-1.098-.01-.544-.577-1.05-1.258-1.124-.682-.074-1.066-.186-.854-.25.212-.063-.801-1.048-2.25-2.188-1.449-1.139-2.691-1.814-2.76-1.5-.069.315-.181.017-.25-.663-.27-2.674-3.522-1.713-6.523 1.929M102.215 9.248c-.987 3.811-3.531 4.681-6.315 2.162-1.884-1.706-2.086-1.634-5.925 2.115-4.045 3.95-4.842 6.208-2.881 8.169 1.946 1.946.566 4.759-2.606 5.308-2.957.512-2.988.586-2.988 6.998s.031 6.486 2.988 6.998c3.172.549 4.552 3.362 2.606 5.308-1.961 1.961-1.164 4.219 2.881 8.169 3.875 3.784 4.024 3.836 5.976 2.069 1.101-.996 1.761-2.201 1.466-2.678-.294-.476-.058-.866.524-.866.582 0 1.059.477 1.059 1.059s.429.794.953.47c.525-.324 1.442 1.224 2.039 3.441l1.085 4.03h5.868c5.427 0 5.827-.154 5.331-2.054-.633-2.418 2.517-5.83 4.746-5.142.813.251 2.278 1.154 3.256 2.007 1.64 1.429 2.126 1.209 6.237-2.826 4.28-4.2 4.397-4.47 2.919-6.726-2.067-3.155-1.002-6.059 2.364-6.447 2.627-.303 2.702-.493 2.702-6.812s-.075-6.509-2.702-6.812c-3.366-.388-4.431-3.292-2.364-6.447 1.478-2.256 1.361-2.526-2.919-6.726-4.111-4.035-4.597-4.255-6.237-2.826-.978.853-2.443 1.756-3.256 2.007-2.229.688-5.379-2.724-4.746-5.142.496-1.9.096-2.054-5.341-2.054-5.791 0-5.89.048-6.72 3.248M114 24.758c.825.692 1.905 1.142 2.4 1 1.108-.317 1.984 3.561 1.862 8.242-.151 5.773-.836 8.313-2.339 8.664-5.895 1.373-10.91 1.876-11.162 1.119-.164-.491-1.155-1.018-2.202-1.172-3.9-.572-3.9-16.65 0-17.222 1.047-.154 2.025-.642 2.172-1.085.426-1.282 7.619-.93 9.269.454" fill="#4C8513FF" stroke="#4C8513FF"/></svg>