<svg version="1.0" xmlns="http://www.w3.org/2000/svg" width="536pt" height="736pt" viewBox="0 0 536 736"><path d="M178.582 161.562c-3.805.756-7.382 1.838-7.95 2.406-.568.568-2.067 1.032-3.332 1.032-1.265 0-2.3.363-2.3.808 0 .444-1.912 1.595-4.25 2.558-2.337.963-4.925 2.152-5.75 2.642-.825.49-4.425 2.373-8 4.186-3.575 1.812-6.725 3.557-7 3.876-.275.319-2.062 1.447-3.97 2.505-1.909 1.059-3.934 2.266-4.5 2.683-.567.416-4.63 3.313-9.03 6.437-9.903 7.03-28.07 25.104-32.612 32.446-1.864 3.012-3.953 6.35-4.644 7.417-.691 1.068-1.522 2.617-1.847 3.442-.794 2.017-3.488 8.085-4.544 10.236-.469.955-.853 2.588-.853 3.628 0 1.041-.675 3.507-1.5 5.482-2.085 4.989-2.085 26.319 0 31.308.825 1.975 1.5 4.591 1.5 5.814 0 2.011 1.531 6.068 4.064 10.768.515.955.936 2.418.936 3.25 0 .833.363 1.514.808 1.514.444 0 1.645 1.913 2.669 4.25 1.691 3.858 6.502 10.984 11.945 17.691 3.244 3.998 21.584 22.145 26.58 26.301 2.474 2.058 5.042 4.195 5.706 4.75.664.554 1.639 1.008 2.166 1.008.528 0 1.109.341 1.293.757.569 1.294 8.559 7.243 9.727 7.243.608 0 1.106.348 1.106.773 0 1.667 11.715 6.227 16 6.227 2.567 0 8.607-1.718 11-3.128a41.932 41.932 0 0 1 2.971-1.57c2.529-1.179 6.455-5.749 8.279-9.638 1.194-2.547 1.75-6.188 1.75-11.466 0-6.729-.346-8.243-2.665-11.656-3.056-4.498-6.339-7.609-11.335-10.742-1.925-1.207-3.725-2.455-4-2.773-.275-.318-2.525-2.139-5-4.045-2.475-1.907-4.65-3.808-4.833-4.225-.184-.416-.817-.757-1.409-.757-1.431 0-21.626-20.636-22.863-23.363-.533-1.175-2.527-5.047-4.432-8.604-3.092-5.774-3.463-7.292-3.463-14.178 0-5.522.426-8.138 1.5-9.212.825-.825 1.5-2.432 1.5-3.572 0-1.139.45-2.071 1-2.071s1-.668 1-1.485c0-1.848 15.169-17.264 20.243-20.574 2.059-1.342 3.746-2.778 3.75-3.191.004-.412.682-.75 1.507-.75.825 0 1.5-.348 1.5-.773 0-.425 1.609-1.639 3.575-2.697 4.528-2.439 6.648-1.3 7.582 4.073.372 2.143 1.164 5.164 1.76 6.712.596 1.548 1.083 4.309 1.083 6.136 0 1.826.672 4.609 1.494 6.185.821 1.575 1.496 4.3 1.5 6.055.003 1.755.456 3.469 1.006 3.809.55.34 1 2.34 1 4.445 0 2.104.672 5.115 1.494 6.691.821 1.575 1.496 3.957 1.5 5.293.003 1.336.417 3.811.919 5.5 1.561 5.246 3.197 11.878 4.089 16.571.47 2.475 1.599 7.425 2.508 11s1.869 8.075 2.133 10c.265 1.925.906 4.4 1.426 5.5.952 2.017 2.398 8.21 3.852 16.5.434 2.475 1.304 5.767 1.934 7.315 1.468 3.608 1.476 14.174.015 18.692-.621 1.921-1.473 6.193-1.894 9.493-1.473 11.544-2.988 20.017-3.933 22-.525 1.1-1.173 4.475-1.441 7.5-.751 8.479-3.016 21.761-3.852 22.59-.412.409-.75 3.114-.75 6.012 0 2.897-.483 6.535-1.074 8.083-.59 1.548-1.492 5.965-2.005 9.815-2.295 17.252-2.951 20.93-3.904 21.883-.56.56-1.017 3.258-1.017 5.996 0 2.738-.419 6.361-.931 8.05-1.088 3.587-2.823 13.345-4.015 22.571-1.232 9.544-3.076 20.067-4.13 23.571-.508 1.689-.924 4.966-.924 7.282s-.675 5.827-1.5 7.801c-.825 1.975-1.5 5.984-1.5 8.909 0 2.925-.387 5.558-.861 5.851-.473.293-1.097 3.474-1.386 7.069-.288 3.595-.984 7.095-1.546 7.777-.563.682-1.235 4.165-1.495 7.74-.259 3.575-1.231 10.55-2.16 15.5-.929 4.95-2.053 11.925-2.497 15.5-.445 3.575-1.314 7.767-1.932 9.315-.618 1.548-1.123 5.009-1.123 7.691 0 2.682-.45 5.154-1 5.494-.55.34-1 2.886-1 5.658 0 2.772-.649 6.458-1.442 8.191-.793 1.733-1.728 6.076-2.077 9.651-.991 10.157-.939 29.184.088 32.513 2.77 8.968 15.626 21.066 24.431 22.991 4.515.987 18.485.987 23 0 7.253-1.585 21-13.053 21-17.517 0-.543.43-.987.955-.987.525 0 1.251-1.58 1.613-3.511.362-1.931 1.058-3.758 1.545-4.059.488-.301.887-2.212.887-4.246 0-2.033.508-5.269 1.13-7.191.621-1.921 1.498-6.193 1.949-9.493 2.047-14.979 2.948-20.14 3.838-22 .527-1.1 1.195-4.7 1.484-8 .289-3.3 1.219-9.825 2.065-14.5.847-4.675 1.968-11.772 2.491-15.771.523-3.999 1.301-7.824 1.73-8.5.429-.676 1.106-3.929 1.504-7.229 1.803-14.94 2.773-20.754 3.642-21.835.516-.641 1.189-4.09 1.497-7.665.307-3.575 1.273-10.325 2.145-15 .873-4.675 1.983-11.65 2.467-15.5.484-3.85 1.371-8.267 1.969-9.815.599-1.548 1.089-5.009 1.089-7.691 0-2.682.387-5.115.861-5.408.473-.293 1.097-3.474 1.386-7.069.288-3.595.983-7.095 1.543-7.777.561-.682 1.256-3.94 1.546-7.24.935-10.65 2.641-21.588 3.665-23.503.55-1.026 1.015-3.808 1.035-6.181.019-2.374.687-7.016 1.484-10.316.797-3.3 1.456-7.661 1.464-9.691.009-2.03.466-3.969 1.016-4.309.55-.34 1.025-2.954 1.056-5.809.079-7.354 3.001-14.191 6.064-14.191 3.002 0 5.764 5.298 5.832 11.185.026 2.302.553 5.452 1.171 7s1.501 5.74 1.962 9.315c.461 3.575 1.573 10.55 2.471 15.5.898 4.95 1.856 12.149 2.13 15.998.274 3.848.926 7.262 1.449 7.586.879.542 1.811 5.978 3.674 21.416.398 3.3 1.081 6.564 1.519 7.254.437.689 1.19 4.289 1.673 8 .483 3.71 1.635 10.796 2.559 15.746.924 4.95 1.893 11.925 2.152 15.5.26 3.575.941 7.069 1.515 7.765.573.695 1.268 4.419 1.544 8.275.276 3.856.89 7.251 1.365 7.544.475.294.864 3.117.864 6.275 0 3.158.47 6.211 1.044 6.785.575.575 1.459 4.152 1.965 7.95 1.983 14.866 3.012 21.022 3.981 23.805.556 1.595 1.01 5.112 1.01 7.816 0 2.704.436 5.731.968 6.726 1.058 1.976 2.882 13.089 3.703 22.559.286 3.3.95 6.524 1.476 7.165s1.4 4.466 1.941 8.5c.542 4.034 1.325 9.81 1.741 12.835.416 3.025 1.3 6.483 1.964 7.684.664 1.202 1.207 2.899 1.207 3.772 0 2.125 4.781 9.359 8.5 12.861 12.178 11.466 31.214 13.986 44.814 5.933 2.09-1.237 4.086-2.25 4.435-2.25.349 0 2.354-1.912 4.456-4.25 5.375-5.978 5.795-6.536 5.795-7.708 0-.573.45-1.042 1-1.042s1.003-.787 1.006-1.75c.004-.962.679-3.039 1.5-4.614 1.774-3.401 2.087-20.659.432-23.753-.585-1.092-1.326-5.127-1.648-8.966-.322-3.84-.969-7.219-1.438-7.508-.468-.29-.852-3.11-.852-6.268s-.47-6.211-1.044-6.785c-.971-.971-1.814-5.909-3.829-22.439-.441-3.62-1.138-7.127-1.55-7.792-.411-.665-1.145-4.453-1.631-8.417-.487-3.964-1.619-11.033-2.516-15.708-.898-4.675-1.853-11.425-2.123-15-.27-3.575-.911-7.009-1.424-7.632-.913-1.109-2.182-8.336-3.764-21.451-.437-3.62-1.12-7.109-1.518-7.753-.398-.644-1.131-4.207-1.629-7.918-2.445-18.229-3.055-21.919-3.976-24.043-.548-1.263-.996-4.886-.996-8.05 0-3.164-.42-6.18-.933-6.703-1.043-1.062-2.963-11.8-3.745-20.95-.282-3.3-.915-6.49-1.406-7.089-.491-.599-1.348-4.536-1.905-8.75l-2.012-15.229c-.551-4.163-1.451-8.408-2-9.435-.55-1.026-.999-4.376-.999-7.445 0-3.068-.438-6.361-.974-7.316-1.162-2.071-3.008-12.385-3.711-20.736-.278-3.3-.888-6.467-1.356-7.037-.791-.965-2.222-9.434-3.795-22.463-.365-3.025-.354-7.525.024-10 1.49-9.744 2.79-15.378 3.778-16.366.569-.569 1.034-2.942 1.034-5.275s.387-4.48.86-4.773c.474-.292 1.149-2.636 1.502-5.208.352-2.572 1.042-5.172 1.532-5.777.49-.606 1.119-3.126 1.398-5.601.279-2.475 1.048-6.525 1.708-9a275.726 275.726 0 0 0 2-8 330.027 330.027 0 0 1 1.972-8 168.22 168.22 0 0 0 2.035-9c1.858-9.711 3.024-14.334 3.882-15.393.493-.609 1.125-3.132 1.405-5.607s1.255-7.425 2.167-11c.912-3.575 2.067-8.714 2.565-11.42.499-2.707 1.485-5.287 2.191-5.735 1.797-1.141 4.783-1.044 4.783.155 0 .55.474 1 1.053 1 3.614 0 27.782 21.275 30.045 26.449.493 1.128 1.296 2.726 1.784 3.551 2.759 4.668 3.562 7.94 3.562 14.5 0 6.52-.71 9.458-3.508 14.5-.458.825-1.753 3.197-2.879 5.271-2.72 5.012-11.891 15.051-22.229 24.336C378.837 317.19 364.37 328 363.565 328c-1.172 0-4.881 3.732-8.286 8.336-3.413 4.616-3.578 5.218-3.629 13.169-.04 6.399.395 9.164 1.876 11.914 1.061 1.969 2.276 3.581 2.701 3.581.425 0 .773.578.773 1.284 0 .707 1.463 2.135 3.25 3.175 1.788 1.04 3.475 2.157 3.75 2.482.702.831 9.584 3.059 12.193 3.059 2.405 0 8.487-1.761 10.807-3.128a40.822 40.822 0 0 1 3-1.577c.825-.381 2.62-1.728 3.99-2.994 1.369-1.265 3.019-2.301 3.666-2.301.648 0 1.327-.358 1.511-.796.183-.437 2.583-2.483 5.333-4.546 14.475-10.857 35.581-31.9 38.903-38.786.496-1.03 1.284-1.872 1.75-1.872.466 0 .847-.675.847-1.5s.401-1.5.892-1.5c.49 0 1.174-1.125 1.519-2.5s1.069-2.5 1.608-2.5c.54 0 .981-.556.981-1.236 0-.679 1.064-3.492 2.364-6.25 4.46-9.458 5.636-12.586 5.636-14.989 0-1.324.45-2.685 1-3.025.599-.37 1-6.991 1-16.5s-.401-16.13-1-16.5c-.55-.34-1-1.855-1-3.368 0-1.512-.661-3.623-1.468-4.691-.808-1.067-1.483-2.916-1.5-4.108-.018-1.191-.369-2.316-.782-2.5-.412-.183-1.634-2.133-2.714-4.333-2.609-5.312-7.63-13.176-11.171-17.496-7.004-8.545-23.588-23.79-27.436-25.222-1.061-.395-1.929-1.182-1.929-1.75 0-.567-.482-1.032-1.071-1.032-.59 0-1.699-.562-2.466-1.25-2.584-2.318-3.949-3.242-7.713-5.227-2.062-1.088-3.75-2.325-3.75-2.75 0-.425-.873-.773-1.941-.773s-2.187-.398-2.487-.883c-.806-1.304-22.945-12.117-24.809-12.117-.878 0-1.753-.469-1.944-1.042-.191-.574-3.941-1.683-8.333-2.466-11.497-2.048-168.548-1.987-178.904.07" fill="#000000FF" stroke="#000000FF"/><path d="M431.851 348.856C423.052 357.649 421.48 359 420.042 359c-.573 0-1.042.675-1.042 1.5s-.337 1.501-.75 1.501c-.412.001-1.946 1.013-3.407 2.25s-3.654 2.924-4.872 3.749c-1.219.825-2.804 2.063-3.522 2.75-.718.688-1.583 1.25-1.921 1.25-.339 0-1.829 1.125-3.311 2.5-1.483 1.375-3.264 2.5-3.957 2.5-.693 0-1.26.348-1.26.773 0 2.372-13.787 7.193-20.628 7.212-6.074.018-14.666-3.043-20.275-7.223-2.578-1.921-4.05-1.63-2.344.464 1.089 1.338 3.059 12.439 3.863 21.774.26 3.025.912 6.4 1.449 7.5.92 1.886 1.874 7.407 3.889 22.5.478 3.575 1.358 8.072 1.957 9.993.599 1.922 1.089 5.784 1.089 8.584 0 2.799.338 5.423.75 5.83.884.872 3.187 13.741 3.865 21.593.261 3.025.913 6.4 1.45 7.5.96 1.967 2.25 9.604 3.816 22.583.437 3.62 1.13 7.127 1.542 7.792.411.665 1.145 4.453 1.631 8.417 2.047 16.695 2.869 21.696 3.879 23.582.587 1.097 1.067 4.409 1.067 7.36 0 2.951.408 5.794.906 6.316.857.9 2.114 7.819 4.078 22.45 1.059 7.887 2.957 16.96 3.975 19 .523 1.048 2.977 1.661 8.145 2.035 4.068.294 7.977.895 8.688 1.335.711.44 4.536 1.179 8.5 1.643 17.13 2.003 24.134 3.095 25.137 3.918.589.483 3.771 1.106 7.071 1.384 8.351.703 18.665 2.549 20.736 3.711.955.536 3.798.974 6.316.974 2.519 0 5.454.468 6.522 1.04 1.069.572 4.977 1.49 8.685 2.04 3.707.551 8.267 1.265 10.132 1.587 3.317.572 3.375.522 2.68-2.291-.39-1.582-1.142-6.643-1.67-11.246-.527-4.604-1.396-9.187-1.93-10.184-.534-.998-.971-4.454-.971-7.68s-.408-6.294-.906-6.816c-.965-1.012-2.926-12.353-3.71-21.45-.26-3.025-.912-6.4-1.449-7.5-.537-1.1-1.403-4.925-1.925-8.5s-1.395-9.534-1.94-13.241c-.545-3.708-1.458-7.616-2.03-8.685-.572-1.068-1.04-3.778-1.04-6.022 0-2.243-.429-4.861-.954-5.816-1.022-1.86-2.87-10.887-3.732-18.236-.291-2.475-.91-4.971-1.376-5.547-.834-1.032-2.341-8.159-3.795-17.953-.408-2.75-1.283-5.983-1.943-7.184-.66-1.202-1.2-3.988-1.2-6.191 0-2.204-.391-4.248-.868-4.544-.478-.295-1.166-2.778-1.529-5.517-.364-2.74-1.098-5.252-1.632-5.582-.534-.33-.971-2.347-.971-4.482 0-2.135-.437-4.152-.971-4.482-.534-.33-1.268-2.842-1.632-5.582-.363-2.739-1.051-5.222-1.529-5.517-.477-.296-.868-2.034-.868-3.864 0-1.829-.672-4.615-1.494-6.191-.821-1.575-1.496-4.3-1.5-6.055-.003-1.755-.456-3.469-1.006-3.809-.55-.34-1.014-2.054-1.032-3.809-.017-1.755-.692-4.065-1.5-5.132-.807-1.068-1.468-3.211-1.468-4.764 0-1.552-.418-3.604-.928-4.559-1.243-2.327-4.072-11.746-4.072-13.56 0-.796-.672-2.736-1.494-4.312-.821-1.575-1.496-4.101-1.5-5.614-.003-1.512-.456-2.75-1.006-2.75s-1.014-1.462-1.032-3.25c-.017-1.787-.692-4.124-1.5-5.191-.807-1.068-1.468-2.98-1.468-4.25 0-4.025-3.129-2.468-11.149 5.547M93.607 342.582c-.334.87-.607 2.445-.607 3.5 0 1.055-.45 1.918-1 1.918s-1 1.155-1 2.566c0 1.411-.529 3.548-1.175 4.75-.646 1.201-1.517 3.759-1.934 5.684-1.762 8.125-3.064 12.558-3.948 13.45-.519.523-.943 1.788-.943 2.812 0 2.144-2.698 11.403-4.072 13.974-.51.955-.944 2.98-.963 4.5-.02 1.52-.679 3.889-1.465 5.264-.786 1.375-1.445 3.936-1.465 5.691-.019 1.755-.485 3.469-1.035 3.809-.55.34-1 1.986-1 3.658s-.64 4.458-1.422 6.191c-.782 1.733-1.645 4.726-1.917 6.651-.817 5.78-2.812 13.437-3.766 14.45-.492.523-.895 2.465-.895 4.316s-.482 4.266-1.071 5.366c-1.033 1.932-2.07 6.623-3.881 17.562-.473 2.856-1.226 5.781-1.674 6.5-.448.718-1.139 3.556-1.537 6.306-1.375 9.515-2.932 16.909-3.78 17.953-.468.576-1.095 3.297-1.394 6.047-.781 7.199-3.039 18.209-3.914 19.085-.412.411-.749 2.894-.749 5.517 0 2.622-.502 6.035-1.115 7.583-.614 1.548-1.497 5.515-1.962 8.815-2.371 16.797-2.96 20.16-3.858 22-.537 1.1-1.189 4.475-1.45 7.5-.78 9.023-2.572 20.362-3.558 22.5-.507 1.1-1.16 5.375-1.45 9.5-.29 4.125-.834 8.794-1.208 10.376-.664 2.808-.601 2.862 2.71 2.297 1.865-.319 6.515-1.081 10.333-1.694 3.818-.613 7.726-1.534 8.684-2.046.958-.513 3.932-.933 6.608-.933 2.676 0 5.293-.408 5.816-.906.985-.939 10.547-2.785 20.95-4.043 3.3-.4 6.713-1.044 7.584-1.432 1.581-.704 9.748-1.919 23.916-3.558 4.125-.477 8.767-1.361 10.315-1.964s5.431-1.097 8.628-1.097c3.452 0 6.217-.508 6.808-1.25.548-.687 1.264-3.5 1.591-6.25.328-2.75 1.3-8.825 2.162-13.5.861-4.675 1.96-11.425 2.442-15 .482-3.575 1.366-8.072 1.965-9.993.599-1.922 1.089-5.158 1.089-7.191 0-2.034.45-3.976 1-4.316.55-.34 1-3.081 1-6.091 0-3.01.675-7.089 1.5-9.063.825-1.975 1.5-5.554 1.5-7.954 0-2.4.432-6.282.961-8.628 1.347-5.979 2.989-15.124 4.087-22.764 1.721-11.977 3.445-20.837 4.202-21.588.413-.41.75-3.116.75-6.014 0-2.897.505-6.535 1.123-8.083s1.502-5.74 1.965-9.315c2.448-18.919 2.998-22.292 3.913-24.003.55-1.026.999-3.689.999-5.917 0-2.228.44-5.97.977-8.316 1.848-8.067 3.184-15.277 3.94-21.264.417-3.3 1.104-6.787 1.528-7.75.553-1.26.319-1.75-.838-1.75-.884 0-1.607.429-1.607.953 0 2.189-13.763 7.018-20 7.018-4.339 0-10.785-1.708-16-4.238-3.342-1.622-23.971-16.522-26.514-19.151-1.108-1.145-3.583-3.261-5.5-4.702-1.917-1.44-6.393-5.603-9.947-9.25-6.666-6.841-8.39-7.764-9.432-5.048M263.495 12.531c-.604.93-3.154 1.746-6.495 2.079-3.025.301-6.4.932-7.5 1.401-1.1.47-3.8 1.597-6 2.505-2.2.908-4.675 2.076-5.5 2.596-.825.52-2.287 1.21-3.25 1.534-.962.323-1.75.985-1.75 1.471 0 .485-.615.883-1.366.883C229.394 25 215 39.717 215 42.008a.99.99 0 0 1-.981.992c-.539 0-1.263 1.125-1.608 2.5-.345 1.375-1.029 2.5-1.519 2.5-.491 0-.892.868-.892 1.929 0 1.06-.675 2.603-1.5 3.428-.825.825-1.5 2.567-1.5 3.872 0 1.304-.561 2.932-1.247 3.618-.883.883-1.248 5.542-1.25 15.95-.003 14.542.885 20.252 4.099 26.357.769 1.46 1.398 3.373 1.398 4.25 0 .878.401 1.596.892 1.596.49 0 1.174 1.125 1.519 2.5s1.069 2.5 1.608 2.5c.54 0 .988.563.996 1.25.008.688 3.496 4.625 7.75 8.75 7.866 7.627 10.361 9.597 13.485 10.646.963.323 1.75.985 1.75 1.471 0 .485.8.883 1.777.883.978 0 2.666.613 3.75 1.363 1.085.749 3.323 1.622 4.973 1.938 1.65.317 5.025 1.034 7.5 1.594 5.59 1.265 19.16 1.323 24.5.106 2.2-.501 5.35-1.199 7-1.55 3.89-.827 13.044-5.217 17.5-8.392 5.272-3.757 16.501-15.516 18.389-19.258a240.533 240.533 0 0 1 2.483-4.801c2.392-4.391 3.129-6.093 3.134-7.236.004-.695.73-2.614 1.614-4.264 2.346-4.378 2.358-31.671.015-36-.892-1.65-1.625-3.761-1.629-4.691-.003-.93-.456-1.969-1.006-2.309-.55-.34-1-1.318-1-2.175 0-2.274-8.489-14.67-13.226-19.314-2.244-2.199-6.373-5.456-9.177-7.237-2.803-1.781-5.247-3.583-5.43-4.006-.184-.422-1.17-.768-2.191-.768-1.022 0-2.136-.45-2.476-1-.34-.55-1.311-1-2.158-1s-2.958-.635-4.691-1.411c-1.733-.776-5.374-1.631-8.09-1.899-2.907-.287-5.421-1.146-6.11-2.088-1.542-2.109-8.599-2.159-9.956-.071M266.628 462.095c-.363 3.903-1.103 7.923-1.644 8.935-.541 1.011-.984 3.646-.984 5.855 0 2.21-.675 6.609-1.5 9.776-.825 3.168-1.5 7.438-1.5 9.49 0 2.052-.45 4.009-1 4.349-.55.34-1 2.856-1 5.591 0 2.735-.675 6.589-1.5 8.563-.825 1.975-1.5 5.984-1.5 8.909 0 2.925-.45 5.597-1 5.937-.55.34-1 2.732-1 5.316 0 2.583-.49 6.269-1.089 8.191-.599 1.921-1.456 6.418-1.904 9.993-1.55 12.356-3.121 21.506-3.96 23.073-.463.865-1.001 4.399-1.195 7.854l-.352 6.281 22.75.146 22.75.146-.044-5c-.024-2.75-.692-6.8-1.485-9-.792-2.2-1.448-6.144-1.456-8.764-.008-2.62-.448-5.545-.976-6.5-1.073-1.938-3.049-14.552-3.718-23.736-.24-3.3-1.086-7.418-1.879-9.151-.793-1.733-1.442-5.419-1.442-8.191 0-2.772-.45-5.318-1-5.658-.55-.34-1-2.785-1-5.433 0-2.649-.675-6.729-1.5-9.067s-1.5-6.37-1.5-8.959c0-2.589-.337-5.044-.75-5.455-.97-.968-3.152-14.051-3.891-23.336-.776-9.742-2.832-9.827-3.731-.155M375.573 240.25c-.255 1.238-.685 3.6-.954 5.25-1.011 6.193-2.638 13.067-3.55 15-.52 1.1-1.175 3.575-1.455 5.5-.838 5.747-3.092 14.812-3.88 15.599-.404.404-.734 2.489-.734 4.633 0 2.145-.482 4.8-1.071 5.9-.589 1.101-1.506 4.334-2.039 7.185-.533 2.85-1.386 7.395-1.895 10.099-.51 2.704-1.392 5.381-1.961 5.95-.569.569-1.027 2.182-1.019 3.584.009 1.403.346 2.09.75 1.527s2.085-1.881 3.735-2.93c11.926-7.582 35.5-30.453 35.5-34.441 0-.608.45-1.106 1-1.106s1.014-.787 1.032-1.75c.017-.962.692-2.624 1.5-3.691 1.664-2.2 2.048-13.083.495-14.042-.536-.331-1.724-2.183-2.641-4.116-2.348-4.949-15.795-18.401-18.394-18.401a1 1 0 0 1-.992-1c0-2.016-2.976-.93-3.427 1.25M153.504 241.78c-5.717 4.257-12.179 10.786-13.579 13.72-.525 1.1-1.815 3.35-2.867 5-2.474 3.882-2.677 12.927-.394 17.596 2.047 4.188 6.687 11.085 9.635 14.325 1.21 1.33 2.898 3.242 3.749 4.249 1.836 2.17 12.137 11.089 15.261 13.215 1.205.82 3.101 2.443 4.213 3.608s2.687 2.424 3.5 2.798c.813.375 2.563 1.465 3.888 2.423l2.41 1.743-.748-2.979c-.412-1.638-.982-5.003-1.268-7.478-.285-2.475-.941-5.021-1.457-5.657-.895-1.104-1.915-5.673-3.79-16.965-.467-2.817-1.346-6.05-1.953-7.184-.607-1.135-1.104-3.448-1.104-5.142 0-1.693-.432-3.861-.96-4.816-1.105-2.001-2.988-9.908-3.745-15.736-.286-2.2-.935-4.515-1.442-5.144-.507-.629-1.194-3.442-1.527-6.25-.332-2.808-1.104-5.092-1.715-5.076-.611.017-3.359 1.705-6.107 3.75" fill="#000000FF" stroke="#000000FF"/></svg>