<svg version="1.0" xmlns="http://www.w3.org/2000/svg" width="892pt" height="886pt" viewBox="0 0 892 886"><path d="M402.5 344.269c-14.83 5.219-25.132 16.013-28.855 30.231-1.398 5.341-1.391 103.332.009 109.5 1.027 4.532 5.922 14.214 7.498 14.833.466.184.848.746.848 1.25 0 2.69 14.599 12.917 18.439 12.917.796 0 3.047.944 5.004 2.099l3.557 2.099v52.914c0 38.065.324 53.543 1.155 55.152.636 1.23 1.539 2.911 2.007 3.736a50.681 50.681 0 0 1 1.54 2.98c1.151 2.473 7.585 7.92 11.298 9.566 1.925.853 4.281 1.979 5.236 2.502 2.233 1.224 29.462 1.25 30.216.029.314-.508 1.965-1.229 3.669-1.604 1.704-.374 4.029-1.421 5.168-2.326 4.86-3.867 8.495-7.8 9.147-9.897.384-1.237 1.067-2.25 1.518-2.25 1.96 0 2.4-9.476 2.731-58.694l.35-52.195 2.887-2.055c1.588-1.131 3.803-2.056 4.923-2.056s2.308-.438 2.638-.973c.331-.536 2.163-1.714 4.071-2.619 5.282-2.507 14.22-11.871 16.657-17.452 1.19-2.726 2.529-4.956 2.976-4.956.447 0 .813-26.27.813-58.378 0-50.671-.198-58.541-1.5-59.622-.825-.685-1.5-2.09-1.5-3.122 0-1.033-.343-1.878-.763-1.878-.719 0-2.38-2.643-3.772-6-1.474-3.558-15.566-13-19.402-13-1.07 0-2.223-.45-2.563-1-.863-1.397-81.987-1.144-86 .269M436.559 243.532c-1.068.807-2.777 1.468-3.798 1.468-3.5 0-18.761 11.292-18.761 13.882 0 .615-.348 1.118-.773 1.118-.874 0-3.765 5.353-4.726 8.75-.35 1.238-1.055 2.25-1.568 2.25-.522 0-.933 4.959-.933 11.25-.001 10.703.157 11.564 3.25 17.703 4.096 8.134 11.53 15.719 19.175 19.566 5.667 2.851 6.475 2.978 18.5 2.917 11.882-.06 12.851-.219 17.575-2.881 4.892-2.757 16.5-13.556 16.5-15.351 0-.498 1.125-3.022 2.5-5.608 2.222-4.178 2.5-5.903 2.5-15.489 0-10.021-.216-11.221-3.045-16.882-2.913-5.828-10.788-15.187-13.955-16.585-.825-.364-2.85-1.524-4.5-2.578-1.65-1.054-3.98-1.949-5.179-1.989-1.198-.04-2.853-.748-3.678-1.573-2.065-2.065-16.344-2.041-19.084.032M103.5 415.04c-2.832.811-18.868 2.537-33.694 3.628-4.033.296-7.162 1.056-7.872 1.912-.649.781-1.711 1.42-2.36 1.42-.65 0-2.732 1.6-4.628 3.555l-3.446 3.554v29.542l3 2.945c3.722 3.654 10.932 5.441 26 6.444 6.05.402 15.197 1.233 20.327 1.846 5.13.612 10.53.822 12 .465 2.705-.655 8.145-5.814 8.206-7.781.019-.589.878-2.082 1.911-3.32 1.769-2.121 2.62-2.25 14.813-2.25 14.291 0 17.641-.942 21.218-5.965 1.494-2.098 2.025-4.422 2.025-8.862 0-5.388-.323-6.342-3.077-9.096L154.846 430H125.223l-3.992-6.367c-5.436-8.67-9.904-10.835-17.731-8.593M435.514 732.041l-2.986 2.926-.365 14.766c-.386 15.614-.928 17.457-5.545 18.86-1.165.354-3.859 2.485-5.986 4.736l-3.868 4.092.613 7.039c2.075 23.8 4.377 41.294 5.731 43.54a35.957 35.957 0 0 1 1.59 3c.378.825 2.027 2.85 3.666 4.5 2.968 2.988 3.031 3.001 16.205 3.346 22.14.578 23.385-.829 25.517-28.846.524-6.875 1.393-13.805 1.933-15.399.54-1.595.981-6.249.981-10.342 0-8.62-1.18-10.728-8.784-15.698l-4.716-3.081-.552-13.49c-.593-14.509-1.301-17.257-5.349-20.74-2.129-1.832-3.773-2.239-8.857-2.193-5.514.051-6.59.398-9.228 2.984M433.622 48.666c-4.141.707-8.426 5.844-9.204 11.033-.357 2.379-1.047 4.572-1.533 4.872-.487.301-.901 5.133-.92 10.738-.019 5.605-.679 13.116-1.465 16.691-1.934 8.794-1.934 18.423 0 20.357.825.825 1.5 1.982 1.5 2.572 0 .589.675 1.071 1.5 1.071s1.5.42 1.5.933c0 .513.98 1.243 2.177 1.623 1.197.38 3.193 1.648 4.436 2.818 2.105 1.982 2.28 3.089 2.573 16.313.313 14.153.321 14.195 3.251 17.25 2.699 2.814 3.476 3.063 9.57 3.063 5.86 0 7-.328 9.786-2.815l3.153-2.815.277-15.284.277-15.284 4.5-2.457c2.475-1.352 5.796-3.855 7.38-5.562 2.869-3.094 2.877-3.136 2.159-12.194-2.515-31.744-4.031-41.235-7.266-45.475-5.745-7.532-5.445-7.409-18.683-7.687-6.649-.139-13.385-.032-14.968.239M745.617 199.665c-1.036.293-3.736 1.543-6 2.778l-7.616 4.151c-1.925 1.048-3.725 2.131-4 2.407-.276.275-2.526 1.563-5.001 2.861a350.214 350.214 0 0 0-9.5 5.228c-2.75 1.577-5.675 3.176-6.5 3.552-8.454 3.853-12.141 12.003-8.556 18.913.896 1.726 1.123 3.385.599 4.365-.465.869-5.797 5.178-11.849 9.575-6.69 4.862-11.701 9.292-12.783 11.301-1.766 3.278-1.756 3.351 1.122 8.854 1.597 3.051 3.991 6.403 5.32 7.449 2.914 2.292 9.388 2.517 11.504.401.825-.825 1.874-1.5 2.332-1.5.457 0 2.045-1.125 3.528-2.5 1.482-1.375 3.117-2.5 3.632-2.5.516 0 1.196-.675 1.513-1.5.316-.825 1.156-1.5 1.867-1.5.71 0 2.505-1.125 3.988-2.5 2.561-2.375 8.183-3.475 8.95-1.75.684 1.541 7.104 4.25 10.07 4.25 3.278 0 7.635-2.872 13.977-9.214 2.083-2.083 3.958-3.786 4.168-3.786.548 0 16.325-14.686 21.366-19.889 2.338-2.414 4.252-5.2 4.252-6.191 0-.991.45-2.08 1-2.42.55-.34 1-2.14 1-4 0-1.86-.45-3.66-1-4-.55-.34-1-1.285-1-2.101 0-.816-.454-2.027-1.009-2.691-.556-.664-3.207-4.281-5.892-8.038-2.685-3.756-5.801-7.473-6.924-8.26-2.239-1.568-9.58-2.588-12.558-1.745M774.612 420.587c-1.986 2.046-3.626 4.213-3.644 4.816-.017.604-1.12 2.335-2.452 3.847l-2.42 2.75H737.8l-3.4 3.4c-3.024 3.024-3.4 3.995-3.4 8.777 0 5.095 1.173 8.021 4.638 11.573.868.89 5.533 1.25 16.205 1.25h14.985l3.192 5.25c1.756 2.888 4.354 6.488 5.773 8 2.392 2.549 3.157 2.75 10.46 2.75 4.333 0 8.637-.406 9.565-.902 1.521-.815 12.94-2.34 28.408-3.796 3.149-.296 6.242-1.161 6.872-1.92.631-.76 1.576-1.382 2.101-1.382.525 0 2.383-1.428 4.128-3.173l3.173-3.173v-15.149c0-15.777.037-15.621-4.635-19.279-4.119-3.225-18.796-5.305-48.503-6.875l-9.138-.483-3.612 3.719M616 673.476c-1.375.795-3.175 1.757-4 2.137-3.952 1.821-5 3.716-5 9.042 0 2.94.36 5.345.799 5.345.439 0 1.902 1.788 3.25 3.973 1.348 2.185 2.789 3.985 3.201 4 .413.015.75.702.75 1.527s.348 1.5.773 1.5c.425 0 1.606 1.549 2.625 3.441 1.02 1.893 2.472 3.679 3.228 3.969 1.556.597 1.882 6.158.414 7.065-.527.326-1.688 2.94-2.579 5.809-1.455 4.686-1.467 5.571-.112 8.716.829 1.925 3.367 5.525 5.64 8 2.273 2.475 7.875 8.55 12.449 13.5 4.574 4.95 9.459 10.37 10.854 12.044 2.805 3.363 12.047 8.456 15.346 8.456 2.382 0 10.535-4.299 12.388-6.532.671-.807 1.839-1.468 2.596-1.468.758 0 1.378-.348 1.378-.773 0-.425 1.575-1.62 3.5-2.657s3.5-2.327 3.5-2.867.75-1.531 1.667-2.201c1.241-.908 1.666-2.782 1.666-7.348 0-4.316-.492-6.673-1.666-7.97-.917-1.013-1.667-2.349-1.667-2.968 0-.62-1.125-2.785-2.5-4.811s-2.5-4.296-2.5-5.045c0-.748-.406-1.36-.902-1.36s-1.373-1.237-1.949-2.75c-1.115-2.929-5.261-10.416-6.23-11.25-.319-.275-1.611-2.586-2.87-5.136-3.209-6.497-5.95-9.363-10.329-10.799-2.812-.923-4.578-.961-6.899-.152-5.879 2.049-7.488 1.452-11.789-4.37-2.218-3.002-4.032-5.927-4.032-6.5 0-.574-.38-1.043-.843-1.043-.464 0-2.376-2.245-4.248-4.988-4.57-6.697-10.397-8.725-15.909-5.536M202.272 604.84c-1.225.363-3.025 1.344-4 2.179-.974.836-3.347 2.494-5.272 3.684-1.925 1.19-4.4 2.985-5.5 3.989-5.18 4.725-12.335 7.002-13.924 4.431-.298-.482-2.494-1.368-4.879-1.969-8.378-2.11-9.073-1.631-37.238 25.651-7.952 7.703-13.459 15.46-13.459 18.959 0 2.01 5 11.095 7.75 14.083 1.238 1.345 2.25 2.797 2.25 3.228 0 1.543 6.549 7.661 9 8.408 1.375.419 2.995 1.156 3.6 1.637.653.52 2.28.315 4-.503 1.595-.759 4.813-2.195 7.15-3.191 2.338-.996 4.25-2.174 4.25-2.618 0-.445.705-.808 1.567-.808.861 0 3.041-1.125 4.844-2.5 1.803-1.375 4.023-2.5 4.933-2.5.911 0 1.656-.406 1.656-.902s1.238-1.373 2.75-1.949c3.431-1.306 10.304-5.236 12.068-6.899.729-.687 1.933-1.25 2.676-1.25.742 0 2.96-1.881 4.928-4.18 2.89-3.376 3.578-4.999 3.578-8.441 0-2.344-.45-4.539-1-4.879-1.921-1.187-.978-5.189 1.788-7.585 1.533-1.328 5.021-3.977 7.75-5.885 2.729-1.909 5.412-3.815 5.962-4.235 5.504-4.208 7.429-6.21 8.53-8.868 1.172-2.83 1.025-3.641-1.62-8.9-1.601-3.182-3.6-6.233-4.443-6.779-2.245-1.456-7.137-2.166-9.695-1.408M222.253 118.285c-3.436 1.768-7.036 3.899-8 4.734-.964.836-3.328 2.492-5.253 3.681-6.134 3.789-8.37 9.936-6.564 18.05.397 1.788 1.137 3.25 1.643 3.25.507 0 .921.81.921 1.8s.468 2.268 1.04 2.84c1.128 1.128 4.101 6.085 6.513 10.86.833 1.65 2.846 5.25 4.472 8 1.626 2.75 3.973 7.001 5.216 9.446 1.242 2.446 3.737 5.933 5.542 7.75 2.908 2.926 3.902 3.304 8.691 3.304 2.975 0 5.686-.45 6.026-1 .962-1.556 3.318-1.182 5.349.849C250.284 194.284 261 208.79 261 209.651c0 .369 1.431 1.948 3.18 3.51 2.317 2.068 4.217 2.839 7 2.839 2.101 0 3.82-.398 3.82-.883 0-.486.788-1.148 1.75-1.471 1.969-.661 5.022-2.559 6.958-4.325 1.372-1.251 1.859-12.32.542-12.323-.412-.001-2.325-2.359-4.25-5.24-1.925-2.881-4.287-6.115-5.25-7.186-.962-1.072-1.75-2.245-1.75-2.608 0-.362-.9-1.696-2-2.964-2.504-2.888-2.499-3.981.046-8.863 2.925-5.612 3.468-10.265 1.603-13.732-.859-1.598-7.882-9.388-15.606-17.313-7.723-7.924-14.057-14.674-14.074-15-.055-1.02-13.361-9.408-14.368-9.057-.056.02-2.912 1.482-6.348 3.25M679.127 607.741c-1.305 1.488-2.84 3.73-3.411 4.982-.57 1.252-1.415 2.277-1.877 2.277-.461 0-.839 2.159-.839 4.797 0 4.135.418 5.135 3.031 7.25a542.45 542.45 0 0 1 4.25 3.467c.671.558 4.594 3.472 8.719 6.475 4.125 3.003 7.791 5.872 8.146 6.376.355.504.406 4.406.114 8.673-.497 7.254-.37 7.931 1.963 10.446 2.566 2.768 3.369 3.302 11.192 7.443 2.522 1.335 4.585 2.798 4.585 3.25 0 .453.873.823 1.941.823s2.22.451 2.561 1.003c.34.551 2.617 1.912 5.059 3.025 2.441 1.112 4.439 2.461 4.439 2.997s.639.975 1.419.975c1.492 0 7.715 3.022 8.59 4.171.281.369 1.748.981 3.26 1.36 1.513.38 2.997 1.091 3.299 1.58 1.592 2.575 10.806-1.342 14.885-6.328 1.477-1.806 3.33-4.076 4.116-5.044.787-.969 1.431-1.986 1.431-2.259 0-.274 1.35-2.361 3-4.639 2.47-3.409 3-5.116 3-9.654v-5.513l-10.318-10.087c-5.674-5.548-14.064-13.462-18.644-17.587-4.579-4.125-9.019-8.175-9.865-9-1.773-1.727-13.931-1.974-15.018-.304-.36.552-1.692 1.551-2.958 2.218-1.97 1.037-2.912.851-6.5-1.287-2.309-1.376-5.997-4.098-8.197-6.051-2.2-1.952-4.787-3.811-5.75-4.13-.962-.32-1.75-1-1.75-1.513 0-.513-.675-.933-1.5-.933s-1.5-.45-1.5-1-1.912-.992-4.25-.982c-3.355.014-4.75.588-6.623 2.723M660.168 117.696c-2.856.569-5.153 2.368-11.086 8.68-2.52 2.681-6.607 7.008-9.082 9.614-2.475 2.606-7.425 8.02-11 12.03s-7.175 7.978-8 8.816c-2.239 2.276-1.914 11.497.499 14.163 2.907 3.213 2.287 8.212-1.642 13.231-1.838 2.349-3.683 4.42-4.1 4.603-.416.184-.757.971-.757 1.75 0 .78-.36 1.417-.799 1.417-.439 0-1.902 1.788-3.25 3.973-1.348 2.185-2.788 3.985-3.201 4-.412.015-.75 1.812-.75 3.995 0 3.624.461 4.316 5.341 8 4.612 3.482 6.035 4.032 10.432 4.032 4.608 0 5.307-.308 7.376-3.25 1.257-1.787 2.902-3.884 3.656-4.66.755-.775 2.522-3.231 3.927-5.458 1.406-2.227 3.837-5.418 5.402-7.09 2.736-2.923 3.176-3.042 11.27-3.042 9.578 0 11.425-1.046 15.483-8.765 1.224-2.329 3.569-6.485 5.209-9.235 1.641-2.75 3.46-6.237 4.042-7.75.581-1.512 1.411-2.75 1.843-2.75.432 0 1.044-.787 1.36-1.75.316-.962 2.248-4.675 4.294-8.25 3.242-5.663 3.723-7.342 3.739-13.038.017-5.793-.307-6.905-2.843-9.75-1.574-1.767-3.257-3.212-3.74-3.212-.483 0-2.092-1.125-3.574-2.5-1.483-1.375-3.278-2.5-3.988-2.5-.711 0-1.551-.675-1.867-1.5-.317-.825-1.165-1.5-1.886-1.5-.72 0-1.459-.397-1.643-.882-.415-1.099-7.529-2.047-10.665-1.422M137.934 199.759c-2.582 1.221-6.934 4.962-6.934 5.961 0 .512-1.125 1.988-2.5 3.28-1.375 1.292-2.5 2.724-2.5 3.183 0 .459-1.35 2.698-3 4.976-4.955 6.84-3.562 15.713 3.369 21.459 2.863 2.373 12.477 11.168 26.631 24.364 3.025 2.82 7.191 6.013 9.257 7.097l3.758 1.969 6.206-3.079c6.396-3.173 9.594-3.297 12.412-.479.765.765 5.168 4.118 9.785 7.45 6.853 4.948 9.099 6.054 12.238 6.028 4.6-.038 6.17-1.124 9.68-6.698 3.368-5.349 3.497-10.753.341-14.333-1.242-1.409-3.028-2.858-3.968-3.218-.94-.361-1.709-1.12-1.709-1.688 0-.567-.567-1.031-1.26-1.031-.693 0-2.474-1.125-3.957-2.5-1.482-1.375-2.935-2.5-3.228-2.5-.574 0-3.816-2.521-6.549-5.094-1.406-1.323-1.614-2.97-1.224-9.701.458-7.917.401-8.173-2.445-10.906-3.38-3.246-5.551-4.691-10.164-6.765-1.83-.823-5.34-2.855-7.8-4.515-2.46-1.661-4.922-3.019-5.471-3.019-.549 0-3.339-1.491-6.2-3.314s-6.777-4.112-8.702-5.087c-3.792-1.92-13.536-3.036-16.066-1.84M264.5 672.559c-1.1.823-5.602 6.321-10.004 12.218l-8.003 10.723-7.362-.357c-7.5-.364-11.552.772-13.631 3.819-2.236 3.278-6.55 10.793-8.488 14.788-1.134 2.338-2.501 4.25-3.037 4.25s-.975.684-.975 1.52c0 1.343-1.661 4.536-5.732 11.018-7.564 12.042-7.774 21.691-.593 27.197 1.983 1.521 4.37 3.44 5.303 4.265 2.057 1.818 4.993 3.776 7.022 4.683.825.369 1.822 1.154 2.215 1.744.394.59 3.702 1.064 7.352 1.052l6.636-.021 9.648-10.155c27.046-28.465 27.677-29.305 27.535-36.641-.062-3.231-.558-6.165-1.1-6.519-1.833-1.195-3.283-4.987-2.608-6.821.58-1.577 8.725-12.92 10.285-14.322.306-.275 1.789-2.403 3.296-4.729 2.716-4.19 3.81-11.271 1.741-11.271-.55 0-1-.623-1-1.383 0-.761-.787-1.656-1.75-1.989-.962-.332-3.1-1.477-4.75-2.543-3.609-2.332-9.254-2.58-12-.526M533.5 715.85c-3.125 1.016-4.906 2.426-6.774 5.365-2.118 3.331-2.176 5.693-.232 9.421.821 1.575 1.496 4.027 1.5 5.447.003 1.421.297 2.875.653 3.231 1.149 1.149 4.287 11.108 4.32 13.713.02 1.49-1.096 3.598-2.717 5.135-5.284 5.009-5.753 6.038-5.679 12.456.051 4.368.562 6.658 1.75 7.846.924.923 1.672 2.209 1.663 2.857-.014 1.06 3.955 9.873 6.16 13.679a26.222 26.222 0 0 1 1.452 3c.589 1.513 4.38 9.704 7.315 15.803.874 1.817 2.939 4.517 4.589 6 2.643 2.376 3.793 2.69 9.663 2.642 3.664-.03 7.264-.531 8-1.114.735-.582 3.163-1.336 5.396-1.676 11.583-1.763 16.958-9.354 14.555-20.558-.613-2.857-1.114-6.883-1.114-8.946 0-2.063-.47-4.221-1.045-4.796-.575-.575-1.317-4.28-1.648-8.232-.331-3.953-.986-7.425-1.455-7.714-.468-.29-.852-1.923-.852-3.63 0-5.222-3.228-13.793-6.107-16.216-1.695-1.426-4.654-2.493-8.02-2.892-5.688-.673-8.32-2.805-9.47-7.671-.325-1.375-1.223-3.918-1.997-5.651-.773-1.733-1.406-4.069-1.406-5.191 0-1.122-.45-2.318-1-2.658-.55-.34-1-1.696-1-3.014 0-1.317-1.145-3.541-2.545-4.941-2.049-2.048-3.464-2.526-7.25-2.445-2.588.055-5.605.392-6.705.75M795.823 305.341c-4.222.637-8.009 1.497-8.416 1.909-.407.413-2.394.75-4.415.75s-5.883.67-8.583 1.489c-2.7.819-6.57 1.494-8.6 1.5-2.03.006-3.969.461-4.309 1.011-.34.55-1.923 1-3.519 1-4.395 0-7.587 4.114-9 11.601-.889 4.709-1.782 6.694-3.527 7.837-2.688 1.762-10.241 4.523-12.454 4.554-.825.011-2.789.693-4.364 1.514-1.576.822-3.732 1.494-4.792 1.494-1.06 0-2.921.929-4.136 2.064-1.897 1.773-2.189 3.034-2.07 8.954.129 6.46.347 7.084 3.5 9.997 2.897 2.677 3.915 3.038 7.362 2.611 6.969-.865 10.911-1.735 14-3.088 9.785-4.287 16.021-4.684 17.643-1.123.606 1.329 1.833 2.686 2.729 3.016.895.331 2.753 1.287 4.128 2.126 2.898 1.768 9.12 1.329 13.6-.959 9.546-4.878 20.213-9.598 21.687-9.598.942 0 1.713-.363 1.713-.808 0-.444 1.913-1.595 4.25-2.558 2.338-.963 4.925-2.175 5.75-2.695.825-.519 2.4-1.345 3.5-1.835s3.104-2.172 4.454-3.739c3.193-3.707 4.045-12.656 1.66-17.436-.888-1.78-1.614-4.652-1.614-6.383 0-1.73-.502-3.648-1.116-4.262-.614-.614-1.626-2.123-2.25-3.353-2.981-5.882-9.803-7.554-22.811-5.59M764.5 521.754c-1.65.848-4.361 3.05-6.025 4.894-3.014 3.339-7.619 4.546-8.975 2.352-.34-.55-1.604-1.014-2.809-1.032-1.205-.017-3.065-.692-4.132-1.5-1.068-.807-3.115-1.468-4.55-1.468-1.435 0-3.095-.486-3.69-1.081-.595-.595-3.536-1.103-6.537-1.13-6.146-.055-9.782 2.128-9.782 5.874 0 1.221-.392 2.461-.871 2.757-.479.296-1.157 1.971-1.508 3.723-1.029 5.149 4.144 11.857 9.146 11.857 1.568 0 3.724.661 4.792 1.468 1.067.808 2.711 1.483 3.651 1.5.941.018 4.247.813 7.346 1.767 6.314 1.944 7.753 3.8 8.862 11.427.759 5.221 4.257 9.523 8.489 10.441 1.426.309 3.898.975 5.492 1.48 1.595.504 4.227.917 5.849.917 1.622 0 4.368.648 6.101 1.439 1.733.792 5.626 1.626 8.651 1.854 3.025.228 9.1 1.173 13.5 2.099 4.483.944 9.595 1.418 11.629 1.079 3.988-.666 9.871-5.671 9.871-8.399 0-.929.661-2.563 1.468-3.631.808-1.067 1.483-3.352 1.5-5.077.018-1.724.704-4.424 1.526-6 3.485-6.683.419-14.008-7.986-19.075-2.151-1.297-2.954-1.673-8.758-4.104-2.062-.863-3.75-1.933-3.75-2.377 0-.445-1.125-.808-2.5-.808s-2.5-.45-2.5-1-.527-1-1.171-1c-1.081 0-6.654-2.473-19.343-8.585-5.673-2.732-8.66-2.884-12.986-.661M111 523.556c-1.925.893-4.175 2.021-5 2.506-1.516.892-5.795 2.9-11.75 5.512-7.446 3.267-10.769 4.969-11.083 5.676-.184.413-1.014.75-1.846.75-4.679 0-12.79 7.359-13.75 12.474-.666 3.551.205 11.364 1.452 13.026.413.55 1.066 2.91 1.451 5.245.385 2.334 1.111 4.498 1.613 4.809.502.31.913 1.337.913 2.283 0 3.845 9.829 8.851 15.29 7.786 1.765-.344 6.585-1.342 10.71-2.218 4.125-.875 9.975-1.802 13-2.059 3.025-.257 6.918-1.115 8.651-1.907 1.733-.791 4.381-1.439 5.884-1.439 9.427 0 15.506-5.452 16.264-14.584.39-4.713.768-5.52 2.826-6.037 1.306-.328 2.375-.961 2.375-1.408 0-.447 1.463-1.099 3.25-1.45 1.788-.351 4.15-.994 5.25-1.43 4.249-1.683 9.101-3.316 11.394-3.836 4.423-1.003 6.316-3.953 6.247-9.734-.106-8.931-5.533-15.459-11.81-14.207-7.062 1.409-9.024 1.932-11.831 3.155-11.331 4.937-16.051 4.924-20.889-.058-3.278-3.375-4.303-3.826-9.395-4.133-3.807-.23-6.885.197-9.216 1.278M547.823 67.826c-2.023 1.471-3.944 3.687-4.269 4.924-.326 1.238-1.034 2.25-1.573 2.25-.54 0-.981.701-.981 1.558 0 .856-1.05 3.444-2.334 5.75-1.284 2.305-2.642 5.43-3.019 6.942-.377 1.513-1.127 2.75-1.666 2.75-.54 0-.981.678-.981 1.507 0 .829-1.057 3.642-2.35 6.25-1.292 2.609-3.142 6.543-4.11 8.743-.969 2.2-2.162 4.781-2.651 5.736-2.457 4.8-.367 11.873 4.898 16.575 1.656 1.479 3.138 3.364 3.292 4.189.328 1.747-2.03 10.058-3.248 11.45-.457.523-.831 2.124-.831 3.559s-.661 3.482-1.468 4.55c-2.174 2.874-2.019 12.59.232 14.469 3.138 2.62 9.215 4.972 12.847 4.972 4.41 0 9.155-4.365 9.982-9.185.313-1.823.92-4.215 1.348-5.315.428-1.1 1.561-4.7 2.518-8 2.514-8.675 2.553-8.717 9.726-10.433 7.8-1.866 12.793-5.436 12.806-9.158.005-1.425.679-4.8 1.498-7.5s1.494-6.12 1.5-7.6c.006-1.48.395-2.928.863-3.218.469-.289 1.121-3.73 1.449-7.645.329-3.915 1.095-7.718 1.704-8.452.611-.736 1.193-5.767 1.301-11.233.15-7.684-.142-10.224-1.306-11.344-2.495-2.4-6.835-4.917-8.478-4.917-.852 0-2.331-.387-3.286-.859-4.124-2.04-12.302-4.135-15.87-4.065-2.517.05-5.149 1.009-7.543 2.75M346.19 716.119c-1.982 1.937-3.192 4.115-3.196 5.75-.004 1.447-.679 3.92-1.5 5.495-.822 1.576-1.486 3.376-1.476 4 .051 3.123-3.765 12.62-5.518 13.735-1.1.7-4.316 1.594-7.146 1.986-6.911.959-11 4.564-11.621 10.246-.734 6.729-2.82 16.092-3.814 17.119-.505.523-.919 3.28-.919 6.128 0 2.848-.692 6.834-1.538 8.859-.911 2.181-1.621 7.274-1.741 12.501-.201 8.734-.172 8.846 2.928 11.567 3.279 2.877 12.193 6.495 16.004 6.495 1.226 0 2.507.45 2.847 1 .34.55 3.291 1 6.559 1 3.294 0 5.941-.446 5.941-1 0-.55.597-1 1.326-1 2.198 0 5.05-4.023 9.571-13.5l7.632-16c4.957-10.392 7.471-16.261 7.471-17.445 0-.58.45-1.055 1-1.055 3.517 0-1.861-13.553-6.615-16.667-2.473-1.62-3.356-6.615-1.385-7.833.55-.34 1-1.69 1-3s.424-2.644.942-2.964c.518-.321 1.245-2.603 1.616-5.072.37-2.469 1.071-4.735 1.557-5.035.487-.301.87-2.883.852-5.738-.039-6.101-2.05-9.111-6.78-10.15-1.753-.385-3.187-1.114-3.187-1.62 0-.507-1.715-.921-3.81-.921-2.917 0-4.558.731-7 3.119M79.5 305.887c-2.719 1.214-6.078 5.268-6.793 8.201-1.748 7.168-3.037 11.599-3.825 13.148-.485.955-.882 3.809-.882 6.341 0 5.305 3.98 11.923 7.75 12.886 1.238.316 2.25 1.017 2.25 1.556 0 .54.633.981 1.408.981.774 0 3.586 1.076 6.25 2.39 5.366 2.65 20.898 9.897 26.342 12.292 1.925.847 4.281 1.94 5.236 2.429 4.66 2.386 11.748.001 17.451-5.871 2.379-2.45 3.843-3.236 5.078-2.726.954.394 3.302 1.091 5.217 1.548 1.916.458 3.641 1.306 3.834 1.885.193.579 1.837 1.053 3.653 1.053s4.591.672 6.167 1.494c1.575.821 4.37 1.496 6.21 1.5 3.972.007 9.151-2.797 9.16-4.96.004-.844.679-2.823 1.5-4.398 2.462-4.72 1.882-7.915-2.173-11.969-2.424-2.425-4.588-3.667-6.385-3.667-1.496 0-4.008-.672-5.584-1.494-1.575-.821-4.075-1.496-5.555-1.5-1.48-.003-2.969-.456-3.309-1.006-.34-.55-1.491-1-2.559-1-3.128 0-5.745-3.497-6.494-8.678-.816-5.642-2.946-9.728-5.866-11.25-2.084-1.086-7.709-2.427-17.081-4.07-2.75-.482-6.572-1.355-8.493-1.939-1.922-.585-5.094-1.063-7.05-1.063-1.957 0-3.984-.426-4.507-.947-1.312-1.307-18.491-2.263-20.95-1.166M326.45 65.871c-.522.48-3.65 1.675-6.95 2.657-3.3.981-7.19 2.877-8.644 4.214-3.684 3.385-5.485 10.216-4 15.173.629 2.099 1.16 5.565 1.179 7.701.02 2.136.679 5.009 1.465 6.384s1.445 4.998 1.465 8.05c.019 3.053.462 5.978.983 6.5.521.523 1.399 3.425 1.949 6.45 1.577 8.662 2.344 11.388 3.514 12.495 2.958 2.8 6.787 4.414 11.132 4.695 4.153.268 5.016.713 6.429 3.31 2.223 4.086 5.028 11.713 5.028 13.669 0 .881.672 2.891 1.494 4.467.821 1.575 1.496 3.779 1.5 4.898.014 4.54 9.548 6.996 15.37 3.96 1.576-.822 3.376-1.497 4-1.5 2.883-.016 6.191-10.915 3.767-12.413-.477-.295-1.161-2.366-1.518-4.603-.358-2.236-1.038-4.833-1.511-5.772-1.37-2.716-4.113-11.562-4.096-13.206.008-.825 1.88-3.45 4.16-5.834 6.854-7.168 6.533-12.507-1.708-28.409-1.352-2.608-2.458-5.421-2.458-6.25 0-.829-.45-1.507-1-1.507s-1-.701-1-1.558c0-.856-1.029-3.444-2.286-5.75-1.257-2.305-3.169-6.209-4.25-8.675-1.08-2.465-3.314-5.715-4.964-7.221-2.706-2.469-3.74-2.74-10.55-2.767-4.152-.016-7.977.363-8.5.842M685.5 769.885c-4.866 2.241-7.5 6.508-7.5 12.151 0 4.776 3.028 10.521 6.05 11.48 1.072.34 1.95 1.038 1.95 1.551 0 .513 2.28.933 5.067.933 5.952 0 10.785-3.061 13.343-8.451 2.025-4.268 2.002-6.584-.113-11.466-1.219-2.813-2.886-4.522-5.86-6.007-5.082-2.539-7.752-2.578-12.937-.191M197 768.637c-6.166 2.23-7.878 3.6-9.47 7.578-2.481 6.203-1.373 11.87 3.187 16.298 3.215 3.123 4.163 3.487 9.077 3.487 5.187 0 5.727-.246 9.847-4.485 3.851-3.962 4.359-5.016 4.359-9.04 0-4.809-2.42-9.21-6.554-11.918-2.507-1.643-8.279-2.704-10.446-1.92M687.75 91.689c-.962.252-1.75.875-1.75 1.384 0 .51-.482.927-1.071.927-1.346 0-3.929 2.529-3.929 3.845 0 .544-.479 1.148-1.065 1.343-.585.195-1.286 2.145-1.558 4.334-.948 7.638 6.006 15.478 13.73 15.478 4.17 0 10.829-2.835 10.868-4.628.014-.62.7-1.687 1.525-2.372 2.229-1.85 1.964-10.776-.428-14.404-3.153-4.783-10.478-7.434-16.322-5.907M441.114 11.677c-1.313.274-3.623 1.852-5.135 3.507C427.701 24.248 434.621 39 447.152 39c3.346 0 4.578-.675 8.385-4.592 3.996-4.111 4.463-5.082 4.463-9.277 0-4.582-1.301-7.432-5.15-11.281-1.842-1.842-9.509-3.055-13.736-2.173M775.121 679.999c-3.921 3.804-4.121 4.289-4.121 9.965 0 5.199.385 6.404 2.99 9.372 5.271 6.003 14.39 5.951 20.458-.117 3.234-3.234 3.552-4.06 3.552-9.223 0-5.418-.198-5.856-4.441-9.833-3.971-3.722-4.964-4.163-9.38-4.163-4.407 0-5.381.43-9.058 3.999M98.197 680.156c-3.844 3.806-4.196 4.584-4.181 9.25.013 4.171.535 5.683 2.882 8.344 1.576 1.788 3.369 3.25 3.984 3.25.615 0 1.118.45 1.118 1 0 .553 2.616 1 5.847 1 5.299 0 6.175-.319 9.356-3.409 5.895-5.725 6.063-13.68.424-20.019-2.98-3.349-3.554-3.572-9.205-3.572-5.73 0-6.235.205-10.225 4.156M839.25 559.706c-1.237.238-2.25.852-2.25 1.364 0 .511-.642.93-1.427.93s-2.618 2.515-4.072 5.589c-2.523 5.334-2.572 5.741-1.073 8.901.865 1.822 1.572 3.635 1.572 4.029 0 .395 1.463 2.007 3.25 3.583 2.676 2.36 4.164 2.869 8.429 2.882 3.288.01 5.726-.532 6.678-1.484.825-.825 1.885-1.5 2.356-1.5 1.834 0 4.287-6.01 4.287-10.503 0-10.53-6.89-15.883-17.75-13.791M776.93 185.746c-3.884 2.361-5.93 6.733-5.93 12.668 0 4.494.469 5.791 3.25 8.983 3.095 3.552 3.547 3.731 9.456 3.747 6.703.019 7.434-.352 13.044-6.607.688-.767 1.25-3.835 1.25-6.817 0-5.49-1.055-7.268-7.392-12.47-2.091-1.716-10.545-1.409-13.678.496M570.86 828.706c-1.452.223-4.04 1.944-5.75 3.823-2.767 3.041-3.11 4.091-3.11 9.521 0 5.369.341 6.445 2.833 8.937 6.222 6.222 15.486 6.072 21.349-.348 2.385-2.611 2.816-3.934 2.802-8.612-.014-4.685-.465-6.037-2.967-8.875-2.619-2.971-8.223-5.393-11.517-4.978-.55.069-2.188.308-3.64.532M98 188c-3.656 3.656-4 4.454-4 9.277 0 5.303 1.412 7.695 7.359 12.473 1.795 1.442 12.641 1.714 12.641.317 0-.513.892-1.215 1.982-1.561 2.196-.697 5.021-5.872 5.242-9.601.345-5.813-.374-7.989-3.757-11.372-3.255-3.255-4.004-3.533-9.5-3.533-5.628 0-6.194.227-9.967 4M195.18 92.682c-5.155 2.54-8.18 7.193-8.18 12.581 0 8.31 5.269 13.737 13.336 13.737 4.796 0 7.974-1.343 11.066-4.678 2.173-2.344 2.598-3.745 2.598-8.57 0-4.804-.437-6.26-2.61-8.699-2.842-3.19-8.109-6.066-11.041-6.03-1.017.012-3.343.759-5.169 1.659M570.477 32.678c-1.95.268-3.725 1.463-5 3.366-1.087 1.622-2.314 2.952-2.727 2.953-.412.002-.737 2.816-.721 6.253.026 5.396.405 6.662 2.778 9.266 3.993 4.384 9.823 6.099 14.784 4.349C583.583 57.456 587 54.751 587 53c0-.55.45-1 1-1s1-2.545 1-5.656c0-4.566-.515-6.348-2.672-9.25-1.469-1.977-2.707-3.656-2.75-3.731-.277-.484-10.621-1.025-13.101-.685M18.923 432.808c-6.405 4.757-6.781 15.466-.749 21.362 2.556 2.499 3.63 2.83 9.172 2.83 4.934 0 6.745-.436 8.465-2.038C38.237 452.701 42 445.85 42 443.693c0-2.502-3.268-8.14-6.343-10.943-4.183-3.813-11.556-3.787-16.734.058M858.5 431.178c-6.504 3.635-9.357 12.351-6.095 18.622 2.775 5.335 6.059 7.2 12.68 7.2 5.328 0 6.414-.345 8.898-2.829 3.777-3.778 5.297-9.417 3.918-14.54-1.135-4.215-1.891-5.191-6.116-7.894-3.06-1.958-10.24-2.26-13.285-.559M42.325 560.612c-4.267 2.104-5.858 4.128-6.988 8.888-2.142 9.025 3.955 17.421 12.69 17.473 6.522.039 11.471-3.572 13.129-9.578 3.35-12.131-7.912-22.169-18.831-16.783M312 32.676c-1.375.273-3.954 2.146-5.731 4.161-2.72 3.084-3.231 4.453-3.234 8.663-.003 4.162.512 5.585 3.073 8.491 8.094 9.185 23.173 5.421 23.998-5.991.463-6.402-.082-8.528-3.006-11.729-2.303-2.521-3.899-3.27-7.75-3.634-2.668-.252-5.975-.234-7.35.039M312.062 828.661c-9.095 3.963-12.045 14.176-6.149 21.287 5.433 6.553 15.711 6.897 21.337.714 2.391-2.628 2.75-3.847 2.75-9.342 0-3.547-.439-6.32-1-6.32-.55 0-1-.45-1-1 0-1.714-3.905-5-5.941-5-1.068 0-2.219-.45-2.559-1-.837-1.355-3.317-1.135-7.438.661M43.333 301.456c-6.186 2.691-7.72 5.205-7.779 12.753-.051 6.487.11 6.969 3.333 9.983 2.673 2.498 4.466 3.253 8.5 3.578 4.435.357 5.643.023 9.113-2.523 8.757-6.424 7.355-18.872-2.651-23.543-4.356-2.033-6.307-2.079-10.516-.248M839.035 301.581c-4.66 2.022-6.677 4.377-8.021 9.367-3.813 14.16 12.827 23.025 23.585 12.565 2.441-2.373 3.554-8.232 2.387-12.565-1.365-5.069-3.394-7.385-8.244-9.411-4.474-1.87-5.303-1.866-9.707.044M439.25 851.105c-2.337 1.157-4.25 2.732-4.25 3.5 0 .767-.391 1.395-.869 1.395s-1.099 1.463-1.38 3.25c-1.769 11.256 6.906 19.412 17.363 16.324 15.574-4.598 11.763-26.58-4.607-26.573-1.104 0-3.919.947-6.257 2.104" fill="#000000FF" stroke="#000000FF"/></svg>