<svg version="1.0" xmlns="http://www.w3.org/2000/svg" width="1352" height="1160" viewBox="0 0 1014 870"><path d="M449.119 273.546c-1.859.807-5.909 1.746-9 2.088-3.09.341-7.022 1.463-8.737 2.493-1.715 1.03-4.017 1.873-5.115 1.873-1.099 0-3.07.838-4.382 1.862-1.312 1.025-3.51 2.206-4.885 2.625-1.375.418-3.305 1.605-4.289 2.637-.984 1.032-2.263 1.876-2.842 1.876-1.664 0-6.27 3.863-14.903 12.5-10.164 10.169-10.378 10.41-12.376 14-.918 1.65-2.755 4.8-4.081 7-1.327 2.2-2.928 5.125-3.558 6.5-.631 1.375-1.978 4.3-2.996 6.5-1.017 2.2-2.09 5.826-2.383 8.059-.294 2.232-1.33 5.607-2.303 7.5-1.658 3.224-1.769 9.806-1.769 104.441v101l2.25 3.618c1.238 1.99 2.25 4.582 2.25 5.76s.9 2.912 2 3.854c1.1.942 2 2.206 2 2.81 0 .603 1.013 2.047 2.25 3.208 1.238 1.161 2.791 2.705 3.452 3.431 3.254 3.571 12.17 9.774 14.088 9.801.709.01 2.959.856 5 1.879 2.04 1.024 6.845 2.172 10.677 2.55 3.831.379 7.206.929 7.5 1.222.293.293.758 49.453 1.033 109.244.447 97.105.67 108.974 2.089 111.167.875 1.351 1.862 3.85 2.195 5.553 1.304 6.675 9.469 16.477 18.989 22.796 2.989 1.984 6.402 3.607 7.584 3.607 1.183 0 3.829.9 5.882 2 3.583 1.92 5.642 2 51.761 2s48.178-.08 51.761-2c2.053-1.1 4.798-2 6.101-2 1.302 0 3.512-.9 4.911-2 1.398-1.1 3.042-2 3.653-2 1.449 0 14.074-12.625 14.074-14.074 0-.611.9-2.255 2-3.653 1.1-1.399 2-3.384 2-4.411 0-1.028.9-3.548 2-5.601 1.964-3.664 2-5.655 2.014-110.246.007-58.583.277-107.496.598-108.696.504-1.877 1.512-2.266 7.237-2.794 3.658-.337 8.576-1.493 10.928-2.569 2.352-1.076 4.827-1.964 5.5-1.974 1.886-.028 15.723-9.748 15.723-11.044 0-.378 1.587-2.42 3.527-4.538 1.94-2.118 4.043-5.662 4.673-7.875.63-2.214 1.855-4.86 2.723-5.88 1.414-1.663 1.577-12.429 1.577-104.044 0-92.144-.158-102.431-1.606-104.645-.883-1.351-1.924-5.012-2.313-8.136-.389-3.124-1.342-6.207-2.118-6.85-.775-.644-1.692-2.671-2.036-4.505-.344-1.834-1.455-4.085-2.469-5.003-1.015-.918-2.131-2.973-2.481-4.566-.35-1.593-1.044-2.896-1.543-2.896-.499 0-1.568-1.581-2.375-3.514-.808-1.933-2.164-3.781-3.014-4.107-.85-.326-1.545-1.047-1.545-1.603 0-.555-3.712-4.53-8.25-8.833-11.313-10.73-11.477-10.867-14.539-12.211-1.491-.655-3.043-1.712-3.448-2.349-.406-.638-1.945-1.463-3.421-1.833-1.476-.371-3.793-1.546-5.148-2.612-1.355-1.066-3.362-1.938-4.461-1.938-1.098 0-3.4-.843-5.115-1.873-1.715-1.03-5.642-2.151-8.727-2.492-3.085-.341-7.233-1.298-9.218-2.127-5.31-2.219-109.435-2.184-114.554.038M560 275.624c5.225.889 10.305 1.589 11.288 1.555 2.074-.07 12.815 3.829 20.562 7.464 17.766 8.336 36.025 26.988 44.403 45.357 5.098 11.178 5.747 12.843 5.747 14.741 0 1.067.9 5.458 2 9.759 1.931 7.55 2 11.081 1.993 102.41l-.007 94.59-2.438 7.182c-5.594 16.482-15.279 25.564-32.974 30.919-4.36 1.32-9.397 2.399-11.194 2.399-6.787 0-6.379-6.995-6.391 109.473-.009 92.397-.199 105.628-1.573 110.027-.859 2.75-1.683 5.922-1.83 7.05-1.142 8.753-19.214 26.45-27.012 26.45-1.196 0-2.602.414-3.124.919-2.453 2.374-14.761 3.08-53.384 3.065-33.337-.012-41.635-.291-46.566-1.564-3.3-.852-7.35-1.862-9-2.245-7.814-1.813-17.178-9.405-22.882-18.552-3.009-4.825-4.757-9.815-6.697-19.123-.459-2.2-.853-51.048-.877-108.55-.034-79.934-.327-104.833-1.244-105.75-.66-.66-2.834-1.2-4.832-1.2-4.719 0-16.126-3.389-22.468-6.676-10.505-5.444-18.606-15.732-22.304-28.324-2.2-7.493-2.202-7.59-2.199-100.312.003-90.389.058-93.065 2.094-102.5 4.562-21.142 12.879-36.954 26.827-51.004 8.897-8.964 28.886-22.032 33.882-22.153.714-.017 2.731-.771 4.481-1.677 1.751-.905 4.766-1.781 6.701-1.948 1.935-.167 7.118-.955 11.518-1.752 12.335-2.234 94.41-2.257 107.5-.03" fill="#BC5000FE" stroke="#BC5000FE"/><path d="M455.04 278.677c-8.634.296-11.891.783-13.209 1.976-.962.871-3.906 1.824-6.54 2.118-3.067.341-5.261 1.199-6.098 2.381-.718 1.017-2.318 1.848-3.555 1.848s-3.774 1.125-5.638 2.5c-1.864 1.375-4.185 2.5-5.159 2.5-.974 0-2.252.9-2.841 2-.589 1.1-1.51 2-2.048 2-1.675 0-15.314 12.895-16.268 15.38-.342.891-1.096 1.62-1.677 1.62s-1.484 1.125-2.007 2.5c-.523 1.375-1.637 2.5-2.475 2.5-.839 0-1.525.813-1.525 1.806 0 .993-1.125 3.33-2.5 5.194-1.375 1.864-2.5 4.131-2.5 5.039 0 .908-.9 2.466-2 3.461-1.209 1.094-2 3.08-2 5.02 0 1.815-.978 4.453-2.25 6.07l-2.25 2.861v213.095l2.25 2.416c1.238 1.328 2.25 3.045 2.25 3.816 0 2.089 13.883 15.222 16.091 15.222 1.05 0 2.809.9 3.909 2 1.363 1.363 3.333 2 6.184 2 2.302 0 6.014.855 8.25 1.899 2.236 1.045 5.748 2.19 7.804 2.543 2.155.372 4.166 1.445 4.75 2.535.665 1.243 1.012 39.73 1.012 112.322 0 106.192.071 110.523 1.862 112.816 1.025 1.312 2.194 3.442 2.599 4.734.78 2.486 2.009 4.051 7.355 9.358 6.116 6.073 7.391 7.011 10.795 7.951 1.868.516 3.389 1.588 3.389 2.389 0 1.253 7.601 1.453 55.259 1.453 54.177 0 55.284-.039 56.509-2 .687-1.1 2.122-2 3.189-2 1.067 0 3.093-1.012 4.502-2.25a414.656 414.656 0 0 1 6.052-5.169c1.919-1.606 3.489-3.293 3.489-3.75 0-.457.9-1.731 2-2.831 1.1-1.1 2-2.896 2-3.992 0-1.095.9-2.553 2-3.24 1.98-1.237 2-2.338 2.011-110.259.006-59.955.286-110.672.622-112.704.49-2.966 1.208-3.902 3.638-4.75 1.665-.58 3.937-1.055 5.049-1.055 1.113 0 2.862-.76 3.889-1.689 1.148-1.039 4.141-1.853 7.779-2.117 4.123-.298 6.429-.997 7.618-2.311.937-1.035 2.593-1.883 3.68-1.883 2.305 0 15.108-12.515 16.145-15.782.385-1.214 1.458-2.964 2.385-3.891 1.558-1.558 1.684-9.681 1.684-108.401 0-101.201-.093-106.819-1.793-108.697-.986-1.09-2.067-3.724-2.403-5.855-.335-2.131-1.441-4.947-2.457-6.259-1.016-1.312-1.847-2.979-1.847-3.705 0-.727-1.125-2.979-2.5-5.005s-2.5-4.296-2.5-5.045c0-.748-.645-1.36-1.433-1.36s-1.716-.894-2.063-1.988c-.762-2.401-13.292-15.354-15.754-16.287-.962-.364-1.75-1.137-1.75-1.718s-1.125-1.484-2.5-2.007c-1.375-.523-2.5-1.587-2.5-2.364 0-.828-1.472-1.69-3.553-2.08-1.953-.366-3.784-1.271-4.068-2.01-.283-.738-2.459-1.832-4.835-2.431-2.376-.598-4.557-1.708-4.848-2.466-.318-.828-2.627-1.58-5.781-1.883-3.415-.328-5.701-1.12-6.538-2.265-1.196-1.636-4.946-1.777-53.082-1.989-28.487-.125-56.952-.051-63.255.165" fill="#BC5000FE" stroke="#BC5000FE"/><path d="M266 267.883c-4.125.361-9.075 1.197-11 1.859-1.925.662-5.632 1.468-8.238 1.791-2.606.322-5.374 1.222-6.151 1.999-.778.778-3.336 1.845-5.685 2.373-2.349.528-4.666 1.665-5.148 2.527-.483.863-1.755 1.568-2.828 1.568-1.072 0-2.753.788-3.734 1.75-.981.963-3.65 3.027-5.932 4.589-9.91 6.782-25.171 25.318-26.745 32.484-.367 1.672-1.302 3.565-2.077 4.208-.775.644-1.681 2.812-2.013 4.819-.332 2.008-1.469 5.758-2.526 8.335-1.85 4.509-1.923 8.224-1.916 98.5.006 91.929.046 93.875 1.993 96.815 1.093 1.65 1.99 3.764 1.993 4.698.004.935 1.02 2.852 2.257 4.261a408.538 408.538 0 0 1 5.169 6.052c1.606 1.919 3.41 3.489 4.01 3.489.599 0 1.652.9 2.339 2s1.997 2 2.912 2c.914 0 2.482.742 3.484 1.648 1.002.907 4.862 2.219 8.579 2.915 3.716.697 8.557 1.938 10.757 2.759l4 1.492.5 100.988c.467 94.366.615 101.115 2.25 102.922.963 1.063 1.75 2.876 1.75 4.028 0 1.152 1.125 3.432 2.5 5.066s2.5 3.196 2.5 3.471c0 .967 5.815 6.711 6.794 6.711.546 0 1.222.6 1.503 1.332.281.733 3.107 2.646 6.279 4.25l5.767 2.918H360.5l4.952-2.778c2.723-1.528 5.778-3.666 6.789-4.75 1.01-1.085 2.248-1.972 2.751-1.972 2.619 0 2.997-10.079 3.002-80.125.003-39.944-.287-74.091-.646-75.883-.393-1.969-1.383-3.45-2.5-3.742-1.016-.266-1.848-.875-1.848-1.353 0-.479-1.462-1.481-3.25-2.229-1.787-.747-3.868-2.103-4.622-3.013-.755-.91-1.966-1.655-2.691-1.655-1.55 0-20.437-18.452-20.437-19.967 0-.568-.807-1.84-1.793-2.826-.986-.986-2.391-3.236-3.121-5-.731-1.764-1.671-3.207-2.089-3.207-.418 0-1.254-1.962-1.858-4.36-.603-2.398-1.732-4.887-2.507-5.53-.775-.644-1.728-3.744-2.118-6.89-.39-3.146-1.34-7.237-2.112-9.092-2.057-4.948-2.063-201.608-.006-207.628.752-2.2 1.69-7.123 2.085-10.94.396-3.817 1.574-8.536 2.619-10.485 1.045-1.95 1.9-4.608 1.9-5.906s.861-3.57 1.914-5.048c1.053-1.479 2.222-4.33 2.598-6.335.377-2.006 1.257-3.867 1.958-4.136.7-.269 1.589-1.762 1.975-3.319.387-1.557 1.518-3.731 2.514-4.831.996-1.1 2.118-3.012 2.493-4.25.376-1.237 1.096-2.25 1.602-2.25s1.541-1.462 2.3-3.25c.76-1.787 3.016-4.915 5.014-6.95 1.997-2.036 3.632-4.009 3.632-4.386 0-.376 1.096-1.7 2.435-2.941 2.759-2.557 2.546-5.275-.639-8.158-1.866-1.689-4.97-1.824-44.651-1.951-23.455-.075-46.02.159-50.145.519m92.75 3.902c1.238.707 2.25 1.766 2.25 2.353 0 .588-2.04 3.337-4.533 6.109-4.771 5.307-14.594 19.543-16.399 23.766-.585 1.368-1.482 3.162-1.995 3.987-2.777 4.471-8.33 18.829-10.152 26.25-2.531 10.306-3.045 12.743-3.973 18.824-.635 4.163-.901 43.757-.726 108 .258 94.169.403 101.692 2.028 105.144.963 2.045 1.75 4.654 1.75 5.799 0 3.866 9.788 21.881 16.057 29.553 7.112 8.703 16.296 16.619 25.59 22.054 3.75 2.193 6.617 4.604 6.912 5.812.278 1.135.378 35.933.223 77.327l-.282 75.264-3 2.437c-1.65 1.341-5.755 3.81-9.123 5.487L357.255 793h-95.338l-6.209-2.925c-11.019-5.191-18.438-14.032-21.724-25.889-1.916-6.914-1.984-10.485-1.984-103.592 0-53.037-.28-97.159-.621-98.049-.91-2.371-5.324-4.341-11.473-5.12-15.464-1.959-27.715-11.493-34.093-26.532l-2.287-5.393-.29-85.359c-.163-47.933.109-88.052.621-91.5 4.138-27.879 17.091-48.857 39.643-64.202 3.986-2.711 13.5-7.597 13.5-6.932 0 .29 2.138-.539 4.75-1.841 2.942-1.467 8.366-2.835 14.25-3.596 5.225-.675 10.175-1.376 11-1.557.825-.181 21.3-.258 45.5-.171 33.77.121 44.523.457 46.25 1.443M659.401 267.849c-3.354.358-6.841 1.269-7.75 2.023-2.76 2.294-1.982 6.033 2.099 10.085 3.67 3.644 4.271 4.417 8.205 10.543 1.06 1.65 2.504 3.651 3.209 4.447 1.278 1.441 3.568 5.303 5.963 10.053.693 1.375 1.806 3.175 2.473 4 .668.825 1.709 3.36 2.314 5.634.605 2.273 1.772 4.691 2.593 5.372s1.493 2.439 1.493 3.905c0 1.466.908 4.446 2.017 6.622 1.112 2.181 2.437 7.652 2.953 12.189.514 4.527 1.519 9.255 2.232 10.505 1.04 1.821 1.298 22.243 1.298 102.773 0 93.421-.123 100.801-1.75 104.77-.962 2.349-1.75 5.731-1.75 7.515 0 1.785-.834 4.813-1.853 6.73-1.019 1.917-2.404 5.173-3.077 7.235-.674 2.063-1.61 3.75-2.08 3.75s-1.156 1.013-1.523 2.25c-.882 2.975-5.515 9.912-7.717 11.557-.962.718-1.75 1.706-1.75 2.194 0 2.557-21.141 19.911-24.34 19.981-.462.01-2.149 1.254-3.75 2.765l-2.91 2.747v77.713c0 60.942.27 77.942 1.25 78.769.688.58 2.473 2.138 3.968 3.462 1.495 1.324 3.724 2.726 4.953 3.116 1.23.391 2.819 1.293 3.532 2.006 2.263 2.263 10.685 2.587 58.823 2.26 47.023-.32 47.026-.32 49.885-2.57 1.572-1.237 3.469-2.25 4.215-2.25.747 0 1.919-.9 2.606-2 .687-1.1 1.74-2 2.339-2 .6 0 2.404-1.592 4.01-3.538a453.197 453.197 0 0 1 5.169-6.146c1.238-1.434 2.253-3.33 2.256-4.212.004-.882.791-2.954 1.75-4.604 1.618-2.783 1.78-10.296 2.244-103.937l.5-100.936 3.5-.904c1.925-.497 3.95-1.262 4.5-1.701.55-.439 3.417-1.123 6.371-1.52 5.671-.763 15-5.002 15.843-7.2.275-.716 1.014-1.307 1.643-1.313 1.34-.012 7.643-6.284 7.643-7.605 0-.497.9-1.465 2-2.152s2-1.98 2-2.872c0-.893 1.013-3.252 2.25-5.242l2.25-3.618v-188l-2.25-4.695c-1.237-2.582-2.25-5.643-2.25-6.802 0-1.957-1.3-4.996-5.347-12.503a157.45 157.45 0 0 1-3.098-6.129c-.814-1.721-2.172-3.394-3.018-3.718-.845-.325-1.537-1.207-1.537-1.961 0-1.205-11.662-13.618-16.622-17.692-3.641-2.991-9.904-6.964-11.006-6.982-.62-.01-1.685-.69-2.366-1.511s-3.099-1.988-5.372-2.593c-2.274-.605-4.811-1.703-5.639-2.44-.827-.737-3.977-1.667-7-2.066-3.022-.399-7.07-1.415-8.995-2.258-2.944-1.289-10.496-1.566-47.5-1.742-24.2-.115-46.744.083-50.099.441m95.319 3.709c19.99 2.889 35.232 10.462 49.233 24.464 8.594 8.594 12.999 15.162 19.436 28.978.897 1.925 2.746 8 4.109 13.5l2.478 10-.032 87.5c-.027 75.728-.236 88.038-1.548 91.5-.835 2.2-1.968 5.487-2.519 7.305-1.447 4.775-12.302 15.402-18.929 18.531-4.093 1.933-18.351 5.661-21.659 5.664-.116 0-1.129.985-2.25 2.189-2.023 2.171-2.039 2.949-2.043 100.25l-.005 98.061-2.298 6.5c-4.344 12.288-10.591 19.256-21.879 24.406L751.128 793h-47.537c-47.008 0-47.591-.025-52.314-2.22-2.627-1.221-6.689-3.727-9.027-5.567l-4.25-3.347V628.237l3.452-2.633c1.899-1.448 4.323-2.964 5.386-3.369 6.422-2.442 25.372-21.381 30.253-30.235 1.062-1.925 2.348-4.175 2.858-5 1.679-2.712 6.051-12.852 6.051-14.033 0-.636.912-4.159 2.027-7.829 1.988-6.546 2.021-8.66 1.75-111.655-.221-83.58-.543-105.585-1.579-107.936-.717-1.624-1.503-4.931-1.748-7.349-.244-2.419-1.27-6.265-2.278-8.548-1.009-2.282-2.158-5.446-2.554-7.029-1.063-4.247-9.552-21.22-14.065-28.121-4.037-6.173-11.866-16.133-14.245-18.123-2.22-1.857-.384-4.237 4.033-5.229 2.288-.514 22.708-.982 45.379-1.041 32.491-.084 43.502.223 52 1.451" fill="#BC5000FE" stroke="#BC5000FE"/><path d="M657 274.457c0 .299.788 1.364 1.75 2.368 3.288 3.43 6.412 7.673 7.307 9.925.491 1.238 1.33 2.25 1.864 2.25.939 0 1.993 1.642 5.779 9 .99 1.925 2.344 3.85 3.01 4.277.665.428 1.521 2.453 1.902 4.5.381 2.048 1.524 4.311 2.54 5.03 1.016.718 1.848 2.465 1.848 3.882 0 1.416.918 4.06 2.039 5.874 1.121 1.815 2.307 5.693 2.634 8.618.327 2.925 1.317 6.149 2.201 7.162 1.152 1.324 1.857 5.274 2.499 14 1.172 15.96 1.127 198.668-.053 209.657-.501 4.675-1.663 9.85-2.582 11.5-.918 1.65-1.928 4.673-2.243 6.718-.315 2.045-1.269 4.413-2.118 5.263-.85.849-1.979 3.114-2.508 5.032-.536 1.941-1.607 3.487-2.416 3.487-.799 0-1.454.788-1.454 1.75-.001.963-1.091 3.1-2.424 4.75-10.852 13.442-16.312 18.558-25.711 24.089-1.018.599-2.641 1.801-3.607 2.672-.966.871-2.994 1.892-4.507 2.269l-2.75.687v148.85l3.034 2.967c1.669 1.631 3.469 2.966 4 2.966.532 0 .966.616.966 1.368 0 .845 1.561 1.578 4.078 1.916 2.242.3 4.865 1.26 5.828 2.131 1.542 1.396 6.97 1.585 45.426 1.585 41.765 0 43.838-.087 47.407-2 2.052-1.1 4.642-2 5.756-2 1.113 0 2.586-.9 3.273-2 .687-1.1 1.793-2 2.458-2 1.494 0 9.737-9.047 9.758-10.711.009-.666 1.029-2.154 2.266-3.307l2.25-2.096.301-103.317.302-103.317 2.293-2.155c1.513-1.421 4.135-2.351 7.699-2.733 2.973-.318 7.235-1.43 9.471-2.471 2.236-1.041 5.39-1.893 7.009-1.893 1.861 0 3.403-.736 4.193-2 .687-1.1 1.826-2 2.532-2 1.595 0 9.7-8.146 9.7-9.749 0-.645 1.013-2.116 2.25-3.27l2.25-2.096V334.451l-2.25-2.861c-1.243-1.58-2.25-4.258-2.25-5.984 0-1.993-.692-3.557-1.91-4.318-1.051-.656-2.218-2.594-2.594-4.308-.377-1.713-1.3-3.351-2.052-3.64-.752-.289-1.654-1.428-2.005-2.531-.67-2.113-2.169-4.076-6.689-8.761-1.512-1.568-2.75-3.345-2.75-3.949 0-.605-.402-1.099-.894-1.099s-2.293-1.237-4.003-2.75c-4.98-4.405-8.847-7.25-9.856-7.25-.515 0-1.752-.9-2.747-2-.995-1.1-2.84-2-4.098-2-1.259 0-2.877-.83-3.595-1.845-.857-1.209-3.201-2.091-6.807-2.56-3.025-.393-6.625-1.475-8-2.405-2.252-1.522-7.586-1.719-53.75-1.983-28.187-.16-51.25-.048-51.25.25M254.686 275.017c-1.548.464-3.348 1.275-4 1.802-.652.526-3.661 1.283-6.686 1.682-3.337.439-6.204 1.467-7.289 2.612-.984 1.038-2.676 1.887-3.76 1.887-1.084 0-2.741.9-3.683 2-.942 1.1-2.527 2-3.522 2-.995 0-2.074.692-2.399 1.537-.324.845-1.803 2.164-3.286 2.931-4.699 2.43-18.061 16.771-18.061 19.383 0 .57-.84 1.624-1.866 2.342-1.026.719-2.178 2.732-2.561 4.474-.382 1.741-1.318 3.405-2.079 3.697-.761.292-1.704 2.242-2.096 4.333-.391 2.092-1.654 5.078-2.805 6.636-2.091 2.831-2.093 2.944-2.093 101.231v98.397l2.25 1.576c1.238.867 2.25 2.214 2.25 2.993 0 1.833 8.258 10.1 10.94 10.951 1.133.36 2.06 1.236 2.06 1.947 0 .811 1.916 1.52 5.137 1.902 2.826.334 5.863 1.238 6.75 2.007.887.77 4.313 1.66 7.613 1.98 5.049.488 6.436 1.067 8.75 3.648l2.75 3.067v101.849c0 100.335.03 101.887 2 104.392 1.1 1.398 2 3.161 2 3.917 0 1.749 8.635 10.559 11.123 11.349 1.033.328 1.877 1.181 1.877 1.897 0 .766 1.677 1.526 4.078 1.848 2.242.3 4.865 1.26 5.828 2.131 1.542 1.396 6.984 1.585 45.594 1.585 38.108 0 44.066-.202 45.547-1.543.938-.848 3.448-1.821 5.579-2.162 2.131-.34 4.462-1.446 5.181-2.457.718-1.011 1.926-1.838 2.682-1.838.757 0 1.662-.9 2.011-2 .349-1.1 1.054-2 1.567-2 .569 0 .933-29.249.933-74.921v-74.92l-3.048-.669c-1.676-.369-3.584-1.529-4.24-2.58-.656-1.05-1.801-1.91-2.544-1.91-1.41 0-5.77-3.019-9.495-6.575-1.195-1.14-2.96-2.364-3.923-2.718-.962-.354-1.75-1.303-1.75-2.108 0-.805-.9-1.75-2-2.099-1.1-.349-2-1.228-2-1.952 0-.725-1.125-2.055-2.5-2.956-1.375-.901-2.5-2.233-2.5-2.96 0-.727-.889-2.126-1.974-3.109-1.086-.983-2.256-2.672-2.599-3.754-.344-1.081-1.48-2.822-2.526-3.868-1.045-1.045-1.901-2.918-1.901-4.16 0-1.243-.9-2.822-2-3.509-1.33-.831-2.001-2.335-2.004-4.49-.002-1.783-.956-4.804-2.12-6.713-3.86-6.333-4.237-16.648-4.205-115.029.027-80.683.431-101.873 2.253-118.179.042-.373.766-1.369 1.61-2.212.844-.844 1.887-4.463 2.318-8.042.431-3.578 1.483-7.308 2.339-8.287.856-.979 1.856-3.455 2.223-5.503.366-2.047 1.233-4.072 1.926-4.5.694-.427 1.805-2.643 2.469-4.924.665-2.28 1.88-4.403 2.7-4.718.82-.315 1.491-1.486 1.491-2.604 0-1.117.9-2.931 2-4.031 1.1-1.1 2-2.384 2-2.854 0-.47 1.013-2.01 2.25-3.424 1.238-1.413 3.375-4.222 4.75-6.243 1.375-2.02 3.288-4.405 4.25-5.298.963-.894 1.75-1.975 1.75-2.403 0-1.056-97.77-.825-101.314.239M87.5 263.91c-2.2.363-4.511.976-5.135 1.363-.624.386-4.158 1.131-7.854 1.654-3.696.523-7.46 1.604-8.365 2.401-.905.797-3.103 1.759-4.885 2.138-1.781.378-3.523 1.149-3.872 1.713-.348.564-2.153 1.66-4.011 2.436-1.858.777-3.378 1.825-3.378 2.331s-.787 1.171-1.75 1.479c-5.334 1.705-24.225 24.191-24.243 28.856-.004.98-.67 2.036-1.48 2.347-.81.311-1.737 2.209-2.061 4.219-.323 2.009-1.573 5.866-2.777 8.571l-2.189 4.918V499.5l2.799 5c3.172 5.666 10.646 14.474 12.296 14.49.602.005 1.869.865 2.815 1.911.947 1.046 3.363 2.209 5.371 2.586 2.007.376 4.791 1.275 6.185 1.996 1.395.721 5.106 1.632 8.246 2.024l5.71.714.289 92.639.289 92.64 2.25 3.985c1.238 2.192 2.25 4.524 2.25 5.183 0 1.976 12.673 14.212 15.439 14.906 1.411.354 4.235 1.495 6.275 2.535C89.171 741.872 92.177 742 130 742c38.603 0 40.768-.097 44.5-2 2.158-1.1 4.421-2 5.03-2 .608 0 2.988-1.446 5.288-3.214l4.182-3.214V593.107l-5.354-3.554c-2.944-1.954-5.644-3.553-6-3.553-1.392 0-19.646-17.657-19.646-19.003 0-.539-.9-1.542-2-2.229s-2-1.953-2-2.814-1.125-3.09-2.5-4.954c-1.375-1.864-2.5-4.036-2.5-4.826 0-.791-.847-2.841-1.882-4.556-1.035-1.715-2.195-5.368-2.578-8.118s-1.336-5.997-2.118-7.215c-2.207-3.438-2.118-188.376.094-193.669.834-1.996 1.797-6.438 2.141-9.872.344-3.434 1.401-7.819 2.349-9.744.948-1.925 2.021-5.142 2.385-7.15.364-2.007 1.313-4.189 2.109-4.85.796-.661 1.734-2.731 2.085-4.6.351-1.87.983-3.4 1.405-3.4.422 0 1.354-1.462 2.071-3.25.718-1.787 2.347-4.522 3.622-6.077 1.274-1.554 2.317-3.445 2.317-4.2 0-.756.573-1.733 1.274-2.173.701-.44 2.003-1.925 2.894-3.3.891-1.375 3.042-4.071 4.78-5.99 2.136-2.36 2.985-4.142 2.619-5.5-.297-1.106-.546-2.303-.553-2.662-.049-2.317-8.587-2.841-44.413-2.723-20.956.069-39.901.422-42.101.785m82.602 3.972 2.324 1.881-4.463 5.71c-2.455 3.14-5.74 7.542-7.301 9.782-3.078 4.418-12.662 22.806-12.662 24.293 0 .502-.867 3.172-1.926 5.933-1.059 2.76-2.971 9.294-4.25 14.519l-2.324 9.5v193l2.334 7c4.952 14.849 9.582 23.224 18.902 34.196 4.289 5.048 16.804 15.059 23.136 18.507l3.128 1.704v136.821l-3.75 2.598c-2.062 1.429-6.621 3.515-10.13 4.636-5.941 1.898-8.908 2.038-43.056 2.038-34.887 0-36.99-.105-43.12-2.154-11.894-3.975-19.123-10.689-23.177-21.525-2.169-5.798-2.18-6.186-2.503-96.802-.212-59.43-.675-91.33-1.334-91.989-.555-.555-3.129-1.539-5.72-2.186-2.59-.647-7.239-1.816-10.331-2.599-10.548-2.669-18.903-9.616-23.748-19.745l-2.631-5.5V414c0-78.733.105-83.757 1.837-88 1.011-2.475 2.065-5.833 2.344-7.462 1.304-7.632 12.045-23.738 21.615-32.413C48.311 281.58 56.206 276 57.624 276c.622 0 1.631-.602 2.242-1.338.61-.736 3.028-1.908 5.372-2.603 2.344-.696 4.794-1.699 5.445-2.229.651-.53 3.126-1.155 5.5-1.389 2.374-.234 7.242-.817 10.817-1.296 3.575-.479 23.213-.933 43.639-1.008 34.985-.129 37.274-.028 39.463 1.745M843.323 263.671c-2.448.505-3.791 1.889-4.689 4.829-.443 1.455.551 3.283 3.648 6.704 2.341 2.586 5.373 6.576 6.738 8.865 1.364 2.289 3.268 5.009 4.23 6.046.963 1.037 1.75 2.499 1.75 3.25 0 .751.835 2.438 1.855 3.75 1.02 1.312 2.393 4.037 3.051 6.055.658 2.019 1.848 4.211 2.645 4.872.797.662 1.451 2.61 1.453 4.33.002 1.721.832 4.486 1.844 6.147 1.013 1.66 2.167 5.898 2.565 9.417.398 3.519 1.481 8.46 2.406 10.981 1.529 4.17 1.681 12.876 1.681 96.583 0 83.357-.156 92.379-1.657 96.037-.911 2.221-1.979 6.271-2.372 9-.394 2.73-1.301 5.638-2.015 6.463-.715.825-1.63 2.82-2.032 4.433-.403 1.613-1.788 4.488-3.078 6.39-1.29 1.901-2.346 3.96-2.346 4.576 0 .616-.9 1.682-2 2.369-1.1.687-2 1.677-2 2.2 0 .523-3.487 4.367-7.75 8.542-10.101 9.895-10.767 10.49-11.739 10.49-.452 0-2.297 1.125-4.1 2.5-1.803 1.375-3.742 2.5-4.309 2.5-2.871 0-3.102 5.361-3.102 71.895 0 60.608.171 68.167 1.57 69.316.864.709 2.312 2.075 3.219 3.035.906.96 3.125 2.022 4.93 2.361 1.804.339 3.281.994 3.281 1.457 0 2.324 9.652 2.925 47.039 2.93 36.811.006 39.794-.124 43.247-1.885 2.04-1.04 4.858-2.179 6.262-2.532 2.842-.713 15.452-12.81 15.452-14.823 0-.706 1.013-3.077 2.25-5.269l2.25-3.985.27-92.654.27-92.654 5.867-.681c3.227-.375 7.062-1.301 8.522-2.059 1.461-.757 4.182-1.664 6.048-2.014 1.866-.35 4.166-1.491 5.113-2.537.946-1.046 2.298-1.901 3.005-1.901 1.709 0 8.602-8.259 12.102-14.502l2.803-4.998v-173l-2.25-3.985c-1.237-2.192-2.25-5.169-2.25-6.615 0-1.447-.9-3.774-2-5.173-1.1-1.398-2-3.259-2-4.135 0-.875-.9-2.492-2-3.592s-2-2.352-2-2.783c0-2.506-15.34-18.698-19.25-20.319-1.512-.627-2.75-1.53-2.75-2.006 0-.476-1.52-1.5-3.378-2.277-1.858-.776-3.663-1.872-4.011-2.436-.349-.564-2.091-1.335-3.872-1.713-1.782-.379-3.98-1.341-4.885-2.138-.905-.797-4.653-1.875-8.329-2.396-3.676-.52-7.66-1.506-8.854-2.189-1.622-.929-12.545-1.278-43.171-1.382-22.55-.077-41.98.063-43.177.31m82.177 3.367c3.85.514 8.8 1.147 11 1.406 11.238 1.322 31.104 13.223 39.695 23.778C984.13 301.972 992 315.55 992 319.491c0 .686.9 4.066 2 7.509 1.932 6.049 2 9.007 1.995 87.38l-.004 81.12-2.376 5.833c-2.37 5.816-10.731 16.667-12.844 16.667-.612 0-1.824.616-2.692 1.369-1.643 1.425-18.855 6.631-21.924 6.631-4.223 0-4.155-1.507-4.155 92.219v89.819l-2.483 7.107c-4.15 11.879-11.456 19.003-23.397 22.817-5.941 1.898-8.907 2.038-43.075 2.038-36.171 0-36.796-.034-43.796-2.415-3.905-1.329-8.487-3.44-10.182-4.693l-3.081-2.278.257-68.544.257-68.543 3-1.425c12.816-6.088 30.018-24.337 36.474-38.695 2.737-6.087 6.557-17.691 7.429-22.571.36-2.015.668-44.548.682-94.518.026-84.799-.35-99.632-2.675-105.691-.312-.815-1.157-4.102-1.877-7.304-3.389-15.077-13.271-34.271-25.178-48.905-2.75-3.381-3.109-4.349-2.088-5.635.678-.854 1.908-1.794 2.733-2.089 2.614-.934 73.19-.633 80.5.344" fill="#BC5000FE" stroke="#BC5000FE"/><path d="M849.164 274.25c2.162 2.338 4.192 5.488 4.509 7 .317 1.513 1.152 2.75 1.854 2.75.703 0 1.793 1.238 2.423 2.75.631 1.513 2.448 5 4.038 7.75 4.027 6.965 5.012 9.291 5.012 11.843 0 1.217.9 2.983 2 3.925 1.32 1.131 2 2.95 2 5.354 0 2.003.903 5.103 2.007 6.89 3.715 6.01 4.413 24.148 4.408 114.488-.006 89.596-.584 103.857-4.407 108.717-1.104 1.404-2.008 3.772-2.008 5.263 0 1.49-.9 3.525-2 4.52-1.1.995-2 2.645-2 3.665s-.9 2.625-2 3.567c-1.1.942-2 2.308-2 3.036 0 .727-1.125 2.448-2.5 3.823s-2.5 2.848-2.5 3.274c0 .426-1.125 1.753-2.5 2.948-1.375 1.196-2.5 2.596-2.5 3.113 0 .517-.9 1.225-2 1.574s-2 1.207-2 1.907-1.125 1.785-2.5 2.411c-1.375.627-2.5 1.544-2.5 2.039 0 .495-1.317 1.446-2.928 2.113-1.61.667-3.705 2.072-4.655 3.121-.95 1.05-2.332 1.909-3.072 1.909-.74 0-2.245.9-3.345 2-1.959 1.959-2 3.333-2 66.311 0 63.339.031 64.345 2.039 66.5 1.121 1.204 2.674 2.189 3.45 2.189.777 0 1.852.788 2.39 1.75.907 1.62 4.356 1.771 46.484 2.029 44.003.27 45.565.215 47.321-1.669.999-1.071 3.112-2.273 4.697-2.67 1.584-.397 3.088-1.517 3.342-2.489.254-.971 1.257-1.974 2.228-2.228.972-.254 2.092-1.758 2.489-3.342.397-1.585 1.586-3.686 2.641-4.67 1.866-1.739 1.919-4.402 1.919-95.798v-94.008l2.75-2.564c3.577-3.333 5.431-3.989 13.799-4.876 4.329-.459 7.851-1.44 9.336-2.601 1.312-1.025 3.167-1.864 4.122-1.864 1.474 0 4.782-3.234 11.331-11.077 3.303-3.957 3.662-12.558 3.663-87.84.002-78.942-.649-94.398-4.166-98.968-1.009-1.312-1.835-3.626-1.835-5.143s-.661-3.012-1.468-3.322c-.808-.309-2.088-2.045-2.845-3.856-.758-1.812-2.122-3.912-3.032-4.666-.91-.755-1.655-1.977-1.655-2.715 0-.739-.9-1.824-2-2.413-1.1-.589-2-1.73-2-2.535 0-.806-.462-1.465-1.026-1.465-.565 0-3.008-1.912-5.43-4.25-4.72-4.556-9.998-8.13-13.732-9.301-1.272-.398-3.385-1.562-4.697-2.587-1.312-1.024-3.838-1.862-5.615-1.862-1.777 0-4.374-.9-5.773-2-2.456-1.932-4.057-2-47.019-2h-44.477l3.933 4.25M76.139 272.033c-1.298 1.082-3.831 1.967-5.627 1.967-1.797 0-3.826.673-4.508 1.495-.683.823-2.988 2.019-5.123 2.659-2.134.639-3.881 1.564-3.881 2.055 0 .491-1.595 1.559-3.544 2.374-1.948.814-3.797 2.141-4.106 2.949-.31.807-.966 1.468-1.457 1.468C46.727 287 36 297.645 36 298.801c0 .489-.889 1.693-1.974 2.676-1.086.983-2.273 2.74-2.638 3.905-.365 1.165-1.501 3.191-2.526 4.503-1.024 1.312-1.862 3.364-1.862 4.561s-.857 3.096-1.904 4.22c-1.248 1.34-2.132 4.247-2.565 8.439-.364 3.517-.895 40.82-1.18 82.895-.532 78.42-.093 90.869 3.349 94.941C30.34 511.614 34.899 516 36.194 516c.845 0 2.609.839 3.921 1.866 1.586 1.24 4.949 2.103 10.042 2.576 6.273.583 8.392 1.252 11.721 3.7l4.064 2.988.279 94.685.279 94.686 2.25 2.249c1.238 1.238 2.25 3.192 2.25 4.344 0 1.24.801 2.303 1.967 2.608 1.082.282 2.223 1.321 2.536 2.307.313.985 1.723 2.082 3.133 2.436 1.411.354 3.774 1.537 5.251 2.63 2.6 1.922 4.126 1.977 47.471 1.705 41.441-.259 44.857-.411 45.763-2.03.538-.962 1.613-1.75 2.39-1.75.776 0 2.329-.985 3.45-2.189 2.008-2.155 2.039-3.16 2.039-66.571 0-57.823-.164-64.547-1.608-65.991-1.521-1.521-3.524-2.755-11.142-6.866-1.787-.964-3.25-2.345-3.25-3.068 0-.723-.665-1.315-1.477-1.315s-2.214-1.125-3.115-2.5c-.901-1.375-2.261-2.5-3.023-2.5s-1.385-.511-1.385-1.135c0-.625-1.012-2.175-2.25-3.446-4.743-4.871-6.411-7.011-7.54-9.669-.642-1.512-1.578-2.75-2.08-2.75s-1.215-1.202-1.584-2.671c-.368-1.469-1.542-3.78-2.608-5.135S142 551.441 142 549.865c0-1.576-.849-3.714-1.886-4.751-1.409-1.409-2.05-3.999-2.536-10.25-.358-4.6-1.105-10.164-1.66-12.364-.656-2.599-.868-33.412-.606-88 .429-89.3 1.265-108.165 4.974-112.263.943-1.042 1.714-3.486 1.714-5.431 0-1.945.842-4.609 1.872-5.921 1.03-1.312 2.188-4.257 2.573-6.546.385-2.288 1.568-4.946 2.628-5.905 1.06-.959 1.927-2.574 1.927-3.589 0-1.015.835-2.68 1.855-3.7 1.021-1.021 2.154-3.046 2.519-4.5.365-1.455 1.282-2.645 2.037-2.645.755 0 1.645-1.085 1.977-2.412.561-2.233 2.491-4.96 6.862-9.693 1.716-1.858.873-1.894-43-1.862-43.005.032-44.842.11-47.111 2M491.454 12.974c-5.378.4-10.244 1.34-12 2.32-1.625.907-4.814 2.114-7.088 2.684-2.273.57-4.691 1.708-5.372 2.529S465.086 22 464.267 22C462.448 22 453 28.011 453 29.168c0 .458-.579.832-1.286.832-1.558 0-16.75 14.084-16.729 15.509.008.556-.885 1.572-1.985 2.259-1.1.687-2 1.743-2 2.346 0 .604-1.125 2.434-2.5 4.068-1.375 1.634-2.5 3.557-2.5 4.272 0 .716-.646 1.837-1.436 2.493-.789.655-1.739 2.623-2.111 4.372-.372 1.75-1.302 3.893-2.067 4.763-.766.87-1.882 4.245-2.481 7.5-.6 3.255-1.611 6.549-2.247 7.319-.733.887-1.281 7.143-1.492 17.036-.295 13.816-.092 16.325 1.75 21.564 1.146 3.261 2.084 7.122 2.084 8.579 0 1.458.841 3.723 1.87 5.035 1.028 1.312 2.182 3.816 2.564 5.566.382 1.749 1.341 3.717 2.13 4.372.79.656 1.436 1.777 1.436 2.493 0 .715 1.125 2.638 2.5 4.272 1.375 1.634 2.5 3.464 2.5 4.068 0 .603.9 1.659 2 2.346s2 1.719 2 2.293c0 1.271 8.667 9.683 15.504 15.048 5.901 4.63 7.658 5.776 12.996 8.474 2.2 1.111 5.125 2.674 6.5 3.472s3.59 1.458 4.921 1.466c1.332.008 3.222.74 4.201 1.625 4.344 3.932 50.11 4.108 54.595.21.981-.852 3.526-1.816 5.657-2.142 2.131-.326 4.606-1.234 5.5-2.017.894-.783 2.685-1.748 3.979-2.143 6.419-1.96 22.235-14.977 29.788-24.518 2.395-3.025 4.995-6.179 5.777-7.008.782-.83 1.741-2.779 2.131-4.331.39-1.552 1.298-3.049 2.019-3.325.72-.277 1.611-1.928 1.979-3.67.368-1.741 1.473-4.516 2.455-6.166.983-1.65 2.112-5.025 2.511-7.5.398-2.475 1.43-5.85 2.293-7.5 1.23-2.35 1.57-6.356 1.57-18.5s-.34-16.15-1.57-18.5c-.863-1.65-1.895-5.025-2.293-7.5-.399-2.475-1.577-5.903-2.619-7.618-1.042-1.715-1.894-3.792-1.894-4.615 0-.824-.872-2.606-1.938-3.961-1.066-1.355-2.243-3.678-2.615-5.161-.372-1.484-1.525-3.152-2.562-3.707-1.037-.554-1.885-1.669-1.885-2.476 0-1.393-16.069-17.949-21.119-21.758C555.989 25.014 539.961 17 537.474 17c-.999 0-2.591-.701-3.538-1.558-1.205-1.091-5.281-1.834-13.579-2.477-12.901-.998-15.362-.998-28.903.009m40.476 4.117c6.595 2.099 14.271 5.229 17.07 6.96.825.511 3.075 1.789 5 2.841 5.052 2.762 17.854 13.941 22.541 19.683 6.653 8.151 9.358 12.832 14.978 25.925 2.917 6.794 5.818 22.507 5.818 31.5-.001 8.004-3.243 26.914-5.282 30.815-.485.927-2.107 4.385-3.605 7.685-1.498 3.3-4.33 8.475-6.293 11.5-4.732 7.291-17.323 20.145-23.615 24.108a2260.567 2260.567 0 0 0-7.542 4.767c-3.952 2.516-9.893 5.108-18 7.853-6.978 2.363-8.823 2.542-26.5 2.563-15.502.019-19.713-.282-22.872-1.634-2.13-.911-4.561-1.657-5.404-1.657-1.489 0-11.21-4.118-14.224-6.025-.825-.522-2.85-1.692-4.5-2.599-1.65-.907-5.761-3.835-9.135-6.508-16.71-13.231-28.061-31.746-32.342-52.754-4.332-21.26-1.579-40.168 8.823-60.604 8.016-15.748 22.018-29.423 38.789-37.881 15.576-7.857 18.253-8.424 40.295-8.533 17.118-.085 20.211.153 26 1.995" fill="#BC5000FE" stroke="#BC5000FE"/><path d="M493.225 17.555c-1.222.856-5.029 2.008-8.461 2.56-3.431.553-6.949 1.648-7.817 2.433-.868.786-3.124 1.728-5.013 2.095-1.889.367-4.507 1.497-5.819 2.512-1.312 1.015-3.224 1.845-4.25 1.845-1.026 0-1.865.444-1.865.987 0 .936-5.501 4.978-10.639 7.818-1.299.717-2.361 1.924-2.361 2.682s-.9 1.664-2 2.013-2 1.12-2 1.712c0 .593-.896 2.025-1.99 3.183-5.305 5.612-6.802 7.639-7.4 10.021-.356 1.421-1.258 2.584-2.004 2.584s-1.643 1.433-1.993 3.184c-.35 1.752-1.361 3.986-2.247 4.964-.886.979-2.007 3.899-2.491 6.49-.484 2.59-1.608 5.515-2.499 6.5-2.421 2.674-2.426 43.044-.007 45.718.888.981 2.075 4.213 2.638 7.183.564 2.969 1.657 5.753 2.431 6.186.773.433 1.726 2.247 2.118 4.031.392 1.784 1.552 3.832 2.578 4.551 1.026.718 1.866 1.918 1.866 2.665 0 1.34 2.526 4.761 6.575 8.905 1.14 1.168 2.364 2.911 2.718 3.873.354.963 1.333 1.75 2.176 1.75.842 0 1.531.686 1.531 1.525 0 .838 1.013 1.912 2.25 2.385 1.238.473 3.107 1.812 4.155 2.975s2.506 2.115 3.242 2.115c.735 0 1.898.9 2.585 2s1.98 2 2.874 2c.893 0 2.713.857 4.044 1.904 1.331 1.047 4.282 2.405 6.558 3.017 2.275.613 4.311 1.637 4.524 2.275.213.638 3.412 1.474 7.11 1.857 3.944.408 7.465 1.367 8.519 2.321 2.863 2.591 23.348 2.323 28.639-.374 2.158-1.1 5.792-2 8.077-2 2.512 0 5.096-.73 6.538-1.848 1.312-1.016 3.708-2.171 5.324-2.566 1.616-.395 4.161-1.589 5.654-2.652 1.494-1.064 3.418-1.934 4.276-1.934.858 0 2.042-.9 2.631-2s1.552-2 2.141-2 2.407-1.125 4.041-2.5c1.634-1.375 3.612-2.5 4.395-2.5.783 0 1.423-.467 1.423-1.039 0-.571 1.836-2.933 4.081-5.25 2.245-2.316 4.731-5.448 5.526-6.961.794-1.512 1.852-2.75 2.351-2.75.499 0 1.218-1.012 1.599-2.25.38-1.237 1.535-3.055 2.567-4.039 1.032-.984 1.876-2.881 1.876-4.215 0-1.402.844-2.877 2-3.496 1.371-.734 2-2.094 2-4.324 0-1.789.985-5.036 2.188-7.215 2.051-3.713 2.189-5.246 2.189-24.461 0-19.215-.138-20.748-2.189-24.461-1.203-2.179-2.188-5.426-2.188-7.215 0-2.163-.631-3.592-1.884-4.262-1.036-.554-2.181-2.595-2.545-4.535-.364-1.94-1.115-3.527-1.668-3.527-.554 0-1.478-1.35-2.053-3s-1.459-3-1.964-3c-.505 0-1.669-1.575-2.587-3.5-.918-1.925-2.261-3.5-2.984-3.5-.723 0-1.315-.453-1.315-1.007 0-.553-1.125-1.984-2.5-3.18-1.375-1.195-2.5-2.768-2.5-3.493 0-.726-.716-1.32-1.592-1.32-1.675 0-5.999-2.964-9.849-6.75-1.259-1.237-2.939-2.25-3.735-2.25-.796 0-2.341-.833-3.434-1.851-1.092-1.018-3.638-2.16-5.656-2.539s-4.304-1.323-5.08-2.099c-.775-.775-3.827-1.708-6.782-2.074-2.955-.365-6.86-1.513-8.679-2.55-4.44-2.533-24.486-2.771-27.968-.332M694.5 28.888c-1.1.473-4.925 1.189-8.5 1.59-3.575.402-7.903 1.584-9.618 2.626-1.715 1.043-4.017 1.896-5.115 1.896-1.099 0-3.141.9-4.54 2-1.398 1.1-2.875 2-3.281 2-2.111 0-12.894 8.303-19.832 15.27l-7.887 7.92.69 10.9c.379 5.995 1.341 13.399 2.136 16.454 1.665 6.391 1.921 22.324.441 27.463-.553 1.921-1.497 7.512-2.096 12.425-.599 4.912-1.699 9.862-2.443 11-1.8 2.75-2.845 9.678-2.076 13.77.341 1.819 2.413 5.26 4.62 7.674 2.2 2.407 4.017 4.657 4.037 5 .031.554 4.353 4.62 13.36 12.568 1.593 1.406 3.436 2.556 4.095 2.556.659 0 2.014.9 3.009 2 .995 1.1 2.58 2 3.52 2 .941 0 2.807.863 4.148 1.918 1.341 1.055 4.199 2.248 6.351 2.652 2.152.403 5.876 1.602 8.275 2.663 3.871 1.712 6.297 1.892 21.534 1.598 13.831-.267 17.756-.66 20.172-2.021 1.65-.929 4.673-1.96 6.718-2.289 2.045-.33 4.307-1.189 5.027-1.909.721-.721 2.949-1.851 4.953-2.512 2.003-.661 4.183-1.854 4.844-2.651.662-.797 1.819-1.449 2.572-1.449.753 0 1.931-.9 2.618-2 .687-1.1 1.735-2 2.328-2 .594 0 2.029-1.012 3.19-2.25 1.161-1.237 2.705-2.743 3.431-3.346 1.141-.949 7.383-7.916 11.064-12.351 1.367-1.646 4.072-6.358 5.771-10.053.632-1.375 1.97-4.091 2.973-6.036 1.004-1.945 2.157-5.77 2.564-8.5.407-2.73 1.461-6.067 2.341-7.415 2.286-3.502 2.199-28.166-.114-32.562-.873-1.657-1.918-5.257-2.324-8-.405-2.743-1.574-6.06-2.597-7.372C779.837 78.803 779 76.952 779 76c0-.952-.787-2.809-1.75-4.127-.962-1.318-2.2-3.111-2.75-3.985-6.172-9.807-16.282-20.702-21.862-23.56-1.726-.884-3.378-1.976-3.672-2.428-.771-1.183-11.692-6.899-13.197-6.906-.698-.004-2.619-.744-4.269-1.646-5.896-3.222-32.436-6.421-37-4.46m35 5.876c4.4 1.593 9.125 3.529 10.5 4.302 16.907 9.504 28.747 21.349 36.057 36.073 1.737 3.498 3.549 7.125 4.026 8.059 1.221 2.386 3.913 15.072 4.84 22.802 1.125 9.375-1.709 27.901-5.5 35.962-7.023 14.931-10.84 20.377-20.847 29.739-9.724 9.098-20.431 14.984-34.41 18.917-7.078 1.991-10.893 2.431-20.821 2.399-7.501-.024-13.627-.553-16-1.382-2.115-.739-5.572-1.662-7.683-2.051-3.44-.634-9.57-3.171-13.662-5.653-.825-.501-3.075-1.782-5-2.848-10.907-6.038-26.971-23.603-26.99-29.513-.006-1.611.845-5.661 1.89-9 4.401-14.056 7.503-35.08 6.502-44.07-.808-7.262-2.098-15.041-3.798-22.903-2.16-9.992-1.518-11.711 7.887-21.117 7.972-7.972 21.021-16.611 27.393-18.135 1.439-.344 3.949-1.298 5.577-2.12 4.777-2.411 12.092-3.137 27.539-2.735 12.941.337 15.36.689 22.5 3.274M300.5 28.888c-1.1.473-4.925 1.189-8.5 1.59-3.575.402-7.903 1.584-9.618 2.626-1.715 1.043-4.017 1.896-5.115 1.896-1.099 0-3.141.9-4.54 2-1.398 1.1-2.921 2.008-3.385 2.018-.892.019-8.27 4.688-12.156 7.693-4.133 3.195-11.369 10.704-13.77 14.289a436.653 436.653 0 0 1-5.364 7.762c-1.661 2.344-3.313 5.494-3.67 7-.358 1.506-1.279 3.463-2.046 4.35-.768.886-1.795 4.036-2.283 7-.488 2.963-1.597 6.738-2.464 8.388-2.484 4.726-2.195 28.604.411 34 1.063 2.2 1.947 5.627 1.966 7.615.019 2.057.896 4.711 2.034 6.158 1.1 1.398 2 3.198 2 4 0 .801.823 2.53 1.83 3.842 1.006 1.312 2.134 3.218 2.507 4.236.373 1.017 1.687 3.182 2.92 4.81 2.772 3.659 15.636 16.699 18.866 19.124 4.878 3.663 10.008 6.715 11.287 6.715.726 0 2.474.908 3.884 2.017 1.411 1.109 4.617 2.4 7.125 2.869 2.508.469 5.309 1.473 6.224 2.233 2.413 2.002 39.301 2.002 41.714 0 .915-.76 3.762-1.773 6.327-2.252 2.565-.479 5.373-1.492 6.24-2.251.867-.759 2.635-1.703 3.929-2.098 2.29-.699 7.15-3.61 12.074-7.233 4.213-3.1 16.46-15.698 19.323-19.878 3.413-4.983 3.793-12.99.875-18.434-1.031-1.924-2.212-6.867-2.625-10.986-.412-4.118-1.364-9.512-2.114-11.987-1.616-5.331-1.823-21.049-.343-26.007 1.651-5.525 3.812-23.283 3.23-26.537-.862-4.819-6.954-12.007-15.827-18.671-2.72-2.044-5.621-4.349-6.446-5.123-.825-.775-2.625-1.752-4-2.173-1.375-.42-3.573-1.602-4.885-2.627-1.312-1.024-3.349-1.862-4.527-1.862-1.179 0-3.235-.765-4.57-1.7-4.421-3.096-31.864-6.412-36.518-4.412m24 3.048c3.3.492 7.8 1.687 10 2.656 2.2.968 4.839 1.911 5.865 2.095 5.648 1.016 18.385 9.874 27.497 19.123l8.363 8.489-.671 6.1c-.369 3.356-1.402 8.801-2.297 12.101-1.161 4.283-1.64 10.437-1.673 21.5-.046 15.581.194 17.281 5.012 35.5 2.855 10.797 2.868 13.805.078 18.224-3.059 4.847-14.891 17.121-19.653 20.389-20.358 13.968-45.34 18.61-67.521 12.546-8.863-2.422-17.498-6.024-22.601-9.425-1.43-.954-3.905-2.603-5.5-3.664-4.42-2.943-15.541-14.516-18.805-19.57a15846.69 15846.69 0 0 1-4.52-7c-4.798-7.436-10.093-28.134-10.038-39.241.019-3.992.734-9.959 1.587-13.259.854-3.3 1.719-7.469 1.923-9.263 1.013-8.902 13.663-28.938 24.119-38.201 7.216-6.392 21.495-14.917 25.135-15.005.714-.017 2.722-.767 4.461-1.666 1.739-.899 5.429-1.968 8.2-2.375 7.267-1.068 24.052-1.097 31.039-.054" fill="#BC5000FE" stroke="#BC5000FE"/><path d="M688.239 35.545c-1.213.85-4.576 1.813-7.473 2.141-3.196.361-5.969 1.326-7.055 2.454-.984 1.023-2.671 1.86-3.75 1.86-1.079 0-2.85.889-3.936 1.975-1.086 1.086-3.142 2.267-4.57 2.626-1.427.358-3.122 1.494-3.766 2.525-.643 1.031-1.962 1.874-2.93 1.874-.967 0-1.759.685-1.759 1.521 0 .837-1.125 2.034-2.5 2.661-1.375.626-2.5 1.784-2.5 2.572s-.9 1.669-2 1.956c-1.1.288-2 1.076-2 1.752 0 .675-.9 2.043-2 3.038-2.457 2.224-2.511 3.79-.25 7.241 1.567 2.392 1.75 5.764 1.75 32.259 0 25.91-.207 29.904-1.664 32.127-.915 1.397-1.985 4.752-2.378 7.456-.392 2.704-1.171 5.795-1.729 6.869-.718 1.38-.681 2.064.128 2.334.628.209 1.143 1.083 1.143 1.942s.92 2.509 2.044 3.667C655.193 172.97 657.366 175 658.82 175c.61 0 1.591.9 2.18 2 .589 1.1 1.894 2 2.9 2 1.007 0 2.979.904 4.384 2.009 1.405 1.105 4.053 2.299 5.885 2.655 1.832.355 4.34 1.426 5.574 2.379 4.759 3.678 44.853 3.424 49.015-.311.958-.859 3.398-1.87 5.423-2.246 2.024-.375 3.906-1.271 4.182-1.99.276-.719 1.859-1.606 3.518-1.97 1.659-.364 4.705-2.209 6.769-4.099 2.064-1.891 5.012-3.995 6.551-4.676 1.539-.682 2.799-1.631 2.799-2.109 0-.479 2.174-3.407 4.831-6.506 2.657-3.1 5.118-6.423 5.468-7.386.351-.962 1.085-1.75 1.631-1.75s1.465-1.754 2.042-3.897c.577-2.144 1.72-4.155 2.539-4.469.819-.314 1.489-1.77 1.489-3.235 0-1.464 1.013-4.291 2.25-6.281 2.14-3.441 2.25-4.608 2.25-23.825 0-18.372-.165-20.328-1.816-21.535-1.027-.751-2.06-3.143-2.377-5.502-.307-2.296-1.403-4.938-2.433-5.87-1.031-.933-1.874-2.331-1.874-3.108 0-.776-1.125-2.886-2.5-4.689s-2.5-4.023-2.5-4.933c0-.911-.689-1.656-1.531-1.656-.843 0-1.793-.682-2.113-1.515-.822-2.141-5.955-7.485-7.19-7.485-.567 0-1.317-.9-1.666-2s-1.264-2-2.032-2c-.769 0-1.852-.848-2.406-1.885-.555-1.037-2.259-2.198-3.786-2.581-1.527-.383-3.581-1.56-4.565-2.615-.984-1.056-2.893-1.919-4.241-1.919-1.37 0-3.005-.883-3.702-2-.907-1.452-2.348-2.006-5.259-2.022-2.205-.012-5.971-.912-8.368-2-5.771-2.618-28.344-2.925-31.902-.433M294.239 35.545c-1.213.85-4.576 1.813-7.473 2.141-3.196.361-5.969 1.326-7.055 2.454-.984 1.023-2.584 1.86-3.556 1.86-.971 0-3.291 1.125-5.155 2.5-1.864 1.375-4.171 2.5-5.127 2.5-.956 0-2.024.9-2.373 2-.349 1.1-1.504 2-2.567 2-1.102 0-1.933.685-1.933 1.594 0 .876-.885 1.825-1.967 2.108-1.082.282-2.23 1.342-2.551 2.355-.321 1.012-1.461 2.119-2.533 2.459-1.072.34-1.949 1.278-1.949 2.083 0 .805-.692 1.729-1.537 2.054-.846.324-2.22 1.997-3.054 3.718-2.067 4.265-4.58 8.637-6.668 11.602-.957 1.359-1.741 3.722-1.741 5.25 0 1.527-.943 3.72-2.095 4.872-1.989 1.989-2.096 3.13-2.11 22.453-.013 19.208.106 20.51 2.096 23.04 1.186 1.509 2.109 4.138 2.109 6.012 0 2.259.617 3.66 1.919 4.356 1.055.565 2.226 2.427 2.602 4.138.375 1.71 1.323 3.851 2.106 4.758 5.161 5.975 11.373 14.226 11.373 15.104 0 .574.728 1.044 1.618 1.044 1.426 0 5.62 3.016 10.466 7.526.871.811 2.273 1.474 3.115 1.474.842 0 2.62.857 3.951 1.904s4.282 2.405 6.558 3.017c2.275.613 4.308 1.626 4.516 2.252 1.159 3.475 45.644 3.102 49.157-.411.869-.869 3.353-1.879 5.521-2.245 2.168-.367 4.178-1.283 4.467-2.036.289-.754 2.125-1.671 4.078-2.037 2.081-.39 3.553-1.252 3.553-2.08 0-.777 1.024-1.803 2.275-2.278 3.022-1.149 15.725-13.117 15.725-14.815 0-.733.664-1.589 1.475-1.9 2.547-.977 4.553-6.167 3.478-8.995-.524-1.378-.953-3.813-.953-5.41 0-1.598-1.012-4.831-2.25-7.185-2.181-4.149-2.25-5.16-2.25-32.781 0-25.18.204-28.897 1.75-31.904.963-1.872 1.75-3.802 1.75-4.29C373 65.685 363.754 55 361.919 55c-.431 0-1.07-.9-1.419-2s-1.264-2-2.032-2c-.769 0-1.86-.863-2.424-1.919-.565-1.055-2.412-2.222-4.103-2.594-1.692-.372-3.314-1.296-3.605-2.054-.291-.758-2.092-1.672-4.002-2.03-1.91-.358-3.999-1.496-4.644-2.527-.824-1.32-2.359-1.883-5.181-1.898-2.205-.012-5.971-.912-8.368-2-5.771-2.618-28.344-2.925-31.902-.433M120 46.15c-1.375.563-5.425 1.443-9 1.955s-6.956 1.539-7.514 2.282c-.558.743-2.583 1.687-4.5 2.098-1.917.412-4.291 1.596-5.275 2.631C92.727 56.152 91.303 57 90.546 57c-2.041 0-15.392 12.198-19.831 18.119-3.475 4.634-6.524 9.704-7.233 12.028-.395 1.294-1.338 3.061-2.095 3.926-.757.865-1.675 3.79-2.04 6.5s-1.379 6.033-2.255 7.384c-2.41 3.718-2.29 26.566.159 30.303.962 1.469 1.749 3.968 1.749 5.556 0 1.587 1.125 5.002 2.5 7.588 1.375 2.586 2.5 5.283 2.5 5.994 0 .711.9 2.107 2 3.102 1.1.995 2 2.254 2 2.797 0 .97 8.881 11.919 10.139 12.5.353.163 2.763 2.301 5.356 4.75S88.768 182 89.45 182c.682 0 2.055.9 3.05 2 .995 1.1 2.391 2 3.102 2 .711 0 3.408 1.125 5.994 2.5s6.007 2.5 7.603 2.5c1.595 0 4.267.707 5.937 1.571 6.171 3.19 21.721 2.963 31.364-.459 1.65-.586 4.673-1.318 6.718-1.628 2.045-.309 4.299-1.144 5.01-1.855.71-.71 2.637-1.629 4.282-2.041 1.644-.413 3.795-1.614 4.779-2.669.984-1.056 2.414-1.919 3.179-1.919.764 0 3.473-1.996 6.019-4.436 2.547-2.44 5.016-4.578 5.487-4.75.472-.173 3.146-3.184 5.942-6.691 4.462-5.598 5.084-6.943 5.08-11-.002-2.717-.759-5.862-1.837-7.629-1.008-1.654-2.153-6.152-2.545-10-.392-3.847-1.412-10.079-2.267-13.849-1.776-7.83-1.449-16.391 1.15-30.145.936-4.95 1.518-11.55 1.295-14.666-.392-5.455-.637-5.883-6.561-11.5C175.173 60.643 170.596 57 169.247 57c-.515 0-1.705-.848-2.643-1.885-.938-1.037-3.116-2.167-4.839-2.512-1.724-.345-3.846-1.271-4.716-2.058-.87-.788-4.6-1.914-8.29-2.504-3.69-.589-7.874-1.514-9.299-2.056-3.341-1.271-16.22-1.161-19.46.165m22.722 2.79c14.157 2.048 32.551 12.349 41.146 23.045 3.613 4.496 4.136 10.129 1.726 18.583-3.816 13.387-2.36 39.764 3.116 56.432 2.806 8.543 2.743 10.481-.493 15.185-5.064 7.359-12.058 13.611-23.217 20.754-7.348 4.703-24.142 9.06-34.922 9.061-11.286 0-26.085-3.937-35.966-9.569-9.648-5.499-20.946-16.789-26.563-26.543-5.391-9.364-9.442-24.692-9.51-35.986-.041-6.877 2.913-23.123 4.813-26.469.604-1.063 1.775-3.508 2.603-5.433 3.428-7.972 10.388-16.834 18.163-23.127 10.453-8.461 22.497-14.374 32.165-15.791 7.883-1.156 19.507-1.217 26.939-.142M873.188 46.054c-1.272.51-5.314 1.407-8.984 1.993-3.669.586-7.354 1.659-8.188 2.383-.834.724-3.203 1.859-5.266 2.521-2.062.662-3.75 1.589-3.75 2.059 0 .47-1.012 1.174-2.25 1.563-4.79 1.507-18.153 13.726-19.827 18.129-1.2 3.157-.443 14.241 1.681 24.613 1.611 7.866 1.77 17.429.387 23.185-.529 2.2-1.426 7.965-1.993 12.811-.567 4.845-1.696 9.825-2.508 11.065-3.348 5.108-2.975 12.373.895 17.464 3.288 4.326 17.158 17.142 19.682 18.188 1.613.668 2.933 1.575 2.933 2.016 0 .44 1.688 1.343 3.75 2.005 2.063.662 4.503 1.86 5.422 2.662.92.802 3.62 1.707 6 2.012 2.381.304 5.678 1.263 7.328 2.132 4.491 2.364 24.818 2.291 29.2-.105 1.761-.962 4.506-1.75 6.101-1.75 1.596 0 5.017-1.125 7.603-2.5 2.586-1.375 5.108-2.5 5.605-2.5 1.065 0 7.499-4.163 10.826-7.005 1.284-1.097 2.747-1.995 3.25-1.995.503 0 .915-.675.915-1.5s.458-1.5 1.018-1.5c2.575 0 14.845-15.725 16.5-21.147.395-1.294 1.358-3.083 2.14-3.976.783-.893 1.817-3.818 2.299-6.5s1.569-6.677 2.416-8.877c2.079-5.402 2.079-21.598 0-27-.847-2.2-1.934-6.195-2.416-8.877-.482-2.682-1.516-5.607-2.299-6.5-.782-.893-1.762-2.748-2.177-4.123-.416-1.375-1.594-3.573-2.619-4.885-1.024-1.312-1.862-2.871-1.862-3.465 0-1.178-.898-2.199-9.805-11.15-7.967-8.005-10.917-10.392-13.711-11.093-1.287-.323-2.566-1.179-2.844-1.903-.278-.723-1.998-1.633-3.822-2.021-1.825-.388-4.059-1.358-4.964-2.155-.905-.797-4.563-1.862-8.129-2.367-3.566-.505-7.692-1.378-9.169-1.94-3.301-1.255-16.211-1.233-19.368.033M903 50.377c10.371 3.409 10.776 3.611 22.5 11.214 9.039 5.861 18.611 17.726 23.726 29.409 3.158 7.214 6.102 20.975 6.096 28.5-.005 6.799-2.929 22.734-4.862 26.5a813.144 813.144 0 0 0-4.004 8c-4.777 9.655-16.464 22.087-25.456 27.078-1.925 1.069-4.175 2.356-5 2.862-6.992 4.282-22.496 8.06-33.078 8.06-7.865 0-20.509-2.608-27.422-5.656-12.662-5.581-24.537-15.051-30.472-24.3-3.407-5.309-3.671-7.288-1.523-11.406.821-1.574 1.95-5.725 2.509-9.224.559-3.5 1.542-7.612 2.183-9.139.729-1.732 1.183-9.164 1.209-19.775.032-13.41-.323-18.147-1.682-22.432-.948-2.987-1.724-7.473-1.724-9.969 0-4.341.335-4.866 7.75-12.117 10.364-10.137 23.362-17.084 35.646-19.055 7.416-1.189 28.319-.287 33.604 1.45" fill="#BC5000FE" stroke="#BC5000FE"/><path d="M867.5 53c-1.65 1.093-4.35 1.996-6 2.008-1.65.012-4.125.678-5.5 1.48-1.375.802-3.886 2.12-5.58 2.927-1.693.808-3.661 2.17-4.372 3.027-.711.857-1.909 1.558-2.662 1.558-.753 0-1.931.9-2.618 2-.687 1.1-1.635 2-2.107 2-1.039 0-6.661 5.895-6.661 6.984 0 .425-.968 1.415-2.15 2.2-2.134 1.417-2.136 1.45-.25 4.325 1.708 2.604 1.933 5.326 2.222 26.944.335 25.046-.094 31.665-2.187 33.785-1.581 1.601-3.462 13.999-2.513 16.564.906 2.449 13.793 15.623 16.128 16.487.963.357 1.75 1.337 1.75 2.18 0 .943.908 1.531 2.365 1.531 1.301 0 3.462.863 4.803 1.918 1.341 1.055 4.214 2.245 6.385 2.645 2.171.4 5.02 1.562 6.332 2.582 2.088 1.624 4.312 1.855 17.882 1.855 13.437 0 15.911-.251 18.615-1.892 1.715-1.041 4.693-2.224 6.618-2.63 1.925-.406 4.573-1.58 5.885-2.608 1.312-1.029 3.208-1.87 4.215-1.87 1.006 0 2.311-.9 2.9-2s1.554-2 2.144-2c1.995 0 14.841-12.752 14.85-14.742.003-.682.906-1.803 2.006-2.49 1.1-.687 2-2.006 2-2.932 0-.925 1.125-3.02 2.5-4.654 1.431-1.7 2.5-4.233 2.5-5.921 0-1.681.861-3.73 2-4.761 1.857-1.681 1.998-3.064 1.978-19.405-.02-15.923-.208-17.833-1.978-20.095-1.076-1.375-1.966-3.737-1.978-5.25-.012-1.512-.911-3.639-1.997-4.725-1.086-1.086-2.283-3.223-2.661-4.75-.378-1.526-1.515-3.363-2.526-4.082-1.011-.718-1.838-1.715-1.838-2.215C938 77.408 924.009 64 922.372 64c-.858 0-1.795-.9-2.082-2-.328-1.252-1.364-2-2.772-2-1.236 0-3.321-.841-4.633-1.868-1.312-1.028-4.79-2.382-7.73-3.01-2.94-.628-6.302-1.812-7.472-2.632-1.612-1.129-5.167-1.488-14.656-1.483-10.819.005-12.936.277-15.527 1.993M114.652 52.891c-1.566 1.032-5.075 2.173-7.797 2.534-2.939.39-5.177 1.251-5.511 2.121-.309.806-2.313 1.745-4.453 2.087-2.368.379-3.891 1.17-3.891 2.02 0 .768-1.125 1.824-2.5 2.347-1.375.523-2.5 1.426-2.5 2.007 0 .581-.787 1.342-1.75 1.692-2.328.846-10.18 9.214-11.307 12.051-.491 1.238-1.58 2.25-2.418 2.25-.96 0-1.525.926-1.525 2.5 0 1.375-.875 3.375-1.944 4.444-1.07 1.07-2.252 3.657-2.627 5.75s-1.413 4.641-2.306 5.661c-2.427 2.774-2.414 36.54.016 39.29.901 1.02 1.972 3.43 2.38 5.355.408 1.925 1.583 4.573 2.611 5.885 1.029 1.312 1.87 3.116 1.87 4.009 0 .894.9 2.187 2 2.874 1.1.687 2 1.767 2 2.401 0 1.553 13.174 14.792 14.742 14.814.682.009 1.803.917 2.49 2.017.687 1.1 1.98 2 2.874 2 .893 0 2.697.841 4.009 1.87 1.312 1.028 3.96 2.202 5.885 2.608 1.925.406 4.903 1.589 6.618 2.63C114.316 187.745 116.791 188 130 188c13.209 0 15.684-.255 18.382-1.892 1.715-1.041 4.693-2.224 6.618-2.63 1.925-.406 4.573-1.58 5.885-2.608 1.312-1.029 3.449-1.87 4.75-1.87 1.453 0 2.365-.588 2.365-1.525 0-.838 1.125-1.952 2.5-2.475 1.375-.523 2.5-1.423 2.5-2s1.125-1.477 2.5-2c1.375-.523 2.5-1.412 2.5-1.976 0-.565 1.725-2.713 3.833-4.775 2.109-2.062 4.064-4.655 4.345-5.762.941-3.709-.892-14.514-2.826-16.65-1.709-1.889-1.852-4.187-1.852-29.736 0-25.179.166-27.943 1.836-30.491 1.781-2.718 1.781-2.855 0-4.594-1.01-.985-3.186-3.407-4.836-5.382-1.65-1.975-3.454-3.601-4.009-3.612-.556-.012-1.572-.922-2.259-2.022-.687-1.1-1.916-2-2.732-2-.816 0-2.045-.9-2.732-2-.687-1.1-1.98-2-2.874-2-.893 0-2.801-.926-4.24-2.057-1.438-1.132-4.797-2.402-7.464-2.824-2.666-.421-5.925-1.521-7.242-2.443-3.686-2.582-26.297-2.422-30.296.215" fill="#BC5000FE" stroke="#BC5000FE"/><path d="M642.742 455.777c.134 53.994.535 96.346.891 94.115.439-2.746.921-3.625 1.492-2.723.465.732.82-39.394.789-89.169-.031-51.405-.426-89.636-.914-88.5-.688 1.601-.897 1.203-1.048-2-.104-2.2-.473-5.326-.82-6.947-.348-1.621-.523 41.23-.39 95.224M224.612 556.819c-.279.451.755.634 2.296.408 2.144-.315 3.305.229 4.947 2.316L234 562.27l.074 95.115c.041 52.313.435 97.14.875 99.615.44 2.475.857-40.102.926-94.615L236 563.27l-2.216-2.885c-1.218-1.587-2.681-3.216-3.25-3.62-1.4-.995-5.296-.959-5.922.054M137.274 436.5c-.004 48.95.344 86.75.772 84 1.004-6.445 1-160.236-.004-167.5-.418-3.025-.764 34.55-.768 83.5" fill="#B06630FE" stroke="#B06630FE"/><path d="M185.75 597.583c-1.183 1.184-.93 128.188.257 128.921.674.417.922-20.97.75-64.524-.141-35.831-.594-64.809-1.007-64.397" fill="#B85404FE" stroke="#B85404FE"/><path d="M418.25 592.25c.229.688.904 1.25 1.5 1.25s1.458.375 1.917.833c.458.458 1.062 49.058 1.342 108l.509 107.167.241-107.25c.238-106.08.219-107.272-1.759-109.25-2.236-2.236-4.389-2.666-3.75-.75M591.5 592.575c-1.978 1.494-2 2.694-2.022 110.218l-.022 108.707.522-108.339.522-108.338 2.361-1.912c2.776-2.248 1.565-2.547-1.361-.336" fill="#B06630FE" stroke="#B06630FE"/></svg>