<svg version="1.0" xmlns="http://www.w3.org/2000/svg" width="562pt" height="548pt" viewBox="0 0 562 548"><path d="M297 288.564c0 .31 1.113 2.998 2.474 5.973 1.361 2.976 2.773 6.659 3.138 8.186.365 1.528.988 3.227 1.385 3.777.397.55 1.538 3.25 2.535 6 .997 2.75 2.116 5.45 2.487 6 .371.55 2.374 5.5 4.452 11s4.443 11.575 5.256 13.5l2.322 5.5c.465 1.1 2.258 5.6 3.985 10 3.367 8.582 3.873 9.844 6.412 16 2.747 6.662 3.078 6.973 8.162 7.677 6.05.837 15.22 2.779 17.892 3.788 1.1.415 4.7 1.584 8 2.598 6.897 2.119 5.791 1.649 19.554 8.302 10.173 4.918 17.545 9.258 23.07 13.582a133.964 133.964 0 0 0 5.5 4.027c2.974 2.041 23.592 22.396 26.548 26.21.92 1.187 2.155 3.058 2.744 4.159.589 1.101 1.65 2.599 2.358 3.329 6.146 6.34 19.796 34.301 22.616 46.328.516 2.2 1.628 6.475 2.472 9.5.844 3.025 2.331 12.138 3.303 20.25l1.769 14.75H547V288H422c-68.75 0-125 .254-125 .564M13 413.5V539h73l.071-3.25c.141-6.44 1.856-20.4 3.409-27.75.872-4.125 1.852-8.85 2.178-10.5.326-1.65.935-3.45 1.352-4 .418-.55 1.093-2.56 1.502-4.467.408-1.907 1.083-4.157 1.498-5 .416-.843 1.222-2.658 1.791-4.033 4.136-9.998 15.43-30.522 18.16-33 .303-.275 2.452-3.057 4.775-6.181 7.46-10.032 22.299-24.151 32.264-30.699 3.025-1.988 5.725-3.885 6-4.216.456-.548 6.758-4.21 13-7.553 1.375-.736 3.063-1.341 3.75-1.345.688-.003 1.252-.343 1.254-.756.002-.412 2.139-1.585 4.75-2.606 2.61-1.021 6.096-2.44 7.746-3.155 1.65-.715 5.025-1.842 7.5-2.504 2.475-.663 5.4-1.551 6.5-1.973 1.867-.716 7.636-2.054 15.25-3.538 1.788-.348 3.25-.767 3.25-.931 0-.565-3.125-8.051-5.561-13.32-1.341-2.903-2.439-5.477-2.439-5.721 0-.243-1.151-3.044-2.557-6.222-3.339-7.547-5.137-11.701-8.781-20.28-.818-1.925-2.876-6.549-4.575-10.275-1.698-3.726-3.087-7.033-3.087-7.349 0-.316-.735-2.217-1.633-4.225-3.982-8.907-5.328-11.961-7.336-16.651-1.177-2.75-2.642-6.012-3.255-7.25l-1.114-2.25H13v125.5M358 58c0 .55-.639 1-1.42 1-.781 0-3.779 3.263-6.664 7.25-2.884 3.988-5.553 7.475-5.93 7.75-.377.275-.866.994-1.086 1.597-1.235 3.385-11.649 16.323-13.17 16.36-.973.024-3.448-1.003-5.5-2.282-2.051-1.279-7.105-4.155-11.23-6.39-4.125-2.235-10.2-5.589-13.5-7.453-11.014-6.222-16.395-6.859-57.785-6.845-31.013.011-37.145.249-39.077 1.514-1.26.826-4.73 4.538-7.71 8.25-2.981 3.712-5.872 7.232-6.424 7.823-.552.591-2.014 2.391-3.248 4-8.11 10.577-12.542 16.144-16.326 20.506-4.44 5.121-3.216 15.071 2.239 18.202 3.811 2.187 9.676 2.202 12.858.033 2.907-1.982 3.265-2.4 18.466-21.565L214.192 93h11.904c8.094 0 11.904.357 11.904 1.116 0 .614-1.526 3.201-3.392 5.75-1.866 2.549-5.648 8.047-8.405 12.218-2.758 4.171-5.619 8.24-6.358 9.042-1.905 2.065-3.804 5.079-4.491 7.124-.323.963-.882 1.75-1.243 1.75-.361 0-1.504 1.575-2.541 3.5s-2.212 3.5-2.611 3.5-.99.788-1.313 1.75c-.586 1.743-2.674 5.299-3.67 6.25-2.235 2.132-5.976 11.842-5.976 15.509 0 3.923.743 6.215 5.673 17.489a479.366 479.366 0 0 1 2.366 5.502c.459 1.1 2.231 5.109 3.939 8.909 1.707 3.8 2.748 7.262 2.313 7.693-.435.432-16.766.923-36.291 1.092-27.748.239-36.046.606-38 1.678-3.96 2.174-8 6.343-8 8.256 0 .965-.45 2.032-1 2.372-3.472 2.146 1.687 13.884 7.574 17.234 3.92 2.23 4.004 2.233 54.426 2.233 50.438 0 50.505-.003 54.371-2.233 6.286-3.628 10.251-12.593 7.74-17.498-.489-.955-1.58-3.311-2.425-5.236-.844-1.925-2.694-6.1-4.11-9.277-1.417-3.178-2.576-6.131-2.576-6.563 0-.431-.918-2.683-2.039-5.005-1.121-2.321-1.77-4.655-1.441-5.187.361-.585 11.234-.968 27.469-.968h26.871l3.444 7.25c1.893 3.988 4.896 10.4 6.672 14.25 1.776 3.85 5.175 11.05 7.555 16 2.379 4.95 4.632 10.238 5.006 11.75.374 1.513 1.081 2.75 1.571 2.75.491 0 .892.477.892 1.059 0 1.373 8.152 18.119 9.483 19.482 6.068 6.21 16.726 6.188 23.137-.049 2.043-1.987 4.38-7.354 4.38-10.058 0-3.188-3.149-12.434-4.235-12.434-.421 0-.765-.417-.765-.927 0-.883-3.756-9.338-10.091-22.716-1.6-3.379-2.909-6.641-2.909-7.25s-.45-1.107-1-1.107-1-.417-1-.927-1.516-4.222-3.369-8.25a3105.148 3105.148 0 0 1-6.089-13.323c-8.777-19.371-10.653-22.374-15.449-24.737-4.145-2.042-6.298-2.293-22.093-2.575-9.625-.171-17.847-.653-18.271-1.071-.753-.741 4.774-9.29 6.434-9.95.46-.184.837-.723.837-1.198 0-.476 4.989-7.881 11.086-16.457 12.242-17.217 11.446-16.724 19.144-11.866 2.052 1.295 4.152 2.354 4.667 2.354.515 0 1.086.338 1.27.75.608 1.369 16.623 9.25 18.796 9.25 4.026 0 7.796-2.931 13.139-10.212 2.941-4.009 5.618-7.513 5.948-7.788.33-.275 1.451-1.962 2.491-3.75 1.04-1.787 2.243-3.25 2.675-3.25.431 0 .784-.499.784-1.108 0-.61 2.155-3.872 4.789-7.25C371.946 77.178 374 73.415 374 68.926c0-4.431-3.083-9.926-5.568-9.926-.788 0-1.432-.45-1.432-1s-2.025-1-4.5-1-4.5.45-4.5 1M277 11.685c-7.957 1.379-18.081 9.969-19.375 16.438-1.166 5.832-.659 15.003 1.026 18.554 2.247 4.736 8.052 10.529 12.633 12.607 2.333 1.058 6.278 1.716 10.29 1.716 9.012 0 14.022-2.688 21.093-11.314 1.685-2.056 3.322-8.552 3.322-13.186 0-4.2-1.727-11.647-2.899-12.5-.377-.275-1.644-1.873-2.815-3.551-4.009-5.748-15.567-10.1-23.275-8.764" fill="#000000FF" stroke="#000000FF"/></svg>